<?xml version="1.0" encoding="utf-8"?>
<svg xmlns="http://www.w3.org/2000/svg" xmlns:xlink="http://www.w3.org/1999/xlink" width="600" height="400" viewBox="0 0 2400 1600">
<defs>
  <clipPath id="clip900">
    <rect x="0" y="0" width="2400" height="1600"/>
  </clipPath>
</defs>
<path clip-path="url(#clip900)" d="M0 1600 L2400 1600 L2400 0 L0 0  Z" fill="#ffffff" fill-rule="evenodd" fill-opacity="1"/>
<defs>
  <clipPath id="clip901">
    <rect x="480" y="0" width="1681" height="1600"/>
  </clipPath>
</defs>
<path clip-path="url(#clip900)" d="M219.38 1423.18 L2352.76 1423.18 L2352.76 123.472 L219.38 123.472  Z" fill="#ffffff" fill-rule="evenodd" fill-opacity="1"/>
<defs>
  <clipPath id="clip902">
    <rect x="219" y="123" width="2134" height="1301"/>
  </clipPath>
</defs>
<polyline clip-path="url(#clip902)" style="stroke:#000000; stroke-linecap:round; stroke-linejoin:round; stroke-width:2; stroke-opacity:0.1; fill:none" points="647.141,1423.18 647.141,123.472 "/>
<polyline clip-path="url(#clip902)" style="stroke:#000000; stroke-linecap:round; stroke-linejoin:round; stroke-width:2; stroke-opacity:0.1; fill:none" points="1924.99,1423.18 1924.99,123.472 "/>
<polyline clip-path="url(#clip900)" style="stroke:#000000; stroke-linecap:round; stroke-linejoin:round; stroke-width:4; stroke-opacity:1; fill:none" points="219.38,1423.18 2352.76,1423.18 "/>
<polyline clip-path="url(#clip900)" style="stroke:#000000; stroke-linecap:round; stroke-linejoin:round; stroke-width:4; stroke-opacity:1; fill:none" points="647.141,1423.18 647.141,1404.28 "/>
<polyline clip-path="url(#clip900)" style="stroke:#000000; stroke-linecap:round; stroke-linejoin:round; stroke-width:4; stroke-opacity:1; fill:none" points="1924.99,1423.18 1924.99,1404.28 "/>
<path clip-path="url(#clip900)" d="M647.141 1454.1 Q643.53 1454.1 641.702 1457.66 Q639.896 1461.2 639.896 1468.33 Q639.896 1475.44 641.702 1479.01 Q643.53 1482.55 647.141 1482.55 Q650.776 1482.55 652.581 1479.01 Q654.41 1475.44 654.41 1468.33 Q654.41 1461.2 652.581 1457.66 Q650.776 1454.1 647.141 1454.1 M647.141 1450.39 Q652.952 1450.39 656.007 1455 Q659.086 1459.58 659.086 1468.33 Q659.086 1477.06 656.007 1481.67 Q652.952 1486.25 647.141 1486.25 Q641.331 1486.25 638.253 1481.67 Q635.197 1477.06 635.197 1468.33 Q635.197 1459.58 638.253 1455 Q641.331 1450.39 647.141 1450.39 Z" fill="#000000" fill-rule="nonzero" fill-opacity="1" /><path clip-path="url(#clip900)" d="M1915.38 1481.64 L1923.02 1481.64 L1923.02 1455.28 L1914.71 1456.95 L1914.71 1452.69 L1922.97 1451.02 L1927.65 1451.02 L1927.65 1481.64 L1935.28 1481.64 L1935.28 1485.58 L1915.38 1485.58 L1915.38 1481.64 Z" fill="#000000" fill-rule="nonzero" fill-opacity="1" /><path clip-path="url(#clip900)" d="M695.283 1520.52 L703.94 1520.52 L725.011 1560.28 L725.011 1520.52 L731.249 1520.52 L731.249 1568.04 L722.592 1568.04 L701.521 1528.29 L701.521 1568.04 L695.283 1568.04 L695.283 1520.52 Z" fill="#000000" fill-rule="nonzero" fill-opacity="1" /><path clip-path="url(#clip900)" d="M743.185 1553.98 L743.185 1532.4 L749.041 1532.4 L749.041 1553.75 Q749.041 1558.81 751.014 1561.36 Q752.988 1563.87 756.935 1563.87 Q761.677 1563.87 764.414 1560.85 Q767.183 1557.83 767.183 1552.61 L767.183 1532.4 L773.04 1532.4 L773.04 1568.04 L767.183 1568.04 L767.183 1562.57 Q765.051 1565.82 762.218 1567.41 Q759.417 1568.97 755.693 1568.97 Q749.55 1568.97 746.368 1565.15 Q743.185 1561.33 743.185 1553.98 M757.921 1531.54 L757.921 1531.54 Z" fill="#000000" fill-rule="nonzero" fill-opacity="1" /><path clip-path="url(#clip900)" d="M812.857 1539.24 Q815.053 1535.29 818.109 1533.41 Q821.165 1531.54 825.302 1531.54 Q830.872 1531.54 833.896 1535.45 Q836.92 1539.33 836.92 1546.53 L836.92 1568.04 L831.031 1568.04 L831.031 1546.72 Q831.031 1541.59 829.217 1539.11 Q827.403 1536.63 823.679 1536.63 Q819.128 1536.63 816.486 1539.65 Q813.844 1542.68 813.844 1547.9 L813.844 1568.04 L807.956 1568.04 L807.956 1546.72 Q807.956 1541.56 806.141 1539.11 Q804.327 1536.63 800.54 1536.63 Q796.052 1536.63 793.41 1539.68 Q790.768 1542.71 790.768 1547.9 L790.768 1568.04 L784.88 1568.04 L784.88 1532.4 L790.768 1532.4 L790.768 1537.93 Q792.774 1534.66 795.574 1533.1 Q798.375 1531.54 802.227 1531.54 Q806.11 1531.54 808.815 1533.51 Q811.552 1535.48 812.857 1539.24 Z" fill="#000000" fill-rule="nonzero" fill-opacity="1" /><path clip-path="url(#clip900)" d="M874.191 1550.25 Q874.191 1543.79 871.517 1540.13 Q868.876 1536.44 864.229 1536.44 Q859.582 1536.44 856.908 1540.13 Q854.266 1543.79 854.266 1550.25 Q854.266 1556.71 856.908 1560.4 Q859.582 1564.07 864.229 1564.07 Q868.876 1564.07 871.517 1560.4 Q874.191 1556.71 874.191 1550.25 M854.266 1537.81 Q856.112 1534.62 858.913 1533.1 Q861.746 1531.54 865.661 1531.54 Q872.154 1531.54 876.196 1536.69 Q880.27 1541.85 880.27 1550.25 Q880.27 1558.65 876.196 1563.81 Q872.154 1568.97 865.661 1568.97 Q861.746 1568.97 858.913 1567.44 Q856.112 1565.88 854.266 1562.7 L854.266 1568.04 L848.378 1568.04 L848.378 1518.52 L854.266 1518.52 L854.266 1537.81 Z" fill="#000000" fill-rule="nonzero" fill-opacity="1" /><path clip-path="url(#clip900)" d="M920.47 1548.76 L920.47 1551.62 L893.543 1551.62 Q893.925 1557.67 897.171 1560.85 Q900.449 1564 906.274 1564 Q909.648 1564 912.799 1563.17 Q915.982 1562.35 919.101 1560.69 L919.101 1566.23 Q915.95 1567.57 912.64 1568.27 Q909.33 1568.97 905.924 1568.97 Q897.394 1568.97 892.397 1564 Q887.432 1559.04 887.432 1550.57 Q887.432 1541.82 892.142 1536.69 Q896.885 1531.54 904.905 1531.54 Q912.099 1531.54 916.268 1536.18 Q920.47 1540.8 920.47 1548.76 M914.613 1547.04 Q914.549 1542.23 911.908 1539.37 Q909.298 1536.5 904.969 1536.5 Q900.067 1536.5 897.107 1539.27 Q894.179 1542.04 893.734 1547.07 L914.613 1547.04 Z" fill="#000000" fill-rule="nonzero" fill-opacity="1" /><path clip-path="url(#clip900)" d="M950.739 1537.87 Q949.752 1537.3 948.574 1537.04 Q947.428 1536.76 946.028 1536.76 Q941.063 1536.76 938.389 1540 Q935.747 1543.22 935.747 1549.27 L935.747 1568.04 L929.859 1568.04 L929.859 1532.4 L935.747 1532.4 L935.747 1537.93 Q937.593 1534.69 940.553 1533.13 Q943.513 1531.54 947.747 1531.54 Q948.351 1531.54 949.083 1531.63 Q949.815 1531.7 950.707 1531.85 L950.739 1537.87 Z" fill="#000000" fill-rule="nonzero" fill-opacity="1" /><path clip-path="url(#clip900)" d="M991.415 1536.5 Q986.705 1536.5 983.968 1540.19 Q981.23 1543.85 981.23 1550.25 Q981.23 1556.65 983.936 1560.34 Q986.673 1564 991.415 1564 Q996.094 1564 998.831 1560.31 Q1001.57 1556.62 1001.57 1550.25 Q1001.57 1543.92 998.831 1540.23 Q996.094 1536.5 991.415 1536.5 M991.415 1531.54 Q999.054 1531.54 1003.41 1536.5 Q1007.78 1541.47 1007.78 1550.25 Q1007.78 1559 1003.41 1564 Q999.054 1568.97 991.415 1568.97 Q983.745 1568.97 979.384 1564 Q975.056 1559 975.056 1550.25 Q975.056 1541.47 979.384 1536.5 Q983.745 1531.54 991.415 1531.54 Z" fill="#000000" fill-rule="nonzero" fill-opacity="1" /><path clip-path="url(#clip900)" d="M1035.53 1518.52 L1035.53 1523.39 L1029.93 1523.39 Q1026.78 1523.39 1025.54 1524.66 Q1024.33 1525.93 1024.33 1529.24 L1024.33 1532.4 L1033.97 1532.4 L1033.97 1536.95 L1024.33 1536.95 L1024.33 1568.04 L1018.44 1568.04 L1018.44 1536.95 L1012.84 1536.95 L1012.84 1532.4 L1018.44 1532.4 L1018.44 1529.91 Q1018.44 1523.96 1021.21 1521.26 Q1023.98 1518.52 1029.99 1518.52 L1035.53 1518.52 Z" fill="#000000" fill-rule="nonzero" fill-opacity="1" /><path clip-path="url(#clip900)" d="M1066.82 1562.7 L1066.82 1581.6 L1060.93 1581.6 L1060.93 1532.4 L1066.82 1532.4 L1066.82 1537.81 Q1068.66 1534.62 1071.46 1533.1 Q1074.3 1531.54 1078.21 1531.54 Q1084.7 1531.54 1088.75 1536.69 Q1092.82 1541.85 1092.82 1550.25 Q1092.82 1558.65 1088.75 1563.81 Q1084.7 1568.97 1078.21 1568.97 Q1074.3 1568.97 1071.46 1567.44 Q1068.66 1565.88 1066.82 1562.7 M1086.74 1550.25 Q1086.74 1543.79 1084.07 1540.13 Q1081.43 1536.44 1076.78 1536.44 Q1072.13 1536.44 1069.46 1540.13 Q1066.82 1543.79 1066.82 1550.25 Q1066.82 1556.71 1069.46 1560.4 Q1072.13 1564.07 1076.78 1564.07 Q1081.43 1564.07 1084.07 1560.4 Q1086.74 1556.71 1086.74 1550.25 Z" fill="#000000" fill-rule="nonzero" fill-opacity="1" /><path clip-path="url(#clip900)" d="M1118.73 1550.12 Q1111.63 1550.12 1108.89 1551.75 Q1106.16 1553.37 1106.16 1557.29 Q1106.16 1560.4 1108.19 1562.25 Q1110.26 1564.07 1113.8 1564.07 Q1118.67 1564.07 1121.59 1560.63 Q1124.55 1557.16 1124.55 1551.43 L1124.55 1550.12 L1118.73 1550.12 M1130.41 1547.71 L1130.41 1568.04 L1124.55 1568.04 L1124.55 1562.63 Q1122.55 1565.88 1119.56 1567.44 Q1116.57 1568.97 1112.24 1568.97 Q1106.76 1568.97 1103.52 1565.91 Q1100.3 1562.82 1100.3 1557.67 Q1100.3 1551.65 1104.31 1548.6 Q1108.35 1545.54 1116.34 1545.54 L1124.55 1545.54 L1124.55 1544.97 Q1124.55 1540.93 1121.88 1538.73 Q1119.24 1536.5 1114.43 1536.5 Q1111.38 1536.5 1108.48 1537.23 Q1105.58 1537.97 1102.91 1539.43 L1102.91 1534.02 Q1106.13 1532.78 1109.15 1532.17 Q1112.17 1531.54 1115.04 1531.54 Q1122.77 1531.54 1126.59 1535.55 Q1130.41 1539.56 1130.41 1547.71 Z" fill="#000000" fill-rule="nonzero" fill-opacity="1" /><path clip-path="url(#clip900)" d="M1163.13 1537.87 Q1162.14 1537.3 1160.97 1537.04 Q1159.82 1536.76 1158.42 1536.76 Q1153.45 1536.76 1150.78 1540 Q1148.14 1543.22 1148.14 1549.27 L1148.14 1568.04 L1142.25 1568.04 L1142.25 1532.4 L1148.14 1532.4 L1148.14 1537.93 Q1149.99 1534.69 1152.95 1533.13 Q1155.91 1531.54 1160.14 1531.54 Q1160.74 1531.54 1161.48 1531.63 Q1162.21 1531.7 1163.1 1531.85 L1163.13 1537.87 Z" fill="#000000" fill-rule="nonzero" fill-opacity="1" /><path clip-path="url(#clip900)" d="M1175.07 1522.27 L1175.07 1532.4 L1187.13 1532.4 L1187.13 1536.95 L1175.07 1536.95 L1175.07 1556.3 Q1175.07 1560.66 1176.24 1561.9 Q1177.45 1563.14 1181.11 1563.14 L1187.13 1563.14 L1187.13 1568.04 L1181.11 1568.04 Q1174.33 1568.04 1171.76 1565.53 Q1169.18 1562.98 1169.18 1556.3 L1169.18 1536.95 L1164.88 1536.95 L1164.88 1532.4 L1169.18 1532.4 L1169.18 1522.27 L1175.07 1522.27 Z" fill="#000000" fill-rule="nonzero" fill-opacity="1" /><path clip-path="url(#clip900)" d="M1224.46 1546.53 L1224.46 1568.04 L1218.61 1568.04 L1218.61 1546.72 Q1218.61 1541.66 1216.63 1539.14 Q1214.66 1536.63 1210.71 1536.63 Q1205.97 1536.63 1203.23 1539.65 Q1200.5 1542.68 1200.5 1547.9 L1200.5 1568.04 L1194.61 1568.04 L1194.61 1532.4 L1200.5 1532.4 L1200.5 1537.93 Q1202.6 1534.72 1205.43 1533.13 Q1208.3 1531.54 1212.02 1531.54 Q1218.16 1531.54 1221.31 1535.36 Q1224.46 1539.14 1224.46 1546.53 Z" fill="#000000" fill-rule="nonzero" fill-opacity="1" /><path clip-path="url(#clip900)" d="M1266.64 1548.76 L1266.64 1551.62 L1239.71 1551.62 Q1240.09 1557.67 1243.34 1560.85 Q1246.62 1564 1252.44 1564 Q1255.82 1564 1258.97 1563.17 Q1262.15 1562.35 1265.27 1560.69 L1265.27 1566.23 Q1262.12 1567.57 1258.81 1568.27 Q1255.5 1568.97 1252.09 1568.97 Q1243.56 1568.97 1238.56 1564 Q1233.6 1559.04 1233.6 1550.57 Q1233.6 1541.82 1238.31 1536.69 Q1243.05 1531.54 1251.07 1531.54 Q1258.27 1531.54 1262.44 1536.18 Q1266.64 1540.8 1266.64 1548.76 M1260.78 1547.04 Q1260.72 1542.23 1258.07 1539.37 Q1255.46 1536.5 1251.14 1536.5 Q1246.23 1536.5 1243.27 1539.27 Q1240.35 1542.04 1239.9 1547.07 L1260.78 1547.04 Z" fill="#000000" fill-rule="nonzero" fill-opacity="1" /><path clip-path="url(#clip900)" d="M1296.91 1537.87 Q1295.92 1537.3 1294.74 1537.04 Q1293.6 1536.76 1292.2 1536.76 Q1287.23 1536.76 1284.56 1540 Q1281.91 1543.22 1281.91 1549.27 L1281.91 1568.04 L1276.03 1568.04 L1276.03 1532.4 L1281.91 1532.4 L1281.91 1537.93 Q1283.76 1534.69 1286.72 1533.13 Q1289.68 1531.54 1293.91 1531.54 Q1294.52 1531.54 1295.25 1531.63 Q1295.98 1531.7 1296.87 1531.85 L1296.91 1537.87 Z" fill="#000000" fill-rule="nonzero" fill-opacity="1" /><path clip-path="url(#clip900)" d="M1325.77 1533.45 L1325.77 1538.98 Q1323.29 1537.71 1320.62 1537.07 Q1317.94 1536.44 1315.08 1536.44 Q1310.72 1536.44 1308.52 1537.77 Q1306.36 1539.11 1306.36 1541.79 Q1306.36 1543.82 1307.92 1545 Q1309.48 1546.15 1314.19 1547.2 L1316.19 1547.64 Q1322.43 1548.98 1325.04 1551.43 Q1327.68 1553.85 1327.68 1558.21 Q1327.68 1563.17 1323.74 1566.07 Q1319.82 1568.97 1312.95 1568.97 Q1310.08 1568.97 1306.96 1568.39 Q1303.88 1567.85 1300.44 1566.74 L1300.44 1560.69 Q1303.69 1562.38 1306.84 1563.24 Q1309.99 1564.07 1313.07 1564.07 Q1317.21 1564.07 1319.44 1562.66 Q1321.67 1561.23 1321.67 1558.65 Q1321.67 1556.27 1320.04 1554.99 Q1318.45 1553.72 1313.01 1552.54 L1310.97 1552.07 Q1305.53 1550.92 1303.11 1548.56 Q1300.69 1546.18 1300.69 1542.04 Q1300.69 1537.01 1304.26 1534.27 Q1307.82 1531.54 1314.38 1531.54 Q1317.63 1531.54 1320.49 1532.01 Q1323.36 1532.49 1325.77 1533.45 Z" fill="#000000" fill-rule="nonzero" fill-opacity="1" /><path clip-path="url(#clip900)" d="M1371.8 1518.58 Q1367.53 1525.9 1365.46 1533.06 Q1363.4 1540.23 1363.4 1547.58 Q1363.4 1554.93 1365.46 1562.16 Q1367.56 1569.35 1371.8 1576.64 L1366.71 1576.64 Q1361.93 1569.16 1359.54 1561.93 Q1357.19 1554.71 1357.19 1547.58 Q1357.19 1540.48 1359.54 1533.29 Q1361.9 1526.09 1366.71 1518.58 L1371.8 1518.58 Z" fill="#000000" fill-rule="nonzero" fill-opacity="1" /><path clip-path="url(#clip900)" d="M1396.97 1536.5 Q1392.26 1536.5 1389.53 1540.19 Q1386.79 1543.85 1386.79 1550.25 Q1386.79 1556.65 1389.49 1560.34 Q1392.23 1564 1396.97 1564 Q1401.65 1564 1404.39 1560.31 Q1407.13 1556.62 1407.13 1550.25 Q1407.13 1543.92 1404.39 1540.23 Q1401.65 1536.5 1396.97 1536.5 M1396.97 1531.54 Q1404.61 1531.54 1408.97 1536.5 Q1413.33 1541.47 1413.33 1550.25 Q1413.33 1559 1408.97 1564 Q1404.61 1568.97 1396.97 1568.97 Q1389.3 1568.97 1384.94 1564 Q1380.61 1559 1380.61 1550.25 Q1380.61 1541.47 1384.94 1536.5 Q1389.3 1531.54 1396.97 1531.54 Z" fill="#000000" fill-rule="nonzero" fill-opacity="1" /><path clip-path="url(#clip900)" d="M1452.67 1546.53 L1452.67 1568.04 L1446.82 1568.04 L1446.82 1546.72 Q1446.82 1541.66 1444.84 1539.14 Q1442.87 1536.63 1438.92 1536.63 Q1434.18 1536.63 1431.44 1539.65 Q1428.71 1542.68 1428.71 1547.9 L1428.71 1568.04 L1422.82 1568.04 L1422.82 1532.4 L1428.71 1532.4 L1428.71 1537.93 Q1430.81 1534.72 1433.64 1533.13 Q1436.51 1531.54 1440.23 1531.54 Q1446.37 1531.54 1449.52 1535.36 Q1452.67 1539.14 1452.67 1546.53 Z" fill="#000000" fill-rule="nonzero" fill-opacity="1" /><path clip-path="url(#clip900)" d="M1494.85 1548.76 L1494.85 1551.62 L1467.92 1551.62 Q1468.3 1557.67 1471.55 1560.85 Q1474.83 1564 1480.65 1564 Q1484.03 1564 1487.18 1563.17 Q1490.36 1562.35 1493.48 1560.69 L1493.48 1566.23 Q1490.33 1567.57 1487.02 1568.27 Q1483.71 1568.97 1480.3 1568.97 Q1471.77 1568.97 1466.77 1564 Q1461.81 1559.04 1461.81 1550.57 Q1461.81 1541.82 1466.52 1536.69 Q1471.26 1531.54 1479.28 1531.54 Q1486.48 1531.54 1490.65 1536.18 Q1494.85 1540.8 1494.85 1548.76 M1488.99 1547.04 Q1488.93 1542.23 1486.29 1539.37 Q1483.68 1536.5 1479.35 1536.5 Q1474.45 1536.5 1471.49 1539.27 Q1468.56 1542.04 1468.11 1547.07 L1488.99 1547.04 Z" fill="#000000" fill-rule="nonzero" fill-opacity="1" /><path clip-path="url(#clip900)" d="M1530.85 1562.7 L1530.85 1581.6 L1524.96 1581.6 L1524.96 1532.4 L1530.85 1532.4 L1530.85 1537.81 Q1532.69 1534.62 1535.49 1533.1 Q1538.33 1531.54 1542.24 1531.54 Q1548.73 1531.54 1552.78 1536.69 Q1556.85 1541.85 1556.85 1550.25 Q1556.85 1558.65 1552.78 1563.81 Q1548.73 1568.97 1542.24 1568.97 Q1538.33 1568.97 1535.49 1567.44 Q1532.69 1565.88 1530.85 1562.7 M1550.77 1550.25 Q1550.77 1543.79 1548.1 1540.13 Q1545.45 1536.44 1540.81 1536.44 Q1536.16 1536.44 1533.49 1540.13 Q1530.85 1543.79 1530.85 1550.25 Q1530.85 1556.71 1533.49 1560.4 Q1536.16 1564.07 1540.81 1564.07 Q1545.45 1564.07 1548.1 1560.4 Q1550.77 1556.71 1550.77 1550.25 Z" fill="#000000" fill-rule="nonzero" fill-opacity="1" /><path clip-path="url(#clip900)" d="M1582.76 1550.12 Q1575.66 1550.12 1572.92 1551.75 Q1570.19 1553.37 1570.19 1557.29 Q1570.19 1560.4 1572.22 1562.25 Q1574.29 1564.07 1577.82 1564.07 Q1582.69 1564.07 1585.62 1560.63 Q1588.58 1557.16 1588.58 1551.43 L1588.58 1550.12 L1582.76 1550.12 M1594.44 1547.71 L1594.44 1568.04 L1588.58 1568.04 L1588.58 1562.63 Q1586.58 1565.88 1583.59 1567.44 Q1580.59 1568.97 1576.26 1568.97 Q1570.79 1568.97 1567.54 1565.91 Q1564.33 1562.82 1564.33 1557.67 Q1564.33 1551.65 1568.34 1548.6 Q1572.38 1545.54 1580.37 1545.54 L1588.58 1545.54 L1588.58 1544.97 Q1588.58 1540.93 1585.91 1538.73 Q1583.27 1536.5 1578.46 1536.5 Q1575.41 1536.5 1572.51 1537.23 Q1569.61 1537.97 1566.94 1539.43 L1566.94 1534.02 Q1570.15 1532.78 1573.18 1532.17 Q1576.2 1531.54 1579.07 1531.54 Q1586.8 1531.54 1590.62 1535.55 Q1594.44 1539.56 1594.44 1547.71 Z" fill="#000000" fill-rule="nonzero" fill-opacity="1" /><path clip-path="url(#clip900)" d="M1627.16 1537.87 Q1626.17 1537.3 1624.99 1537.04 Q1623.85 1536.76 1622.45 1536.76 Q1617.48 1536.76 1614.81 1540 Q1612.17 1543.22 1612.17 1549.27 L1612.17 1568.04 L1606.28 1568.04 L1606.28 1532.4 L1612.17 1532.4 L1612.17 1537.93 Q1614.01 1534.69 1616.97 1533.13 Q1619.93 1531.54 1624.17 1531.54 Q1624.77 1531.54 1625.5 1531.63 Q1626.24 1531.7 1627.13 1531.85 L1627.16 1537.87 Z" fill="#000000" fill-rule="nonzero" fill-opacity="1" /><path clip-path="url(#clip900)" d="M1639.09 1522.27 L1639.09 1532.4 L1651.16 1532.4 L1651.16 1536.95 L1639.09 1536.95 L1639.09 1556.3 Q1639.09 1560.66 1640.27 1561.9 Q1641.48 1563.14 1645.14 1563.14 L1651.16 1563.14 L1651.16 1568.04 L1645.14 1568.04 Q1638.36 1568.04 1635.78 1565.53 Q1633.21 1562.98 1633.21 1556.3 L1633.21 1536.95 L1628.91 1536.95 L1628.91 1532.4 L1633.21 1532.4 L1633.21 1522.27 L1639.09 1522.27 Z" fill="#000000" fill-rule="nonzero" fill-opacity="1" /><path clip-path="url(#clip900)" d="M1688.49 1546.53 L1688.49 1568.04 L1682.64 1568.04 L1682.64 1546.72 Q1682.64 1541.66 1680.66 1539.14 Q1678.69 1536.63 1674.74 1536.63 Q1670 1536.63 1667.26 1539.65 Q1664.53 1542.68 1664.53 1547.9 L1664.53 1568.04 L1658.64 1568.04 L1658.64 1532.4 L1664.53 1532.4 L1664.53 1537.93 Q1666.63 1534.72 1669.46 1533.13 Q1672.32 1531.54 1676.05 1531.54 Q1682.19 1531.54 1685.34 1535.36 Q1688.49 1539.14 1688.49 1546.53 Z" fill="#000000" fill-rule="nonzero" fill-opacity="1" /><path clip-path="url(#clip900)" d="M1730.66 1548.76 L1730.66 1551.62 L1703.74 1551.62 Q1704.12 1557.67 1707.37 1560.85 Q1710.64 1564 1716.47 1564 Q1719.84 1564 1722.99 1563.17 Q1726.18 1562.35 1729.3 1560.69 L1729.3 1566.23 Q1726.15 1567.57 1722.84 1568.27 Q1719.52 1568.97 1716.12 1568.97 Q1707.59 1568.97 1702.59 1564 Q1697.63 1559.04 1697.63 1550.57 Q1697.63 1541.82 1702.34 1536.69 Q1707.08 1531.54 1715.1 1531.54 Q1722.29 1531.54 1726.46 1536.18 Q1730.66 1540.8 1730.66 1548.76 M1724.81 1547.04 Q1724.74 1542.23 1722.1 1539.37 Q1719.49 1536.5 1715.16 1536.5 Q1710.26 1536.5 1707.3 1539.27 Q1704.37 1542.04 1703.93 1547.07 L1724.81 1547.04 Z" fill="#000000" fill-rule="nonzero" fill-opacity="1" /><path clip-path="url(#clip900)" d="M1760.93 1537.87 Q1759.95 1537.3 1758.77 1537.04 Q1757.62 1536.76 1756.22 1536.76 Q1751.26 1536.76 1748.58 1540 Q1745.94 1543.22 1745.94 1549.27 L1745.94 1568.04 L1740.05 1568.04 L1740.05 1532.4 L1745.94 1532.4 L1745.94 1537.93 Q1747.79 1534.69 1750.75 1533.13 Q1753.71 1531.54 1757.94 1531.54 Q1758.55 1531.54 1759.28 1531.63 Q1760.01 1531.7 1760.9 1531.85 L1760.93 1537.87 Z" fill="#000000" fill-rule="nonzero" fill-opacity="1" /><path clip-path="url(#clip900)" d="M1767.84 1538.44 L1808.64 1538.44 L1808.64 1543.79 L1767.84 1543.79 L1767.84 1538.44 M1767.84 1551.43 L1808.64 1551.43 L1808.64 1556.84 L1767.84 1556.84 L1767.84 1551.43 Z" fill="#000000" fill-rule="nonzero" fill-opacity="1" /><path clip-path="url(#clip900)" d="M1823.64 1562.63 L1834.14 1562.63 L1834.14 1526.38 L1822.71 1528.67 L1822.71 1522.82 L1834.08 1520.52 L1840.51 1520.52 L1840.51 1562.63 L1851.01 1562.63 L1851.01 1568.04 L1823.64 1568.04 L1823.64 1562.63 Z" fill="#000000" fill-rule="nonzero" fill-opacity="1" /><path clip-path="url(#clip900)" d="M1862.24 1518.58 L1867.34 1518.58 Q1872.11 1526.09 1874.47 1533.29 Q1876.85 1540.48 1876.85 1547.58 Q1876.85 1554.71 1874.47 1561.93 Q1872.11 1569.16 1867.34 1576.64 L1862.24 1576.64 Q1866.48 1569.35 1868.55 1562.16 Q1870.65 1554.93 1870.65 1547.58 Q1870.65 1540.23 1868.55 1533.06 Q1866.48 1525.9 1862.24 1518.58 Z" fill="#000000" fill-rule="nonzero" fill-opacity="1" /><polyline clip-path="url(#clip902)" style="stroke:#000000; stroke-linecap:round; stroke-linejoin:round; stroke-width:2; stroke-opacity:0.1; fill:none" points="219.38,1423.18 2352.76,1423.18 "/>
<polyline clip-path="url(#clip902)" style="stroke:#000000; stroke-linecap:round; stroke-linejoin:round; stroke-width:2; stroke-opacity:0.1; fill:none" points="219.38,1072.22 2352.76,1072.22 "/>
<polyline clip-path="url(#clip902)" style="stroke:#000000; stroke-linecap:round; stroke-linejoin:round; stroke-width:2; stroke-opacity:0.1; fill:none" points="219.38,721.257 2352.76,721.257 "/>
<polyline clip-path="url(#clip902)" style="stroke:#000000; stroke-linecap:round; stroke-linejoin:round; stroke-width:2; stroke-opacity:0.1; fill:none" points="219.38,370.296 2352.76,370.296 "/>
<polyline clip-path="url(#clip900)" style="stroke:#000000; stroke-linecap:round; stroke-linejoin:round; stroke-width:4; stroke-opacity:1; fill:none" points="219.38,1423.18 219.38,123.472 "/>
<polyline clip-path="url(#clip900)" style="stroke:#000000; stroke-linecap:round; stroke-linejoin:round; stroke-width:4; stroke-opacity:1; fill:none" points="219.38,1423.18 238.278,1423.18 "/>
<polyline clip-path="url(#clip900)" style="stroke:#000000; stroke-linecap:round; stroke-linejoin:round; stroke-width:4; stroke-opacity:1; fill:none" points="219.38,1072.22 238.278,1072.22 "/>
<polyline clip-path="url(#clip900)" style="stroke:#000000; stroke-linecap:round; stroke-linejoin:round; stroke-width:4; stroke-opacity:1; fill:none" points="219.38,721.257 238.278,721.257 "/>
<polyline clip-path="url(#clip900)" style="stroke:#000000; stroke-linecap:round; stroke-linejoin:round; stroke-width:4; stroke-opacity:1; fill:none" points="219.38,370.296 238.278,370.296 "/>
<path clip-path="url(#clip900)" d="M126.205 1408.98 Q122.593 1408.98 120.765 1412.54 Q118.959 1416.08 118.959 1423.21 Q118.959 1430.32 120.765 1433.89 Q122.593 1437.43 126.205 1437.43 Q129.839 1437.43 131.644 1433.89 Q133.473 1430.32 133.473 1423.21 Q133.473 1416.08 131.644 1412.54 Q129.839 1408.98 126.205 1408.98 M126.205 1405.27 Q132.015 1405.27 135.07 1409.88 Q138.149 1414.46 138.149 1423.21 Q138.149 1431.94 135.07 1436.55 Q132.015 1441.13 126.205 1441.13 Q120.394 1441.13 117.316 1436.55 Q114.26 1431.94 114.26 1423.21 Q114.26 1414.46 117.316 1409.88 Q120.394 1405.27 126.205 1405.27 Z" fill="#000000" fill-rule="nonzero" fill-opacity="1" /><path clip-path="url(#clip900)" d="M146.366 1434.58 L151.251 1434.58 L151.251 1440.46 L146.366 1440.46 L146.366 1434.58 Z" fill="#000000" fill-rule="nonzero" fill-opacity="1" /><path clip-path="url(#clip900)" d="M171.436 1408.98 Q167.825 1408.98 165.996 1412.54 Q164.19 1416.08 164.19 1423.21 Q164.19 1430.32 165.996 1433.89 Q167.825 1437.43 171.436 1437.43 Q175.07 1437.43 176.876 1433.89 Q178.704 1430.32 178.704 1423.21 Q178.704 1416.08 176.876 1412.54 Q175.07 1408.98 171.436 1408.98 M171.436 1405.27 Q177.246 1405.27 180.301 1409.88 Q183.38 1414.46 183.38 1423.21 Q183.38 1431.94 180.301 1436.55 Q177.246 1441.13 171.436 1441.13 Q165.626 1441.13 162.547 1436.55 Q159.491 1431.94 159.491 1423.21 Q159.491 1414.46 162.547 1409.88 Q165.626 1405.27 171.436 1405.27 Z" fill="#000000" fill-rule="nonzero" fill-opacity="1" /><path clip-path="url(#clip900)" d="M127.431 1058.02 Q123.82 1058.02 121.992 1061.58 Q120.186 1065.12 120.186 1072.25 Q120.186 1079.36 121.992 1082.92 Q123.82 1086.47 127.431 1086.47 Q131.066 1086.47 132.871 1082.92 Q134.7 1079.36 134.7 1072.25 Q134.7 1065.12 132.871 1061.58 Q131.066 1058.02 127.431 1058.02 M127.431 1054.31 Q133.242 1054.31 136.297 1058.92 Q139.376 1063.5 139.376 1072.25 Q139.376 1080.98 136.297 1085.59 Q133.242 1090.17 127.431 1090.17 Q121.621 1090.17 118.543 1085.59 Q115.487 1080.98 115.487 1072.25 Q115.487 1063.5 118.543 1058.92 Q121.621 1054.31 127.431 1054.31 Z" fill="#000000" fill-rule="nonzero" fill-opacity="1" /><path clip-path="url(#clip900)" d="M147.593 1083.62 L152.478 1083.62 L152.478 1089.5 L147.593 1089.5 L147.593 1083.62 Z" fill="#000000" fill-rule="nonzero" fill-opacity="1" /><path clip-path="url(#clip900)" d="M163.473 1085.56 L171.112 1085.56 L171.112 1059.2 L162.802 1060.86 L162.802 1056.61 L171.065 1054.94 L175.741 1054.94 L175.741 1085.56 L183.38 1085.56 L183.38 1089.5 L163.473 1089.5 L163.473 1085.56 Z" fill="#000000" fill-rule="nonzero" fill-opacity="1" /><path clip-path="url(#clip900)" d="M127.802 707.056 Q124.191 707.056 122.362 710.62 Q120.556 714.162 120.556 721.292 Q120.556 728.398 122.362 731.963 Q124.191 735.505 127.802 735.505 Q131.436 735.505 133.242 731.963 Q135.07 728.398 135.07 721.292 Q135.07 714.162 133.242 710.62 Q131.436 707.056 127.802 707.056 M127.802 703.352 Q133.612 703.352 136.667 707.958 Q139.746 712.542 139.746 721.292 Q139.746 730.018 136.667 734.625 Q133.612 739.208 127.802 739.208 Q121.992 739.208 118.913 734.625 Q115.857 730.018 115.857 721.292 Q115.857 712.542 118.913 707.958 Q121.992 703.352 127.802 703.352 Z" fill="#000000" fill-rule="nonzero" fill-opacity="1" /><path clip-path="url(#clip900)" d="M147.964 732.657 L152.848 732.657 L152.848 738.537 L147.964 738.537 L147.964 732.657 Z" fill="#000000" fill-rule="nonzero" fill-opacity="1" /><path clip-path="url(#clip900)" d="M167.061 734.602 L183.38 734.602 L183.38 738.537 L161.436 738.537 L161.436 734.602 Q164.098 731.847 168.681 727.218 Q173.288 722.565 174.468 721.222 Q176.714 718.699 177.593 716.963 Q178.496 715.204 178.496 713.514 Q178.496 710.759 176.551 709.023 Q174.63 707.287 171.528 707.287 Q169.329 707.287 166.876 708.051 Q164.445 708.815 161.667 710.366 L161.667 705.644 Q164.491 704.509 166.945 703.931 Q169.399 703.352 171.436 703.352 Q176.806 703.352 180.001 706.037 Q183.195 708.722 183.195 713.213 Q183.195 715.343 182.385 717.264 Q181.598 719.162 179.491 721.755 Q178.913 722.426 175.811 725.643 Q172.709 728.838 167.061 734.602 Z" fill="#000000" fill-rule="nonzero" fill-opacity="1" /><path clip-path="url(#clip900)" d="M126.853 356.094 Q123.242 356.094 121.413 359.659 Q119.607 363.201 119.607 370.33 Q119.607 377.437 121.413 381.001 Q123.242 384.543 126.853 384.543 Q130.487 384.543 132.292 381.001 Q134.121 377.437 134.121 370.33 Q134.121 363.201 132.292 359.659 Q130.487 356.094 126.853 356.094 M126.853 352.391 Q132.663 352.391 135.718 356.997 Q138.797 361.58 138.797 370.33 Q138.797 379.057 135.718 383.663 Q132.663 388.247 126.853 388.247 Q121.043 388.247 117.964 383.663 Q114.908 379.057 114.908 370.33 Q114.908 361.58 117.964 356.997 Q121.043 352.391 126.853 352.391 Z" fill="#000000" fill-rule="nonzero" fill-opacity="1" /><path clip-path="url(#clip900)" d="M147.015 381.696 L151.899 381.696 L151.899 387.576 L147.015 387.576 L147.015 381.696 Z" fill="#000000" fill-rule="nonzero" fill-opacity="1" /><path clip-path="url(#clip900)" d="M176.251 368.941 Q179.607 369.659 181.482 371.927 Q183.38 374.196 183.38 377.529 Q183.38 382.645 179.862 385.446 Q176.343 388.247 169.862 388.247 Q167.686 388.247 165.371 387.807 Q163.079 387.39 160.626 386.534 L160.626 382.02 Q162.57 383.154 164.885 383.733 Q167.2 384.312 169.723 384.312 Q174.121 384.312 176.413 382.576 Q178.727 380.839 178.727 377.529 Q178.727 374.474 176.575 372.761 Q174.445 371.025 170.626 371.025 L166.598 371.025 L166.598 367.182 L170.811 367.182 Q174.26 367.182 176.089 365.816 Q177.917 364.427 177.917 361.835 Q177.917 359.173 176.019 357.761 Q174.144 356.326 170.626 356.326 Q168.704 356.326 166.505 356.742 Q164.306 357.159 161.667 358.039 L161.667 353.872 Q164.329 353.131 166.644 352.761 Q168.982 352.391 171.042 352.391 Q176.366 352.391 179.468 354.821 Q182.57 357.228 182.57 361.349 Q182.57 364.219 180.926 366.21 Q179.283 368.177 176.251 368.941 Z" fill="#000000" fill-rule="nonzero" fill-opacity="1" /><path clip-path="url(#clip900)" d="M21.7677 929.095 L39.6235 929.095 L39.6235 921.01 Q39.6235 916.523 37.3 914.072 Q34.9765 911.621 30.6797 911.621 Q26.4147 911.621 24.0912 914.072 Q21.7677 916.523 21.7677 921.01 L21.7677 929.095 M16.4842 935.524 L16.4842 921.01 Q16.4842 913.021 20.1126 908.947 Q23.7092 904.841 30.6797 904.841 Q37.7138 904.841 41.3104 908.947 Q44.907 913.021 44.907 921.01 L44.907 929.095 L64.0042 929.095 L64.0042 935.524 L16.4842 935.524 Z" fill="#000000" fill-rule="nonzero" fill-opacity="1" /><path clip-path="url(#clip900)" d="M33.8307 876.96 Q33.2578 877.946 33.0032 879.124 Q32.7167 880.27 32.7167 881.67 Q32.7167 886.636 35.9632 889.309 Q39.1779 891.951 45.2253 891.951 L64.0042 891.951 L64.0042 897.839 L28.3562 897.839 L28.3562 891.951 L33.8944 891.951 Q30.6479 890.105 29.0883 887.145 Q27.4968 884.185 27.4968 879.952 Q27.4968 879.347 27.5923 878.615 Q27.656 877.883 27.8151 876.992 L33.8307 876.96 Z" fill="#000000" fill-rule="nonzero" fill-opacity="1" /><path clip-path="url(#clip900)" d="M32.4621 858.435 Q32.4621 863.146 36.1542 865.883 Q39.8145 868.621 46.212 868.621 Q52.6095 868.621 56.3017 865.915 Q59.9619 863.178 59.9619 858.435 Q59.9619 853.757 56.2698 851.019 Q52.5777 848.282 46.212 848.282 Q39.8781 848.282 36.186 851.019 Q32.4621 853.757 32.4621 858.435 M27.4968 858.435 Q27.4968 850.797 32.4621 846.436 Q37.4273 842.076 46.212 842.076 Q54.9649 842.076 59.9619 846.436 Q64.9272 850.797 64.9272 858.435 Q64.9272 866.106 59.9619 870.467 Q54.9649 874.795 46.212 874.795 Q37.4273 874.795 32.4621 870.467 Q27.4968 866.106 27.4968 858.435 Z" fill="#000000" fill-rule="nonzero" fill-opacity="1" /><path clip-path="url(#clip900)" d="M58.657 826.702 L77.5631 826.702 L77.5631 832.591 L28.3562 832.591 L28.3562 826.702 L33.7671 826.702 Q30.5842 824.856 29.0564 822.055 Q27.4968 819.223 27.4968 815.308 Q27.4968 808.815 32.6531 804.773 Q37.8093 800.699 46.212 800.699 Q54.6147 800.699 59.771 804.773 Q64.9272 808.815 64.9272 815.308 Q64.9272 819.223 63.3994 822.055 Q61.8398 824.856 58.657 826.702 M46.212 806.778 Q39.7508 806.778 36.0905 809.451 Q32.3984 812.093 32.3984 816.74 Q32.3984 821.387 36.0905 824.061 Q39.7508 826.702 46.212 826.702 Q52.6732 826.702 56.3653 824.061 Q60.0256 821.387 60.0256 816.74 Q60.0256 812.093 56.3653 809.451 Q52.6732 806.778 46.212 806.778 Z" fill="#000000" fill-rule="nonzero" fill-opacity="1" /><path clip-path="url(#clip900)" d="M32.4621 777.177 Q32.4621 781.888 36.1542 784.625 Q39.8145 787.362 46.212 787.362 Q52.6095 787.362 56.3017 784.657 Q59.9619 781.92 59.9619 777.177 Q59.9619 772.498 56.2698 769.761 Q52.5777 767.024 46.212 767.024 Q39.8781 767.024 36.186 769.761 Q32.4621 772.498 32.4621 777.177 M27.4968 777.177 Q27.4968 769.538 32.4621 765.178 Q37.4273 760.817 46.212 760.817 Q54.9649 760.817 59.9619 765.178 Q64.9272 769.538 64.9272 777.177 Q64.9272 784.848 59.9619 789.208 Q54.9649 793.537 46.212 793.537 Q37.4273 793.537 32.4621 789.208 Q27.4968 784.848 27.4968 777.177 Z" fill="#000000" fill-rule="nonzero" fill-opacity="1" /><path clip-path="url(#clip900)" d="M33.8307 730.453 Q33.2578 731.44 33.0032 732.617 Q32.7167 733.763 32.7167 735.164 Q32.7167 740.129 35.9632 742.802 Q39.1779 745.444 45.2253 745.444 L64.0042 745.444 L64.0042 751.332 L28.3562 751.332 L28.3562 745.444 L33.8944 745.444 Q30.6479 743.598 29.0883 740.638 Q27.4968 737.678 27.4968 733.445 Q27.4968 732.84 27.5923 732.108 Q27.656 731.376 27.8151 730.485 L33.8307 730.453 Z" fill="#000000" fill-rule="nonzero" fill-opacity="1" /><path clip-path="url(#clip900)" d="M18.2347 718.517 L28.3562 718.517 L28.3562 706.454 L32.9077 706.454 L32.9077 718.517 L52.2594 718.517 Q56.6199 718.517 57.8613 717.34 Q59.1026 716.13 59.1026 712.47 L59.1026 706.454 L64.0042 706.454 L64.0042 712.47 Q64.0042 719.249 61.4897 721.827 Q58.9434 724.406 52.2594 724.406 L32.9077 724.406 L32.9077 728.702 L28.3562 728.702 L28.3562 724.406 L18.2347 724.406 L18.2347 718.517 Z" fill="#000000" fill-rule="nonzero" fill-opacity="1" /><path clip-path="url(#clip900)" d="M28.3562 698.752 L28.3562 692.895 L64.0042 692.895 L64.0042 698.752 L28.3562 698.752 M14.479 698.752 L14.479 692.895 L21.895 692.895 L21.895 698.752 L14.479 698.752 Z" fill="#000000" fill-rule="nonzero" fill-opacity="1" /><path clip-path="url(#clip900)" d="M32.4621 666.828 Q32.4621 671.538 36.1542 674.276 Q39.8145 677.013 46.212 677.013 Q52.6095 677.013 56.3017 674.307 Q59.9619 671.57 59.9619 666.828 Q59.9619 662.149 56.2698 659.412 Q52.5777 656.674 46.212 656.674 Q39.8781 656.674 36.186 659.412 Q32.4621 662.149 32.4621 666.828 M27.4968 666.828 Q27.4968 659.189 32.4621 654.828 Q37.4273 650.468 46.212 650.468 Q54.9649 650.468 59.9619 654.828 Q64.9272 659.189 64.9272 666.828 Q64.9272 674.498 59.9619 678.859 Q54.9649 683.188 46.212 683.188 Q37.4273 683.188 32.4621 678.859 Q27.4968 674.498 27.4968 666.828 Z" fill="#000000" fill-rule="nonzero" fill-opacity="1" /><path clip-path="url(#clip900)" d="M42.4881 611.128 L64.0042 611.128 L64.0042 616.984 L42.679 616.984 Q37.6183 616.984 35.1038 618.958 Q32.5894 620.931 32.5894 624.878 Q32.5894 629.62 35.6131 632.357 Q38.6368 635.095 43.8567 635.095 L64.0042 635.095 L64.0042 640.983 L28.3562 640.983 L28.3562 635.095 L33.8944 635.095 Q30.6797 632.994 29.0883 630.161 Q27.4968 627.297 27.4968 623.573 Q27.4968 617.43 31.3163 614.279 Q35.1038 611.128 42.4881 611.128 Z" fill="#000000" fill-rule="nonzero" fill-opacity="1" /><path clip-path="url(#clip900)" d="M420.045 18.8205 L420.045 41.5461 L430.335 41.5461 Q436.047 41.5461 439.166 38.5889 Q442.285 35.6318 442.285 30.163 Q442.285 24.7348 439.166 21.7777 Q436.047 18.8205 430.335 18.8205 L420.045 18.8205 M411.863 12.096 L430.335 12.096 Q440.503 12.096 445.688 16.714 Q450.913 21.2916 450.913 30.163 Q450.913 39.1155 445.688 43.6931 Q440.503 48.2706 430.335 48.2706 L420.045 48.2706 L420.045 72.576 L411.863 72.576 L411.863 12.096 Z" fill="#000000" fill-rule="nonzero" fill-opacity="1" /><path clip-path="url(#clip900)" d="M486.399 34.1734 Q485.144 33.4443 483.645 33.1202 Q482.186 32.7556 480.404 32.7556 Q474.085 32.7556 470.682 36.8875 Q467.32 40.9789 467.32 48.6757 L467.32 72.576 L459.825 72.576 L459.825 27.2059 L467.32 27.2059 L467.32 34.2544 Q469.669 30.1225 473.436 28.1376 Q477.204 26.1121 482.591 26.1121 Q483.361 26.1121 484.293 26.2337 Q485.225 26.3147 486.359 26.5172 L486.399 34.1734 Z" fill="#000000" fill-rule="nonzero" fill-opacity="1" /><path clip-path="url(#clip900)" d="M509.976 32.4315 Q503.98 32.4315 500.496 37.1306 Q497.013 41.7891 497.013 49.9314 Q497.013 58.0738 500.456 62.7728 Q503.94 67.4314 509.976 67.4314 Q515.93 67.4314 519.414 62.7323 Q522.898 58.0333 522.898 49.9314 Q522.898 41.8701 519.414 37.1711 Q515.93 32.4315 509.976 32.4315 M509.976 26.1121 Q519.698 26.1121 525.247 32.4315 Q530.797 38.7509 530.797 49.9314 Q530.797 61.0714 525.247 67.4314 Q519.698 73.7508 509.976 73.7508 Q500.213 73.7508 494.663 67.4314 Q489.154 61.0714 489.154 49.9314 Q489.154 38.7509 494.663 32.4315 Q500.213 26.1121 509.976 26.1121 Z" fill="#000000" fill-rule="nonzero" fill-opacity="1" /><path clip-path="url(#clip900)" d="M550.363 65.7705 L550.363 89.8329 L542.869 89.8329 L542.869 27.2059 L550.363 27.2059 L550.363 34.0924 Q552.713 30.0415 556.277 28.0971 Q559.883 26.1121 564.865 26.1121 Q573.129 26.1121 578.274 32.6746 Q583.459 39.2371 583.459 49.9314 Q583.459 60.6258 578.274 67.1883 Q573.129 73.7508 564.865 73.7508 Q559.883 73.7508 556.277 71.8063 Q552.713 69.8214 550.363 65.7705 M575.722 49.9314 Q575.722 41.7081 572.319 37.0496 Q568.957 32.3505 563.042 32.3505 Q557.128 32.3505 553.725 37.0496 Q550.363 41.7081 550.363 49.9314 Q550.363 58.1548 553.725 62.8538 Q557.128 67.5124 563.042 67.5124 Q568.957 67.5124 572.319 62.8538 Q575.722 58.1548 575.722 49.9314 Z" fill="#000000" fill-rule="nonzero" fill-opacity="1" /><path clip-path="url(#clip900)" d="M613.395 32.4315 Q607.4 32.4315 603.916 37.1306 Q600.432 41.7891 600.432 49.9314 Q600.432 58.0738 603.876 62.7728 Q607.359 67.4314 613.395 67.4314 Q619.35 67.4314 622.834 62.7323 Q626.318 58.0333 626.318 49.9314 Q626.318 41.8701 622.834 37.1711 Q619.35 32.4315 613.395 32.4315 M613.395 26.1121 Q623.117 26.1121 628.667 32.4315 Q634.217 38.7509 634.217 49.9314 Q634.217 61.0714 628.667 67.4314 Q623.117 73.7508 613.395 73.7508 Q603.632 73.7508 598.083 67.4314 Q592.573 61.0714 592.573 49.9314 Q592.573 38.7509 598.083 32.4315 Q603.632 26.1121 613.395 26.1121 Z" fill="#000000" fill-rule="nonzero" fill-opacity="1" /><path clip-path="url(#clip900)" d="M672.862 34.1734 Q671.607 33.4443 670.108 33.1202 Q668.649 32.7556 666.867 32.7556 Q660.548 32.7556 657.145 36.8875 Q653.783 40.9789 653.783 48.6757 L653.783 72.576 L646.288 72.576 L646.288 27.2059 L653.783 27.2059 L653.783 34.2544 Q656.132 30.1225 659.9 28.1376 Q663.667 26.1121 669.055 26.1121 Q669.824 26.1121 670.756 26.2337 Q671.688 26.3147 672.822 26.5172 L672.862 34.1734 Z" fill="#000000" fill-rule="nonzero" fill-opacity="1" /><path clip-path="url(#clip900)" d="M688.053 14.324 L688.053 27.2059 L703.406 27.2059 L703.406 32.9987 L688.053 32.9987 L688.053 57.6282 Q688.053 63.1779 689.552 64.7578 Q691.091 66.3376 695.75 66.3376 L703.406 66.3376 L703.406 72.576 L695.75 72.576 Q687.122 72.576 683.84 69.3758 Q680.559 66.1351 680.559 57.6282 L680.559 32.9987 L675.09 32.9987 L675.09 27.2059 L680.559 27.2059 L680.559 14.324 L688.053 14.324 Z" fill="#000000" fill-rule="nonzero" fill-opacity="1" /><path clip-path="url(#clip900)" d="M713.209 27.2059 L720.663 27.2059 L720.663 72.576 L713.209 72.576 L713.209 27.2059 M713.209 9.54393 L720.663 9.54393 L720.663 18.9825 L713.209 18.9825 L713.209 9.54393 Z" fill="#000000" fill-rule="nonzero" fill-opacity="1" /><path clip-path="url(#clip900)" d="M753.84 32.4315 Q747.845 32.4315 744.361 37.1306 Q740.877 41.7891 740.877 49.9314 Q740.877 58.0738 744.32 62.7728 Q747.804 67.4314 753.84 67.4314 Q759.795 67.4314 763.279 62.7323 Q766.762 58.0333 766.762 49.9314 Q766.762 41.8701 763.279 37.1711 Q759.795 32.4315 753.84 32.4315 M753.84 26.1121 Q763.562 26.1121 769.112 32.4315 Q774.662 38.7509 774.662 49.9314 Q774.662 61.0714 769.112 67.4314 Q763.562 73.7508 753.84 73.7508 Q744.077 73.7508 738.528 67.4314 Q733.018 61.0714 733.018 49.9314 Q733.018 38.7509 738.528 32.4315 Q744.077 26.1121 753.84 26.1121 Z" fill="#000000" fill-rule="nonzero" fill-opacity="1" /><path clip-path="url(#clip900)" d="M824.731 45.1919 L824.731 72.576 L817.277 72.576 L817.277 45.4349 Q817.277 38.994 814.766 35.7938 Q812.254 32.5936 807.231 32.5936 Q801.195 32.5936 797.711 36.4419 Q794.227 40.2903 794.227 46.9338 L794.227 72.576 L786.733 72.576 L786.733 27.2059 L794.227 27.2059 L794.227 34.2544 Q796.901 30.163 800.506 28.1376 Q804.152 26.1121 808.892 26.1121 Q816.71 26.1121 820.72 30.9732 Q824.731 35.7938 824.731 45.1919 Z" fill="#000000" fill-rule="nonzero" fill-opacity="1" /><path clip-path="url(#clip900)" d="M883.55 32.4315 Q877.555 32.4315 874.071 37.1306 Q870.587 41.7891 870.587 49.9314 Q870.587 58.0738 874.03 62.7728 Q877.514 67.4314 883.55 67.4314 Q889.505 67.4314 892.989 62.7323 Q896.472 58.0333 896.472 49.9314 Q896.472 41.8701 892.989 37.1711 Q889.505 32.4315 883.55 32.4315 M883.55 26.1121 Q893.272 26.1121 898.822 32.4315 Q904.372 38.7509 904.372 49.9314 Q904.372 61.0714 898.822 67.4314 Q893.272 73.7508 883.55 73.7508 Q873.787 73.7508 868.238 67.4314 Q862.728 61.0714 862.728 49.9314 Q862.728 38.7509 868.238 32.4315 Q873.787 26.1121 883.55 26.1121 Z" fill="#000000" fill-rule="nonzero" fill-opacity="1" /><path clip-path="url(#clip900)" d="M939.695 9.54393 L939.695 15.7418 L932.566 15.7418 Q928.555 15.7418 926.976 17.3622 Q925.436 18.9825 925.436 23.1955 L925.436 27.2059 L937.711 27.2059 L937.711 32.9987 L925.436 32.9987 L925.436 72.576 L917.942 72.576 L917.942 32.9987 L910.813 32.9987 L910.813 27.2059 L917.942 27.2059 L917.942 24.0462 Q917.942 16.471 921.466 13.0277 Q924.991 9.54393 932.647 9.54393 L939.695 9.54393 Z" fill="#000000" fill-rule="nonzero" fill-opacity="1" /><path clip-path="url(#clip900)" d="M980.812 18.8205 L980.812 41.5461 L991.101 41.5461 Q996.813 41.5461 999.932 38.5889 Q1003.05 35.6318 1003.05 30.163 Q1003.05 24.7348 999.932 21.7777 Q996.813 18.8205 991.101 18.8205 L980.812 18.8205 M972.629 12.096 L991.101 12.096 Q1001.27 12.096 1006.45 16.714 Q1011.68 21.2916 1011.68 30.163 Q1011.68 39.1155 1006.45 43.6931 Q1001.27 48.2706 991.101 48.2706 L980.812 48.2706 L980.812 72.576 L972.629 72.576 L972.629 12.096 Z" fill="#000000" fill-rule="nonzero" fill-opacity="1" /><path clip-path="url(#clip900)" d="M1039.23 49.7694 Q1030.19 49.7694 1026.71 51.8354 Q1023.23 53.9013 1023.23 58.8839 Q1023.23 62.8538 1025.82 65.2034 Q1028.45 67.5124 1032.95 67.5124 Q1039.15 67.5124 1042.87 63.1374 Q1046.64 58.7219 1046.64 51.4303 L1046.64 49.7694 L1039.23 49.7694 M1054.09 46.6907 L1054.09 72.576 L1046.64 72.576 L1046.64 65.6895 Q1044.09 69.8214 1040.28 71.8063 Q1036.47 73.7508 1030.96 73.7508 Q1023.99 73.7508 1019.86 69.8619 Q1015.77 65.9325 1015.77 59.3701 Q1015.77 51.7138 1020.88 47.825 Q1026.02 43.9361 1036.19 43.9361 L1046.64 43.9361 L1046.64 43.2069 Q1046.64 38.0623 1043.24 35.2672 Q1039.87 32.4315 1033.76 32.4315 Q1029.87 32.4315 1026.18 33.3632 Q1022.5 34.295 1019.09 36.1584 L1019.09 29.2718 Q1023.18 27.692 1027.03 26.9223 Q1030.88 26.1121 1034.53 26.1121 Q1044.37 26.1121 1049.23 31.2163 Q1054.09 36.3204 1054.09 46.6907 Z" fill="#000000" fill-rule="nonzero" fill-opacity="1" /><path clip-path="url(#clip900)" d="M1095.74 34.1734 Q1094.48 33.4443 1092.98 33.1202 Q1091.52 32.7556 1089.74 32.7556 Q1083.42 32.7556 1080.02 36.8875 Q1076.66 40.9789 1076.66 48.6757 L1076.66 72.576 L1069.16 72.576 L1069.16 27.2059 L1076.66 27.2059 L1076.66 34.2544 Q1079.01 30.1225 1082.77 28.1376 Q1086.54 26.1121 1091.93 26.1121 Q1092.7 26.1121 1093.63 26.2337 Q1094.56 26.3147 1095.7 26.5172 L1095.74 34.1734 Z" fill="#000000" fill-rule="nonzero" fill-opacity="1" /><path clip-path="url(#clip900)" d="M1110.93 14.324 L1110.93 27.2059 L1126.28 27.2059 L1126.28 32.9987 L1110.93 32.9987 L1110.93 57.6282 Q1110.93 63.1779 1112.43 64.7578 Q1113.97 66.3376 1118.62 66.3376 L1126.28 66.3376 L1126.28 72.576 L1118.62 72.576 Q1110 72.576 1106.71 69.3758 Q1103.43 66.1351 1103.43 57.6282 L1103.43 32.9987 L1097.96 32.9987 L1097.96 27.2059 L1103.43 27.2059 L1103.43 14.324 L1110.93 14.324 Z" fill="#000000" fill-rule="nonzero" fill-opacity="1" /><path clip-path="url(#clip900)" d="M1173.8 45.1919 L1173.8 72.576 L1166.34 72.576 L1166.34 45.4349 Q1166.34 38.994 1163.83 35.7938 Q1161.32 32.5936 1156.3 32.5936 Q1150.26 32.5936 1146.78 36.4419 Q1143.29 40.2903 1143.29 46.9338 L1143.29 72.576 L1135.8 72.576 L1135.8 27.2059 L1143.29 27.2059 L1143.29 34.2544 Q1145.97 30.163 1149.57 28.1376 Q1153.22 26.1121 1157.96 26.1121 Q1165.78 26.1121 1169.79 30.9732 Q1173.8 35.7938 1173.8 45.1919 Z" fill="#000000" fill-rule="nonzero" fill-opacity="1" /><path clip-path="url(#clip900)" d="M1227.47 48.0275 L1227.47 51.6733 L1193.2 51.6733 Q1193.69 59.3701 1197.82 63.421 Q1201.99 67.4314 1209.4 67.4314 Q1213.7 67.4314 1217.71 66.3781 Q1221.76 65.3249 1225.73 63.2184 L1225.73 70.267 Q1221.72 71.9684 1217.51 72.8596 Q1213.29 73.7508 1208.96 73.7508 Q1198.1 73.7508 1191.74 67.4314 Q1185.42 61.1119 1185.42 50.3365 Q1185.42 39.1965 1191.42 32.6746 Q1197.45 26.1121 1207.66 26.1121 Q1216.82 26.1121 1222.12 32.0264 Q1227.47 37.9003 1227.47 48.0275 M1220.02 45.84 Q1219.94 39.7232 1216.57 36.0774 Q1213.25 32.4315 1207.74 32.4315 Q1201.51 32.4315 1197.74 35.9558 Q1194.01 39.4801 1193.44 45.8805 L1220.02 45.84 Z" fill="#000000" fill-rule="nonzero" fill-opacity="1" /><path clip-path="url(#clip900)" d="M1266 34.1734 Q1264.74 33.4443 1263.24 33.1202 Q1261.78 32.7556 1260 32.7556 Q1253.68 32.7556 1250.28 36.8875 Q1246.92 40.9789 1246.92 48.6757 L1246.92 72.576 L1239.42 72.576 L1239.42 27.2059 L1246.92 27.2059 L1246.92 34.2544 Q1249.27 30.1225 1253.03 28.1376 Q1256.8 26.1121 1262.19 26.1121 Q1262.96 26.1121 1263.89 26.2337 Q1264.82 26.3147 1265.96 26.5172 L1266 34.1734 Z" fill="#000000" fill-rule="nonzero" fill-opacity="1" /><path clip-path="url(#clip900)" d="M1302.74 28.5427 L1302.74 35.5912 Q1299.58 33.9709 1296.18 33.1607 Q1292.77 32.3505 1289.13 32.3505 Q1283.58 32.3505 1280.78 34.0519 Q1278.03 35.7533 1278.03 39.156 Q1278.03 41.7486 1280.01 43.2475 Q1282 44.7058 1287.99 46.0426 L1290.54 46.6097 Q1298.48 48.3111 1301.81 51.4303 Q1305.17 54.509 1305.17 60.0587 Q1305.17 66.3781 1300.14 70.0644 Q1295.16 73.7508 1286.41 73.7508 Q1282.77 73.7508 1278.8 73.0216 Q1274.87 72.3329 1270.49 70.9151 L1270.49 63.2184 Q1274.62 65.3654 1278.63 66.4591 Q1282.65 67.5124 1286.57 67.5124 Q1291.84 67.5124 1294.68 65.73 Q1297.51 63.9071 1297.51 60.6258 Q1297.51 57.5877 1295.45 55.9673 Q1293.42 54.3469 1286.49 52.8481 L1283.9 52.2405 Q1276.97 50.7821 1273.9 47.7845 Q1270.82 44.7463 1270.82 39.4801 Q1270.82 33.0797 1275.35 29.5959 Q1279.89 26.1121 1288.24 26.1121 Q1292.37 26.1121 1296.01 26.7198 Q1299.66 27.3274 1302.74 28.5427 Z" fill="#000000" fill-rule="nonzero" fill-opacity="1" /><path clip-path="url(#clip900)" d="M1375.98 49.9314 Q1375.98 41.7081 1372.58 37.0496 Q1369.21 32.3505 1363.3 32.3505 Q1357.38 32.3505 1353.98 37.0496 Q1350.62 41.7081 1350.62 49.9314 Q1350.62 58.1548 1353.98 62.8538 Q1357.38 67.5124 1363.3 67.5124 Q1369.21 67.5124 1372.58 62.8538 Q1375.98 58.1548 1375.98 49.9314 M1350.62 34.0924 Q1352.97 30.0415 1356.53 28.0971 Q1360.14 26.1121 1365.12 26.1121 Q1373.39 26.1121 1378.53 32.6746 Q1383.72 39.2371 1383.72 49.9314 Q1383.72 60.6258 1378.53 67.1883 Q1373.39 73.7508 1365.12 73.7508 Q1360.14 73.7508 1356.53 71.8063 Q1352.97 69.8214 1350.62 65.7705 L1350.62 72.576 L1343.13 72.576 L1343.13 9.54393 L1350.62 9.54393 L1350.62 34.0924 Z" fill="#000000" fill-rule="nonzero" fill-opacity="1" /><path clip-path="url(#clip900)" d="M1414.95 76.7889 Q1411.79 84.8907 1408.79 87.3618 Q1405.79 89.8329 1400.77 89.8329 L1394.81 89.8329 L1394.81 83.5945 L1399.19 83.5945 Q1402.27 83.5945 1403.97 82.1361 Q1405.67 80.6778 1407.74 75.2496 L1409.07 71.8468 L1390.72 27.2059 L1398.62 27.2059 L1412.8 62.6918 L1426.98 27.2059 L1434.88 27.2059 L1414.95 76.7889 Z" fill="#000000" fill-rule="nonzero" fill-opacity="1" /><path clip-path="url(#clip900)" d="M1463.48 12.096 L1514.64 12.096 L1514.64 18.9825 L1493.17 18.9825 L1493.17 72.576 L1484.95 72.576 L1484.95 18.9825 L1463.48 18.9825 L1463.48 12.096 Z" fill="#000000" fill-rule="nonzero" fill-opacity="1" /><path clip-path="url(#clip900)" d="M1536.31 34.1734 Q1535.06 33.4443 1533.56 33.1202 Q1532.1 32.7556 1530.32 32.7556 Q1524 32.7556 1520.6 36.8875 Q1517.23 40.9789 1517.23 48.6757 L1517.23 72.576 L1509.74 72.576 L1509.74 27.2059 L1517.23 27.2059 L1517.23 34.2544 Q1519.58 30.1225 1523.35 28.1376 Q1527.12 26.1121 1532.5 26.1121 Q1533.27 26.1121 1534.21 26.2337 Q1535.14 26.3147 1536.27 26.5172 L1536.31 34.1734 Z" fill="#000000" fill-rule="nonzero" fill-opacity="1" /><path clip-path="url(#clip900)" d="M1581.12 48.0275 L1581.12 51.6733 L1546.84 51.6733 Q1547.33 59.3701 1551.46 63.421 Q1555.64 67.4314 1563.05 67.4314 Q1567.34 67.4314 1571.35 66.3781 Q1575.4 65.3249 1579.37 63.2184 L1579.37 70.267 Q1575.36 71.9684 1571.15 72.8596 Q1566.94 73.7508 1562.6 73.7508 Q1551.75 73.7508 1545.39 67.4314 Q1539.07 61.1119 1539.07 50.3365 Q1539.07 39.1965 1545.06 32.6746 Q1551.1 26.1121 1561.31 26.1121 Q1570.46 26.1121 1575.77 32.0264 Q1581.12 37.9003 1581.12 48.0275 M1573.66 45.84 Q1573.58 39.7232 1570.22 36.0774 Q1566.9 32.4315 1561.39 32.4315 Q1555.15 32.4315 1551.38 35.9558 Q1547.66 39.4801 1547.09 45.8805 L1573.66 45.84 Z" fill="#000000" fill-rule="nonzero" fill-opacity="1" /><path clip-path="url(#clip900)" d="M1613.97 49.7694 Q1604.93 49.7694 1601.45 51.8354 Q1597.97 53.9013 1597.97 58.8839 Q1597.97 62.8538 1600.56 65.2034 Q1603.19 67.5124 1607.69 67.5124 Q1613.89 67.5124 1617.61 63.1374 Q1621.38 58.7219 1621.38 51.4303 L1621.38 49.7694 L1613.97 49.7694 M1628.84 46.6907 L1628.84 72.576 L1621.38 72.576 L1621.38 65.6895 Q1618.83 69.8214 1615.02 71.8063 Q1611.21 73.7508 1605.7 73.7508 Q1598.74 73.7508 1594.61 69.8619 Q1590.51 65.9325 1590.51 59.3701 Q1590.51 51.7138 1595.62 47.825 Q1600.76 43.9361 1610.93 43.9361 L1621.38 43.9361 L1621.38 43.2069 Q1621.38 38.0623 1617.98 35.2672 Q1614.62 32.4315 1608.5 32.4315 Q1604.61 32.4315 1600.92 33.3632 Q1597.24 34.295 1593.84 36.1584 L1593.84 29.2718 Q1597.93 27.692 1601.78 26.9223 Q1605.62 26.1121 1609.27 26.1121 Q1619.11 26.1121 1623.97 31.2163 Q1628.84 36.3204 1628.84 46.6907 Z" fill="#000000" fill-rule="nonzero" fill-opacity="1" /><path clip-path="url(#clip900)" d="M1651.56 14.324 L1651.56 27.2059 L1666.91 27.2059 L1666.91 32.9987 L1651.56 32.9987 L1651.56 57.6282 Q1651.56 63.1779 1653.06 64.7578 Q1654.6 66.3376 1659.26 66.3376 L1666.91 66.3376 L1666.91 72.576 L1659.26 72.576 Q1650.63 72.576 1647.35 69.3758 Q1644.07 66.1351 1644.07 57.6282 L1644.07 32.9987 L1638.6 32.9987 L1638.6 27.2059 L1644.07 27.2059 L1644.07 14.324 L1651.56 14.324 Z" fill="#000000" fill-rule="nonzero" fill-opacity="1" /><path clip-path="url(#clip900)" d="M1712.04 35.9153 Q1714.84 30.8922 1718.72 28.5022 Q1722.61 26.1121 1727.88 26.1121 Q1734.97 26.1121 1738.82 31.0947 Q1742.67 36.0368 1742.67 45.1919 L1742.67 72.576 L1735.17 72.576 L1735.17 45.4349 Q1735.17 38.913 1732.86 35.7533 Q1730.55 32.5936 1725.81 32.5936 Q1720.02 32.5936 1716.66 36.4419 Q1713.3 40.2903 1713.3 46.9338 L1713.3 72.576 L1705.8 72.576 L1705.8 45.4349 Q1705.8 38.8725 1703.49 35.7533 Q1701.18 32.5936 1696.36 32.5936 Q1690.65 32.5936 1687.29 36.4824 Q1683.93 40.3308 1683.93 46.9338 L1683.93 72.576 L1676.43 72.576 L1676.43 27.2059 L1683.93 27.2059 L1683.93 34.2544 Q1686.48 30.082 1690.04 28.0971 Q1693.61 26.1121 1698.51 26.1121 Q1703.45 26.1121 1706.9 28.6237 Q1710.38 31.1352 1712.04 35.9153 Z" fill="#000000" fill-rule="nonzero" fill-opacity="1" /><path clip-path="url(#clip900)" d="M1796.34 48.0275 L1796.34 51.6733 L1762.07 51.6733 Q1762.56 59.3701 1766.69 63.421 Q1770.86 67.4314 1778.27 67.4314 Q1782.57 67.4314 1786.58 66.3781 Q1790.63 65.3249 1794.6 63.2184 L1794.6 70.267 Q1790.59 71.9684 1786.37 72.8596 Q1782.16 73.7508 1777.83 73.7508 Q1766.97 73.7508 1760.61 67.4314 Q1754.29 61.1119 1754.29 50.3365 Q1754.29 39.1965 1760.29 32.6746 Q1766.32 26.1121 1776.53 26.1121 Q1785.69 26.1121 1790.99 32.0264 Q1796.34 37.9003 1796.34 48.0275 M1788.89 45.84 Q1788.81 39.7232 1785.44 36.0774 Q1782.12 32.4315 1776.61 32.4315 Q1770.37 32.4315 1766.61 35.9558 Q1762.88 39.4801 1762.31 45.8805 L1788.89 45.84 Z" fill="#000000" fill-rule="nonzero" fill-opacity="1" /><path clip-path="url(#clip900)" d="M1846.29 45.1919 L1846.29 72.576 L1838.83 72.576 L1838.83 45.4349 Q1838.83 38.994 1836.32 35.7938 Q1833.81 32.5936 1828.79 32.5936 Q1822.75 32.5936 1819.27 36.4419 Q1815.78 40.2903 1815.78 46.9338 L1815.78 72.576 L1808.29 72.576 L1808.29 27.2059 L1815.78 27.2059 L1815.78 34.2544 Q1818.46 30.163 1822.06 28.1376 Q1825.71 26.1121 1830.45 26.1121 Q1838.27 26.1121 1842.28 30.9732 Q1846.29 35.7938 1846.29 45.1919 Z" fill="#000000" fill-rule="nonzero" fill-opacity="1" /><path clip-path="url(#clip900)" d="M1868.53 14.324 L1868.53 27.2059 L1883.88 27.2059 L1883.88 32.9987 L1868.53 32.9987 L1868.53 57.6282 Q1868.53 63.1779 1870.03 64.7578 Q1871.57 66.3376 1876.22 66.3376 L1883.88 66.3376 L1883.88 72.576 L1876.22 72.576 Q1867.6 72.576 1864.31 69.3758 Q1861.03 66.1351 1861.03 57.6282 L1861.03 32.9987 L1855.56 32.9987 L1855.56 27.2059 L1861.03 27.2059 L1861.03 14.324 L1868.53 14.324 Z" fill="#000000" fill-rule="nonzero" fill-opacity="1" /><path clip-path="url(#clip900)" d="M1961.62 63.9476 L1961.62 47.7034 L1948.25 47.7034 L1948.25 40.9789 L1969.72 40.9789 L1969.72 66.9452 Q1964.98 70.3075 1959.27 72.0494 Q1953.56 73.7508 1947.07 73.7508 Q1932.9 73.7508 1924.88 65.4869 Q1916.9 57.1826 1916.9 42.3968 Q1916.9 27.5705 1924.88 19.3066 Q1932.9 11.0023 1947.07 11.0023 Q1952.99 11.0023 1958.3 12.4606 Q1963.64 13.9189 1968.14 16.7545 L1968.14 25.464 Q1963.6 21.6156 1958.5 19.6712 Q1953.39 17.7268 1947.76 17.7268 Q1936.66 17.7268 1931.07 23.9246 Q1925.52 30.1225 1925.52 42.3968 Q1925.52 54.6305 1931.07 60.8284 Q1936.66 67.0263 1947.76 67.0263 Q1952.1 67.0263 1955.5 66.2971 Q1958.9 65.5274 1961.62 63.9476 Z" fill="#000000" fill-rule="nonzero" fill-opacity="1" /><path clip-path="url(#clip900)" d="M2010.63 34.1734 Q2009.38 33.4443 2007.88 33.1202 Q2006.42 32.7556 2004.64 32.7556 Q1998.32 32.7556 1994.92 36.8875 Q1991.55 40.9789 1991.55 48.6757 L1991.55 72.576 L1984.06 72.576 L1984.06 27.2059 L1991.55 27.2059 L1991.55 34.2544 Q1993.9 30.1225 1997.67 28.1376 Q2001.44 26.1121 2006.83 26.1121 Q2007.59 26.1121 2008.53 26.2337 Q2009.46 26.3147 2010.59 26.5172 L2010.63 34.1734 Z" fill="#000000" fill-rule="nonzero" fill-opacity="1" /><path clip-path="url(#clip900)" d="M2034.21 32.4315 Q2028.21 32.4315 2024.73 37.1306 Q2021.25 41.7891 2021.25 49.9314 Q2021.25 58.0738 2024.69 62.7728 Q2028.17 67.4314 2034.21 67.4314 Q2040.16 67.4314 2043.65 62.7323 Q2047.13 58.0333 2047.13 49.9314 Q2047.13 41.8701 2043.65 37.1711 Q2040.16 32.4315 2034.21 32.4315 M2034.21 26.1121 Q2043.93 26.1121 2049.48 32.4315 Q2055.03 38.7509 2055.03 49.9314 Q2055.03 61.0714 2049.48 67.4314 Q2043.93 73.7508 2034.21 73.7508 Q2024.45 73.7508 2018.9 67.4314 Q2013.39 61.0714 2013.39 49.9314 Q2013.39 38.7509 2018.9 32.4315 Q2024.45 26.1121 2034.21 26.1121 Z" fill="#000000" fill-rule="nonzero" fill-opacity="1" /><path clip-path="url(#clip900)" d="M2066.62 54.671 L2066.62 27.2059 L2074.07 27.2059 L2074.07 54.3874 Q2074.07 60.8284 2076.58 64.0691 Q2079.09 67.2693 2084.12 67.2693 Q2090.15 67.2693 2093.64 63.421 Q2097.16 59.5726 2097.16 52.9291 L2097.16 27.2059 L2104.61 27.2059 L2104.61 72.576 L2097.16 72.576 L2097.16 65.6084 Q2094.45 69.7404 2090.84 71.7658 Q2087.28 73.7508 2082.54 73.7508 Q2074.72 73.7508 2070.67 68.8897 Q2066.62 64.0286 2066.62 54.671 M2085.37 26.1121 L2085.37 26.1121 Z" fill="#000000" fill-rule="nonzero" fill-opacity="1" /><path clip-path="url(#clip900)" d="M2127.18 65.7705 L2127.18 89.8329 L2119.68 89.8329 L2119.68 27.2059 L2127.18 27.2059 L2127.18 34.0924 Q2129.53 30.0415 2133.09 28.0971 Q2136.7 26.1121 2141.68 26.1121 Q2149.94 26.1121 2155.09 32.6746 Q2160.27 39.2371 2160.27 49.9314 Q2160.27 60.6258 2155.09 67.1883 Q2149.94 73.7508 2141.68 73.7508 Q2136.7 73.7508 2133.09 71.8063 Q2129.53 69.8214 2127.18 65.7705 M2152.54 49.9314 Q2152.54 41.7081 2149.13 37.0496 Q2145.77 32.3505 2139.86 32.3505 Q2133.94 32.3505 2130.54 37.0496 Q2127.18 41.7081 2127.18 49.9314 Q2127.18 58.1548 2130.54 62.8538 Q2133.94 67.5124 2139.86 67.5124 Q2145.77 67.5124 2149.13 62.8538 Q2152.54 58.1548 2152.54 49.9314 Z" fill="#000000" fill-rule="nonzero" fill-opacity="1" /><path clip-path="url(#clip902)" d="M327.678 254.654 L327.678 1423.18 L647.141 1423.18 L647.141 254.654 L327.678 254.654 L327.678 254.654  Z" fill="#009af9" fill-rule="evenodd" fill-opacity="1"/>
<polyline clip-path="url(#clip902)" style="stroke:#000000; stroke-linecap:round; stroke-linejoin:round; stroke-width:4; stroke-opacity:1; fill:none" points="327.678,254.654 327.678,1423.18 647.141,1423.18 647.141,254.654 327.678,254.654 "/>
<path clip-path="url(#clip902)" d="M1605.53 940.835 L1605.53 1423.18 L1924.99 1423.18 L1924.99 940.835 L1605.53 940.835 L1605.53 940.835  Z" fill="#009af9" fill-rule="evenodd" fill-opacity="1"/>
<polyline clip-path="url(#clip902)" style="stroke:#000000; stroke-linecap:round; stroke-linejoin:round; stroke-width:4; stroke-opacity:1; fill:none" points="1605.53,940.835 1605.53,1423.18 1924.99,1423.18 1924.99,940.835 1605.53,940.835 "/>
<circle clip-path="url(#clip902)" style="fill:#009af9; stroke:none; fill-opacity:0" cx="487.41" cy="254.654" r="2"/>
<circle clip-path="url(#clip902)" style="fill:#009af9; stroke:none; fill-opacity:0" cx="1765.26" cy="940.835" r="2"/>
<path clip-path="url(#clip902)" d="M647.141 123.472 L647.141 1423.18 L966.605 1423.18 L966.605 123.472 L647.141 123.472 L647.141 123.472  Z" fill="#e26f46" fill-rule="evenodd" fill-opacity="1"/>
<polyline clip-path="url(#clip902)" style="stroke:#000000; stroke-linecap:round; stroke-linejoin:round; stroke-width:4; stroke-opacity:1; fill:none" points="647.141,123.472 647.141,1423.18 966.605,1423.18 966.605,123.472 647.141,123.472 "/>
<path clip-path="url(#clip902)" d="M1924.99 864.144 L1924.99 1423.18 L2244.46 1423.18 L2244.46 864.144 L1924.99 864.144 L1924.99 864.144  Z" fill="#e26f46" fill-rule="evenodd" fill-opacity="1"/>
<polyline clip-path="url(#clip902)" style="stroke:#000000; stroke-linecap:round; stroke-linejoin:round; stroke-width:4; stroke-opacity:1; fill:none" points="1924.99,864.144 1924.99,1423.18 2244.46,1423.18 2244.46,864.144 1924.99,864.144 "/>
<circle clip-path="url(#clip902)" style="fill:#e26f46; stroke:none; fill-opacity:0" cx="806.873" cy="123.472" r="2"/>
<circle clip-path="url(#clip902)" style="fill:#e26f46; stroke:none; fill-opacity:0" cx="2084.73" cy="864.144" r="2"/>
<path clip-path="url(#clip900)" d="M1730.07 322.316 L2281.64 322.316 L2281.64 166.796 L1730.07 166.796  Z" fill="#ffffff" fill-rule="evenodd" fill-opacity="1"/>
<polyline clip-path="url(#clip900)" style="stroke:#000000; stroke-linecap:round; stroke-linejoin:round; stroke-width:4; stroke-opacity:1; fill:none" points="1730.07,322.316 2281.64,322.316 2281.64,166.796 1730.07,166.796 1730.07,322.316 "/>
<path clip-path="url(#clip900)" d="M1753.77 239.372 L1896 239.372 L1896 197.9 L1753.77 197.9 L1753.77 239.372  Z" fill="#009af9" fill-rule="evenodd" fill-opacity="1"/>
<polyline clip-path="url(#clip900)" style="stroke:#000000; stroke-linecap:round; stroke-linejoin:round; stroke-width:4; stroke-opacity:1; fill:none" points="1753.77,239.372 1896,239.372 1896,197.9 1753.77,197.9 1753.77,239.372 "/>
<path clip-path="url(#clip900)" d="M1919.7 201.356 L1948.94 201.356 L1948.94 205.291 L1936.67 205.291 L1936.67 235.916 L1931.97 235.916 L1931.97 205.291 L1919.7 205.291 L1919.7 201.356 Z" fill="#000000" fill-rule="nonzero" fill-opacity="1" /><path clip-path="url(#clip900)" d="M1961.32 213.971 Q1960.6 213.555 1959.75 213.37 Q1958.91 213.161 1957.89 213.161 Q1954.28 213.161 1952.34 215.522 Q1950.42 217.86 1950.42 222.258 L1950.42 235.916 L1946.14 235.916 L1946.14 209.99 L1950.42 209.99 L1950.42 214.018 Q1951.76 211.657 1953.91 210.522 Q1956.07 209.365 1959.14 209.365 Q1959.58 209.365 1960.12 209.434 Q1960.65 209.481 1961.3 209.596 L1961.32 213.971 Z" fill="#000000" fill-rule="nonzero" fill-opacity="1" /><path clip-path="url(#clip900)" d="M1986.92 221.888 L1986.92 223.971 L1967.34 223.971 Q1967.62 228.369 1969.98 230.684 Q1972.36 232.976 1976.6 232.976 Q1979.05 232.976 1981.34 232.374 Q1983.66 231.772 1985.93 230.569 L1985.93 234.596 Q1983.64 235.568 1981.23 236.078 Q1978.82 236.587 1976.34 236.587 Q1970.14 236.587 1966.51 232.976 Q1962.89 229.365 1962.89 223.207 Q1962.89 216.842 1966.32 213.115 Q1969.77 209.365 1975.6 209.365 Q1980.83 209.365 1983.87 212.745 Q1986.92 216.101 1986.92 221.888 M1982.66 220.638 Q1982.62 217.143 1980.7 215.059 Q1978.8 212.976 1975.65 212.976 Q1972.08 212.976 1969.93 214.99 Q1967.8 217.004 1967.48 220.661 L1982.66 220.638 Z" fill="#000000" fill-rule="nonzero" fill-opacity="1" /><path clip-path="url(#clip900)" d="M2005.7 222.883 Q2000.53 222.883 1998.54 224.064 Q1996.55 225.244 1996.55 228.092 Q1996.55 230.36 1998.03 231.703 Q1999.54 233.022 2002.11 233.022 Q2005.65 233.022 2007.78 230.522 Q2009.93 227.999 2009.93 223.832 L2009.93 222.883 L2005.7 222.883 M2014.19 221.124 L2014.19 235.916 L2009.93 235.916 L2009.93 231.981 Q2008.47 234.342 2006.3 235.476 Q2004.12 236.587 2000.97 236.587 Q1996.99 236.587 1994.63 234.365 Q1992.29 232.119 1992.29 228.369 Q1992.29 223.994 1995.21 221.772 Q1998.15 219.55 2003.96 219.55 L2009.93 219.55 L2009.93 219.133 Q2009.93 216.194 2007.99 214.596 Q2006.07 212.976 2002.57 212.976 Q2000.35 212.976 1998.24 213.508 Q1996.14 214.041 1994.19 215.106 L1994.19 211.17 Q1996.53 210.268 1998.73 209.828 Q2000.93 209.365 2003.01 209.365 Q2008.63 209.365 2011.41 212.282 Q2014.19 215.198 2014.19 221.124 Z" fill="#000000" fill-rule="nonzero" fill-opacity="1" /><path clip-path="url(#clip900)" d="M2027.18 202.629 L2027.18 209.99 L2035.95 209.99 L2035.95 213.3 L2027.18 213.3 L2027.18 227.374 Q2027.18 230.545 2028.03 231.448 Q2028.91 232.351 2031.57 232.351 L2035.95 232.351 L2035.95 235.916 L2031.57 235.916 Q2026.64 235.916 2024.77 234.087 Q2022.89 232.235 2022.89 227.374 L2022.89 213.3 L2019.77 213.3 L2019.77 209.99 L2022.89 209.99 L2022.89 202.629 L2027.18 202.629 Z" fill="#000000" fill-rule="nonzero" fill-opacity="1" /><path clip-path="url(#clip900)" d="M2061.74 214.967 Q2063.33 212.096 2065.56 210.731 Q2067.78 209.365 2070.79 209.365 Q2074.84 209.365 2077.04 212.212 Q2079.24 215.036 2079.24 220.268 L2079.24 235.916 L2074.95 235.916 L2074.95 220.407 Q2074.95 216.68 2073.63 214.874 Q2072.32 213.069 2069.61 213.069 Q2066.3 213.069 2064.38 215.268 Q2062.45 217.467 2062.45 221.263 L2062.45 235.916 L2058.17 235.916 L2058.17 220.407 Q2058.17 216.657 2056.85 214.874 Q2055.53 213.069 2052.78 213.069 Q2049.51 213.069 2047.59 215.291 Q2045.67 217.49 2045.67 221.263 L2045.67 235.916 L2041.39 235.916 L2041.39 209.99 L2045.67 209.99 L2045.67 214.018 Q2047.13 211.633 2049.17 210.499 Q2051.2 209.365 2054.01 209.365 Q2056.83 209.365 2058.8 210.8 Q2060.79 212.235 2061.74 214.967 Z" fill="#000000" fill-rule="nonzero" fill-opacity="1" /><path clip-path="url(#clip900)" d="M2109.91 221.888 L2109.91 223.971 L2090.32 223.971 Q2090.6 228.369 2092.96 230.684 Q2095.35 232.976 2099.58 232.976 Q2102.04 232.976 2104.33 232.374 Q2106.64 231.772 2108.91 230.569 L2108.91 234.596 Q2106.62 235.568 2104.21 236.078 Q2101.81 236.587 2099.33 236.587 Q2093.13 236.587 2089.49 232.976 Q2085.88 229.365 2085.88 223.207 Q2085.88 216.842 2089.31 213.115 Q2092.75 209.365 2098.59 209.365 Q2103.82 209.365 2106.85 212.745 Q2109.91 216.101 2109.91 221.888 M2105.65 220.638 Q2105.6 217.143 2103.68 215.059 Q2101.78 212.976 2098.63 212.976 Q2095.07 212.976 2092.92 214.99 Q2090.79 217.004 2090.46 220.661 L2105.65 220.638 Z" fill="#000000" fill-rule="nonzero" fill-opacity="1" /><path clip-path="url(#clip900)" d="M2138.45 220.268 L2138.45 235.916 L2134.19 235.916 L2134.19 220.407 Q2134.19 216.726 2132.75 214.897 Q2131.32 213.069 2128.45 213.069 Q2125 213.069 2123.01 215.268 Q2121.02 217.467 2121.02 221.263 L2121.02 235.916 L2116.74 235.916 L2116.74 209.99 L2121.02 209.99 L2121.02 214.018 Q2122.55 211.68 2124.61 210.522 Q2126.69 209.365 2129.4 209.365 Q2133.87 209.365 2136.16 212.143 Q2138.45 214.897 2138.45 220.268 Z" fill="#000000" fill-rule="nonzero" fill-opacity="1" /><path clip-path="url(#clip900)" d="M2151.16 202.629 L2151.16 209.99 L2159.93 209.99 L2159.93 213.3 L2151.16 213.3 L2151.16 227.374 Q2151.16 230.545 2152.01 231.448 Q2152.89 232.351 2155.56 232.351 L2159.93 232.351 L2159.93 235.916 L2155.56 235.916 Q2150.62 235.916 2148.75 234.087 Q2146.87 232.235 2146.87 227.374 L2146.87 213.3 L2143.75 213.3 L2143.75 209.99 L2146.87 209.99 L2146.87 202.629 L2151.16 202.629 Z" fill="#000000" fill-rule="nonzero" fill-opacity="1" /><path clip-path="url(#clip900)" d="M2181.16 214.388 L2210.83 214.388 L2210.83 218.277 L2181.16 218.277 L2181.16 214.388 M2181.16 223.832 L2210.83 223.832 L2210.83 227.768 L2181.16 227.768 L2181.16 223.832 Z" fill="#000000" fill-rule="nonzero" fill-opacity="1" /><path clip-path="url(#clip900)" d="M2245.99 204.434 Q2242.38 204.434 2240.56 207.999 Q2238.75 211.541 2238.75 218.67 Q2238.75 225.777 2240.56 229.342 Q2242.38 232.883 2245.99 232.883 Q2249.63 232.883 2251.43 229.342 Q2253.26 225.777 2253.26 218.67 Q2253.26 211.541 2251.43 207.999 Q2249.63 204.434 2245.99 204.434 M2245.99 200.731 Q2251.8 200.731 2254.86 205.337 Q2257.94 209.92 2257.94 218.67 Q2257.94 227.397 2254.86 232.004 Q2251.8 236.587 2245.99 236.587 Q2240.18 236.587 2237.11 232.004 Q2234.05 227.397 2234.05 218.67 Q2234.05 209.92 2237.11 205.337 Q2240.18 200.731 2245.99 200.731 Z" fill="#000000" fill-rule="nonzero" fill-opacity="1" /><path clip-path="url(#clip900)" d="M1753.77 291.212 L1896 291.212 L1896 249.74 L1753.77 249.74 L1753.77 291.212  Z" fill="#e26f46" fill-rule="evenodd" fill-opacity="1"/>
<polyline clip-path="url(#clip900)" style="stroke:#000000; stroke-linecap:round; stroke-linejoin:round; stroke-width:4; stroke-opacity:1; fill:none" points="1753.77,291.212 1896,291.212 1896,249.74 1753.77,249.74 1753.77,291.212 "/>
<path clip-path="url(#clip900)" d="M1919.7 253.196 L1948.94 253.196 L1948.94 257.131 L1936.67 257.131 L1936.67 287.756 L1931.97 287.756 L1931.97 257.131 L1919.7 257.131 L1919.7 253.196 Z" fill="#000000" fill-rule="nonzero" fill-opacity="1" /><path clip-path="url(#clip900)" d="M1961.32 265.811 Q1960.6 265.395 1959.75 265.21 Q1958.91 265.001 1957.89 265.001 Q1954.28 265.001 1952.34 267.362 Q1950.42 269.7 1950.42 274.098 L1950.42 287.756 L1946.14 287.756 L1946.14 261.83 L1950.42 261.83 L1950.42 265.858 Q1951.76 263.497 1953.91 262.362 Q1956.07 261.205 1959.14 261.205 Q1959.58 261.205 1960.12 261.274 Q1960.65 261.321 1961.3 261.436 L1961.32 265.811 Z" fill="#000000" fill-rule="nonzero" fill-opacity="1" /><path clip-path="url(#clip900)" d="M1986.92 273.728 L1986.92 275.811 L1967.34 275.811 Q1967.62 280.209 1969.98 282.524 Q1972.36 284.816 1976.6 284.816 Q1979.05 284.816 1981.34 284.214 Q1983.66 283.612 1985.93 282.409 L1985.93 286.436 Q1983.64 287.408 1981.23 287.918 Q1978.82 288.427 1976.34 288.427 Q1970.14 288.427 1966.51 284.816 Q1962.89 281.205 1962.89 275.047 Q1962.89 268.682 1966.32 264.955 Q1969.77 261.205 1975.6 261.205 Q1980.83 261.205 1983.87 264.585 Q1986.92 267.941 1986.92 273.728 M1982.66 272.478 Q1982.62 268.983 1980.7 266.899 Q1978.8 264.816 1975.65 264.816 Q1972.08 264.816 1969.93 266.83 Q1967.8 268.844 1967.48 272.501 L1982.66 272.478 Z" fill="#000000" fill-rule="nonzero" fill-opacity="1" /><path clip-path="url(#clip900)" d="M2005.7 274.723 Q2000.53 274.723 1998.54 275.904 Q1996.55 277.084 1996.55 279.932 Q1996.55 282.2 1998.03 283.543 Q1999.54 284.862 2002.11 284.862 Q2005.65 284.862 2007.78 282.362 Q2009.93 279.839 2009.93 275.672 L2009.93 274.723 L2005.7 274.723 M2014.19 272.964 L2014.19 287.756 L2009.93 287.756 L2009.93 283.821 Q2008.47 286.182 2006.3 287.316 Q2004.12 288.427 2000.97 288.427 Q1996.99 288.427 1994.63 286.205 Q1992.29 283.959 1992.29 280.209 Q1992.29 275.834 1995.21 273.612 Q1998.15 271.39 2003.96 271.39 L2009.93 271.39 L2009.93 270.973 Q2009.93 268.034 2007.99 266.436 Q2006.07 264.816 2002.57 264.816 Q2000.35 264.816 1998.24 265.348 Q1996.14 265.881 1994.19 266.946 L1994.19 263.01 Q1996.53 262.108 1998.73 261.668 Q2000.93 261.205 2003.01 261.205 Q2008.63 261.205 2011.41 264.122 Q2014.19 267.038 2014.19 272.964 Z" fill="#000000" fill-rule="nonzero" fill-opacity="1" /><path clip-path="url(#clip900)" d="M2027.18 254.469 L2027.18 261.83 L2035.95 261.83 L2035.95 265.14 L2027.18 265.14 L2027.18 279.214 Q2027.18 282.385 2028.03 283.288 Q2028.91 284.191 2031.57 284.191 L2035.95 284.191 L2035.95 287.756 L2031.57 287.756 Q2026.64 287.756 2024.77 285.927 Q2022.89 284.075 2022.89 279.214 L2022.89 265.14 L2019.77 265.14 L2019.77 261.83 L2022.89 261.83 L2022.89 254.469 L2027.18 254.469 Z" fill="#000000" fill-rule="nonzero" fill-opacity="1" /><path clip-path="url(#clip900)" d="M2061.74 266.807 Q2063.33 263.936 2065.56 262.571 Q2067.78 261.205 2070.79 261.205 Q2074.84 261.205 2077.04 264.052 Q2079.24 266.876 2079.24 272.108 L2079.24 287.756 L2074.95 287.756 L2074.95 272.247 Q2074.95 268.52 2073.63 266.714 Q2072.32 264.909 2069.61 264.909 Q2066.3 264.909 2064.38 267.108 Q2062.45 269.307 2062.45 273.103 L2062.45 287.756 L2058.17 287.756 L2058.17 272.247 Q2058.17 268.497 2056.85 266.714 Q2055.53 264.909 2052.78 264.909 Q2049.51 264.909 2047.59 267.131 Q2045.67 269.33 2045.67 273.103 L2045.67 287.756 L2041.39 287.756 L2041.39 261.83 L2045.67 261.83 L2045.67 265.858 Q2047.13 263.473 2049.17 262.339 Q2051.2 261.205 2054.01 261.205 Q2056.83 261.205 2058.8 262.64 Q2060.79 264.075 2061.74 266.807 Z" fill="#000000" fill-rule="nonzero" fill-opacity="1" /><path clip-path="url(#clip900)" d="M2109.91 273.728 L2109.91 275.811 L2090.32 275.811 Q2090.6 280.209 2092.96 282.524 Q2095.35 284.816 2099.58 284.816 Q2102.04 284.816 2104.33 284.214 Q2106.64 283.612 2108.91 282.409 L2108.91 286.436 Q2106.62 287.408 2104.21 287.918 Q2101.81 288.427 2099.33 288.427 Q2093.13 288.427 2089.49 284.816 Q2085.88 281.205 2085.88 275.047 Q2085.88 268.682 2089.31 264.955 Q2092.75 261.205 2098.59 261.205 Q2103.82 261.205 2106.85 264.585 Q2109.91 267.941 2109.91 273.728 M2105.65 272.478 Q2105.6 268.983 2103.68 266.899 Q2101.78 264.816 2098.63 264.816 Q2095.07 264.816 2092.92 266.83 Q2090.79 268.844 2090.46 272.501 L2105.65 272.478 Z" fill="#000000" fill-rule="nonzero" fill-opacity="1" /><path clip-path="url(#clip900)" d="M2138.45 272.108 L2138.45 287.756 L2134.19 287.756 L2134.19 272.247 Q2134.19 268.566 2132.75 266.737 Q2131.32 264.909 2128.45 264.909 Q2125 264.909 2123.01 267.108 Q2121.02 269.307 2121.02 273.103 L2121.02 287.756 L2116.74 287.756 L2116.74 261.83 L2121.02 261.83 L2121.02 265.858 Q2122.55 263.52 2124.61 262.362 Q2126.69 261.205 2129.4 261.205 Q2133.87 261.205 2136.16 263.983 Q2138.45 266.737 2138.45 272.108 Z" fill="#000000" fill-rule="nonzero" fill-opacity="1" /><path clip-path="url(#clip900)" d="M2151.16 254.469 L2151.16 261.83 L2159.93 261.83 L2159.93 265.14 L2151.16 265.14 L2151.16 279.214 Q2151.16 282.385 2152.01 283.288 Q2152.89 284.191 2155.56 284.191 L2159.93 284.191 L2159.93 287.756 L2155.56 287.756 Q2150.62 287.756 2148.75 285.927 Q2146.87 284.075 2146.87 279.214 L2146.87 265.14 L2143.75 265.14 L2143.75 261.83 L2146.87 261.83 L2146.87 254.469 L2151.16 254.469 Z" fill="#000000" fill-rule="nonzero" fill-opacity="1" /><path clip-path="url(#clip900)" d="M2181.16 266.228 L2210.83 266.228 L2210.83 270.117 L2181.16 270.117 L2181.16 266.228 M2181.16 275.672 L2210.83 275.672 L2210.83 279.608 L2181.16 279.608 L2181.16 275.672 Z" fill="#000000" fill-rule="nonzero" fill-opacity="1" /><path clip-path="url(#clip900)" d="M2236.81 283.821 L2244.44 283.821 L2244.44 257.455 L2236.13 259.122 L2236.13 254.862 L2244.4 253.196 L2249.07 253.196 L2249.07 283.821 L2256.71 283.821 L2256.71 287.756 L2236.81 287.756 L2236.81 283.821 Z" fill="#000000" fill-rule="nonzero" fill-opacity="1" /></svg>