<?xml version="1.0" encoding="utf-8"?>
<svg xmlns="http://www.w3.org/2000/svg" xmlns:xlink="http://www.w3.org/1999/xlink" width="600" height="400" viewBox="0 0 2400 1600">
<defs>
  <clipPath id="clip060">
    <rect x="0" y="0" width="2400" height="1600"/>
  </clipPath>
</defs>
<path clip-path="url(#clip060)" d="M0 1600 L2400 1600 L2400 0 L0 0  Z" fill="#ffffff" fill-rule="evenodd" fill-opacity="1"/>
<defs>
  <clipPath id="clip061">
    <rect x="480" y="0" width="1681" height="1600"/>
  </clipPath>
</defs>
<path clip-path="url(#clip060)" d="M279.704 1423.18 L2352.76 1423.18 L2352.76 123.472 L279.704 123.472  Z" fill="#ffffff" fill-rule="evenodd" fill-opacity="1"/>
<defs>
  <clipPath id="clip062">
    <rect x="279" y="123" width="2074" height="1301"/>
  </clipPath>
</defs>
<polyline clip-path="url(#clip062)" style="stroke:#000000; stroke-linecap:round; stroke-linejoin:round; stroke-width:2; stroke-opacity:0.1; fill:none" points="562.819,1423.18 562.819,123.472 "/>
<polyline clip-path="url(#clip062)" style="stroke:#000000; stroke-linecap:round; stroke-linejoin:round; stroke-width:2; stroke-opacity:0.1; fill:none" points="1033.7,1423.18 1033.7,123.472 "/>
<polyline clip-path="url(#clip062)" style="stroke:#000000; stroke-linecap:round; stroke-linejoin:round; stroke-width:2; stroke-opacity:0.1; fill:none" points="1504.58,1423.18 1504.58,123.472 "/>
<polyline clip-path="url(#clip062)" style="stroke:#000000; stroke-linecap:round; stroke-linejoin:round; stroke-width:2; stroke-opacity:0.1; fill:none" points="1975.46,1423.18 1975.46,123.472 "/>
<polyline clip-path="url(#clip060)" style="stroke:#000000; stroke-linecap:round; stroke-linejoin:round; stroke-width:4; stroke-opacity:1; fill:none" points="279.704,1423.18 2352.76,1423.18 "/>
<polyline clip-path="url(#clip060)" style="stroke:#000000; stroke-linecap:round; stroke-linejoin:round; stroke-width:4; stroke-opacity:1; fill:none" points="562.819,1423.18 562.819,1404.28 "/>
<polyline clip-path="url(#clip060)" style="stroke:#000000; stroke-linecap:round; stroke-linejoin:round; stroke-width:4; stroke-opacity:1; fill:none" points="1033.7,1423.18 1033.7,1404.28 "/>
<polyline clip-path="url(#clip060)" style="stroke:#000000; stroke-linecap:round; stroke-linejoin:round; stroke-width:4; stroke-opacity:1; fill:none" points="1504.58,1423.18 1504.58,1404.28 "/>
<polyline clip-path="url(#clip060)" style="stroke:#000000; stroke-linecap:round; stroke-linejoin:round; stroke-width:4; stroke-opacity:1; fill:none" points="1975.46,1423.18 1975.46,1404.28 "/>
<path clip-path="url(#clip060)" d="M538.005 1481.64 L545.643 1481.64 L545.643 1455.28 L537.333 1456.95 L537.333 1452.69 L545.597 1451.02 L550.273 1451.02 L550.273 1481.64 L557.912 1481.64 L557.912 1485.58 L538.005 1485.58 L538.005 1481.64 Z" fill="#000000" fill-rule="nonzero" fill-opacity="1" /><path clip-path="url(#clip060)" d="M567.402 1451.02 L585.759 1451.02 L585.759 1454.96 L571.685 1454.96 L571.685 1463.43 Q572.703 1463.08 573.722 1462.92 Q574.74 1462.73 575.759 1462.73 Q581.546 1462.73 584.926 1465.9 Q588.305 1469.08 588.305 1474.49 Q588.305 1480.07 584.833 1483.17 Q581.361 1486.25 575.041 1486.25 Q572.865 1486.25 570.597 1485.88 Q568.352 1485.51 565.944 1484.77 L565.944 1480.07 Q568.027 1481.2 570.25 1481.76 Q572.472 1482.32 574.949 1482.32 Q578.953 1482.32 581.291 1480.21 Q583.629 1478.1 583.629 1474.49 Q583.629 1470.88 581.291 1468.77 Q578.953 1466.67 574.949 1466.67 Q573.074 1466.67 571.199 1467.08 Q569.347 1467.5 567.402 1468.38 L567.402 1451.02 Z" fill="#000000" fill-rule="nonzero" fill-opacity="1" /><path clip-path="url(#clip060)" d="M1012.47 1481.64 L1028.79 1481.64 L1028.79 1485.58 L1006.85 1485.58 L1006.85 1481.64 Q1009.51 1478.89 1014.09 1474.26 Q1018.7 1469.61 1019.88 1468.27 Q1022.13 1465.74 1023.01 1464.01 Q1023.91 1462.25 1023.91 1460.56 Q1023.91 1457.8 1021.96 1456.07 Q1020.04 1454.33 1016.94 1454.33 Q1014.74 1454.33 1012.29 1455.09 Q1009.86 1455.86 1007.08 1457.41 L1007.08 1452.69 Q1009.9 1451.55 1012.36 1450.97 Q1014.81 1450.39 1016.85 1450.39 Q1022.22 1450.39 1025.41 1453.08 Q1028.61 1455.77 1028.61 1460.26 Q1028.61 1462.39 1027.8 1464.31 Q1027.01 1466.2 1024.9 1468.8 Q1024.33 1469.47 1021.22 1472.69 Q1018.12 1475.88 1012.47 1481.64 Z" fill="#000000" fill-rule="nonzero" fill-opacity="1" /><path clip-path="url(#clip060)" d="M1048.61 1454.1 Q1045 1454.1 1043.17 1457.66 Q1041.36 1461.2 1041.36 1468.33 Q1041.36 1475.44 1043.17 1479.01 Q1045 1482.55 1048.61 1482.55 Q1052.24 1482.55 1054.05 1479.01 Q1055.88 1475.44 1055.88 1468.33 Q1055.88 1461.2 1054.05 1457.66 Q1052.24 1454.1 1048.61 1454.1 M1048.61 1450.39 Q1054.42 1450.39 1057.47 1455 Q1060.55 1459.58 1060.55 1468.33 Q1060.55 1477.06 1057.47 1481.67 Q1054.42 1486.25 1048.61 1486.25 Q1042.8 1486.25 1039.72 1481.67 Q1036.66 1477.06 1036.66 1468.33 Q1036.66 1459.58 1039.72 1455 Q1042.8 1450.39 1048.61 1450.39 Z" fill="#000000" fill-rule="nonzero" fill-opacity="1" /><path clip-path="url(#clip060)" d="M1483.85 1481.64 L1500.17 1481.64 L1500.17 1485.58 L1478.23 1485.58 L1478.23 1481.64 Q1480.89 1478.89 1485.47 1474.26 Q1490.08 1469.61 1491.26 1468.27 Q1493.51 1465.74 1494.39 1464.01 Q1495.29 1462.25 1495.29 1460.56 Q1495.29 1457.8 1493.34 1456.07 Q1491.42 1454.33 1488.32 1454.33 Q1486.12 1454.33 1483.67 1455.09 Q1481.24 1455.86 1478.46 1457.41 L1478.46 1452.69 Q1481.28 1451.55 1483.74 1450.97 Q1486.19 1450.39 1488.23 1450.39 Q1493.6 1450.39 1496.79 1453.08 Q1499.99 1455.77 1499.99 1460.26 Q1499.99 1462.39 1499.18 1464.31 Q1498.39 1466.2 1496.28 1468.8 Q1495.71 1469.47 1492.6 1472.69 Q1489.5 1475.88 1483.85 1481.64 Z" fill="#000000" fill-rule="nonzero" fill-opacity="1" /><path clip-path="url(#clip060)" d="M1510.03 1451.02 L1528.39 1451.02 L1528.39 1454.96 L1514.32 1454.96 L1514.32 1463.43 Q1515.33 1463.08 1516.35 1462.92 Q1517.37 1462.73 1518.39 1462.73 Q1524.18 1462.73 1527.56 1465.9 Q1530.94 1469.08 1530.94 1474.49 Q1530.94 1480.07 1527.46 1483.17 Q1523.99 1486.25 1517.67 1486.25 Q1515.5 1486.25 1513.23 1485.88 Q1510.98 1485.51 1508.58 1484.77 L1508.58 1480.07 Q1510.66 1481.2 1512.88 1481.76 Q1515.1 1482.32 1517.58 1482.32 Q1521.58 1482.32 1523.92 1480.21 Q1526.26 1478.1 1526.26 1474.49 Q1526.26 1470.88 1523.92 1468.77 Q1521.58 1466.67 1517.58 1466.67 Q1515.71 1466.67 1513.83 1467.08 Q1511.98 1467.5 1510.03 1468.38 L1510.03 1451.02 Z" fill="#000000" fill-rule="nonzero" fill-opacity="1" /><path clip-path="url(#clip060)" d="M1964.31 1466.95 Q1967.66 1467.66 1969.54 1469.93 Q1971.44 1472.2 1971.44 1475.53 Q1971.44 1480.65 1967.92 1483.45 Q1964.4 1486.25 1957.92 1486.25 Q1955.74 1486.25 1953.43 1485.81 Q1951.14 1485.39 1948.68 1484.54 L1948.68 1480.02 Q1950.63 1481.16 1952.94 1481.74 Q1955.26 1482.32 1957.78 1482.32 Q1962.18 1482.32 1964.47 1480.58 Q1966.78 1478.84 1966.78 1475.53 Q1966.78 1472.48 1964.63 1470.77 Q1962.5 1469.03 1958.68 1469.03 L1954.65 1469.03 L1954.65 1465.19 L1958.87 1465.19 Q1962.32 1465.19 1964.14 1463.82 Q1965.97 1462.43 1965.97 1459.84 Q1965.97 1457.18 1964.08 1455.77 Q1962.2 1454.33 1958.68 1454.33 Q1956.76 1454.33 1954.56 1454.75 Q1952.36 1455.16 1949.72 1456.04 L1949.72 1451.88 Q1952.39 1451.14 1954.7 1450.77 Q1957.04 1450.39 1959.1 1450.39 Q1964.42 1450.39 1967.52 1452.83 Q1970.63 1455.23 1970.63 1459.35 Q1970.63 1462.22 1968.98 1464.21 Q1967.34 1466.18 1964.31 1466.95 Z" fill="#000000" fill-rule="nonzero" fill-opacity="1" /><path clip-path="url(#clip060)" d="M1990.3 1454.1 Q1986.69 1454.1 1984.86 1457.66 Q1983.06 1461.2 1983.06 1468.33 Q1983.06 1475.44 1984.86 1479.01 Q1986.69 1482.55 1990.3 1482.55 Q1993.94 1482.55 1995.74 1479.01 Q1997.57 1475.44 1997.57 1468.33 Q1997.57 1461.2 1995.74 1457.66 Q1993.94 1454.1 1990.3 1454.1 M1990.3 1450.39 Q1996.11 1450.39 1999.17 1455 Q2002.25 1459.58 2002.25 1468.33 Q2002.25 1477.06 1999.17 1481.67 Q1996.11 1486.25 1990.3 1486.25 Q1984.49 1486.25 1981.41 1481.67 Q1978.36 1477.06 1978.36 1468.33 Q1978.36 1459.58 1981.41 1455 Q1984.49 1450.39 1990.3 1450.39 Z" fill="#000000" fill-rule="nonzero" fill-opacity="1" /><path clip-path="url(#clip060)" d="M1276.95 1526.86 L1268.23 1550.51 L1285.71 1550.51 L1276.95 1526.86 M1273.33 1520.52 L1280.61 1520.52 L1298.72 1568.04 L1292.04 1568.04 L1287.71 1555.85 L1266.29 1555.85 L1261.96 1568.04 L1255.18 1568.04 L1273.33 1520.52 Z" fill="#000000" fill-rule="nonzero" fill-opacity="1" /><path clip-path="url(#clip060)" d="M1328.87 1549.81 Q1328.87 1543.44 1326.22 1539.94 Q1323.61 1536.44 1318.87 1536.44 Q1314.16 1536.44 1311.52 1539.94 Q1308.91 1543.44 1308.91 1549.81 Q1308.91 1556.14 1311.52 1559.64 Q1314.16 1563.14 1318.87 1563.14 Q1323.61 1563.14 1326.22 1559.64 Q1328.87 1556.14 1328.87 1549.81 M1334.72 1563.62 Q1334.72 1572.72 1330.68 1577.15 Q1326.64 1581.6 1318.3 1581.6 Q1315.21 1581.6 1312.47 1581.13 Q1309.74 1580.68 1307.16 1579.72 L1307.16 1574.03 Q1309.74 1575.43 1312.25 1576.1 Q1314.77 1576.76 1317.38 1576.76 Q1323.14 1576.76 1326 1573.74 Q1328.87 1570.75 1328.87 1564.67 L1328.87 1561.77 Q1327.05 1564.92 1324.22 1566.48 Q1321.39 1568.04 1317.44 1568.04 Q1310.88 1568.04 1306.87 1563.05 Q1302.86 1558.05 1302.86 1549.81 Q1302.86 1541.53 1306.87 1536.53 Q1310.88 1531.54 1317.44 1531.54 Q1321.39 1531.54 1324.22 1533.1 Q1327.05 1534.66 1328.87 1537.81 L1328.87 1532.4 L1334.72 1532.4 L1334.72 1563.62 Z" fill="#000000" fill-rule="nonzero" fill-opacity="1" /><path clip-path="url(#clip060)" d="M1377.28 1548.76 L1377.28 1551.62 L1350.35 1551.62 Q1350.73 1557.67 1353.98 1560.85 Q1357.26 1564 1363.08 1564 Q1366.46 1564 1369.61 1563.17 Q1372.79 1562.35 1375.91 1560.69 L1375.91 1566.23 Q1372.76 1567.57 1369.45 1568.27 Q1366.14 1568.97 1362.73 1568.97 Q1354.2 1568.97 1349.2 1564 Q1344.24 1559.04 1344.24 1550.57 Q1344.24 1541.82 1348.95 1536.69 Q1353.69 1531.54 1361.71 1531.54 Q1368.91 1531.54 1373.08 1536.18 Q1377.28 1540.8 1377.28 1548.76 M1371.42 1547.04 Q1371.36 1542.23 1368.72 1539.37 Q1366.11 1536.5 1361.78 1536.5 Q1356.87 1536.5 1353.91 1539.27 Q1350.99 1542.04 1350.54 1547.07 L1371.42 1547.04 Z" fill="#000000" fill-rule="nonzero" fill-opacity="1" /><polyline clip-path="url(#clip062)" style="stroke:#000000; stroke-linecap:round; stroke-linejoin:round; stroke-width:2; stroke-opacity:0.1; fill:none" points="279.704,1386.44 2352.76,1386.44 "/>
<polyline clip-path="url(#clip062)" style="stroke:#000000; stroke-linecap:round; stroke-linejoin:round; stroke-width:2; stroke-opacity:0.1; fill:none" points="279.704,1079.01 2352.76,1079.01 "/>
<polyline clip-path="url(#clip062)" style="stroke:#000000; stroke-linecap:round; stroke-linejoin:round; stroke-width:2; stroke-opacity:0.1; fill:none" points="279.704,771.587 2352.76,771.587 "/>
<polyline clip-path="url(#clip062)" style="stroke:#000000; stroke-linecap:round; stroke-linejoin:round; stroke-width:2; stroke-opacity:0.1; fill:none" points="279.704,464.161 2352.76,464.161 "/>
<polyline clip-path="url(#clip062)" style="stroke:#000000; stroke-linecap:round; stroke-linejoin:round; stroke-width:2; stroke-opacity:0.1; fill:none" points="279.704,156.734 2352.76,156.734 "/>
<polyline clip-path="url(#clip060)" style="stroke:#000000; stroke-linecap:round; stroke-linejoin:round; stroke-width:4; stroke-opacity:1; fill:none" points="279.704,1423.18 279.704,123.472 "/>
<polyline clip-path="url(#clip060)" style="stroke:#000000; stroke-linecap:round; stroke-linejoin:round; stroke-width:4; stroke-opacity:1; fill:none" points="279.704,1386.44 298.602,1386.44 "/>
<polyline clip-path="url(#clip060)" style="stroke:#000000; stroke-linecap:round; stroke-linejoin:round; stroke-width:4; stroke-opacity:1; fill:none" points="279.704,1079.01 298.602,1079.01 "/>
<polyline clip-path="url(#clip060)" style="stroke:#000000; stroke-linecap:round; stroke-linejoin:round; stroke-width:4; stroke-opacity:1; fill:none" points="279.704,771.587 298.602,771.587 "/>
<polyline clip-path="url(#clip060)" style="stroke:#000000; stroke-linecap:round; stroke-linejoin:round; stroke-width:4; stroke-opacity:1; fill:none" points="279.704,464.161 298.602,464.161 "/>
<polyline clip-path="url(#clip060)" style="stroke:#000000; stroke-linecap:round; stroke-linejoin:round; stroke-width:4; stroke-opacity:1; fill:none" points="279.704,156.734 298.602,156.734 "/>
<path clip-path="url(#clip060)" d="M126.205 1372.24 Q122.593 1372.24 120.765 1375.8 Q118.959 1379.34 118.959 1386.47 Q118.959 1393.58 120.765 1397.15 Q122.593 1400.69 126.205 1400.69 Q129.839 1400.69 131.644 1397.15 Q133.473 1393.58 133.473 1386.47 Q133.473 1379.34 131.644 1375.8 Q129.839 1372.24 126.205 1372.24 M126.205 1368.53 Q132.015 1368.53 135.07 1373.14 Q138.149 1377.72 138.149 1386.47 Q138.149 1395.2 135.07 1399.81 Q132.015 1404.39 126.205 1404.39 Q120.394 1404.39 117.316 1399.81 Q114.26 1395.2 114.26 1386.47 Q114.26 1377.72 117.316 1373.14 Q120.394 1368.53 126.205 1368.53 Z" fill="#000000" fill-rule="nonzero" fill-opacity="1" /><path clip-path="url(#clip060)" d="M146.366 1397.84 L151.251 1397.84 L151.251 1403.72 L146.366 1403.72 L146.366 1397.84 Z" fill="#000000" fill-rule="nonzero" fill-opacity="1" /><path clip-path="url(#clip060)" d="M171.436 1372.24 Q167.825 1372.24 165.996 1375.8 Q164.19 1379.34 164.19 1386.47 Q164.19 1393.58 165.996 1397.15 Q167.825 1400.69 171.436 1400.69 Q175.07 1400.69 176.876 1397.15 Q178.704 1393.58 178.704 1386.47 Q178.704 1379.34 176.876 1375.8 Q175.07 1372.24 171.436 1372.24 M171.436 1368.53 Q177.246 1368.53 180.301 1373.14 Q183.38 1377.72 183.38 1386.47 Q183.38 1395.2 180.301 1399.81 Q177.246 1404.39 171.436 1404.39 Q165.626 1404.39 162.547 1399.81 Q159.491 1395.2 159.491 1386.47 Q159.491 1377.72 162.547 1373.14 Q165.626 1368.53 171.436 1368.53 Z" fill="#000000" fill-rule="nonzero" fill-opacity="1" /><path clip-path="url(#clip060)" d="M201.598 1372.24 Q197.987 1372.24 196.158 1375.8 Q194.352 1379.34 194.352 1386.47 Q194.352 1393.58 196.158 1397.15 Q197.987 1400.69 201.598 1400.69 Q205.232 1400.69 207.037 1397.15 Q208.866 1393.58 208.866 1386.47 Q208.866 1379.34 207.037 1375.8 Q205.232 1372.24 201.598 1372.24 M201.598 1368.53 Q207.408 1368.53 210.463 1373.14 Q213.542 1377.72 213.542 1386.47 Q213.542 1395.2 210.463 1399.81 Q207.408 1404.39 201.598 1404.39 Q195.787 1404.39 192.709 1399.81 Q189.653 1395.2 189.653 1386.47 Q189.653 1377.72 192.709 1373.14 Q195.787 1368.53 201.598 1368.53 Z" fill="#000000" fill-rule="nonzero" fill-opacity="1" /><path clip-path="url(#clip060)" d="M231.76 1372.24 Q228.148 1372.24 226.32 1375.8 Q224.514 1379.34 224.514 1386.47 Q224.514 1393.58 226.32 1397.15 Q228.148 1400.69 231.76 1400.69 Q235.394 1400.69 237.199 1397.15 Q239.028 1393.58 239.028 1386.47 Q239.028 1379.34 237.199 1375.8 Q235.394 1372.24 231.76 1372.24 M231.76 1368.53 Q237.57 1368.53 240.625 1373.14 Q243.704 1377.72 243.704 1386.47 Q243.704 1395.2 240.625 1399.81 Q237.57 1404.39 231.76 1404.39 Q225.949 1404.39 222.871 1399.81 Q219.815 1395.2 219.815 1386.47 Q219.815 1377.72 222.871 1373.14 Q225.949 1368.53 231.76 1368.53 Z" fill="#000000" fill-rule="nonzero" fill-opacity="1" /><path clip-path="url(#clip060)" d="M127.2 1064.81 Q123.589 1064.81 121.76 1068.38 Q119.955 1071.92 119.955 1079.05 Q119.955 1086.15 121.76 1089.72 Q123.589 1093.26 127.2 1093.26 Q130.834 1093.26 132.64 1089.72 Q134.468 1086.15 134.468 1079.05 Q134.468 1071.92 132.64 1068.38 Q130.834 1064.81 127.2 1064.81 M127.2 1061.11 Q133.01 1061.11 136.066 1065.71 Q139.144 1070.3 139.144 1079.05 Q139.144 1087.77 136.066 1092.38 Q133.01 1096.96 127.2 1096.96 Q121.39 1096.96 118.311 1092.38 Q115.256 1087.77 115.256 1079.05 Q115.256 1070.3 118.311 1065.71 Q121.39 1061.11 127.2 1061.11 Z" fill="#000000" fill-rule="nonzero" fill-opacity="1" /><path clip-path="url(#clip060)" d="M147.362 1090.41 L152.246 1090.41 L152.246 1096.29 L147.362 1096.29 L147.362 1090.41 Z" fill="#000000" fill-rule="nonzero" fill-opacity="1" /><path clip-path="url(#clip060)" d="M172.431 1064.81 Q168.82 1064.81 166.991 1068.38 Q165.186 1071.92 165.186 1079.05 Q165.186 1086.15 166.991 1089.72 Q168.82 1093.26 172.431 1093.26 Q176.065 1093.26 177.871 1089.72 Q179.7 1086.15 179.7 1079.05 Q179.7 1071.92 177.871 1068.38 Q176.065 1064.81 172.431 1064.81 M172.431 1061.11 Q178.241 1061.11 181.297 1065.71 Q184.376 1070.3 184.376 1079.05 Q184.376 1087.77 181.297 1092.38 Q178.241 1096.96 172.431 1096.96 Q166.621 1096.96 163.542 1092.38 Q160.487 1087.77 160.487 1079.05 Q160.487 1070.3 163.542 1065.71 Q166.621 1061.11 172.431 1061.11 Z" fill="#000000" fill-rule="nonzero" fill-opacity="1" /><path clip-path="url(#clip060)" d="M196.621 1092.36 L212.94 1092.36 L212.94 1096.29 L190.996 1096.29 L190.996 1092.36 Q193.658 1089.6 198.241 1084.97 Q202.848 1080.32 204.028 1078.98 Q206.274 1076.46 207.153 1074.72 Q208.056 1072.96 208.056 1071.27 Q208.056 1068.52 206.112 1066.78 Q204.19 1065.04 201.088 1065.04 Q198.889 1065.04 196.436 1065.81 Q194.005 1066.57 191.227 1068.12 L191.227 1063.4 Q194.051 1062.27 196.505 1061.69 Q198.959 1061.11 200.996 1061.11 Q206.366 1061.11 209.561 1063.79 Q212.755 1066.48 212.755 1070.97 Q212.755 1073.1 211.945 1075.02 Q211.158 1076.92 209.051 1079.51 Q208.473 1080.18 205.371 1083.4 Q202.269 1086.59 196.621 1092.36 Z" fill="#000000" fill-rule="nonzero" fill-opacity="1" /><path clip-path="url(#clip060)" d="M222.801 1061.73 L241.158 1061.73 L241.158 1065.67 L227.084 1065.67 L227.084 1074.14 Q228.102 1073.79 229.121 1073.63 Q230.139 1073.45 231.158 1073.45 Q236.945 1073.45 240.324 1076.62 Q243.704 1079.79 243.704 1085.21 Q243.704 1090.78 240.232 1093.89 Q236.76 1096.96 230.44 1096.96 Q228.264 1096.96 225.996 1096.59 Q223.75 1096.22 221.343 1095.48 L221.343 1090.78 Q223.426 1091.92 225.648 1092.47 Q227.871 1093.03 230.347 1093.03 Q234.352 1093.03 236.69 1090.92 Q239.028 1088.82 239.028 1085.21 Q239.028 1081.59 236.69 1079.49 Q234.352 1077.38 230.347 1077.38 Q228.473 1077.38 226.598 1077.8 Q224.746 1078.21 222.801 1079.09 L222.801 1061.73 Z" fill="#000000" fill-rule="nonzero" fill-opacity="1" /><path clip-path="url(#clip060)" d="M126.205 757.386 Q122.593 757.386 120.765 760.95 Q118.959 764.492 118.959 771.622 Q118.959 778.728 120.765 782.293 Q122.593 785.834 126.205 785.834 Q129.839 785.834 131.644 782.293 Q133.473 778.728 133.473 771.622 Q133.473 764.492 131.644 760.95 Q129.839 757.386 126.205 757.386 M126.205 753.682 Q132.015 753.682 135.07 758.288 Q138.149 762.872 138.149 771.622 Q138.149 780.348 135.07 784.955 Q132.015 789.538 126.205 789.538 Q120.394 789.538 117.316 784.955 Q114.26 780.348 114.26 771.622 Q114.26 762.872 117.316 758.288 Q120.394 753.682 126.205 753.682 Z" fill="#000000" fill-rule="nonzero" fill-opacity="1" /><path clip-path="url(#clip060)" d="M146.366 782.987 L151.251 782.987 L151.251 788.867 L146.366 788.867 L146.366 782.987 Z" fill="#000000" fill-rule="nonzero" fill-opacity="1" /><path clip-path="url(#clip060)" d="M171.436 757.386 Q167.825 757.386 165.996 760.95 Q164.19 764.492 164.19 771.622 Q164.19 778.728 165.996 782.293 Q167.825 785.834 171.436 785.834 Q175.07 785.834 176.876 782.293 Q178.704 778.728 178.704 771.622 Q178.704 764.492 176.876 760.95 Q175.07 757.386 171.436 757.386 M171.436 753.682 Q177.246 753.682 180.301 758.288 Q183.38 762.872 183.38 771.622 Q183.38 780.348 180.301 784.955 Q177.246 789.538 171.436 789.538 Q165.626 789.538 162.547 784.955 Q159.491 780.348 159.491 771.622 Q159.491 762.872 162.547 758.288 Q165.626 753.682 171.436 753.682 Z" fill="#000000" fill-rule="nonzero" fill-opacity="1" /><path clip-path="url(#clip060)" d="M191.644 754.307 L210 754.307 L210 758.242 L195.926 758.242 L195.926 766.714 Q196.945 766.367 197.963 766.205 Q198.982 766.02 200 766.02 Q205.787 766.02 209.167 769.191 Q212.547 772.362 212.547 777.779 Q212.547 783.358 209.074 786.459 Q205.602 789.538 199.283 789.538 Q197.107 789.538 194.838 789.168 Q192.593 788.797 190.186 788.057 L190.186 783.358 Q192.269 784.492 194.491 785.047 Q196.713 785.603 199.19 785.603 Q203.195 785.603 205.533 783.496 Q207.871 781.39 207.871 777.779 Q207.871 774.168 205.533 772.061 Q203.195 769.955 199.19 769.955 Q197.315 769.955 195.44 770.372 Q193.588 770.788 191.644 771.668 L191.644 754.307 Z" fill="#000000" fill-rule="nonzero" fill-opacity="1" /><path clip-path="url(#clip060)" d="M231.76 757.386 Q228.148 757.386 226.32 760.95 Q224.514 764.492 224.514 771.622 Q224.514 778.728 226.32 782.293 Q228.148 785.834 231.76 785.834 Q235.394 785.834 237.199 782.293 Q239.028 778.728 239.028 771.622 Q239.028 764.492 237.199 760.95 Q235.394 757.386 231.76 757.386 M231.76 753.682 Q237.57 753.682 240.625 758.288 Q243.704 762.872 243.704 771.622 Q243.704 780.348 240.625 784.955 Q237.57 789.538 231.76 789.538 Q225.949 789.538 222.871 784.955 Q219.815 780.348 219.815 771.622 Q219.815 762.872 222.871 758.288 Q225.949 753.682 231.76 753.682 Z" fill="#000000" fill-rule="nonzero" fill-opacity="1" /><path clip-path="url(#clip060)" d="M127.2 449.959 Q123.589 449.959 121.76 453.524 Q119.955 457.066 119.955 464.195 Q119.955 471.302 121.76 474.867 Q123.589 478.408 127.2 478.408 Q130.834 478.408 132.64 474.867 Q134.468 471.302 134.468 464.195 Q134.468 457.066 132.64 453.524 Q130.834 449.959 127.2 449.959 M127.2 446.256 Q133.01 446.256 136.066 450.862 Q139.144 455.445 139.144 464.195 Q139.144 472.922 136.066 477.529 Q133.01 482.112 127.2 482.112 Q121.39 482.112 118.311 477.529 Q115.256 472.922 115.256 464.195 Q115.256 455.445 118.311 450.862 Q121.39 446.256 127.2 446.256 Z" fill="#000000" fill-rule="nonzero" fill-opacity="1" /><path clip-path="url(#clip060)" d="M147.362 475.561 L152.246 475.561 L152.246 481.441 L147.362 481.441 L147.362 475.561 Z" fill="#000000" fill-rule="nonzero" fill-opacity="1" /><path clip-path="url(#clip060)" d="M172.431 449.959 Q168.82 449.959 166.991 453.524 Q165.186 457.066 165.186 464.195 Q165.186 471.302 166.991 474.867 Q168.82 478.408 172.431 478.408 Q176.065 478.408 177.871 474.867 Q179.7 471.302 179.7 464.195 Q179.7 457.066 177.871 453.524 Q176.065 449.959 172.431 449.959 M172.431 446.256 Q178.241 446.256 181.297 450.862 Q184.376 455.445 184.376 464.195 Q184.376 472.922 181.297 477.529 Q178.241 482.112 172.431 482.112 Q166.621 482.112 163.542 477.529 Q160.487 472.922 160.487 464.195 Q160.487 455.445 163.542 450.862 Q166.621 446.256 172.431 446.256 Z" fill="#000000" fill-rule="nonzero" fill-opacity="1" /><path clip-path="url(#clip060)" d="M191.413 446.881 L213.635 446.881 L213.635 448.871 L201.088 481.441 L196.204 481.441 L208.01 450.816 L191.413 450.816 L191.413 446.881 Z" fill="#000000" fill-rule="nonzero" fill-opacity="1" /><path clip-path="url(#clip060)" d="M222.801 446.881 L241.158 446.881 L241.158 450.816 L227.084 450.816 L227.084 459.288 Q228.102 458.941 229.121 458.779 Q230.139 458.594 231.158 458.594 Q236.945 458.594 240.324 461.765 Q243.704 464.936 243.704 470.353 Q243.704 475.931 240.232 479.033 Q236.76 482.112 230.44 482.112 Q228.264 482.112 225.996 481.742 Q223.75 481.371 221.343 480.63 L221.343 475.931 Q223.426 477.066 225.648 477.621 Q227.871 478.177 230.347 478.177 Q234.352 478.177 236.69 476.07 Q239.028 473.964 239.028 470.353 Q239.028 466.742 236.69 464.635 Q234.352 462.529 230.347 462.529 Q228.473 462.529 226.598 462.945 Q224.746 463.362 222.801 464.242 L222.801 446.881 Z" fill="#000000" fill-rule="nonzero" fill-opacity="1" /><path clip-path="url(#clip060)" d="M126.205 142.533 Q122.593 142.533 120.765 146.098 Q118.959 149.64 118.959 156.769 Q118.959 163.876 120.765 167.44 Q122.593 170.982 126.205 170.982 Q129.839 170.982 131.644 167.44 Q133.473 163.876 133.473 156.769 Q133.473 149.64 131.644 146.098 Q129.839 142.533 126.205 142.533 M126.205 138.829 Q132.015 138.829 135.07 143.436 Q138.149 148.019 138.149 156.769 Q138.149 165.496 135.07 170.102 Q132.015 174.686 126.205 174.686 Q120.394 174.686 117.316 170.102 Q114.26 165.496 114.26 156.769 Q114.26 148.019 117.316 143.436 Q120.394 138.829 126.205 138.829 Z" fill="#000000" fill-rule="nonzero" fill-opacity="1" /><path clip-path="url(#clip060)" d="M146.366 168.135 L151.251 168.135 L151.251 174.014 L146.366 174.014 L146.366 168.135 Z" fill="#000000" fill-rule="nonzero" fill-opacity="1" /><path clip-path="url(#clip060)" d="M162.246 170.079 L169.885 170.079 L169.885 143.714 L161.575 145.38 L161.575 141.121 L169.839 139.454 L174.514 139.454 L174.514 170.079 L182.153 170.079 L182.153 174.014 L162.246 174.014 L162.246 170.079 Z" fill="#000000" fill-rule="nonzero" fill-opacity="1" /><path clip-path="url(#clip060)" d="M201.598 142.533 Q197.987 142.533 196.158 146.098 Q194.352 149.64 194.352 156.769 Q194.352 163.876 196.158 167.44 Q197.987 170.982 201.598 170.982 Q205.232 170.982 207.037 167.44 Q208.866 163.876 208.866 156.769 Q208.866 149.64 207.037 146.098 Q205.232 142.533 201.598 142.533 M201.598 138.829 Q207.408 138.829 210.463 143.436 Q213.542 148.019 213.542 156.769 Q213.542 165.496 210.463 170.102 Q207.408 174.686 201.598 174.686 Q195.787 174.686 192.709 170.102 Q189.653 165.496 189.653 156.769 Q189.653 148.019 192.709 143.436 Q195.787 138.829 201.598 138.829 Z" fill="#000000" fill-rule="nonzero" fill-opacity="1" /><path clip-path="url(#clip060)" d="M231.76 142.533 Q228.148 142.533 226.32 146.098 Q224.514 149.64 224.514 156.769 Q224.514 163.876 226.32 167.44 Q228.148 170.982 231.76 170.982 Q235.394 170.982 237.199 167.44 Q239.028 163.876 239.028 156.769 Q239.028 149.64 237.199 146.098 Q235.394 142.533 231.76 142.533 M231.76 138.829 Q237.57 138.829 240.625 143.436 Q243.704 148.019 243.704 156.769 Q243.704 165.496 240.625 170.102 Q237.57 174.686 231.76 174.686 Q225.949 174.686 222.871 170.102 Q219.815 165.496 219.815 156.769 Q219.815 148.019 222.871 143.436 Q225.949 138.829 231.76 138.829 Z" fill="#000000" fill-rule="nonzero" fill-opacity="1" /><path clip-path="url(#clip060)" d="M21.7677 945.311 L39.6235 945.311 L39.6235 937.227 Q39.6235 932.739 37.3 930.288 Q34.9765 927.838 30.6797 927.838 Q26.4147 927.838 24.0912 930.288 Q21.7677 932.739 21.7677 937.227 L21.7677 945.311 M16.4842 951.741 L16.4842 937.227 Q16.4842 929.238 20.1126 925.164 Q23.7092 921.058 30.6797 921.058 Q37.7138 921.058 41.3104 925.164 Q44.907 929.238 44.907 937.227 L44.907 945.311 L64.0042 945.311 L64.0042 951.741 L16.4842 951.741 Z" fill="#000000" fill-rule="nonzero" fill-opacity="1" /><path clip-path="url(#clip060)" d="M44.7161 884.519 L47.5806 884.519 L47.5806 911.446 Q53.6281 911.064 56.8109 907.817 Q59.9619 904.539 59.9619 898.714 Q59.9619 895.341 59.1344 892.19 Q58.3069 889.007 56.6518 885.888 L62.1899 885.888 Q63.5267 889.039 64.227 892.349 Q64.9272 895.659 64.9272 899.065 Q64.9272 907.595 59.9619 912.592 Q54.9967 917.557 46.5303 917.557 Q37.7774 917.557 32.6531 912.846 Q27.4968 908.104 27.4968 900.083 Q27.4968 892.89 32.1438 888.72 Q36.7589 884.519 44.7161 884.519 M42.9973 890.375 Q38.1912 890.439 35.3266 893.081 Q32.4621 895.691 32.4621 900.019 Q32.4621 904.921 35.2312 907.881 Q38.0002 910.809 43.0292 911.255 L42.9973 890.375 Z" fill="#000000" fill-rule="nonzero" fill-opacity="1" /><path clip-path="url(#clip060)" d="M33.8307 854.25 Q33.2578 855.237 33.0032 856.414 Q32.7167 857.56 32.7167 858.961 Q32.7167 863.926 35.9632 866.6 Q39.1779 869.241 45.2253 869.241 L64.0042 869.241 L64.0042 875.13 L28.3562 875.13 L28.3562 869.241 L33.8944 869.241 Q30.6479 867.395 29.0883 864.435 Q27.4968 861.475 27.4968 857.242 Q27.4968 856.637 27.5923 855.905 Q27.656 855.173 27.8151 854.282 L33.8307 854.25 Z" fill="#000000" fill-rule="nonzero" fill-opacity="1" /><path clip-path="url(#clip060)" d="M29.7248 823.886 L35.1993 823.886 Q33.8307 826.368 33.1623 828.883 Q32.4621 831.365 32.4621 833.912 Q32.4621 839.609 36.0905 842.76 Q39.6872 845.911 46.212 845.911 Q52.7369 845.911 56.3653 842.76 Q59.9619 839.609 59.9619 833.912 Q59.9619 831.365 59.2935 828.883 Q58.5933 826.368 57.2247 823.886 L62.6355 823.886 Q63.7814 826.336 64.3543 828.978 Q64.9272 831.588 64.9272 834.548 Q64.9272 842.601 59.8664 847.343 Q54.8057 852.086 46.212 852.086 Q37.491 852.086 32.4939 847.311 Q27.4968 842.505 27.4968 834.166 Q27.4968 831.461 28.0697 828.883 Q28.6108 826.305 29.7248 823.886 Z" fill="#000000" fill-rule="nonzero" fill-opacity="1" /><path clip-path="url(#clip060)" d="M44.7161 783.209 L47.5806 783.209 L47.5806 810.136 Q53.6281 809.754 56.8109 806.507 Q59.9619 803.229 59.9619 797.404 Q59.9619 794.03 59.1344 790.879 Q58.3069 787.697 56.6518 784.577 L62.1899 784.577 Q63.5267 787.728 64.227 791.039 Q64.9272 794.349 64.9272 797.754 Q64.9272 806.284 59.9619 811.282 Q54.9967 816.247 46.5303 816.247 Q37.7774 816.247 32.6531 811.536 Q27.4968 806.794 27.4968 798.773 Q27.4968 791.58 32.1438 787.41 Q36.7589 783.209 44.7161 783.209 M42.9973 789.065 Q38.1912 789.129 35.3266 791.771 Q32.4621 794.381 32.4621 798.709 Q32.4621 803.611 35.2312 806.571 Q38.0002 809.499 43.0292 809.945 L42.9973 789.065 Z" fill="#000000" fill-rule="nonzero" fill-opacity="1" /><path clip-path="url(#clip060)" d="M42.4881 743.964 L64.0042 743.964 L64.0042 749.821 L42.679 749.821 Q37.6183 749.821 35.1038 751.794 Q32.5894 753.767 32.5894 757.714 Q32.5894 762.457 35.6131 765.194 Q38.6368 767.931 43.8567 767.931 L64.0042 767.931 L64.0042 773.819 L28.3562 773.819 L28.3562 767.931 L33.8944 767.931 Q30.6797 765.83 29.0883 762.998 Q27.4968 760.133 27.4968 756.409 Q27.4968 750.266 31.3163 747.115 Q35.1038 743.964 42.4881 743.964 Z" fill="#000000" fill-rule="nonzero" fill-opacity="1" /><path clip-path="url(#clip060)" d="M18.2347 726.49 L28.3562 726.49 L28.3562 714.427 L32.9077 714.427 L32.9077 726.49 L52.2594 726.49 Q56.6199 726.49 57.8613 725.313 Q59.1026 724.103 59.1026 720.443 L59.1026 714.427 L64.0042 714.427 L64.0042 720.443 Q64.0042 727.222 61.4897 729.8 Q58.9434 732.379 52.2594 732.379 L32.9077 732.379 L32.9077 736.675 L28.3562 736.675 L28.3562 732.379 L18.2347 732.379 L18.2347 726.49 Z" fill="#000000" fill-rule="nonzero" fill-opacity="1" /><path clip-path="url(#clip060)" d="M46.0847 690.524 Q46.0847 697.622 47.7079 700.359 Q49.3312 703.096 53.2461 703.096 Q56.3653 703.096 58.2114 701.059 Q60.0256 698.99 60.0256 695.457 Q60.0256 690.588 56.5881 687.659 Q53.1188 684.699 47.3897 684.699 L46.0847 684.699 L46.0847 690.524 M43.6657 678.843 L64.0042 678.843 L64.0042 684.699 L58.5933 684.699 Q61.8398 686.705 63.3994 689.697 Q64.9272 692.688 64.9272 697.017 Q64.9272 702.492 61.8716 705.738 Q58.7843 708.953 53.6281 708.953 Q47.6125 708.953 44.5569 704.942 Q41.5014 700.9 41.5014 692.911 L41.5014 684.699 L40.9285 684.699 Q36.8862 684.699 34.6901 687.373 Q32.4621 690.015 32.4621 694.821 Q32.4621 697.876 33.1941 700.773 Q33.9262 703.669 35.3903 706.343 L29.9795 706.343 Q28.7381 703.128 28.1334 700.104 Q27.4968 697.081 27.4968 694.216 Q27.4968 686.482 31.5072 682.662 Q35.5176 678.843 43.6657 678.843 Z" fill="#000000" fill-rule="nonzero" fill-opacity="1" /><path clip-path="url(#clip060)" d="M45.7664 643.322 Q39.4007 643.322 35.8996 645.964 Q32.3984 648.574 32.3984 653.316 Q32.3984 658.027 35.8996 660.669 Q39.4007 663.279 45.7664 663.279 Q52.1003 663.279 55.6014 660.669 Q59.1026 658.027 59.1026 653.316 Q59.1026 648.574 55.6014 645.964 Q52.1003 643.322 45.7664 643.322 M59.58 637.466 Q68.683 637.466 73.1071 641.508 Q77.5631 645.55 77.5631 653.889 Q77.5631 656.977 77.0857 659.714 Q76.6401 662.451 75.6852 665.029 L69.9879 665.029 Q71.3884 662.451 72.0568 659.937 Q72.7252 657.422 72.7252 654.812 Q72.7252 649.051 69.7015 646.187 Q66.7096 643.322 60.6303 643.322 L57.7339 643.322 Q60.885 645.137 62.4446 647.969 Q64.0042 650.802 64.0042 654.749 Q64.0042 661.305 59.0071 665.316 Q54.01 669.326 45.7664 669.326 Q37.491 669.326 32.4939 665.316 Q27.4968 661.305 27.4968 654.749 Q27.4968 650.802 29.0564 647.969 Q30.616 645.137 33.7671 643.322 L28.3562 643.322 L28.3562 637.466 L59.58 637.466 Z" fill="#000000" fill-rule="nonzero" fill-opacity="1" /><path clip-path="url(#clip060)" d="M44.7161 594.911 L47.5806 594.911 L47.5806 621.838 Q53.6281 621.456 56.8109 618.21 Q59.9619 614.931 59.9619 609.107 Q59.9619 605.733 59.1344 602.582 Q58.3069 599.399 56.6518 596.28 L62.1899 596.28 Q63.5267 599.431 64.227 602.741 Q64.9272 606.051 64.9272 609.457 Q64.9272 617.987 59.9619 622.984 Q54.9967 627.949 46.5303 627.949 Q37.7774 627.949 32.6531 623.239 Q27.4968 618.496 27.4968 610.475 Q27.4968 603.282 32.1438 599.113 Q36.7589 594.911 44.7161 594.911 M42.9973 600.768 Q38.1912 600.831 35.3266 603.473 Q32.4621 606.083 32.4621 610.412 Q32.4621 615.313 35.2312 618.273 Q38.0002 621.202 43.0292 621.647 L42.9973 600.768 Z" fill="#000000" fill-rule="nonzero" fill-opacity="1" /><path clip-path="url(#clip060)" d="M507.305 18.8205 L507.305 65.8515 L517.189 65.8515 Q529.706 65.8515 535.499 60.1802 Q541.332 54.509 541.332 42.2752 Q541.332 30.1225 535.499 24.4918 Q529.706 18.8205 517.189 18.8205 L507.305 18.8205 M499.122 12.096 L515.933 12.096 Q533.514 12.096 541.738 19.4281 Q549.961 26.7198 549.961 42.2752 Q549.961 57.9117 541.697 65.2439 Q533.433 72.576 515.933 72.576 L499.122 72.576 L499.122 12.096 Z" fill="#000000" fill-rule="nonzero" fill-opacity="1" /><path clip-path="url(#clip060)" d="M601.488 48.0275 L601.488 51.6733 L567.218 51.6733 Q567.704 59.3701 571.836 63.421 Q576.008 67.4314 583.421 67.4314 Q587.715 67.4314 591.726 66.3781 Q595.777 65.3249 599.746 63.2184 L599.746 70.267 Q595.736 71.9684 591.523 72.8596 Q587.31 73.7508 582.976 73.7508 Q572.119 73.7508 565.759 67.4314 Q559.44 61.1119 559.44 50.3365 Q559.44 39.1965 565.435 32.6746 Q571.471 26.1121 581.679 26.1121 Q590.834 26.1121 596.141 32.0264 Q601.488 37.9003 601.488 48.0275 M594.035 45.84 Q593.954 39.7232 590.591 36.0774 Q587.27 32.4315 581.76 32.4315 Q575.522 32.4315 571.755 35.9558 Q568.028 39.4801 567.461 45.8805 L594.035 45.84 Z" fill="#000000" fill-rule="nonzero" fill-opacity="1" /><path clip-path="url(#clip060)" d="M651.436 45.1919 L651.436 72.576 L643.982 72.576 L643.982 45.4349 Q643.982 38.994 641.471 35.7938 Q638.959 32.5936 633.936 32.5936 Q627.9 32.5936 624.416 36.4419 Q620.933 40.2903 620.933 46.9338 L620.933 72.576 L613.439 72.576 L613.439 27.2059 L620.933 27.2059 L620.933 34.2544 Q623.606 30.163 627.212 28.1376 Q630.857 26.1121 635.597 26.1121 Q643.415 26.1121 647.426 30.9732 Q651.436 35.7938 651.436 45.1919 Z" fill="#000000" fill-rule="nonzero" fill-opacity="1" /><path clip-path="url(#clip060)" d="M695.226 28.5427 L695.226 35.5912 Q692.067 33.9709 688.664 33.1607 Q685.261 32.3505 681.615 32.3505 Q676.066 32.3505 673.27 34.0519 Q670.516 35.7533 670.516 39.156 Q670.516 41.7486 672.501 43.2475 Q674.486 44.7058 680.481 46.0426 L683.033 46.6097 Q690.973 48.3111 694.295 51.4303 Q697.657 54.509 697.657 60.0587 Q697.657 66.3781 692.634 70.0644 Q687.651 73.7508 678.901 73.7508 Q675.255 73.7508 671.285 73.0216 Q667.356 72.3329 662.981 70.9151 L662.981 63.2184 Q667.113 65.3654 671.123 66.4591 Q675.134 67.5124 679.063 67.5124 Q684.329 67.5124 687.165 65.73 Q690.001 63.9071 690.001 60.6258 Q690.001 57.5877 687.935 55.9673 Q685.909 54.3469 678.982 52.8481 L676.39 52.2405 Q669.463 50.7821 666.384 47.7845 Q663.305 44.7463 663.305 39.4801 Q663.305 33.0797 667.842 29.5959 Q672.379 26.1121 680.724 26.1121 Q684.856 26.1121 688.502 26.7198 Q692.148 27.3274 695.226 28.5427 Z" fill="#000000" fill-rule="nonzero" fill-opacity="1" /><path clip-path="url(#clip060)" d="M709.526 27.2059 L716.98 27.2059 L716.98 72.576 L709.526 72.576 L709.526 27.2059 M709.526 9.54393 L716.98 9.54393 L716.98 18.9825 L709.526 18.9825 L709.526 9.54393 Z" fill="#000000" fill-rule="nonzero" fill-opacity="1" /><path clip-path="url(#clip060)" d="M739.948 14.324 L739.948 27.2059 L755.301 27.2059 L755.301 32.9987 L739.948 32.9987 L739.948 57.6282 Q739.948 63.1779 741.447 64.7578 Q742.986 66.3376 747.645 66.3376 L755.301 66.3376 L755.301 72.576 L747.645 72.576 Q739.017 72.576 735.735 69.3758 Q732.454 66.1351 732.454 57.6282 L732.454 32.9987 L726.985 32.9987 L726.985 27.2059 L732.454 27.2059 L732.454 14.324 L739.948 14.324 Z" fill="#000000" fill-rule="nonzero" fill-opacity="1" /><path clip-path="url(#clip060)" d="M783.982 76.7889 Q780.822 84.8907 777.824 87.3618 Q774.827 89.8329 769.803 89.8329 L763.849 89.8329 L763.849 83.5945 L768.224 83.5945 Q771.302 83.5945 773.004 82.1361 Q774.705 80.6778 776.771 75.2496 L778.108 71.8468 L759.757 27.2059 L767.656 27.2059 L781.835 62.6918 L796.013 27.2059 L803.912 27.2059 L783.982 76.7889 Z" fill="#000000" fill-rule="nonzero" fill-opacity="1" /><path clip-path="url(#clip060)" d="M849.08 18.8205 L849.08 41.5461 L859.369 41.5461 Q865.081 41.5461 868.2 38.5889 Q871.319 35.6318 871.319 30.163 Q871.319 24.7348 868.2 21.7777 Q865.081 18.8205 859.369 18.8205 L849.08 18.8205 M840.897 12.096 L859.369 12.096 Q869.537 12.096 874.722 16.714 Q879.948 21.2916 879.948 30.163 Q879.948 39.1155 874.722 43.6931 Q869.537 48.2706 859.369 48.2706 L849.08 48.2706 L849.08 72.576 L840.897 72.576 L840.897 12.096 Z" fill="#000000" fill-rule="nonzero" fill-opacity="1" /><path clip-path="url(#clip060)" d="M890.601 9.54393 L898.055 9.54393 L898.055 72.576 L890.601 72.576 L890.601 9.54393 Z" fill="#000000" fill-rule="nonzero" fill-opacity="1" /><path clip-path="url(#clip060)" d="M931.232 32.4315 Q925.237 32.4315 921.753 37.1306 Q918.269 41.7891 918.269 49.9314 Q918.269 58.0738 921.712 62.7728 Q925.196 67.4314 931.232 67.4314 Q937.187 67.4314 940.671 62.7323 Q944.154 58.0333 944.154 49.9314 Q944.154 41.8701 940.671 37.1711 Q937.187 32.4315 931.232 32.4315 M931.232 26.1121 Q940.954 26.1121 946.504 32.4315 Q952.054 38.7509 952.054 49.9314 Q952.054 61.0714 946.504 67.4314 Q940.954 73.7508 931.232 73.7508 Q921.469 73.7508 915.92 67.4314 Q910.41 61.0714 910.41 49.9314 Q910.41 38.7509 915.92 32.4315 Q921.469 26.1121 931.232 26.1121 Z" fill="#000000" fill-rule="nonzero" fill-opacity="1" /><path clip-path="url(#clip060)" d="M971.782 14.324 L971.782 27.2059 L987.134 27.2059 L987.134 32.9987 L971.782 32.9987 L971.782 57.6282 Q971.782 63.1779 973.28 64.7578 Q974.82 66.3376 979.478 66.3376 L987.134 66.3376 L987.134 72.576 L979.478 72.576 Q970.85 72.576 967.569 69.3758 Q964.287 66.1351 964.287 57.6282 L964.287 32.9987 L958.819 32.9987 L958.819 27.2059 L964.287 27.2059 L964.287 14.324 L971.782 14.324 Z" fill="#000000" fill-rule="nonzero" fill-opacity="1" /><path clip-path="url(#clip060)" d="M1040.89 32.4315 Q1034.89 32.4315 1031.41 37.1306 Q1027.93 41.7891 1027.93 49.9314 Q1027.93 58.0738 1031.37 62.7728 Q1034.85 67.4314 1040.89 67.4314 Q1046.84 67.4314 1050.33 62.7323 Q1053.81 58.0333 1053.81 49.9314 Q1053.81 41.8701 1050.33 37.1711 Q1046.84 32.4315 1040.89 32.4315 M1040.89 26.1121 Q1050.61 26.1121 1056.16 32.4315 Q1061.71 38.7509 1061.71 49.9314 Q1061.71 61.0714 1056.16 67.4314 Q1050.61 73.7508 1040.89 73.7508 Q1031.13 73.7508 1025.58 67.4314 Q1020.07 61.0714 1020.07 49.9314 Q1020.07 38.7509 1025.58 32.4315 Q1031.13 26.1121 1040.89 26.1121 Z" fill="#000000" fill-rule="nonzero" fill-opacity="1" /><path clip-path="url(#clip060)" d="M1097.04 9.54393 L1097.04 15.7418 L1089.91 15.7418 Q1085.9 15.7418 1084.32 17.3622 Q1082.78 18.9825 1082.78 23.1955 L1082.78 27.2059 L1095.05 27.2059 L1095.05 32.9987 L1082.78 32.9987 L1082.78 72.576 L1075.28 72.576 L1075.28 32.9987 L1068.15 32.9987 L1068.15 27.2059 L1075.28 27.2059 L1075.28 24.0462 Q1075.28 16.471 1078.81 13.0277 Q1082.33 9.54393 1089.99 9.54393 L1097.04 9.54393 Z" fill="#000000" fill-rule="nonzero" fill-opacity="1" /><path clip-path="url(#clip060)" d="M1150.18 20.1573 L1139.08 50.2555 L1161.32 50.2555 L1150.18 20.1573 M1145.57 12.096 L1154.84 12.096 L1177.89 72.576 L1169.38 72.576 L1163.88 57.061 L1136.61 57.061 L1131.1 72.576 L1122.48 72.576 L1145.57 12.096 Z" fill="#000000" fill-rule="nonzero" fill-opacity="1" /><path clip-path="url(#clip060)" d="M1216.25 49.3643 Q1216.25 41.2625 1212.89 36.8065 Q1209.57 32.3505 1203.53 32.3505 Q1197.54 32.3505 1194.18 36.8065 Q1190.85 41.2625 1190.85 49.3643 Q1190.85 57.4256 1194.18 61.8816 Q1197.54 66.3376 1203.53 66.3376 Q1209.57 66.3376 1212.89 61.8816 Q1216.25 57.4256 1216.25 49.3643 M1223.71 66.9452 Q1223.71 78.5308 1218.56 84.1616 Q1213.42 89.8329 1202.8 89.8329 Q1198.88 89.8329 1195.39 89.2252 Q1191.91 88.6581 1188.63 87.4428 L1188.63 80.1917 Q1191.91 81.9741 1195.11 82.8248 Q1198.31 83.6755 1201.63 83.6755 Q1208.96 83.6755 1212.61 79.8271 Q1216.25 76.0193 1216.25 68.282 L1216.25 64.5957 Q1213.94 68.6061 1210.34 70.5911 Q1206.73 72.576 1201.71 72.576 Q1193.37 72.576 1188.26 66.2161 Q1183.16 59.8562 1183.16 49.3643 Q1183.16 38.832 1188.26 32.472 Q1193.37 26.1121 1201.71 26.1121 Q1206.73 26.1121 1210.34 28.0971 Q1213.94 30.082 1216.25 34.0924 L1216.25 27.2059 L1223.71 27.2059 L1223.71 66.9452 Z" fill="#000000" fill-rule="nonzero" fill-opacity="1" /><path clip-path="url(#clip060)" d="M1277.87 48.0275 L1277.87 51.6733 L1243.6 51.6733 Q1244.08 59.3701 1248.22 63.421 Q1252.39 67.4314 1259.8 67.4314 Q1264.09 67.4314 1268.11 66.3781 Q1272.16 65.3249 1276.13 63.2184 L1276.13 70.267 Q1272.12 71.9684 1267.9 72.8596 Q1263.69 73.7508 1259.36 73.7508 Q1248.5 73.7508 1242.14 67.4314 Q1235.82 61.1119 1235.82 50.3365 Q1235.82 39.1965 1241.81 32.6746 Q1247.85 26.1121 1258.06 26.1121 Q1267.21 26.1121 1272.52 32.0264 Q1277.87 37.9003 1277.87 48.0275 M1270.41 45.84 Q1270.33 39.7232 1266.97 36.0774 Q1263.65 32.4315 1258.14 32.4315 Q1251.9 32.4315 1248.13 35.9558 Q1244.41 39.4801 1243.84 45.8805 L1270.41 45.84 Z" fill="#000000" fill-rule="nonzero" fill-opacity="1" /><path clip-path="url(#clip060)" d="M1349.04 49.9314 Q1349.04 41.7081 1345.64 37.0496 Q1342.28 32.3505 1336.36 32.3505 Q1330.45 32.3505 1327.05 37.0496 Q1323.68 41.7081 1323.68 49.9314 Q1323.68 58.1548 1327.05 62.8538 Q1330.45 67.5124 1336.36 67.5124 Q1342.28 67.5124 1345.64 62.8538 Q1349.04 58.1548 1349.04 49.9314 M1323.68 34.0924 Q1326.03 30.0415 1329.6 28.0971 Q1333.2 26.1121 1338.19 26.1121 Q1346.45 26.1121 1351.59 32.6746 Q1356.78 39.2371 1356.78 49.9314 Q1356.78 60.6258 1351.59 67.1883 Q1346.45 73.7508 1338.19 73.7508 Q1333.2 73.7508 1329.6 71.8063 Q1326.03 69.8214 1323.68 65.7705 L1323.68 72.576 L1316.19 72.576 L1316.19 9.54393 L1323.68 9.54393 L1323.68 34.0924 Z" fill="#000000" fill-rule="nonzero" fill-opacity="1" /><path clip-path="url(#clip060)" d="M1388.01 76.7889 Q1384.85 84.8907 1381.85 87.3618 Q1378.86 89.8329 1373.83 89.8329 L1367.88 89.8329 L1367.88 83.5945 L1372.25 83.5945 Q1375.33 83.5945 1377.03 82.1361 Q1378.74 80.6778 1380.8 75.2496 L1382.14 71.8468 L1363.79 27.2059 L1371.69 27.2059 L1385.86 62.6918 L1400.04 27.2059 L1407.94 27.2059 L1388.01 76.7889 Z" fill="#000000" fill-rule="nonzero" fill-opacity="1" /><path clip-path="url(#clip060)" d="M1436.54 12.096 L1487.7 12.096 L1487.7 18.9825 L1466.23 18.9825 L1466.23 72.576 L1458.01 72.576 L1458.01 18.9825 L1436.54 18.9825 L1436.54 12.096 Z" fill="#000000" fill-rule="nonzero" fill-opacity="1" /><path clip-path="url(#clip060)" d="M1509.38 34.1734 Q1508.12 33.4443 1506.62 33.1202 Q1505.16 32.7556 1503.38 32.7556 Q1497.06 32.7556 1493.66 36.8875 Q1490.3 40.9789 1490.3 48.6757 L1490.3 72.576 L1482.8 72.576 L1482.8 27.2059 L1490.3 27.2059 L1490.3 34.2544 Q1492.65 30.1225 1496.41 28.1376 Q1500.18 26.1121 1505.57 26.1121 Q1506.34 26.1121 1507.27 26.2337 Q1508.2 26.3147 1509.34 26.5172 L1509.38 34.1734 Z" fill="#000000" fill-rule="nonzero" fill-opacity="1" /><path clip-path="url(#clip060)" d="M1554.18 48.0275 L1554.18 51.6733 L1519.91 51.6733 Q1520.4 59.3701 1524.53 63.421 Q1528.7 67.4314 1536.11 67.4314 Q1540.41 67.4314 1544.42 66.3781 Q1548.47 65.3249 1552.44 63.2184 L1552.44 70.267 Q1548.43 71.9684 1544.21 72.8596 Q1540 73.7508 1535.67 73.7508 Q1524.81 73.7508 1518.45 67.4314 Q1512.13 61.1119 1512.13 50.3365 Q1512.13 39.1965 1518.13 32.6746 Q1524.16 26.1121 1534.37 26.1121 Q1543.53 26.1121 1548.83 32.0264 Q1554.18 37.9003 1554.18 48.0275 M1546.73 45.84 Q1546.65 39.7232 1543.28 36.0774 Q1539.96 32.4315 1534.45 32.4315 Q1528.21 32.4315 1524.45 35.9558 Q1520.72 39.4801 1520.15 45.8805 L1546.73 45.84 Z" fill="#000000" fill-rule="nonzero" fill-opacity="1" /><path clip-path="url(#clip060)" d="M1587.03 49.7694 Q1578 49.7694 1574.52 51.8354 Q1571.03 53.9013 1571.03 58.8839 Q1571.03 62.8538 1573.62 65.2034 Q1576.26 67.5124 1580.75 67.5124 Q1586.95 67.5124 1590.68 63.1374 Q1594.45 58.7219 1594.45 51.4303 L1594.45 49.7694 L1587.03 49.7694 M1601.9 46.6907 L1601.9 72.576 L1594.45 72.576 L1594.45 65.6895 Q1591.89 69.8214 1588.09 71.8063 Q1584.28 73.7508 1578.77 73.7508 Q1571.8 73.7508 1567.67 69.8619 Q1563.58 65.9325 1563.58 59.3701 Q1563.58 51.7138 1568.68 47.825 Q1573.83 43.9361 1583.99 43.9361 L1594.45 43.9361 L1594.45 43.2069 Q1594.45 38.0623 1591.04 35.2672 Q1587.68 32.4315 1581.56 32.4315 Q1577.68 32.4315 1573.99 33.3632 Q1570.3 34.295 1566.9 36.1584 L1566.9 29.2718 Q1570.99 27.692 1574.84 26.9223 Q1578.69 26.1121 1582.33 26.1121 Q1592.18 26.1121 1597.04 31.2163 Q1601.9 36.3204 1601.9 46.6907 Z" fill="#000000" fill-rule="nonzero" fill-opacity="1" /><path clip-path="url(#clip060)" d="M1624.63 14.324 L1624.63 27.2059 L1639.98 27.2059 L1639.98 32.9987 L1624.63 32.9987 L1624.63 57.6282 Q1624.63 63.1779 1626.12 64.7578 Q1627.66 66.3376 1632.32 66.3376 L1639.98 66.3376 L1639.98 72.576 L1632.32 72.576 Q1623.69 72.576 1620.41 69.3758 Q1617.13 66.1351 1617.13 57.6282 L1617.13 32.9987 L1611.66 32.9987 L1611.66 27.2059 L1617.13 27.2059 L1617.13 14.324 L1624.63 14.324 Z" fill="#000000" fill-rule="nonzero" fill-opacity="1" /><path clip-path="url(#clip060)" d="M1685.11 35.9153 Q1687.9 30.8922 1691.79 28.5022 Q1695.68 26.1121 1700.94 26.1121 Q1708.03 26.1121 1711.88 31.0947 Q1715.73 36.0368 1715.73 45.1919 L1715.73 72.576 L1708.24 72.576 L1708.24 45.4349 Q1708.24 38.913 1705.93 35.7533 Q1703.62 32.5936 1698.88 32.5936 Q1693.09 32.5936 1689.72 36.4419 Q1686.36 40.2903 1686.36 46.9338 L1686.36 72.576 L1678.87 72.576 L1678.87 45.4349 Q1678.87 38.8725 1676.56 35.7533 Q1674.25 32.5936 1669.43 32.5936 Q1663.72 32.5936 1660.35 36.4824 Q1656.99 40.3308 1656.99 46.9338 L1656.99 72.576 L1649.5 72.576 L1649.5 27.2059 L1656.99 27.2059 L1656.99 34.2544 Q1659.54 30.082 1663.11 28.0971 Q1666.67 26.1121 1671.58 26.1121 Q1676.52 26.1121 1679.96 28.6237 Q1683.44 31.1352 1685.11 35.9153 Z" fill="#000000" fill-rule="nonzero" fill-opacity="1" /><path clip-path="url(#clip060)" d="M1769.4 48.0275 L1769.4 51.6733 L1735.13 51.6733 Q1735.62 59.3701 1739.75 63.421 Q1743.92 67.4314 1751.34 67.4314 Q1755.63 67.4314 1759.64 66.3781 Q1763.69 65.3249 1767.66 63.2184 L1767.66 70.267 Q1763.65 71.9684 1759.44 72.8596 Q1755.23 73.7508 1750.89 73.7508 Q1740.04 73.7508 1733.68 67.4314 Q1727.36 61.1119 1727.36 50.3365 Q1727.36 39.1965 1733.35 32.6746 Q1739.39 26.1121 1749.6 26.1121 Q1758.75 26.1121 1764.06 32.0264 Q1769.4 37.9003 1769.4 48.0275 M1761.95 45.84 Q1761.87 39.7232 1758.51 36.0774 Q1755.19 32.4315 1749.68 32.4315 Q1743.44 32.4315 1739.67 35.9558 Q1735.94 39.4801 1735.38 45.8805 L1761.95 45.84 Z" fill="#000000" fill-rule="nonzero" fill-opacity="1" /><path clip-path="url(#clip060)" d="M1819.35 45.1919 L1819.35 72.576 L1811.9 72.576 L1811.9 45.4349 Q1811.9 38.994 1809.39 35.7938 Q1806.88 32.5936 1801.85 32.5936 Q1795.82 32.5936 1792.33 36.4419 Q1788.85 40.2903 1788.85 46.9338 L1788.85 72.576 L1781.35 72.576 L1781.35 27.2059 L1788.85 27.2059 L1788.85 34.2544 Q1791.52 30.163 1795.13 28.1376 Q1798.77 26.1121 1803.51 26.1121 Q1811.33 26.1121 1815.34 30.9732 Q1819.35 35.7938 1819.35 45.1919 Z" fill="#000000" fill-rule="nonzero" fill-opacity="1" /><path clip-path="url(#clip060)" d="M1841.59 14.324 L1841.59 27.2059 L1856.94 27.2059 L1856.94 32.9987 L1841.59 32.9987 L1841.59 57.6282 Q1841.59 63.1779 1843.09 64.7578 Q1844.63 66.3376 1849.29 66.3376 L1856.94 66.3376 L1856.94 72.576 L1849.29 72.576 Q1840.66 72.576 1837.38 69.3758 Q1834.1 66.1351 1834.1 57.6282 L1834.1 32.9987 L1828.63 32.9987 L1828.63 27.2059 L1834.1 27.2059 L1834.1 14.324 L1841.59 14.324 Z" fill="#000000" fill-rule="nonzero" fill-opacity="1" /><path clip-path="url(#clip060)" d="M1934.68 63.9476 L1934.68 47.7034 L1921.31 47.7034 L1921.31 40.9789 L1942.78 40.9789 L1942.78 66.9452 Q1938.04 70.3075 1932.33 72.0494 Q1926.62 73.7508 1920.14 73.7508 Q1905.96 73.7508 1897.94 65.4869 Q1889.96 57.1826 1889.96 42.3968 Q1889.96 27.5705 1897.94 19.3066 Q1905.96 11.0023 1920.14 11.0023 Q1926.05 11.0023 1931.36 12.4606 Q1936.71 13.9189 1941.2 16.7545 L1941.2 25.464 Q1936.67 21.6156 1931.56 19.6712 Q1926.46 17.7268 1920.83 17.7268 Q1909.73 17.7268 1904.14 23.9246 Q1898.59 30.1225 1898.59 42.3968 Q1898.59 54.6305 1904.14 60.8284 Q1909.73 67.0263 1920.83 67.0263 Q1925.16 67.0263 1928.56 66.2971 Q1931.97 65.5274 1934.68 63.9476 Z" fill="#000000" fill-rule="nonzero" fill-opacity="1" /><path clip-path="url(#clip060)" d="M1983.7 34.1734 Q1982.44 33.4443 1980.94 33.1202 Q1979.48 32.7556 1977.7 32.7556 Q1971.38 32.7556 1967.98 36.8875 Q1964.62 40.9789 1964.62 48.6757 L1964.62 72.576 L1957.12 72.576 L1957.12 27.2059 L1964.62 27.2059 L1964.62 34.2544 Q1966.97 30.1225 1970.73 28.1376 Q1974.5 26.1121 1979.89 26.1121 Q1980.66 26.1121 1981.59 26.2337 Q1982.52 26.3147 1983.66 26.5172 L1983.7 34.1734 Z" fill="#000000" fill-rule="nonzero" fill-opacity="1" /><path clip-path="url(#clip060)" d="M2007.27 32.4315 Q2001.28 32.4315 1997.79 37.1306 Q1994.31 41.7891 1994.31 49.9314 Q1994.31 58.0738 1997.75 62.7728 Q2001.24 67.4314 2007.27 67.4314 Q2013.23 67.4314 2016.71 62.7323 Q2020.2 58.0333 2020.2 49.9314 Q2020.2 41.8701 2016.71 37.1711 Q2013.23 32.4315 2007.27 32.4315 M2007.27 26.1121 Q2017 26.1121 2022.55 32.4315 Q2028.1 38.7509 2028.1 49.9314 Q2028.1 61.0714 2022.55 67.4314 Q2017 73.7508 2007.27 73.7508 Q1997.51 73.7508 1991.96 67.4314 Q1986.45 61.0714 1986.45 49.9314 Q1986.45 38.7509 1991.96 32.4315 Q1997.51 26.1121 2007.27 26.1121 Z" fill="#000000" fill-rule="nonzero" fill-opacity="1" /><path clip-path="url(#clip060)" d="M2039.68 54.671 L2039.68 27.2059 L2047.13 27.2059 L2047.13 54.3874 Q2047.13 60.8284 2049.65 64.0691 Q2052.16 67.2693 2057.18 67.2693 Q2063.22 67.2693 2066.7 63.421 Q2070.22 59.5726 2070.22 52.9291 L2070.22 27.2059 L2077.68 27.2059 L2077.68 72.576 L2070.22 72.576 L2070.22 65.6084 Q2067.51 69.7404 2063.91 71.7658 Q2060.34 73.7508 2055.6 73.7508 Q2047.78 73.7508 2043.73 68.8897 Q2039.68 64.0286 2039.68 54.671 M2058.44 26.1121 L2058.44 26.1121 Z" fill="#000000" fill-rule="nonzero" fill-opacity="1" /><path clip-path="url(#clip060)" d="M2100.24 65.7705 L2100.24 89.8329 L2092.75 89.8329 L2092.75 27.2059 L2100.24 27.2059 L2100.24 34.0924 Q2102.59 30.0415 2106.16 28.0971 Q2109.76 26.1121 2114.74 26.1121 Q2123.01 26.1121 2128.15 32.6746 Q2133.34 39.2371 2133.34 49.9314 Q2133.34 60.6258 2128.15 67.1883 Q2123.01 73.7508 2114.74 73.7508 Q2109.76 73.7508 2106.16 71.8063 Q2102.59 69.8214 2100.24 65.7705 M2125.6 49.9314 Q2125.6 41.7081 2122.2 37.0496 Q2118.84 32.3505 2112.92 32.3505 Q2107.01 32.3505 2103.6 37.0496 Q2100.24 41.7081 2100.24 49.9314 Q2100.24 58.1548 2103.6 62.8538 Q2107.01 67.5124 2112.92 67.5124 Q2118.84 67.5124 2122.2 62.8538 Q2125.6 58.1548 2125.6 49.9314 Z" fill="#000000" fill-rule="nonzero" fill-opacity="1" /><polyline clip-path="url(#clip062)" style="stroke:#009af9; stroke-linecap:round; stroke-linejoin:round; stroke-width:4; stroke-opacity:1; fill:none" points="338.375,1386.4 348.203,1386.39 358.031,1386.36 367.858,1386.33 377.686,1386.27 387.514,1386.18 397.341,1386.04 407.169,1385.85 416.997,1385.58 426.824,1385.2 436.652,1384.68 446.48,1383.97 456.307,1383.04 466.135,1381.81 475.963,1380.24 485.79,1378.24 495.618,1375.76 505.446,1372.72 515.274,1369.05 525.101,1364.69 534.929,1359.59 544.757,1353.72 554.584,1347.06 564.412,1339.6 574.24,1331.38 584.067,1322.4 593.895,1312.73 603.723,1302.39 613.55,1291.42 623.378,1279.84 633.206,1267.65 643.033,1254.82 652.861,1241.25 662.689,1226.83 672.517,1211.4 682.344,1194.75 692.172,1176.66 702,1156.86 711.827,1135.09 721.655,1111.12 731.483,1084.72 741.31,1055.7 751.138,1023.95 760.966,989.424 770.793,952.141 780.621,912.21 790.449,869.822 800.276,825.245 810.104,778.82 819.932,730.953 829.759,682.108 839.587,632.79 849.415,583.543 859.243,534.93 869.07,487.525 878.898,441.894 888.726,398.583 898.553,358.096 908.381,320.877 918.209,287.296 928.036,257.629 937.864,232.049 947.692,210.619 957.519,193.293 967.347,179.92 977.175,170.262 987.002,164.008 996.83,160.801 1006.66,160.256 1016.49,161.991 1026.31,165.639 1036.14,170.873 1045.97,177.413 1055.8,185.033 1065.62,193.566 1075.45,202.895 1085.28,212.947 1095.11,223.685 1104.93,235.092 1114.76,247.157 1124.59,259.867 1134.42,273.192 1144.25,287.08 1154.07,301.448 1163.9,316.185 1173.73,331.145 1183.56,346.155 1193.38,361.018 1203.21,375.514 1213.04,389.415 1222.87,402.482 1232.69,414.48 1242.52,425.184 1252.35,434.387 1262.18,441.913 1272.01,447.627 1281.83,451.445 1291.66,453.345 1301.49,453.374 1311.32,451.656 1321.14,448.39 1330.97,443.848 1340.8,438.367 1350.63,432.33 1360.45,426.151 1370.28,420.248 1380.11,415.016 1389.94,410.807 1399.77,407.899 1409.59,406.486 1419.42,406.66 1429.25,408.409 1439.08,411.628 1448.9,416.124 1458.73,421.642 1468.56,427.887 1478.39,434.554 1488.21,441.35 1498.04,448.022 1507.87,454.371 1517.7,460.265 1527.53,465.641 1537.35,470.504 1547.18,474.91 1557.01,478.954 1566.84,482.751 1576.66,486.41 1586.49,490.015 1596.32,493.615 1606.15,497.204 1615.97,500.725 1625.8,504.07 1635.63,507.091 1645.46,509.618 1655.29,511.483 1665.11,512.54 1674.94,512.694 1684.77,511.92 1694.6,510.278 1704.42,507.926 1714.25,505.12 1724.08,502.207 1733.91,499.609 1743.73,497.807 1753.56,497.306 1763.39,498.613 1773.22,502.205 1783.04,508.507 1792.87,517.861 1802.7,530.522 1812.53,546.638 1822.36,566.258 1832.18,589.324 1842.01,615.689 1851.84,645.121 1861.67,677.32 1871.49,711.928 1881.32,748.542 1891.15,786.729 1900.98,826.036 1910.8,866 1920.63,906.161 1930.46,946.073 1940.29,985.312 1950.12,1023.49 1959.94,1060.26 1969.77,1095.32 1979.6,1128.44 1989.43,1159.41 1999.25,1188.13 2009.08,1214.5 2018.91,1238.5 2028.74,1260.15 2038.56,1279.5 2048.39,1296.65 2058.22,1311.71 2068.05,1324.81 2077.88,1336.09 2087.7,1345.71 2097.53,1353.82 2107.36,1360.6 2117.19,1366.19 2127.01,1370.75 2136.84,1374.43 2146.67,1377.36 2156.5,1379.65 2166.32,1381.43 2176.15,1382.8 2185.98,1383.82 2195.81,1384.58 2205.64,1385.14 2215.46,1385.54 2225.29,1385.83 2235.12,1386.03 2244.95,1386.17 2254.77,1386.26 2264.6,1386.32 2274.43,1386.36 2284.26,1386.38 2294.08,1386.4 "/>
<polyline clip-path="url(#clip062)" style="stroke:#e26f46; stroke-linecap:round; stroke-linejoin:round; stroke-width:4; stroke-opacity:1; fill:none" points="350.629,1386.38 360.334,1386.37 370.038,1386.35 379.743,1386.3 389.447,1386.22 399.152,1386.11 408.857,1385.94 418.561,1385.7 428.266,1385.35 437.97,1384.86 447.675,1384.18 457.379,1383.27 467.084,1382.05 476.788,1380.46 486.493,1378.42 496.197,1375.85 505.902,1372.65 515.606,1368.76 525.311,1364.1 535.015,1358.61 544.72,1352.27 554.424,1345.05 564.129,1336.98 573.833,1328.1 583.538,1318.47 593.243,1308.2 602.947,1297.37 612.652,1286.08 622.356,1274.43 632.061,1262.46 641.765,1250.2 651.47,1237.61 661.174,1224.6 670.879,1211.04 680.583,1196.71 690.288,1181.37 699.992,1164.74 709.697,1146.51 719.401,1126.41 729.106,1104.16 738.81,1079.57 748.515,1052.47 758.22,1022.82 767.924,990.627 777.629,956.015 787.333,919.18 797.038,880.392 806.742,839.976 816.447,798.296 826.151,755.735 835.856,712.676 845.56,669.49 855.265,626.527 864.969,584.108 874.674,542.53 884.378,502.064 894.083,462.965 903.787,425.476 913.492,389.836 923.197,356.289 932.901,325.082 942.606,296.474 952.31,270.734 962.015,248.133 971.719,228.941 981.424,213.413 991.128,201.774 1000.83,194.201 1010.54,190.801 1020.24,191.596 1029.95,196.503 1039.65,205.324 1049.36,217.744 1059.06,233.334 1068.76,251.568 1078.47,271.845 1088.17,293.514 1097.88,315.913 1107.58,338.394 1117.29,360.356 1126.99,381.27 1136.7,400.694 1146.4,418.284 1156.11,433.797 1165.81,447.086 1175.51,458.089 1185.22,466.814 1194.92,473.326 1204.63,477.727 1214.33,480.143 1224.04,480.708 1233.74,479.556 1243.45,476.811 1253.15,472.587 1262.86,466.983 1272.56,460.09 1282.26,451.99 1291.97,442.763 1301.67,432.489 1311.38,421.258 1321.08,409.169 1330.79,396.334 1340.49,382.88 1350.2,368.949 1359.9,354.697 1369.6,340.289 1379.31,325.896 1389.01,311.692 1398.72,297.845 1408.42,284.52 1418.13,271.869 1427.83,260.036 1437.54,249.154 1447.24,239.348 1456.95,230.737 1466.65,223.434 1476.35,217.551 1486.06,213.198 1495.76,210.481 1505.47,209.504 1515.17,210.367 1524.88,213.162 1534.58,217.971 1544.29,224.863 1553.99,233.889 1563.7,245.074 1573.4,258.417 1583.1,273.875 1592.81,291.366 1602.51,310.755 1612.22,331.858 1621.92,354.443 1631.63,378.23 1641.33,402.904 1651.04,428.124 1660.74,453.538 1670.45,478.798 1680.15,503.57 1689.85,527.55 1699.56,550.476 1709.26,572.128 1718.97,592.341 1728.67,611.007 1738.38,628.073 1748.08,643.549 1757.79,657.502 1767.49,670.058 1777.2,681.403 1786.9,691.776 1796.6,701.466 1806.31,710.807 1816.01,720.162 1825.72,729.916 1835.42,740.46 1845.13,752.165 1854.83,765.373 1864.54,780.368 1874.24,797.368 1883.94,816.502 1893.65,837.809 1903.35,861.231 1913.06,886.62 1922.76,913.745 1932.47,942.31 1942.17,971.97 1951.88,1002.35 1961.58,1033.06 1971.29,1063.73 1980.99,1093.98 1990.69,1123.49 2000.4,1151.96 2010.1,1179.12 2019.81,1204.76 2029.51,1228.7 2039.22,1250.81 2048.92,1271 2058.63,1289.22 2068.33,1305.47 2078.04,1319.77 2087.74,1332.2 2097.44,1342.85 2107.15,1351.85 2116.85,1359.35 2126.56,1365.51 2136.26,1370.49 2145.97,1374.45 2155.67,1377.56 2165.38,1379.96 2175.08,1381.77 2184.79,1383.13 2194.49,1384.13 2204.19,1384.85 2213.9,1385.36 2223.6,1385.72 2233.31,1385.97 2243.01,1386.13 2252.72,1386.24 2262.42,1386.31 2272.13,1386.35 2281.83,1386.37 "/>
<path clip-path="url(#clip060)" d="M1836.12 322.316 L2283.65 322.316 L2283.65 166.796 L1836.12 166.796  Z" fill="#ffffff" fill-rule="evenodd" fill-opacity="1"/>
<polyline clip-path="url(#clip060)" style="stroke:#000000; stroke-linecap:round; stroke-linejoin:round; stroke-width:4; stroke-opacity:1; fill:none" points="1836.12,322.316 2283.65,322.316 2283.65,166.796 1836.12,166.796 1836.12,322.316 "/>
<polyline clip-path="url(#clip060)" style="stroke:#009af9; stroke-linecap:round; stroke-linejoin:round; stroke-width:4; stroke-opacity:1; fill:none" points="1859.15,218.636 1997.36,218.636 "/>
<path clip-path="url(#clip060)" d="M2048.26 204.018 L2048.26 208.948 Q2045.9 206.749 2043.21 205.661 Q2040.55 204.573 2037.54 204.573 Q2031.62 204.573 2028.47 208.208 Q2025.32 211.819 2025.32 218.67 Q2025.32 225.499 2028.47 229.133 Q2031.62 232.744 2037.54 232.744 Q2040.55 232.744 2043.21 231.656 Q2045.9 230.569 2048.26 228.369 L2048.26 233.254 Q2045.81 234.92 2043.05 235.754 Q2040.32 236.587 2037.26 236.587 Q2029.42 236.587 2024.9 231.795 Q2020.39 226.981 2020.39 218.67 Q2020.39 210.337 2024.9 205.546 Q2029.42 200.731 2037.26 200.731 Q2040.37 200.731 2043.1 201.564 Q2045.85 202.374 2048.26 204.018 Z" fill="#000000" fill-rule="nonzero" fill-opacity="1" /><path clip-path="url(#clip060)" d="M2065.34 212.976 Q2061.92 212.976 2059.93 215.661 Q2057.94 218.323 2057.94 222.976 Q2057.94 227.629 2059.9 230.314 Q2061.89 232.976 2065.34 232.976 Q2068.75 232.976 2070.74 230.291 Q2072.73 227.606 2072.73 222.976 Q2072.73 218.37 2070.74 215.684 Q2068.75 212.976 2065.34 212.976 M2065.34 209.365 Q2070.9 209.365 2074.07 212.976 Q2077.24 216.587 2077.24 222.976 Q2077.24 229.342 2074.07 232.976 Q2070.9 236.587 2065.34 236.587 Q2059.76 236.587 2056.59 232.976 Q2053.45 229.342 2053.45 222.976 Q2053.45 216.587 2056.59 212.976 Q2059.76 209.365 2065.34 209.365 Z" fill="#000000" fill-rule="nonzero" fill-opacity="1" /><path clip-path="url(#clip060)" d="M2105.85 220.268 L2105.85 235.916 L2101.59 235.916 L2101.59 220.407 Q2101.59 216.726 2100.16 214.897 Q2098.72 213.069 2095.85 213.069 Q2092.4 213.069 2090.41 215.268 Q2088.42 217.467 2088.42 221.263 L2088.42 235.916 L2084.14 235.916 L2084.14 209.99 L2088.42 209.99 L2088.42 214.018 Q2089.95 211.68 2092.01 210.522 Q2094.09 209.365 2096.8 209.365 Q2101.27 209.365 2103.56 212.143 Q2105.85 214.897 2105.85 220.268 Z" fill="#000000" fill-rule="nonzero" fill-opacity="1" /><path clip-path="url(#clip060)" d="M2118.56 202.629 L2118.56 209.99 L2127.33 209.99 L2127.33 213.3 L2118.56 213.3 L2118.56 227.374 Q2118.56 230.545 2119.42 231.448 Q2120.3 232.351 2122.96 232.351 L2127.33 232.351 L2127.33 235.916 L2122.96 235.916 Q2118.03 235.916 2116.15 234.087 Q2114.28 232.235 2114.28 227.374 L2114.28 213.3 L2111.15 213.3 L2111.15 209.99 L2114.28 209.99 L2114.28 202.629 L2118.56 202.629 Z" fill="#000000" fill-rule="nonzero" fill-opacity="1" /><path clip-path="url(#clip060)" d="M2147.96 213.971 Q2147.24 213.555 2146.38 213.37 Q2145.55 213.161 2144.53 213.161 Q2140.92 213.161 2138.98 215.522 Q2137.06 217.86 2137.06 222.258 L2137.06 235.916 L2132.77 235.916 L2132.77 209.99 L2137.06 209.99 L2137.06 214.018 Q2138.4 211.657 2140.55 210.522 Q2142.7 209.365 2145.78 209.365 Q2146.22 209.365 2146.76 209.434 Q2147.29 209.481 2147.94 209.596 L2147.96 213.971 Z" fill="#000000" fill-rule="nonzero" fill-opacity="1" /><path clip-path="url(#clip060)" d="M2161.43 212.976 Q2158.01 212.976 2156.01 215.661 Q2154.02 218.323 2154.02 222.976 Q2154.02 227.629 2155.99 230.314 Q2157.98 232.976 2161.43 232.976 Q2164.83 232.976 2166.82 230.291 Q2168.82 227.606 2168.82 222.976 Q2168.82 218.37 2166.82 215.684 Q2164.83 212.976 2161.43 212.976 M2161.43 209.365 Q2166.99 209.365 2170.16 212.976 Q2173.33 216.587 2173.33 222.976 Q2173.33 229.342 2170.16 232.976 Q2166.99 236.587 2161.43 236.587 Q2155.85 236.587 2152.68 232.976 Q2149.53 229.342 2149.53 222.976 Q2149.53 216.587 2152.68 212.976 Q2155.85 209.365 2161.43 209.365 Z" fill="#000000" fill-rule="nonzero" fill-opacity="1" /><path clip-path="url(#clip060)" d="M2180.39 199.897 L2184.65 199.897 L2184.65 235.916 L2180.39 235.916 L2180.39 199.897 Z" fill="#000000" fill-rule="nonzero" fill-opacity="1" /><polyline clip-path="url(#clip060)" style="stroke:#e26f46; stroke-linecap:round; stroke-linejoin:round; stroke-width:4; stroke-opacity:1; fill:none" points="1859.15,270.476 1997.36,270.476 "/>
<path clip-path="url(#clip060)" d="M2020.39 253.196 L2049.63 253.196 L2049.63 257.131 L2037.36 257.131 L2037.36 287.756 L2032.66 287.756 L2032.66 257.131 L2020.39 257.131 L2020.39 253.196 Z" fill="#000000" fill-rule="nonzero" fill-opacity="1" /><path clip-path="url(#clip060)" d="M2062.01 265.811 Q2061.29 265.395 2060.44 265.21 Q2059.6 265.001 2058.58 265.001 Q2054.97 265.001 2053.03 267.362 Q2051.11 269.7 2051.11 274.098 L2051.11 287.756 L2046.83 287.756 L2046.83 261.83 L2051.11 261.83 L2051.11 265.858 Q2052.45 263.497 2054.6 262.362 Q2056.76 261.205 2059.83 261.205 Q2060.27 261.205 2060.81 261.274 Q2061.34 261.321 2061.99 261.436 L2062.01 265.811 Z" fill="#000000" fill-rule="nonzero" fill-opacity="1" /><path clip-path="url(#clip060)" d="M2087.61 273.728 L2087.61 275.811 L2068.03 275.811 Q2068.31 280.209 2070.67 282.524 Q2073.05 284.816 2077.29 284.816 Q2079.74 284.816 2082.03 284.214 Q2084.35 283.612 2086.62 282.409 L2086.62 286.436 Q2084.32 287.408 2081.92 287.918 Q2079.51 288.427 2077.03 288.427 Q2070.83 288.427 2067.2 284.816 Q2063.58 281.205 2063.58 275.047 Q2063.58 268.682 2067.01 264.955 Q2070.46 261.205 2076.29 261.205 Q2081.52 261.205 2084.56 264.585 Q2087.61 267.941 2087.61 273.728 M2083.35 272.478 Q2083.31 268.983 2081.39 266.899 Q2079.49 264.816 2076.34 264.816 Q2072.77 264.816 2070.62 266.83 Q2068.49 268.844 2068.17 272.501 L2083.35 272.478 Z" fill="#000000" fill-rule="nonzero" fill-opacity="1" /><path clip-path="url(#clip060)" d="M2106.38 274.723 Q2101.22 274.723 2099.23 275.904 Q2097.24 277.084 2097.24 279.932 Q2097.24 282.2 2098.72 283.543 Q2100.23 284.862 2102.8 284.862 Q2106.34 284.862 2108.47 282.362 Q2110.62 279.839 2110.62 275.672 L2110.62 274.723 L2106.38 274.723 M2114.88 272.964 L2114.88 287.756 L2110.62 287.756 L2110.62 283.821 Q2109.16 286.182 2106.99 287.316 Q2104.81 288.427 2101.66 288.427 Q2097.68 288.427 2095.32 286.205 Q2092.98 283.959 2092.98 280.209 Q2092.98 275.834 2095.9 273.612 Q2098.84 271.39 2104.65 271.39 L2110.62 271.39 L2110.62 270.973 Q2110.62 268.034 2108.68 266.436 Q2106.76 264.816 2103.26 264.816 Q2101.04 264.816 2098.93 265.348 Q2096.82 265.881 2094.88 266.946 L2094.88 263.01 Q2097.22 262.108 2099.42 261.668 Q2101.62 261.205 2103.7 261.205 Q2109.32 261.205 2112.1 264.122 Q2114.88 267.038 2114.88 272.964 Z" fill="#000000" fill-rule="nonzero" fill-opacity="1" /><path clip-path="url(#clip060)" d="M2127.87 254.469 L2127.87 261.83 L2136.64 261.83 L2136.64 265.14 L2127.87 265.14 L2127.87 279.214 Q2127.87 282.385 2128.72 283.288 Q2129.6 284.191 2132.26 284.191 L2136.64 284.191 L2136.64 287.756 L2132.26 287.756 Q2127.33 287.756 2125.46 285.927 Q2123.58 284.075 2123.58 279.214 L2123.58 265.14 L2120.46 265.14 L2120.46 261.83 L2123.58 261.83 L2123.58 254.469 L2127.87 254.469 Z" fill="#000000" fill-rule="nonzero" fill-opacity="1" /><path clip-path="url(#clip060)" d="M2162.43 266.807 Q2164.02 263.936 2166.25 262.571 Q2168.47 261.205 2171.48 261.205 Q2175.53 261.205 2177.73 264.052 Q2179.93 266.876 2179.93 272.108 L2179.93 287.756 L2175.64 287.756 L2175.64 272.247 Q2175.64 268.52 2174.32 266.714 Q2173 264.909 2170.3 264.909 Q2166.99 264.909 2165.07 267.108 Q2163.14 269.307 2163.14 273.103 L2163.14 287.756 L2158.86 287.756 L2158.86 272.247 Q2158.86 268.497 2157.54 266.714 Q2156.22 264.909 2153.47 264.909 Q2150.2 264.909 2148.28 267.131 Q2146.36 269.33 2146.36 273.103 L2146.36 287.756 L2142.08 287.756 L2142.08 261.83 L2146.36 261.83 L2146.36 265.858 Q2147.82 263.473 2149.86 262.339 Q2151.89 261.205 2154.69 261.205 Q2157.52 261.205 2159.49 262.64 Q2161.48 264.075 2162.43 266.807 Z" fill="#000000" fill-rule="nonzero" fill-opacity="1" /><path clip-path="url(#clip060)" d="M2210.6 273.728 L2210.6 275.811 L2191.01 275.811 Q2191.29 280.209 2193.65 282.524 Q2196.04 284.816 2200.27 284.816 Q2202.73 284.816 2205.02 284.214 Q2207.33 283.612 2209.6 282.409 L2209.6 286.436 Q2207.31 287.408 2204.9 287.918 Q2202.5 288.427 2200.02 288.427 Q2193.82 288.427 2190.18 284.816 Q2186.57 281.205 2186.57 275.047 Q2186.57 268.682 2190 264.955 Q2193.44 261.205 2199.28 261.205 Q2204.51 261.205 2207.54 264.585 Q2210.6 267.941 2210.6 273.728 M2206.34 272.478 Q2206.29 268.983 2204.37 266.899 Q2202.47 264.816 2199.32 264.816 Q2195.76 264.816 2193.61 266.83 Q2191.48 268.844 2191.15 272.501 L2206.34 272.478 Z" fill="#000000" fill-rule="nonzero" fill-opacity="1" /><path clip-path="url(#clip060)" d="M2239.14 272.108 L2239.14 287.756 L2234.88 287.756 L2234.88 272.247 Q2234.88 268.566 2233.44 266.737 Q2232.01 264.909 2229.14 264.909 Q2225.69 264.909 2223.7 267.108 Q2221.71 269.307 2221.71 273.103 L2221.71 287.756 L2217.43 287.756 L2217.43 261.83 L2221.71 261.83 L2221.71 265.858 Q2223.24 263.52 2225.3 262.362 Q2227.38 261.205 2230.09 261.205 Q2234.56 261.205 2236.85 263.983 Q2239.14 266.737 2239.14 272.108 Z" fill="#000000" fill-rule="nonzero" fill-opacity="1" /><path clip-path="url(#clip060)" d="M2251.85 254.469 L2251.85 261.83 L2260.62 261.83 L2260.62 265.14 L2251.85 265.14 L2251.85 279.214 Q2251.85 282.385 2252.7 283.288 Q2253.58 284.191 2256.25 284.191 L2260.62 284.191 L2260.62 287.756 L2256.25 287.756 Q2251.31 287.756 2249.44 285.927 Q2247.56 284.075 2247.56 279.214 L2247.56 265.14 L2244.44 265.14 L2244.44 261.83 L2247.56 261.83 L2247.56 254.469 L2251.85 254.469 Z" fill="#000000" fill-rule="nonzero" fill-opacity="1" /></svg>