<?xml version="1.0" encoding="UTF-8"?>
<svg xmlns="http://www.w3.org/2000/svg"
     xmlns:xlink="http://www.w3.org/1999/xlink"
     xmlns:gadfly="http://www.gadflyjl.org/ns"
     version="1.2"
     width="141.42mm" height="100mm" viewBox="0 0 141.42 100"
     stroke="none"
     fill="#000000"
     stroke-width="0.3"
     font-size="3.88"
>
<defs>
  <marker id="arrow" markerWidth="15" markerHeight="7" refX="5" refY="3.5" orient="auto" markerUnits="strokeWidth">
    <path d="M0,0 L15,3.5 L0,7 z" stroke="context-stroke" fill="context-stroke"/>
  </marker>
</defs>
<g stroke="#000000" stroke-opacity="0.000" fill="#FFFFFF" id="img-13f611ff-1">
  <g transform="translate(106.07,50)">
    <path d="M-35.36,-50 L35.36,-50 35.36,50 -35.36,50  z" class="primitive"/>
  </g>
</g>
<g class="plotroot xscalable yscalable" id="img-13f611ff-2">
  <g font-size="3.88" font-family="'PT Sans','Helvetica Neue','Helvetica',sans-serif" fill="#564A55" stroke="#000000" stroke-opacity="0.000" id="img-13f611ff-3">
    <g transform="translate(112.88,88.39)">
      <g class="primitive">
        <text text-anchor="middle" dy="0.6em">Estimated Effect</text>
      </g>
    </g>
  </g>
  <g class="guide xlabels" font-size="2.82" font-family="'PT Sans Caption','Helvetica Neue','Helvetica',sans-serif" fill="#6C606B" id="img-13f611ff-4">
    <g transform="translate(91.34,81.72)">
      <g class="primitive">
        <text text-anchor="middle" dy="0.6em">8</text>
      </g>
    </g>
    <g transform="translate(102.11,81.72)">
      <g class="primitive">
        <text text-anchor="middle" dy="0.6em">9</text>
      </g>
    </g>
    <g transform="translate(112.88,81.72)">
      <g class="primitive">
        <text text-anchor="middle" dy="0.6em">10</text>
      </g>
    </g>
    <g transform="translate(123.65,81.72)">
      <g class="primitive">
        <text text-anchor="middle" dy="0.6em">11</text>
      </g>
    </g>
    <g transform="translate(134.42,81.72)">
      <g class="primitive">
        <text text-anchor="middle" dy="0.6em">12</text>
      </g>
    </g>
  </g>
  <g clip-path="url(#img-13f611ff-5)">
    <g id="img-13f611ff-6">
      <g pointer-events="visible" stroke-width="0.3" fill="#FFFFFF" stroke="#000000" stroke-opacity="0.000" class="guide background" id="img-13f611ff-7">
        <g transform="translate(112.88,45.66)" id="img-13f611ff-8">
          <path d="M-23.54,-35.05 L23.54,-35.05 23.54,35.05 -23.54,35.05  z" class="primitive"/>
        </g>
      </g>
      <g class="guide ygridlines xfixed" stroke-dasharray="0.5,0.5" stroke-width="0.2" stroke="#D0D0E0" id="img-13f611ff-9">
        <g transform="translate(112.88,78.72)" id="img-13f611ff-10">
          <path fill="none" d="M-23.54,0 L23.54,0 " class="primitive"/>
        </g>
        <g transform="translate(112.88,62.19)" id="img-13f611ff-11">
          <path fill="none" d="M-23.54,0 L23.54,0 " class="primitive"/>
        </g>
        <g transform="translate(112.88,45.66)" id="img-13f611ff-12">
          <path fill="none" d="M-23.54,0 L23.54,0 " class="primitive"/>
        </g>
        <g transform="translate(112.88,29.14)" id="img-13f611ff-13">
          <path fill="none" d="M-23.54,0 L23.54,0 " class="primitive"/>
        </g>
        <g transform="translate(112.88,12.61)" id="img-13f611ff-14">
          <path fill="none" d="M-23.54,0 L23.54,0 " class="primitive"/>
        </g>
      </g>
      <g class="guide xgridlines yfixed" stroke-dasharray="0.5,0.5" stroke-width="0.2" stroke="#D0D0E0" id="img-13f611ff-15">
        <g transform="translate(91.34,45.66)" id="img-13f611ff-16">
          <path fill="none" d="M0,-35.05 L0,35.05 " class="primitive"/>
        </g>
        <g transform="translate(102.11,45.66)" id="img-13f611ff-17">
          <path fill="none" d="M0,-35.05 L0,35.05 " class="primitive"/>
        </g>
        <g transform="translate(112.88,45.66)" id="img-13f611ff-18">
          <path fill="none" d="M0,-35.05 L0,35.05 " class="primitive"/>
        </g>
        <g transform="translate(123.65,45.66)" id="img-13f611ff-19">
          <path fill="none" d="M0,-35.05 L0,35.05 " class="primitive"/>
        </g>
        <g transform="translate(134.42,45.66)" id="img-13f611ff-20">
          <path fill="none" d="M0,-35.05 L0,35.05 " class="primitive"/>
        </g>
      </g>
      <g class="plotpanel" id="img-13f611ff-21">
        <metadata>
          <boundingbox value="89.34234478532142mm 10.611666666666665mm 47.07901145198809mm 70.10333333333334mm"/>
          <unitbox value="7.814294717302971 2.0605113206595735 4.371410565394058 -2.1210226413191466"/>
        </metadata>
        <g shape-rendering="crispEdges" stroke-width="0.3" id="img-13f611ff-22">
          <g class="geometry" fill-opacity="1" stroke="#000000" stroke-opacity="0.000" fill="#ADD8E6" id="img-13f611ff-23">
            <g transform="translate(92.42,78.72)" id="img-13f611ff-24">
              <path d="M-1.1,-0 L1.1,-0 1.1,0 -1.1,0  z" class="primitive"/>
            </g>
            <g transform="translate(94.57,78.72)" id="img-13f611ff-25">
              <path d="M-1.1,-0 L1.1,-0 1.1,0 -1.1,0  z" class="primitive"/>
            </g>
            <g transform="translate(96.73,78.72)" id="img-13f611ff-26">
              <path d="M-1.1,-0 L1.1,-0 1.1,0 -1.1,0  z" class="primitive"/>
            </g>
            <g transform="translate(98.88,78.72)" id="img-13f611ff-27">
              <path d="M-1.1,-0 L1.1,-0 1.1,0 -1.1,0  z" class="primitive"/>
            </g>
            <g transform="translate(101.04,78.72)" id="img-13f611ff-28">
              <path d="M-1.1,-0 L1.1,-0 1.1,0 -1.1,0  z" class="primitive"/>
            </g>
            <g transform="translate(103.19,78.72)" id="img-13f611ff-29">
              <path d="M-1.1,-0 L1.1,-0 1.1,0 -1.1,0  z" class="primitive"/>
            </g>
            <g transform="translate(105.34,78.72)" id="img-13f611ff-30">
              <path d="M-1.1,-0 L1.1,-0 1.1,0 -1.1,0  z" class="primitive"/>
            </g>
            <g transform="translate(107.5,78.72)" id="img-13f611ff-31">
              <path d="M-1.1,-0 L1.1,-0 1.1,0 -1.1,0  z" class="primitive"/>
            </g>
            <g transform="translate(109.65,78.72)" id="img-13f611ff-32">
              <path d="M-1.1,-0 L1.1,-0 1.1,0 -1.1,0  z" class="primitive"/>
            </g>
            <g transform="translate(111.8,78.72)" id="img-13f611ff-33">
              <path d="M-1.1,-0 L1.1,-0 1.1,0 -1.1,0  z" class="primitive"/>
            </g>
            <g transform="translate(113.96,78.72)" id="img-13f611ff-34">
              <path d="M-1.1,-0 L1.1,-0 1.1,0 -1.1,0  z" class="primitive"/>
            </g>
            <g transform="translate(116.11,77.47)" id="img-13f611ff-35">
              <path d="M-1.1,-1.25 L1.1,-1.25 1.1,1.25 -1.1,1.25  z" class="primitive"/>
            </g>
            <g transform="translate(118.27,46.48)" id="img-13f611ff-36">
              <path d="M-1.1,-32.23 L1.1,-32.23 1.1,32.23 -1.1,32.23  z" class="primitive"/>
            </g>
            <g transform="translate(120.42,60.5)" id="img-13f611ff-37">
              <path d="M-1.1,-18.22 L1.1,-18.22 1.1,18.22 -1.1,18.22  z" class="primitive"/>
            </g>
            <g transform="translate(122.57,48.31)" id="img-13f611ff-38">
              <path d="M-1.1,-30.41 L1.1,-30.41 1.1,30.41 -1.1,30.41  z" class="primitive"/>
            </g>
            <g transform="translate(124.73,78.19)" id="img-13f611ff-39">
              <path d="M-1.1,-0.52 L1.1,-0.52 1.1,0.52 -1.1,0.52  z" class="primitive"/>
            </g>
            <g transform="translate(126.88,78.72)" id="img-13f611ff-40">
              <path d="M-1.1,-0 L1.1,-0 1.1,0 -1.1,0  z" class="primitive"/>
            </g>
            <g transform="translate(129.04,78.72)" id="img-13f611ff-41">
              <path d="M-1.1,-0 L1.1,-0 1.1,0 -1.1,0  z" class="primitive"/>
            </g>
            <g transform="translate(131.19,78.72)" id="img-13f611ff-42">
              <path d="M-1.1,-0 L1.1,-0 1.1,0 -1.1,0  z" class="primitive"/>
            </g>
            <g transform="translate(133.34,78.72)" id="img-13f611ff-43">
              <path d="M-1.1,-0 L1.1,-0 1.1,0 -1.1,0  z" class="primitive"/>
            </g>
          </g>
        </g>
      </g>
    </g>
  </g>
  <g class="guide ylabels" font-size="2.82" font-family="'PT Sans Caption','Helvetica Neue','Helvetica',sans-serif" fill="#6C606B" id="img-13f611ff-44">
    <g transform="translate(88.34,78.72)" id="img-13f611ff-45">
      <g class="primitive">
        <text text-anchor="end" dy="0.35em">0.0</text>
      </g>
    </g>
    <g transform="translate(88.34,62.19)" id="img-13f611ff-46">
      <g class="primitive">
        <text text-anchor="end" dy="0.35em">0.5</text>
      </g>
    </g>
    <g transform="translate(88.34,45.66)" id="img-13f611ff-47">
      <g class="primitive">
        <text text-anchor="end" dy="0.35em">1.0</text>
      </g>
    </g>
    <g transform="translate(88.34,29.14)" id="img-13f611ff-48">
      <g class="primitive">
        <text text-anchor="end" dy="0.35em">1.5</text>
      </g>
    </g>
    <g transform="translate(88.34,12.61)" id="img-13f611ff-49">
      <g class="primitive">
        <text text-anchor="end" dy="0.35em">2.0</text>
      </g>
    </g>
  </g>
  <g font-size="3.88" font-family="'PT Sans','Helvetica Neue','Helvetica',sans-serif" fill="#564A55" stroke="#000000" stroke-opacity="0.000" id="img-13f611ff-50">
    <g transform="translate(79.52,43.66)" id="img-13f611ff-51">
      <g class="primitive">
        <text text-anchor="middle" dy="0.35em" transform="rotate(-90,0, 2)">Density</text>
      </g>
    </g>
  </g>
  <g font-size="3.88" font-family="'PT Sans','Helvetica Neue','Helvetica',sans-serif" fill="#564A55" stroke="#000000" stroke-opacity="0.000" id="img-13f611ff-52">
    <g transform="translate(112.88,5)" id="img-13f611ff-53">
      <g class="primitive">
        <text text-anchor="middle" dy="0.6em">Naive estimation</text>
      </g>
    </g>
  </g>
</g>
<g stroke="#000000" stroke-opacity="0.000" fill="#FFFFFF" id="img-13f611ff-54">
  <g transform="translate(35.36,50)" id="img-13f611ff-55">
    <path d="M-35.36,-50 L35.36,-50 35.36,50 -35.36,50  z" class="primitive"/>
  </g>
</g>
<g class="plotroot xscalable yscalable" id="img-13f611ff-56">
  <g font-size="3.88" font-family="'PT Sans','Helvetica Neue','Helvetica',sans-serif" fill="#564A55" stroke="#000000" stroke-opacity="0.000" id="img-13f611ff-57">
    <g transform="translate(42.17,88.39)" id="img-13f611ff-58">
      <g class="primitive">
        <text text-anchor="middle" dy="0.6em">Estimated Effect</text>
      </g>
    </g>
  </g>
  <g class="guide xlabels" font-size="2.82" font-family="'PT Sans Caption','Helvetica Neue','Helvetica',sans-serif" fill="#6C606B" id="img-13f611ff-59">
    <g transform="translate(20.63,81.72)" id="img-13f611ff-60">
      <g class="primitive">
        <text text-anchor="middle" dy="0.6em">8</text>
      </g>
    </g>
    <g transform="translate(31.4,81.72)" id="img-13f611ff-61">
      <g class="primitive">
        <text text-anchor="middle" dy="0.6em">9</text>
      </g>
    </g>
    <g transform="translate(42.17,81.72)" id="img-13f611ff-62">
      <g class="primitive">
        <text text-anchor="middle" dy="0.6em">10</text>
      </g>
    </g>
    <g transform="translate(52.94,81.72)" id="img-13f611ff-63">
      <g class="primitive">
        <text text-anchor="middle" dy="0.6em">11</text>
      </g>
    </g>
    <g transform="translate(63.71,81.72)" id="img-13f611ff-64">
      <g class="primitive">
        <text text-anchor="middle" dy="0.6em">12</text>
      </g>
    </g>
  </g>
  <g clip-path="url(#img-13f611ff-65)">
    <g id="img-13f611ff-66">
      <g pointer-events="visible" stroke-width="0.3" fill="#FFFFFF" stroke="#000000" stroke-opacity="0.000" class="guide background" id="img-13f611ff-67">
        <g transform="translate(42.17,45.66)" id="img-13f611ff-68">
          <path d="M-23.54,-35.05 L23.54,-35.05 23.54,35.05 -23.54,35.05  z" class="primitive"/>
        </g>
      </g>
      <g class="guide ygridlines xfixed" stroke-dasharray="0.5,0.5" stroke-width="0.2" stroke="#D0D0E0" id="img-13f611ff-69">
        <g transform="translate(42.17,78.72)" id="img-13f611ff-70">
          <path fill="none" d="M-23.54,0 L23.54,0 " class="primitive"/>
        </g>
        <g transform="translate(42.17,65.49)" id="img-13f611ff-71">
          <path fill="none" d="M-23.54,0 L23.54,0 " class="primitive"/>
        </g>
        <g transform="translate(42.17,52.27)" id="img-13f611ff-72">
          <path fill="none" d="M-23.54,0 L23.54,0 " class="primitive"/>
        </g>
        <g transform="translate(42.17,39.05)" id="img-13f611ff-73">
          <path fill="none" d="M-23.54,0 L23.54,0 " class="primitive"/>
        </g>
        <g transform="translate(42.17,25.83)" id="img-13f611ff-74">
          <path fill="none" d="M-23.54,0 L23.54,0 " class="primitive"/>
        </g>
        <g transform="translate(42.17,12.61)" id="img-13f611ff-75">
          <path fill="none" d="M-23.54,0 L23.54,0 " class="primitive"/>
        </g>
      </g>
      <g class="guide xgridlines yfixed" stroke-dasharray="0.5,0.5" stroke-width="0.2" stroke="#D0D0E0" id="img-13f611ff-76">
        <g transform="translate(20.63,45.66)" id="img-13f611ff-77">
          <path fill="none" d="M0,-35.05 L0,35.05 " class="primitive"/>
        </g>
        <g transform="translate(31.4,45.66)" id="img-13f611ff-78">
          <path fill="none" d="M0,-35.05 L0,35.05 " class="primitive"/>
        </g>
        <g transform="translate(42.17,45.66)" id="img-13f611ff-79">
          <path fill="none" d="M0,-35.05 L0,35.05 " class="primitive"/>
        </g>
        <g transform="translate(52.94,45.66)" id="img-13f611ff-80">
          <path fill="none" d="M0,-35.05 L0,35.05 " class="primitive"/>
        </g>
        <g transform="translate(63.71,45.66)" id="img-13f611ff-81">
          <path fill="none" d="M0,-35.05 L0,35.05 " class="primitive"/>
        </g>
      </g>
      <g class="plotpanel" id="img-13f611ff-82">
        <metadata>
          <boundingbox value="18.631666666666668mm 10.611666666666665mm 47.07901145198809mm 70.10333333333334mm"/>
          <unitbox value="7.814294717302971 2.575639150824467 4.371410565394058 -2.6512783016489334"/>
        </metadata>
        <g shape-rendering="crispEdges" stroke-width="0.3" id="img-13f611ff-83">
          <g class="geometry" fill-opacity="1" stroke="#000000" stroke-opacity="0.000" fill="#ADD8E6" id="img-13f611ff-84">
            <g transform="translate(21.71,78.72)" id="img-13f611ff-85">
              <path d="M-1.1,-0 L1.1,-0 1.1,0 -1.1,0  z" class="primitive"/>
            </g>
            <g transform="translate(23.86,78.72)" id="img-13f611ff-86">
              <path d="M-1.1,-0 L1.1,-0 1.1,0 -1.1,0  z" class="primitive"/>
            </g>
            <g transform="translate(26.02,78.72)" id="img-13f611ff-87">
              <path d="M-1.1,-0 L1.1,-0 1.1,0 -1.1,0  z" class="primitive"/>
            </g>
            <g transform="translate(28.17,78.72)" id="img-13f611ff-88">
              <path d="M-1.1,-0 L1.1,-0 1.1,0 -1.1,0  z" class="primitive"/>
            </g>
            <g transform="translate(30.32,78.72)" id="img-13f611ff-89">
              <path d="M-1.1,-0 L1.1,-0 1.1,0 -1.1,0  z" class="primitive"/>
            </g>
            <g transform="translate(32.48,78.72)" id="img-13f611ff-90">
              <path d="M-1.1,-0 L1.1,-0 1.1,0 -1.1,0  z" class="primitive"/>
            </g>
            <g transform="translate(34.63,78.7)" id="img-13f611ff-91">
              <path d="M-1.1,-0.01 L1.1,-0.01 1.1,0.01 -1.1,0.01  z" class="primitive"/>
            </g>
            <g transform="translate(36.79,78.34)" id="img-13f611ff-92">
              <path d="M-1.1,-0.38 L1.1,-0.38 1.1,0.38 -1.1,0.38  z" class="primitive"/>
            </g>
            <g transform="translate(38.94,73.65)" id="img-13f611ff-93">
              <path d="M-1.1,-5.06 L1.1,-5.06 1.1,5.06 -1.1,5.06  z" class="primitive"/>
            </g>
            <g transform="translate(41.09,52.31)" id="img-13f611ff-94">
              <path d="M-1.1,-26.41 L1.1,-26.41 1.1,26.41 -1.1,26.41  z" class="primitive"/>
            </g>
            <g transform="translate(43.25,49.34)" id="img-13f611ff-95">
              <path d="M-1.1,-29.38 L1.1,-29.38 1.1,29.38 -1.1,29.38  z" class="primitive"/>
            </g>
            <g transform="translate(45.4,73.94)" id="img-13f611ff-96">
              <path d="M-1.1,-4.77 L1.1,-4.77 1.1,4.77 -1.1,4.77  z" class="primitive"/>
            </g>
            <g transform="translate(47.56,78.62)" id="img-13f611ff-97">
              <path d="M-1.1,-0.09 L1.1,-0.09 1.1,0.09 -1.1,0.09  z" class="primitive"/>
            </g>
            <g transform="translate(49.71,78.72)" id="img-13f611ff-98">
              <path d="M-1.1,-0 L1.1,-0 1.1,0 -1.1,0  z" class="primitive"/>
            </g>
            <g transform="translate(51.86,78.72)" id="img-13f611ff-99">
              <path d="M-1.1,-0 L1.1,-0 1.1,0 -1.1,0  z" class="primitive"/>
            </g>
            <g transform="translate(54.02,78.72)" id="img-13f611ff-100">
              <path d="M-1.1,-0 L1.1,-0 1.1,0 -1.1,0  z" class="primitive"/>
            </g>
            <g transform="translate(56.17,78.72)" id="img-13f611ff-101">
              <path d="M-1.1,-0 L1.1,-0 1.1,0 -1.1,0  z" class="primitive"/>
            </g>
            <g transform="translate(58.33,78.72)" id="img-13f611ff-102">
              <path d="M-1.1,-0 L1.1,-0 1.1,0 -1.1,0  z" class="primitive"/>
            </g>
            <g transform="translate(60.48,78.72)" id="img-13f611ff-103">
              <path d="M-1.1,-0 L1.1,-0 1.1,0 -1.1,0  z" class="primitive"/>
            </g>
            <g transform="translate(62.63,78.72)" id="img-13f611ff-104">
              <path d="M-1.1,-0 L1.1,-0 1.1,0 -1.1,0  z" class="primitive"/>
            </g>
          </g>
        </g>
      </g>
    </g>
  </g>
  <g class="guide ylabels" font-size="2.82" font-family="'PT Sans Caption','Helvetica Neue','Helvetica',sans-serif" fill="#6C606B" id="img-13f611ff-105">
    <g transform="translate(17.63,78.72)" id="img-13f611ff-106">
      <g class="primitive">
        <text text-anchor="end" dy="0.35em">0.0</text>
      </g>
    </g>
    <g transform="translate(17.63,65.49)" id="img-13f611ff-107">
      <g class="primitive">
        <text text-anchor="end" dy="0.35em">0.5</text>
      </g>
    </g>
    <g transform="translate(17.63,52.27)" id="img-13f611ff-108">
      <g class="primitive">
        <text text-anchor="end" dy="0.35em">1.0</text>
      </g>
    </g>
    <g transform="translate(17.63,39.05)" id="img-13f611ff-109">
      <g class="primitive">
        <text text-anchor="end" dy="0.35em">1.5</text>
      </g>
    </g>
    <g transform="translate(17.63,25.83)" id="img-13f611ff-110">
      <g class="primitive">
        <text text-anchor="end" dy="0.35em">2.0</text>
      </g>
    </g>
    <g transform="translate(17.63,12.61)" id="img-13f611ff-111">
      <g class="primitive">
        <text text-anchor="end" dy="0.35em">2.5</text>
      </g>
    </g>
  </g>
  <g font-size="3.88" font-family="'PT Sans','Helvetica Neue','Helvetica',sans-serif" fill="#564A55" stroke="#000000" stroke-opacity="0.000" id="img-13f611ff-112">
    <g transform="translate(8.81,43.66)" id="img-13f611ff-113">
      <g class="primitive">
        <text text-anchor="middle" dy="0.35em" transform="rotate(-90,0, 2)">Density</text>
      </g>
    </g>
  </g>
  <g font-size="3.88" font-family="'PT Sans','Helvetica Neue','Helvetica',sans-serif" fill="#564A55" stroke="#000000" stroke-opacity="0.000" id="img-13f611ff-114">
    <g transform="translate(42.17,5)" id="img-13f611ff-115">
      <g class="primitive">
        <text text-anchor="middle" dy="0.6em">Orthogonal estimation</text>
      </g>
    </g>
  </g>
</g>
<defs>
  <clipPath id="img-13f611ff-5">
    <path d="M89.34,10.61 L136.42,10.61 136.42,80.72 89.34,80.72 " />
  </clipPath>
  <clipPath id="img-13f611ff-65">
    <path d="M18.63,10.61 L65.71,10.61 65.71,80.72 18.63,80.72 " />
  </clipPath>
</defs>
</svg>