<?xml version="1.0" encoding="utf-8"?>
<svg xmlns="http://www.w3.org/2000/svg" xmlns:xlink="http://www.w3.org/1999/xlink" width="600" height="400" viewBox="0 0 2400 1600">
<defs>
  <clipPath id="clip320">
    <rect x="0" y="0" width="2400" height="1600"/>
  </clipPath>
</defs>
<path clip-path="url(#clip320)" d="M0 1600 L2400 1600 L2400 0 L0 0  Z" fill="#ffffff" fill-rule="evenodd" fill-opacity="1"/>
<defs>
  <clipPath id="clip321">
    <rect x="480" y="0" width="1681" height="1600"/>
  </clipPath>
</defs>
<path clip-path="url(#clip320)" d="M219.38 1423.18 L2352.76 1423.18 L2352.76 123.472 L219.38 123.472  Z" fill="#ffffff" fill-rule="evenodd" fill-opacity="1"/>
<defs>
  <clipPath id="clip322">
    <rect x="219" y="123" width="2134" height="1301"/>
  </clipPath>
</defs>
<polyline clip-path="url(#clip322)" style="stroke:#000000; stroke-linecap:round; stroke-linejoin:round; stroke-width:2; stroke-opacity:0.1; fill:none" points="647.141,1423.18 647.141,123.472 "/>
<polyline clip-path="url(#clip322)" style="stroke:#000000; stroke-linecap:round; stroke-linejoin:round; stroke-width:2; stroke-opacity:0.1; fill:none" points="1924.99,1423.18 1924.99,123.472 "/>
<polyline clip-path="url(#clip320)" style="stroke:#000000; stroke-linecap:round; stroke-linejoin:round; stroke-width:4; stroke-opacity:1; fill:none" points="219.38,1423.18 2352.76,1423.18 "/>
<polyline clip-path="url(#clip320)" style="stroke:#000000; stroke-linecap:round; stroke-linejoin:round; stroke-width:4; stroke-opacity:1; fill:none" points="647.141,1423.18 647.141,1404.28 "/>
<polyline clip-path="url(#clip320)" style="stroke:#000000; stroke-linecap:round; stroke-linejoin:round; stroke-width:4; stroke-opacity:1; fill:none" points="1924.99,1423.18 1924.99,1404.28 "/>
<path clip-path="url(#clip320)" d="M647.141 1454.1 Q643.53 1454.1 641.702 1457.66 Q639.896 1461.2 639.896 1468.33 Q639.896 1475.44 641.702 1479.01 Q643.53 1482.55 647.141 1482.55 Q650.776 1482.55 652.581 1479.01 Q654.41 1475.44 654.41 1468.33 Q654.41 1461.2 652.581 1457.66 Q650.776 1454.1 647.141 1454.1 M647.141 1450.39 Q652.952 1450.39 656.007 1455 Q659.086 1459.58 659.086 1468.33 Q659.086 1477.06 656.007 1481.67 Q652.952 1486.25 647.141 1486.25 Q641.331 1486.25 638.253 1481.67 Q635.197 1477.06 635.197 1468.33 Q635.197 1459.58 638.253 1455 Q641.331 1450.39 647.141 1450.39 Z" fill="#000000" fill-rule="nonzero" fill-opacity="1" /><path clip-path="url(#clip320)" d="M1915.38 1481.64 L1923.02 1481.64 L1923.02 1455.28 L1914.71 1456.95 L1914.71 1452.69 L1922.97 1451.02 L1927.65 1451.02 L1927.65 1481.64 L1935.28 1481.64 L1935.28 1485.58 L1915.38 1485.58 L1915.38 1481.64 Z" fill="#000000" fill-rule="nonzero" fill-opacity="1" /><path clip-path="url(#clip320)" d="M729.085 1561.26 L729.085 1548.5 L718.581 1548.5 L718.581 1543.22 L735.45 1543.22 L735.45 1563.62 Q731.726 1566.26 727.239 1567.63 Q722.751 1568.97 717.658 1568.97 Q706.518 1568.97 700.216 1562.47 Q693.946 1555.95 693.946 1544.33 Q693.946 1532.68 700.216 1526.19 Q706.518 1519.66 717.658 1519.66 Q722.305 1519.66 726.475 1520.81 Q730.676 1521.96 734.209 1524.18 L734.209 1531.03 Q730.644 1528 726.634 1526.48 Q722.623 1524.95 718.199 1524.95 Q709.478 1524.95 705.086 1529.82 Q700.725 1534.69 700.725 1544.33 Q700.725 1553.94 705.086 1558.81 Q709.478 1563.68 718.199 1563.68 Q721.605 1563.68 724.279 1563.11 Q726.952 1562.51 729.085 1561.26 Z" fill="#000000" fill-rule="nonzero" fill-opacity="1" /><path clip-path="url(#clip320)" d="M777.432 1548.76 L777.432 1551.62 L750.505 1551.62 Q750.887 1557.67 754.134 1560.85 Q757.412 1564 763.237 1564 Q766.61 1564 769.761 1563.17 Q772.944 1562.35 776.064 1560.69 L776.064 1566.23 Q772.913 1567.57 769.602 1568.27 Q766.292 1568.97 762.887 1568.97 Q754.356 1568.97 749.359 1564 Q744.394 1559.04 744.394 1550.57 Q744.394 1541.82 749.105 1536.69 Q753.847 1531.54 761.868 1531.54 Q769.061 1531.54 773.231 1536.18 Q777.432 1540.8 777.432 1548.76 M771.576 1547.04 Q771.512 1542.23 768.87 1539.37 Q766.26 1536.5 761.932 1536.5 Q757.03 1536.5 754.07 1539.27 Q751.142 1542.04 750.696 1547.07 L771.576 1547.04 Z" fill="#000000" fill-rule="nonzero" fill-opacity="1" /><path clip-path="url(#clip320)" d="M816.677 1546.53 L816.677 1568.04 L810.82 1568.04 L810.82 1546.72 Q810.82 1541.66 808.847 1539.14 Q806.874 1536.63 802.927 1536.63 Q798.184 1536.63 795.447 1539.65 Q792.71 1542.68 792.71 1547.9 L792.71 1568.04 L786.822 1568.04 L786.822 1532.4 L792.71 1532.4 L792.71 1537.93 Q794.811 1534.72 797.643 1533.13 Q800.508 1531.54 804.232 1531.54 Q810.375 1531.54 813.526 1535.36 Q816.677 1539.14 816.677 1546.53 Z" fill="#000000" fill-rule="nonzero" fill-opacity="1" /><path clip-path="url(#clip320)" d="M851.815 1537.81 L851.815 1518.52 L857.672 1518.52 L857.672 1568.04 L851.815 1568.04 L851.815 1562.7 Q849.969 1565.88 847.137 1567.44 Q844.336 1568.97 840.389 1568.97 Q833.928 1568.97 829.854 1563.81 Q825.812 1558.65 825.812 1550.25 Q825.812 1541.85 829.854 1536.69 Q833.928 1531.54 840.389 1531.54 Q844.336 1531.54 847.137 1533.1 Q849.969 1534.62 851.815 1537.81 M831.859 1550.25 Q831.859 1556.71 834.501 1560.4 Q837.174 1564.07 841.821 1564.07 Q846.468 1564.07 849.142 1560.4 Q851.815 1556.71 851.815 1550.25 Q851.815 1543.79 849.142 1540.13 Q846.468 1536.44 841.821 1536.44 Q837.174 1536.44 834.501 1540.13 Q831.859 1543.79 831.859 1550.25 Z" fill="#000000" fill-rule="nonzero" fill-opacity="1" /><path clip-path="url(#clip320)" d="M900.227 1548.76 L900.227 1551.62 L873.3 1551.62 Q873.682 1557.67 876.928 1560.85 Q880.206 1564 886.031 1564 Q889.405 1564 892.556 1563.17 Q895.739 1562.35 898.858 1560.69 L898.858 1566.23 Q895.707 1567.57 892.397 1568.27 Q889.087 1568.97 885.681 1568.97 Q877.151 1568.97 872.154 1564 Q867.189 1559.04 867.189 1550.57 Q867.189 1541.82 871.899 1536.69 Q876.642 1531.54 884.662 1531.54 Q891.856 1531.54 896.025 1536.18 Q900.227 1540.8 900.227 1548.76 M894.37 1547.04 Q894.307 1542.23 891.665 1539.37 Q889.055 1536.5 884.726 1536.5 Q879.825 1536.5 876.864 1539.27 Q873.936 1542.04 873.491 1547.07 L894.37 1547.04 Z" fill="#000000" fill-rule="nonzero" fill-opacity="1" /><path clip-path="url(#clip320)" d="M930.496 1537.87 Q929.509 1537.3 928.331 1537.04 Q927.185 1536.76 925.785 1536.76 Q920.82 1536.76 918.146 1540 Q915.504 1543.22 915.504 1549.27 L915.504 1568.04 L909.616 1568.04 L909.616 1532.4 L915.504 1532.4 L915.504 1537.93 Q917.35 1534.69 920.31 1533.13 Q923.27 1531.54 927.504 1531.54 Q928.108 1531.54 928.84 1531.63 Q929.573 1531.7 930.464 1531.85 L930.496 1537.87 Z" fill="#000000" fill-rule="nonzero" fill-opacity="1" /><path clip-path="url(#clip320)" d="M957.613 1520.52 L967.194 1520.52 L979.321 1552.86 L991.511 1520.52 L1001.09 1520.52 L1001.09 1568.04 L994.821 1568.04 L994.821 1526.32 L982.567 1558.91 L976.106 1558.91 L963.852 1526.32 L963.852 1568.04 L957.613 1568.04 L957.613 1520.52 Z" fill="#000000" fill-rule="nonzero" fill-opacity="1" /><path clip-path="url(#clip320)" d="M1029.8 1550.12 Q1022.7 1550.12 1019.97 1551.75 Q1017.23 1553.37 1017.23 1557.29 Q1017.23 1560.4 1019.27 1562.25 Q1021.33 1564.07 1024.87 1564.07 Q1029.74 1564.07 1032.67 1560.63 Q1035.63 1557.16 1035.63 1551.43 L1035.63 1550.12 L1029.8 1550.12 M1041.48 1547.71 L1041.48 1568.04 L1035.63 1568.04 L1035.63 1562.63 Q1033.62 1565.88 1030.63 1567.44 Q1027.64 1568.97 1023.31 1568.97 Q1017.83 1568.97 1014.59 1565.91 Q1011.37 1562.82 1011.37 1557.67 Q1011.37 1551.65 1015.38 1548.6 Q1019.42 1545.54 1027.41 1545.54 L1035.63 1545.54 L1035.63 1544.97 Q1035.63 1540.93 1032.95 1538.73 Q1030.31 1536.5 1025.5 1536.5 Q1022.45 1536.5 1019.55 1537.23 Q1016.66 1537.97 1013.98 1539.43 L1013.98 1534.02 Q1017.2 1532.78 1020.22 1532.17 Q1023.24 1531.54 1026.11 1531.54 Q1033.84 1531.54 1037.66 1535.55 Q1041.48 1539.56 1041.48 1547.71 Z" fill="#000000" fill-rule="nonzero" fill-opacity="1" /><path clip-path="url(#clip320)" d="M1053.54 1518.52 L1059.4 1518.52 L1059.4 1568.04 L1053.54 1568.04 L1053.54 1518.52 Z" fill="#000000" fill-rule="nonzero" fill-opacity="1" /><path clip-path="url(#clip320)" d="M1102.15 1548.76 L1102.15 1551.62 L1075.22 1551.62 Q1075.6 1557.67 1078.85 1560.85 Q1082.13 1564 1087.95 1564 Q1091.33 1564 1094.48 1563.17 Q1097.66 1562.35 1100.78 1560.69 L1100.78 1566.23 Q1097.63 1567.57 1094.32 1568.27 Q1091.01 1568.97 1087.6 1568.97 Q1079.07 1568.97 1074.07 1564 Q1069.11 1559.04 1069.11 1550.57 Q1069.11 1541.82 1073.82 1536.69 Q1078.56 1531.54 1086.58 1531.54 Q1093.78 1531.54 1097.95 1536.18 Q1102.15 1540.8 1102.15 1548.76 M1096.29 1547.04 Q1096.23 1542.23 1093.58 1539.37 Q1090.98 1536.5 1086.65 1536.5 Q1081.74 1536.5 1078.78 1539.27 Q1075.86 1542.04 1075.41 1547.07 L1096.29 1547.04 Z" fill="#000000" fill-rule="nonzero" fill-opacity="1" /><path clip-path="url(#clip320)" d="M1146.55 1518.58 Q1142.28 1525.9 1140.21 1533.06 Q1138.14 1540.23 1138.14 1547.58 Q1138.14 1554.93 1140.21 1562.16 Q1142.31 1569.35 1146.55 1576.64 L1141.46 1576.64 Q1136.68 1569.16 1134.29 1561.93 Q1131.94 1554.71 1131.94 1547.58 Q1131.94 1540.48 1134.29 1533.29 Q1136.65 1526.09 1141.46 1518.58 L1146.55 1518.58 Z" fill="#000000" fill-rule="nonzero" fill-opacity="1" /><path clip-path="url(#clip320)" d="M1172.49 1524.76 Q1167.52 1524.76 1165.01 1529.66 Q1162.53 1534.53 1162.53 1544.33 Q1162.53 1554.1 1165.01 1559 Q1167.52 1563.87 1172.49 1563.87 Q1177.48 1563.87 1179.97 1559 Q1182.48 1554.1 1182.48 1544.33 Q1182.48 1534.53 1179.97 1529.66 Q1177.48 1524.76 1172.49 1524.76 M1172.49 1519.66 Q1180.48 1519.66 1184.68 1526 Q1188.91 1532.3 1188.91 1544.33 Q1188.91 1556.33 1184.68 1562.66 Q1180.48 1568.97 1172.49 1568.97 Q1164.5 1568.97 1160.27 1562.66 Q1156.06 1556.33 1156.06 1544.33 Q1156.06 1532.3 1160.27 1526 Q1164.5 1519.66 1172.49 1519.66 Z" fill="#000000" fill-rule="nonzero" fill-opacity="1" /><path clip-path="url(#clip320)" d="M1220.87 1538.44 L1261.67 1538.44 L1261.67 1543.79 L1220.87 1543.79 L1220.87 1538.44 M1220.87 1551.43 L1261.67 1551.43 L1261.67 1556.84 L1220.87 1556.84 L1220.87 1551.43 Z" fill="#000000" fill-rule="nonzero" fill-opacity="1" /><path clip-path="url(#clip320)" d="M1295.7 1520.52 L1323.01 1520.52 L1323.01 1525.93 L1302.13 1525.93 L1302.13 1539.94 L1320.97 1539.94 L1320.97 1545.35 L1302.13 1545.35 L1302.13 1568.04 L1295.7 1568.04 L1295.7 1520.52 Z" fill="#000000" fill-rule="nonzero" fill-opacity="1" /><path clip-path="url(#clip320)" d="M1359.86 1548.76 L1359.86 1551.62 L1332.94 1551.62 Q1333.32 1557.67 1336.56 1560.85 Q1339.84 1564 1345.67 1564 Q1349.04 1564 1352.19 1563.17 Q1355.37 1562.35 1358.49 1560.69 L1358.49 1566.23 Q1355.34 1567.57 1352.03 1568.27 Q1348.72 1568.97 1345.32 1568.97 Q1336.79 1568.97 1331.79 1564 Q1326.82 1559.04 1326.82 1550.57 Q1326.82 1541.82 1331.54 1536.69 Q1336.28 1531.54 1344.3 1531.54 Q1351.49 1531.54 1355.66 1536.18 Q1359.86 1540.8 1359.86 1548.76 M1354.01 1547.04 Q1353.94 1542.23 1351.3 1539.37 Q1348.69 1536.5 1344.36 1536.5 Q1339.46 1536.5 1336.5 1539.27 Q1333.57 1542.04 1333.13 1547.07 L1354.01 1547.04 Z" fill="#000000" fill-rule="nonzero" fill-opacity="1" /><path clip-path="url(#clip320)" d="M1397.23 1539.24 Q1399.43 1535.29 1402.48 1533.41 Q1405.54 1531.54 1409.67 1531.54 Q1415.24 1531.54 1418.27 1535.45 Q1421.29 1539.33 1421.29 1546.53 L1421.29 1568.04 L1415.4 1568.04 L1415.4 1546.72 Q1415.4 1541.59 1413.59 1539.11 Q1411.77 1536.63 1408.05 1536.63 Q1403.5 1536.63 1400.86 1539.65 Q1398.22 1542.68 1398.22 1547.9 L1398.22 1568.04 L1392.33 1568.04 L1392.33 1546.72 Q1392.33 1541.56 1390.51 1539.11 Q1388.7 1536.63 1384.91 1536.63 Q1380.42 1536.63 1377.78 1539.68 Q1375.14 1542.71 1375.14 1547.9 L1375.14 1568.04 L1369.25 1568.04 L1369.25 1532.4 L1375.14 1532.4 L1375.14 1537.93 Q1377.15 1534.66 1379.95 1533.1 Q1382.75 1531.54 1386.6 1531.54 Q1390.48 1531.54 1393.19 1533.51 Q1395.92 1535.48 1397.23 1539.24 Z" fill="#000000" fill-rule="nonzero" fill-opacity="1" /><path clip-path="url(#clip320)" d="M1449.17 1550.12 Q1442.08 1550.12 1439.34 1551.75 Q1436.6 1553.37 1436.6 1557.29 Q1436.6 1560.4 1438.64 1562.25 Q1440.71 1564.07 1444.24 1564.07 Q1449.11 1564.07 1452.04 1560.63 Q1455 1557.16 1455 1551.43 L1455 1550.12 L1449.17 1550.12 M1460.85 1547.71 L1460.85 1568.04 L1455 1568.04 L1455 1562.63 Q1452.99 1565.88 1450 1567.44 Q1447.01 1568.97 1442.68 1568.97 Q1437.21 1568.97 1433.96 1565.91 Q1430.74 1562.82 1430.74 1557.67 Q1430.74 1551.65 1434.76 1548.6 Q1438.8 1545.54 1446.79 1545.54 L1455 1545.54 L1455 1544.97 Q1455 1540.93 1452.32 1538.73 Q1449.68 1536.5 1444.88 1536.5 Q1441.82 1536.5 1438.92 1537.23 Q1436.03 1537.97 1433.35 1539.43 L1433.35 1534.02 Q1436.57 1532.78 1439.59 1532.17 Q1442.62 1531.54 1445.48 1531.54 Q1453.22 1531.54 1457.03 1535.55 Q1460.85 1539.56 1460.85 1547.71 Z" fill="#000000" fill-rule="nonzero" fill-opacity="1" /><path clip-path="url(#clip320)" d="M1472.92 1518.52 L1478.77 1518.52 L1478.77 1568.04 L1472.92 1568.04 L1472.92 1518.52 Z" fill="#000000" fill-rule="nonzero" fill-opacity="1" /><path clip-path="url(#clip320)" d="M1521.52 1548.76 L1521.52 1551.62 L1494.59 1551.62 Q1494.97 1557.67 1498.22 1560.85 Q1501.5 1564 1507.32 1564 Q1510.7 1564 1513.85 1563.17 Q1517.03 1562.35 1520.15 1560.69 L1520.15 1566.23 Q1517 1567.57 1513.69 1568.27 Q1510.38 1568.97 1506.97 1568.97 Q1498.44 1568.97 1493.45 1564 Q1488.48 1559.04 1488.48 1550.57 Q1488.48 1541.82 1493.19 1536.69 Q1497.93 1531.54 1505.96 1531.54 Q1513.15 1531.54 1517.32 1536.18 Q1521.52 1540.8 1521.52 1548.76 M1515.66 1547.04 Q1515.6 1542.23 1512.96 1539.37 Q1510.35 1536.5 1506.02 1536.5 Q1501.12 1536.5 1498.16 1539.27 Q1495.23 1542.04 1494.78 1547.07 L1515.66 1547.04 Z" fill="#000000" fill-rule="nonzero" fill-opacity="1" /><path clip-path="url(#clip320)" d="M1532.63 1559.96 L1539.34 1559.96 L1539.34 1565.43 L1534.12 1575.62 L1530.02 1575.62 L1532.63 1565.43 L1532.63 1559.96 Z" fill="#000000" fill-rule="nonzero" fill-opacity="1" /><path clip-path="url(#clip320)" d="M1574.51 1562.63 L1585.02 1562.63 L1585.02 1526.38 L1573.59 1528.67 L1573.59 1522.82 L1584.95 1520.52 L1591.38 1520.52 L1591.38 1562.63 L1601.89 1562.63 L1601.89 1568.04 L1574.51 1568.04 L1574.51 1562.63 Z" fill="#000000" fill-rule="nonzero" fill-opacity="1" /><path clip-path="url(#clip320)" d="M1635.53 1538.44 L1676.33 1538.44 L1676.33 1543.79 L1635.53 1543.79 L1635.53 1538.44 M1635.53 1551.43 L1676.33 1551.43 L1676.33 1556.84 L1635.53 1556.84 L1635.53 1551.43 Z" fill="#000000" fill-rule="nonzero" fill-opacity="1" /><path clip-path="url(#clip320)" d="M1710.36 1520.52 L1719.94 1520.52 L1732.07 1552.86 L1744.26 1520.52 L1753.84 1520.52 L1753.84 1568.04 L1747.57 1568.04 L1747.57 1526.32 L1735.31 1558.91 L1728.85 1558.91 L1716.6 1526.32 L1716.6 1568.04 L1710.36 1568.04 L1710.36 1520.52 Z" fill="#000000" fill-rule="nonzero" fill-opacity="1" /><path clip-path="url(#clip320)" d="M1782.55 1550.12 Q1775.45 1550.12 1772.71 1551.75 Q1769.97 1553.37 1769.97 1557.29 Q1769.97 1560.4 1772.01 1562.25 Q1774.08 1564.07 1777.61 1564.07 Q1782.48 1564.07 1785.41 1560.63 Q1788.37 1557.16 1788.37 1551.43 L1788.37 1550.12 L1782.55 1550.12 M1794.23 1547.71 L1794.23 1568.04 L1788.37 1568.04 L1788.37 1562.63 Q1786.36 1565.88 1783.37 1567.44 Q1780.38 1568.97 1776.05 1568.97 Q1770.58 1568.97 1767.33 1565.91 Q1764.12 1562.82 1764.12 1557.67 Q1764.12 1551.65 1768.13 1548.6 Q1772.17 1545.54 1780.16 1545.54 L1788.37 1545.54 L1788.37 1544.97 Q1788.37 1540.93 1785.7 1538.73 Q1783.05 1536.5 1778.25 1536.5 Q1775.19 1536.5 1772.3 1537.23 Q1769.4 1537.97 1766.73 1539.43 L1766.73 1534.02 Q1769.94 1532.78 1772.97 1532.17 Q1775.99 1531.54 1778.85 1531.54 Q1786.59 1531.54 1790.41 1535.55 Q1794.23 1539.56 1794.23 1547.71 Z" fill="#000000" fill-rule="nonzero" fill-opacity="1" /><path clip-path="url(#clip320)" d="M1806.29 1518.52 L1812.15 1518.52 L1812.15 1568.04 L1806.29 1568.04 L1806.29 1518.52 Z" fill="#000000" fill-rule="nonzero" fill-opacity="1" /><path clip-path="url(#clip320)" d="M1854.89 1548.76 L1854.89 1551.62 L1827.96 1551.62 Q1828.35 1557.67 1831.59 1560.85 Q1834.87 1564 1840.7 1564 Q1844.07 1564 1847.22 1563.17 Q1850.4 1562.35 1853.52 1560.69 L1853.52 1566.23 Q1850.37 1567.57 1847.06 1568.27 Q1843.75 1568.97 1840.35 1568.97 Q1831.82 1568.97 1826.82 1564 Q1821.85 1559.04 1821.85 1550.57 Q1821.85 1541.82 1826.56 1536.69 Q1831.31 1531.54 1839.33 1531.54 Q1846.52 1531.54 1850.69 1536.18 Q1854.89 1540.8 1854.89 1548.76 M1849.04 1547.04 Q1848.97 1542.23 1846.33 1539.37 Q1843.72 1536.5 1839.39 1536.5 Q1834.49 1536.5 1831.53 1539.27 Q1828.6 1542.04 1828.16 1547.07 L1849.04 1547.04 Z" fill="#000000" fill-rule="nonzero" fill-opacity="1" /><path clip-path="url(#clip320)" d="M1863.58 1518.58 L1868.67 1518.58 Q1873.45 1526.09 1875.8 1533.29 Q1878.19 1540.48 1878.19 1547.58 Q1878.19 1554.71 1875.8 1561.93 Q1873.45 1569.16 1868.67 1576.64 L1863.58 1576.64 Q1867.81 1569.35 1869.88 1562.16 Q1871.98 1554.93 1871.98 1547.58 Q1871.98 1540.23 1869.88 1533.06 Q1867.81 1525.9 1863.58 1518.58 Z" fill="#000000" fill-rule="nonzero" fill-opacity="1" /><polyline clip-path="url(#clip322)" style="stroke:#000000; stroke-linecap:round; stroke-linejoin:round; stroke-width:2; stroke-opacity:0.1; fill:none" points="219.38,1423.18 2352.76,1423.18 "/>
<polyline clip-path="url(#clip322)" style="stroke:#000000; stroke-linecap:round; stroke-linejoin:round; stroke-width:2; stroke-opacity:0.1; fill:none" points="219.38,1007.7 2352.76,1007.7 "/>
<polyline clip-path="url(#clip322)" style="stroke:#000000; stroke-linecap:round; stroke-linejoin:round; stroke-width:2; stroke-opacity:0.1; fill:none" points="219.38,592.227 2352.76,592.227 "/>
<polyline clip-path="url(#clip322)" style="stroke:#000000; stroke-linecap:round; stroke-linejoin:round; stroke-width:2; stroke-opacity:0.1; fill:none" points="219.38,176.751 2352.76,176.751 "/>
<polyline clip-path="url(#clip320)" style="stroke:#000000; stroke-linecap:round; stroke-linejoin:round; stroke-width:4; stroke-opacity:1; fill:none" points="219.38,1423.18 219.38,123.472 "/>
<polyline clip-path="url(#clip320)" style="stroke:#000000; stroke-linecap:round; stroke-linejoin:round; stroke-width:4; stroke-opacity:1; fill:none" points="219.38,1423.18 238.278,1423.18 "/>
<polyline clip-path="url(#clip320)" style="stroke:#000000; stroke-linecap:round; stroke-linejoin:round; stroke-width:4; stroke-opacity:1; fill:none" points="219.38,1007.7 238.278,1007.7 "/>
<polyline clip-path="url(#clip320)" style="stroke:#000000; stroke-linecap:round; stroke-linejoin:round; stroke-width:4; stroke-opacity:1; fill:none" points="219.38,592.227 238.278,592.227 "/>
<polyline clip-path="url(#clip320)" style="stroke:#000000; stroke-linecap:round; stroke-linejoin:round; stroke-width:4; stroke-opacity:1; fill:none" points="219.38,176.751 238.278,176.751 "/>
<path clip-path="url(#clip320)" d="M126.205 1408.98 Q122.593 1408.98 120.765 1412.54 Q118.959 1416.08 118.959 1423.21 Q118.959 1430.32 120.765 1433.89 Q122.593 1437.43 126.205 1437.43 Q129.839 1437.43 131.644 1433.89 Q133.473 1430.32 133.473 1423.21 Q133.473 1416.08 131.644 1412.54 Q129.839 1408.98 126.205 1408.98 M126.205 1405.27 Q132.015 1405.27 135.07 1409.88 Q138.149 1414.46 138.149 1423.21 Q138.149 1431.94 135.07 1436.55 Q132.015 1441.13 126.205 1441.13 Q120.394 1441.13 117.316 1436.55 Q114.26 1431.94 114.26 1423.21 Q114.26 1414.46 117.316 1409.88 Q120.394 1405.27 126.205 1405.27 Z" fill="#000000" fill-rule="nonzero" fill-opacity="1" /><path clip-path="url(#clip320)" d="M146.366 1434.58 L151.251 1434.58 L151.251 1440.46 L146.366 1440.46 L146.366 1434.58 Z" fill="#000000" fill-rule="nonzero" fill-opacity="1" /><path clip-path="url(#clip320)" d="M171.436 1408.98 Q167.825 1408.98 165.996 1412.54 Q164.19 1416.08 164.19 1423.21 Q164.19 1430.32 165.996 1433.89 Q167.825 1437.43 171.436 1437.43 Q175.07 1437.43 176.876 1433.89 Q178.704 1430.32 178.704 1423.21 Q178.704 1416.08 176.876 1412.54 Q175.07 1408.98 171.436 1408.98 M171.436 1405.27 Q177.246 1405.27 180.301 1409.88 Q183.38 1414.46 183.38 1423.21 Q183.38 1431.94 180.301 1436.55 Q177.246 1441.13 171.436 1441.13 Q165.626 1441.13 162.547 1436.55 Q159.491 1431.94 159.491 1423.21 Q159.491 1414.46 162.547 1409.88 Q165.626 1405.27 171.436 1405.27 Z" fill="#000000" fill-rule="nonzero" fill-opacity="1" /><path clip-path="url(#clip320)" d="M127.431 993.502 Q123.82 993.502 121.992 997.067 Q120.186 1000.61 120.186 1007.74 Q120.186 1014.84 121.992 1018.41 Q123.82 1021.95 127.431 1021.95 Q131.066 1021.95 132.871 1018.41 Q134.7 1014.84 134.7 1007.74 Q134.7 1000.61 132.871 997.067 Q131.066 993.502 127.431 993.502 M127.431 989.798 Q133.242 989.798 136.297 994.405 Q139.376 998.988 139.376 1007.74 Q139.376 1016.46 136.297 1021.07 Q133.242 1025.65 127.431 1025.65 Q121.621 1025.65 118.543 1021.07 Q115.487 1016.46 115.487 1007.74 Q115.487 998.988 118.543 994.405 Q121.621 989.798 127.431 989.798 Z" fill="#000000" fill-rule="nonzero" fill-opacity="1" /><path clip-path="url(#clip320)" d="M147.593 1019.1 L152.478 1019.1 L152.478 1024.98 L147.593 1024.98 L147.593 1019.1 Z" fill="#000000" fill-rule="nonzero" fill-opacity="1" /><path clip-path="url(#clip320)" d="M163.473 1021.05 L171.112 1021.05 L171.112 994.683 L162.802 996.349 L162.802 992.09 L171.065 990.423 L175.741 990.423 L175.741 1021.05 L183.38 1021.05 L183.38 1024.98 L163.473 1024.98 L163.473 1021.05 Z" fill="#000000" fill-rule="nonzero" fill-opacity="1" /><path clip-path="url(#clip320)" d="M127.802 578.026 Q124.191 578.026 122.362 581.59 Q120.556 585.132 120.556 592.262 Q120.556 599.368 122.362 602.933 Q124.191 606.475 127.802 606.475 Q131.436 606.475 133.242 602.933 Q135.07 599.368 135.07 592.262 Q135.07 585.132 133.242 581.59 Q131.436 578.026 127.802 578.026 M127.802 574.322 Q133.612 574.322 136.667 578.928 Q139.746 583.512 139.746 592.262 Q139.746 600.989 136.667 605.595 Q133.612 610.178 127.802 610.178 Q121.992 610.178 118.913 605.595 Q115.857 600.989 115.857 592.262 Q115.857 583.512 118.913 578.928 Q121.992 574.322 127.802 574.322 Z" fill="#000000" fill-rule="nonzero" fill-opacity="1" /><path clip-path="url(#clip320)" d="M147.964 603.627 L152.848 603.627 L152.848 609.507 L147.964 609.507 L147.964 603.627 Z" fill="#000000" fill-rule="nonzero" fill-opacity="1" /><path clip-path="url(#clip320)" d="M167.061 605.572 L183.38 605.572 L183.38 609.507 L161.436 609.507 L161.436 605.572 Q164.098 602.817 168.681 598.188 Q173.288 593.535 174.468 592.192 Q176.714 589.669 177.593 587.933 Q178.496 586.174 178.496 584.484 Q178.496 581.729 176.551 579.993 Q174.63 578.257 171.528 578.257 Q169.329 578.257 166.876 579.021 Q164.445 579.785 161.667 581.336 L161.667 576.614 Q164.491 575.479 166.945 574.901 Q169.399 574.322 171.436 574.322 Q176.806 574.322 180.001 577.007 Q183.195 579.692 183.195 584.183 Q183.195 586.313 182.385 588.234 Q181.598 590.132 179.491 592.725 Q178.913 593.396 175.811 596.614 Q172.709 599.808 167.061 605.572 Z" fill="#000000" fill-rule="nonzero" fill-opacity="1" /><path clip-path="url(#clip320)" d="M126.853 162.549 Q123.242 162.549 121.413 166.114 Q119.607 169.656 119.607 176.785 Q119.607 183.892 121.413 187.457 Q123.242 190.998 126.853 190.998 Q130.487 190.998 132.292 187.457 Q134.121 183.892 134.121 176.785 Q134.121 169.656 132.292 166.114 Q130.487 162.549 126.853 162.549 M126.853 158.846 Q132.663 158.846 135.718 163.452 Q138.797 168.035 138.797 176.785 Q138.797 185.512 135.718 190.119 Q132.663 194.702 126.853 194.702 Q121.043 194.702 117.964 190.119 Q114.908 185.512 114.908 176.785 Q114.908 168.035 117.964 163.452 Q121.043 158.846 126.853 158.846 Z" fill="#000000" fill-rule="nonzero" fill-opacity="1" /><path clip-path="url(#clip320)" d="M147.015 188.151 L151.899 188.151 L151.899 194.031 L147.015 194.031 L147.015 188.151 Z" fill="#000000" fill-rule="nonzero" fill-opacity="1" /><path clip-path="url(#clip320)" d="M176.251 175.396 Q179.607 176.114 181.482 178.383 Q183.38 180.651 183.38 183.984 Q183.38 189.1 179.862 191.901 Q176.343 194.702 169.862 194.702 Q167.686 194.702 165.371 194.262 Q163.079 193.845 160.626 192.989 L160.626 188.475 Q162.57 189.609 164.885 190.188 Q167.2 190.767 169.723 190.767 Q174.121 190.767 176.413 189.031 Q178.727 187.295 178.727 183.984 Q178.727 180.929 176.575 179.216 Q174.445 177.48 170.626 177.48 L166.598 177.48 L166.598 173.637 L170.811 173.637 Q174.26 173.637 176.089 172.271 Q177.917 170.883 177.917 168.29 Q177.917 165.628 176.019 164.216 Q174.144 162.781 170.626 162.781 Q168.704 162.781 166.505 163.197 Q164.306 163.614 161.667 164.494 L161.667 160.327 Q164.329 159.586 166.644 159.216 Q168.982 158.846 171.042 158.846 Q176.366 158.846 179.468 161.276 Q182.57 163.684 182.57 167.804 Q182.57 170.674 180.926 172.665 Q179.283 174.633 176.251 175.396 Z" fill="#000000" fill-rule="nonzero" fill-opacity="1" /><path clip-path="url(#clip320)" d="M21.7677 929.095 L39.6235 929.095 L39.6235 921.01 Q39.6235 916.523 37.3 914.072 Q34.9765 911.621 30.6797 911.621 Q26.4147 911.621 24.0912 914.072 Q21.7677 916.523 21.7677 921.01 L21.7677 929.095 M16.4842 935.524 L16.4842 921.01 Q16.4842 913.021 20.1126 908.947 Q23.7092 904.841 30.6797 904.841 Q37.7138 904.841 41.3104 908.947 Q44.907 913.021 44.907 921.01 L44.907 929.095 L64.0042 929.095 L64.0042 935.524 L16.4842 935.524 Z" fill="#000000" fill-rule="nonzero" fill-opacity="1" /><path clip-path="url(#clip320)" d="M33.8307 876.96 Q33.2578 877.946 33.0032 879.124 Q32.7167 880.27 32.7167 881.67 Q32.7167 886.636 35.9632 889.309 Q39.1779 891.951 45.2253 891.951 L64.0042 891.951 L64.0042 897.839 L28.3562 897.839 L28.3562 891.951 L33.8944 891.951 Q30.6479 890.105 29.0883 887.145 Q27.4968 884.185 27.4968 879.952 Q27.4968 879.347 27.5923 878.615 Q27.656 877.883 27.8151 876.992 L33.8307 876.96 Z" fill="#000000" fill-rule="nonzero" fill-opacity="1" /><path clip-path="url(#clip320)" d="M32.4621 858.435 Q32.4621 863.146 36.1542 865.883 Q39.8145 868.621 46.212 868.621 Q52.6095 868.621 56.3017 865.915 Q59.9619 863.178 59.9619 858.435 Q59.9619 853.757 56.2698 851.019 Q52.5777 848.282 46.212 848.282 Q39.8781 848.282 36.186 851.019 Q32.4621 853.757 32.4621 858.435 M27.4968 858.435 Q27.4968 850.797 32.4621 846.436 Q37.4273 842.076 46.212 842.076 Q54.9649 842.076 59.9619 846.436 Q64.9272 850.797 64.9272 858.435 Q64.9272 866.106 59.9619 870.467 Q54.9649 874.795 46.212 874.795 Q37.4273 874.795 32.4621 870.467 Q27.4968 866.106 27.4968 858.435 Z" fill="#000000" fill-rule="nonzero" fill-opacity="1" /><path clip-path="url(#clip320)" d="M58.657 826.702 L77.5631 826.702 L77.5631 832.591 L28.3562 832.591 L28.3562 826.702 L33.7671 826.702 Q30.5842 824.856 29.0564 822.055 Q27.4968 819.223 27.4968 815.308 Q27.4968 808.815 32.6531 804.773 Q37.8093 800.699 46.212 800.699 Q54.6147 800.699 59.771 804.773 Q64.9272 808.815 64.9272 815.308 Q64.9272 819.223 63.3994 822.055 Q61.8398 824.856 58.657 826.702 M46.212 806.778 Q39.7508 806.778 36.0905 809.451 Q32.3984 812.093 32.3984 816.74 Q32.3984 821.387 36.0905 824.061 Q39.7508 826.702 46.212 826.702 Q52.6732 826.702 56.3653 824.061 Q60.0256 821.387 60.0256 816.74 Q60.0256 812.093 56.3653 809.451 Q52.6732 806.778 46.212 806.778 Z" fill="#000000" fill-rule="nonzero" fill-opacity="1" /><path clip-path="url(#clip320)" d="M32.4621 777.177 Q32.4621 781.888 36.1542 784.625 Q39.8145 787.362 46.212 787.362 Q52.6095 787.362 56.3017 784.657 Q59.9619 781.92 59.9619 777.177 Q59.9619 772.498 56.2698 769.761 Q52.5777 767.024 46.212 767.024 Q39.8781 767.024 36.186 769.761 Q32.4621 772.498 32.4621 777.177 M27.4968 777.177 Q27.4968 769.538 32.4621 765.178 Q37.4273 760.817 46.212 760.817 Q54.9649 760.817 59.9619 765.178 Q64.9272 769.538 64.9272 777.177 Q64.9272 784.848 59.9619 789.208 Q54.9649 793.537 46.212 793.537 Q37.4273 793.537 32.4621 789.208 Q27.4968 784.848 27.4968 777.177 Z" fill="#000000" fill-rule="nonzero" fill-opacity="1" /><path clip-path="url(#clip320)" d="M33.8307 730.453 Q33.2578 731.44 33.0032 732.617 Q32.7167 733.763 32.7167 735.164 Q32.7167 740.129 35.9632 742.802 Q39.1779 745.444 45.2253 745.444 L64.0042 745.444 L64.0042 751.332 L28.3562 751.332 L28.3562 745.444 L33.8944 745.444 Q30.6479 743.598 29.0883 740.638 Q27.4968 737.678 27.4968 733.445 Q27.4968 732.84 27.5923 732.108 Q27.656 731.376 27.8151 730.485 L33.8307 730.453 Z" fill="#000000" fill-rule="nonzero" fill-opacity="1" /><path clip-path="url(#clip320)" d="M18.2347 718.517 L28.3562 718.517 L28.3562 706.454 L32.9077 706.454 L32.9077 718.517 L52.2594 718.517 Q56.6199 718.517 57.8613 717.34 Q59.1026 716.13 59.1026 712.47 L59.1026 706.454 L64.0042 706.454 L64.0042 712.47 Q64.0042 719.249 61.4897 721.827 Q58.9434 724.406 52.2594 724.406 L32.9077 724.406 L32.9077 728.702 L28.3562 728.702 L28.3562 724.406 L18.2347 724.406 L18.2347 718.517 Z" fill="#000000" fill-rule="nonzero" fill-opacity="1" /><path clip-path="url(#clip320)" d="M28.3562 698.752 L28.3562 692.895 L64.0042 692.895 L64.0042 698.752 L28.3562 698.752 M14.479 698.752 L14.479 692.895 L21.895 692.895 L21.895 698.752 L14.479 698.752 Z" fill="#000000" fill-rule="nonzero" fill-opacity="1" /><path clip-path="url(#clip320)" d="M32.4621 666.828 Q32.4621 671.538 36.1542 674.276 Q39.8145 677.013 46.212 677.013 Q52.6095 677.013 56.3017 674.307 Q59.9619 671.57 59.9619 666.828 Q59.9619 662.149 56.2698 659.412 Q52.5777 656.674 46.212 656.674 Q39.8781 656.674 36.186 659.412 Q32.4621 662.149 32.4621 666.828 M27.4968 666.828 Q27.4968 659.189 32.4621 654.828 Q37.4273 650.468 46.212 650.468 Q54.9649 650.468 59.9619 654.828 Q64.9272 659.189 64.9272 666.828 Q64.9272 674.498 59.9619 678.859 Q54.9649 683.188 46.212 683.188 Q37.4273 683.188 32.4621 678.859 Q27.4968 674.498 27.4968 666.828 Z" fill="#000000" fill-rule="nonzero" fill-opacity="1" /><path clip-path="url(#clip320)" d="M42.4881 611.128 L64.0042 611.128 L64.0042 616.984 L42.679 616.984 Q37.6183 616.984 35.1038 618.958 Q32.5894 620.931 32.5894 624.878 Q32.5894 629.62 35.6131 632.357 Q38.6368 635.095 43.8567 635.095 L64.0042 635.095 L64.0042 640.983 L28.3562 640.983 L28.3562 635.095 L33.8944 635.095 Q30.6797 632.994 29.0883 630.161 Q27.4968 627.297 27.4968 623.573 Q27.4968 617.43 31.3163 614.279 Q35.1038 611.128 42.4881 611.128 Z" fill="#000000" fill-rule="nonzero" fill-opacity="1" /><path clip-path="url(#clip320)" d="M281.606 63.9476 L281.606 47.7034 L268.238 47.7034 L268.238 40.9789 L289.708 40.9789 L289.708 66.9452 Q284.968 70.3075 279.256 72.0494 Q273.545 73.7508 267.063 73.7508 Q252.885 73.7508 244.864 65.4869 Q236.884 57.1826 236.884 42.3968 Q236.884 27.5705 244.864 19.3066 Q252.885 11.0023 267.063 11.0023 Q272.977 11.0023 278.284 12.4606 Q283.631 13.9189 288.128 16.7545 L288.128 25.464 Q283.591 21.6156 278.487 19.6712 Q273.382 17.7268 267.752 17.7268 Q256.652 17.7268 251.062 23.9246 Q245.512 30.1225 245.512 42.3968 Q245.512 54.6305 251.062 60.8284 Q256.652 67.0263 267.752 67.0263 Q272.086 67.0263 275.489 66.2971 Q278.892 65.5274 281.606 63.9476 Z" fill="#000000" fill-rule="nonzero" fill-opacity="1" /><path clip-path="url(#clip320)" d="M330.622 34.1734 Q329.366 33.4443 327.867 33.1202 Q326.409 32.7556 324.626 32.7556 Q318.307 32.7556 314.904 36.8875 Q311.542 40.9789 311.542 48.6757 L311.542 72.576 L304.048 72.576 L304.048 27.2059 L311.542 27.2059 L311.542 34.2544 Q313.892 30.1225 317.659 28.1376 Q321.426 26.1121 326.814 26.1121 Q327.584 26.1121 328.515 26.2337 Q329.447 26.3147 330.581 26.5172 L330.622 34.1734 Z" fill="#000000" fill-rule="nonzero" fill-opacity="1" /><path clip-path="url(#clip320)" d="M354.198 32.4315 Q348.203 32.4315 344.719 37.1306 Q341.235 41.7891 341.235 49.9314 Q341.235 58.0738 344.678 62.7728 Q348.162 67.4314 354.198 67.4314 Q360.153 67.4314 363.637 62.7323 Q367.12 58.0333 367.12 49.9314 Q367.12 41.8701 363.637 37.1711 Q360.153 32.4315 354.198 32.4315 M354.198 26.1121 Q363.92 26.1121 369.47 32.4315 Q375.02 38.7509 375.02 49.9314 Q375.02 61.0714 369.47 67.4314 Q363.92 73.7508 354.198 73.7508 Q344.435 73.7508 338.886 67.4314 Q333.376 61.0714 333.376 49.9314 Q333.376 38.7509 338.886 32.4315 Q344.435 26.1121 354.198 26.1121 Z" fill="#000000" fill-rule="nonzero" fill-opacity="1" /><path clip-path="url(#clip320)" d="M386.605 54.671 L386.605 27.2059 L394.059 27.2059 L394.059 54.3874 Q394.059 60.8284 396.57 64.0691 Q399.082 67.2693 404.105 67.2693 Q410.141 67.2693 413.625 63.421 Q417.149 59.5726 417.149 52.9291 L417.149 27.2059 L424.603 27.2059 L424.603 72.576 L417.149 72.576 L417.149 65.6084 Q414.435 69.7404 410.83 71.7658 Q407.265 73.7508 402.525 73.7508 Q394.707 73.7508 390.656 68.8897 Q386.605 64.0286 386.605 54.671 M405.361 26.1121 L405.361 26.1121 Z" fill="#000000" fill-rule="nonzero" fill-opacity="1" /><path clip-path="url(#clip320)" d="M447.166 65.7705 L447.166 89.8329 L439.672 89.8329 L439.672 27.2059 L447.166 27.2059 L447.166 34.0924 Q449.516 30.0415 453.081 28.0971 Q456.686 26.1121 461.669 26.1121 Q469.932 26.1121 475.077 32.6746 Q480.262 39.2371 480.262 49.9314 Q480.262 60.6258 475.077 67.1883 Q469.932 73.7508 461.669 73.7508 Q456.686 73.7508 453.081 71.8063 Q449.516 69.8214 447.166 65.7705 M472.525 49.9314 Q472.525 41.7081 469.122 37.0496 Q465.76 32.3505 459.846 32.3505 Q453.931 32.3505 450.529 37.0496 Q447.166 41.7081 447.166 49.9314 Q447.166 58.1548 450.529 62.8538 Q453.931 67.5124 459.846 67.5124 Q465.76 67.5124 469.122 62.8538 Q472.525 58.1548 472.525 49.9314 Z" fill="#000000" fill-rule="nonzero" fill-opacity="1" /><path clip-path="url(#clip320)" d="M531.425 48.0275 L531.425 51.6733 L497.154 51.6733 Q497.641 59.3701 501.772 63.421 Q505.945 67.4314 513.358 67.4314 Q517.652 67.4314 521.662 66.3781 Q525.713 65.3249 529.683 63.2184 L529.683 70.267 Q525.673 71.9684 521.46 72.8596 Q517.247 73.7508 512.912 73.7508 Q502.056 73.7508 495.696 67.4314 Q489.377 61.1119 489.377 50.3365 Q489.377 39.1965 495.372 32.6746 Q501.408 26.1121 511.616 26.1121 Q520.771 26.1121 526.078 32.0264 Q531.425 37.9003 531.425 48.0275 M523.971 45.84 Q523.89 39.7232 520.528 36.0774 Q517.206 32.4315 511.697 32.4315 Q505.459 32.4315 501.691 35.9558 Q497.965 39.4801 497.397 45.8805 L523.971 45.84 Z" fill="#000000" fill-rule="nonzero" fill-opacity="1" /><path clip-path="url(#clip320)" d="M573.514 34.0924 L573.514 9.54393 L580.968 9.54393 L580.968 72.576 L573.514 72.576 L573.514 65.7705 Q571.164 69.8214 567.559 71.8063 Q563.994 73.7508 558.971 73.7508 Q550.748 73.7508 545.563 67.1883 Q540.418 60.6258 540.418 49.9314 Q540.418 39.2371 545.563 32.6746 Q550.748 26.1121 558.971 26.1121 Q563.994 26.1121 567.559 28.0971 Q571.164 30.0415 573.514 34.0924 M548.115 49.9314 Q548.115 58.1548 551.477 62.8538 Q554.88 67.5124 560.794 67.5124 Q566.708 67.5124 570.111 62.8538 Q573.514 58.1548 573.514 49.9314 Q573.514 41.7081 570.111 37.0496 Q566.708 32.3505 560.794 32.3505 Q554.88 32.3505 551.477 37.0496 Q548.115 41.7081 548.115 49.9314 Z" fill="#000000" fill-rule="nonzero" fill-opacity="1" /><path clip-path="url(#clip320)" d="M631.199 43.6931 L631.199 65.8515 L644.324 65.8515 Q650.927 65.8515 654.086 63.1374 Q657.287 60.3828 657.287 54.752 Q657.287 49.0808 654.086 46.4072 Q650.927 43.6931 644.324 43.6931 L631.199 43.6931 M631.199 18.8205 L631.199 37.0496 L643.311 37.0496 Q649.306 37.0496 652.223 34.8216 Q655.18 32.5531 655.18 27.935 Q655.18 23.3575 652.223 21.089 Q649.306 18.8205 643.311 18.8205 L631.199 18.8205 M623.016 12.096 L643.919 12.096 Q653.276 12.096 658.34 15.9849 Q663.404 19.8737 663.404 27.0438 Q663.404 32.5936 660.811 35.8748 Q658.218 39.156 653.195 39.9662 Q659.231 41.2625 662.553 45.3944 Q665.915 49.4858 665.915 55.6432 Q665.915 63.745 660.406 68.1605 Q654.897 72.576 644.729 72.576 L623.016 72.576 L623.016 12.096 Z" fill="#000000" fill-rule="nonzero" fill-opacity="1" /><path clip-path="url(#clip320)" d="M700.226 49.7694 Q691.193 49.7694 687.709 51.8354 Q684.225 53.9013 684.225 58.8839 Q684.225 62.8538 686.818 65.2034 Q689.451 67.5124 693.947 67.5124 Q700.145 67.5124 703.872 63.1374 Q707.639 58.7219 707.639 51.4303 L707.639 49.7694 L700.226 49.7694 M715.093 46.6907 L715.093 72.576 L707.639 72.576 L707.639 65.6895 Q705.087 69.8214 701.279 71.8063 Q697.472 73.7508 691.962 73.7508 Q684.995 73.7508 680.863 69.8619 Q676.772 65.9325 676.772 59.3701 Q676.772 51.7138 681.876 47.825 Q687.02 43.9361 697.188 43.9361 L707.639 43.9361 L707.639 43.2069 Q707.639 38.0623 704.237 35.2672 Q700.874 32.4315 694.758 32.4315 Q690.869 32.4315 687.182 33.3632 Q683.496 34.295 680.093 36.1584 L680.093 29.2718 Q684.185 27.692 688.033 26.9223 Q691.881 26.1121 695.527 26.1121 Q705.371 26.1121 710.232 31.2163 Q715.093 36.3204 715.093 46.6907 Z" fill="#000000" fill-rule="nonzero" fill-opacity="1" /><path clip-path="url(#clip320)" d="M756.736 34.1734 Q755.481 33.4443 753.982 33.1202 Q752.523 32.7556 750.741 32.7556 Q744.422 32.7556 741.019 36.8875 Q737.657 40.9789 737.657 48.6757 L737.657 72.576 L730.162 72.576 L730.162 27.2059 L737.657 27.2059 L737.657 34.2544 Q740.006 30.1225 743.773 28.1376 Q747.541 26.1121 752.929 26.1121 Q753.698 26.1121 754.63 26.2337 Q755.562 26.3147 756.696 26.5172 L756.736 34.1734 Z" fill="#000000" fill-rule="nonzero" fill-opacity="1" /><path clip-path="url(#clip320)" d="M832.488 63.9476 L832.488 47.7034 L819.12 47.7034 L819.12 40.9789 L840.59 40.9789 L840.59 66.9452 Q835.851 70.3075 830.139 72.0494 Q824.427 73.7508 817.946 73.7508 Q803.767 73.7508 795.747 65.4869 Q787.766 57.1826 787.766 42.3968 Q787.766 27.5705 795.747 19.3066 Q803.767 11.0023 817.946 11.0023 Q823.86 11.0023 829.167 12.4606 Q834.514 13.9189 839.01 16.7545 L839.01 25.464 Q834.473 21.6156 829.369 19.6712 Q824.265 17.7268 818.634 17.7268 Q807.535 17.7268 801.944 23.9246 Q796.395 30.1225 796.395 42.3968 Q796.395 54.6305 801.944 60.8284 Q807.535 67.0263 818.634 67.0263 Q822.969 67.0263 826.371 66.2971 Q829.774 65.5274 832.488 63.9476 Z" fill="#000000" fill-rule="nonzero" fill-opacity="1" /><path clip-path="url(#clip320)" d="M881.504 34.1734 Q880.248 33.4443 878.75 33.1202 Q877.291 32.7556 875.509 32.7556 Q869.189 32.7556 865.787 36.8875 Q862.424 40.9789 862.424 48.6757 L862.424 72.576 L854.93 72.576 L854.93 27.2059 L862.424 27.2059 L862.424 34.2544 Q864.774 30.1225 868.541 28.1376 Q872.309 26.1121 877.696 26.1121 Q878.466 26.1121 879.398 26.2337 Q880.329 26.3147 881.464 26.5172 L881.504 34.1734 Z" fill="#000000" fill-rule="nonzero" fill-opacity="1" /><path clip-path="url(#clip320)" d="M909.942 49.7694 Q900.908 49.7694 897.424 51.8354 Q893.941 53.9013 893.941 58.8839 Q893.941 62.8538 896.533 65.2034 Q899.166 67.5124 903.663 67.5124 Q909.861 67.5124 913.587 63.1374 Q917.355 58.7219 917.355 51.4303 L917.355 49.7694 L909.942 49.7694 M924.808 46.6907 L924.808 72.576 L917.355 72.576 L917.355 65.6895 Q914.803 69.8214 910.995 71.8063 Q907.187 73.7508 901.678 73.7508 Q894.71 73.7508 890.578 69.8619 Q886.487 65.9325 886.487 59.3701 Q886.487 51.7138 891.591 47.825 Q896.736 43.9361 906.903 43.9361 L917.355 43.9361 L917.355 43.2069 Q917.355 38.0623 913.952 35.2672 Q910.59 32.4315 904.473 32.4315 Q900.584 32.4315 896.898 33.3632 Q893.211 34.295 889.809 36.1584 L889.809 29.2718 Q893.9 27.692 897.748 26.9223 Q901.597 26.1121 905.243 26.1121 Q915.086 26.1121 919.947 31.2163 Q924.808 36.3204 924.808 46.6907 Z" fill="#000000" fill-rule="nonzero" fill-opacity="1" /><path clip-path="url(#clip320)" d="M947.372 65.7705 L947.372 89.8329 L939.878 89.8329 L939.878 27.2059 L947.372 27.2059 L947.372 34.0924 Q949.721 30.0415 953.286 28.0971 Q956.892 26.1121 961.874 26.1121 Q970.138 26.1121 975.283 32.6746 Q980.468 39.2371 980.468 49.9314 Q980.468 60.6258 975.283 67.1883 Q970.138 73.7508 961.874 73.7508 Q956.892 73.7508 953.286 71.8063 Q949.721 69.8214 947.372 65.7705 M972.731 49.9314 Q972.731 41.7081 969.328 37.0496 Q965.966 32.3505 960.051 32.3505 Q954.137 32.3505 950.734 37.0496 Q947.372 41.7081 947.372 49.9314 Q947.372 58.1548 950.734 62.8538 Q954.137 67.5124 960.051 67.5124 Q965.966 67.5124 969.328 62.8538 Q972.731 58.1548 972.731 49.9314 Z" fill="#000000" fill-rule="nonzero" fill-opacity="1" /><path clip-path="url(#clip320)" d="M1030.54 45.1919 L1030.54 72.576 L1023.08 72.576 L1023.08 45.4349 Q1023.08 38.994 1020.57 35.7938 Q1018.06 32.5936 1013.04 32.5936 Q1007 32.5936 1003.52 36.4419 Q1000.03 40.2903 1000.03 46.9338 L1000.03 72.576 L992.54 72.576 L992.54 9.54393 L1000.03 9.54393 L1000.03 34.2544 Q1002.71 30.163 1006.31 28.1376 Q1009.96 26.1121 1014.7 26.1121 Q1022.52 26.1121 1026.53 30.9732 Q1030.54 35.7938 1030.54 45.1919 Z" fill="#000000" fill-rule="nonzero" fill-opacity="1" /><path clip-path="url(#clip320)" d="M1089.36 32.4315 Q1083.36 32.4315 1079.88 37.1306 Q1076.39 41.7891 1076.39 49.9314 Q1076.39 58.0738 1079.84 62.7728 Q1083.32 67.4314 1089.36 67.4314 Q1095.31 67.4314 1098.79 62.7323 Q1102.28 58.0333 1102.28 49.9314 Q1102.28 41.8701 1098.79 37.1711 Q1095.31 32.4315 1089.36 32.4315 M1089.36 26.1121 Q1099.08 26.1121 1104.63 32.4315 Q1110.18 38.7509 1110.18 49.9314 Q1110.18 61.0714 1104.63 67.4314 Q1099.08 73.7508 1089.36 73.7508 Q1079.59 73.7508 1074.04 67.4314 Q1068.53 61.0714 1068.53 49.9314 Q1068.53 38.7509 1074.04 32.4315 Q1079.59 26.1121 1089.36 26.1121 Z" fill="#000000" fill-rule="nonzero" fill-opacity="1" /><path clip-path="url(#clip320)" d="M1145.5 9.54393 L1145.5 15.7418 L1138.37 15.7418 Q1134.36 15.7418 1132.78 17.3622 Q1131.24 18.9825 1131.24 23.1955 L1131.24 27.2059 L1143.52 27.2059 L1143.52 32.9987 L1131.24 32.9987 L1131.24 72.576 L1123.75 72.576 L1123.75 32.9987 L1116.62 32.9987 L1116.62 27.2059 L1123.75 27.2059 L1123.75 24.0462 Q1123.75 16.471 1127.27 13.0277 Q1130.8 9.54393 1138.45 9.54393 L1145.5 9.54393 Z" fill="#000000" fill-rule="nonzero" fill-opacity="1" /><path clip-path="url(#clip320)" d="M1186.62 18.8205 L1186.62 41.5461 L1196.91 41.5461 Q1202.62 41.5461 1205.74 38.5889 Q1208.86 35.6318 1208.86 30.163 Q1208.86 24.7348 1205.74 21.7777 Q1202.62 18.8205 1196.91 18.8205 L1186.62 18.8205 M1178.44 12.096 L1196.91 12.096 Q1207.08 12.096 1212.26 16.714 Q1217.49 21.2916 1217.49 30.163 Q1217.49 39.1155 1212.26 43.6931 Q1207.08 48.2706 1196.91 48.2706 L1186.62 48.2706 L1186.62 72.576 L1178.44 72.576 L1178.44 12.096 Z" fill="#000000" fill-rule="nonzero" fill-opacity="1" /><path clip-path="url(#clip320)" d="M1252.97 34.1734 Q1251.72 33.4443 1250.22 33.1202 Q1248.76 32.7556 1246.98 32.7556 Q1240.66 32.7556 1237.25 36.8875 Q1233.89 40.9789 1233.89 48.6757 L1233.89 72.576 L1226.4 72.576 L1226.4 27.2059 L1233.89 27.2059 L1233.89 34.2544 Q1236.24 30.1225 1240.01 28.1376 Q1243.78 26.1121 1249.16 26.1121 Q1249.93 26.1121 1250.87 26.2337 Q1251.8 26.3147 1252.93 26.5172 L1252.97 34.1734 Z" fill="#000000" fill-rule="nonzero" fill-opacity="1" /><path clip-path="url(#clip320)" d="M1276.55 32.4315 Q1270.55 32.4315 1267.07 37.1306 Q1263.59 41.7891 1263.59 49.9314 Q1263.59 58.0738 1267.03 62.7728 Q1270.51 67.4314 1276.55 67.4314 Q1282.5 67.4314 1285.99 62.7323 Q1289.47 58.0333 1289.47 49.9314 Q1289.47 41.8701 1285.99 37.1711 Q1282.5 32.4315 1276.55 32.4315 M1276.55 26.1121 Q1286.27 26.1121 1291.82 32.4315 Q1297.37 38.7509 1297.37 49.9314 Q1297.37 61.0714 1291.82 67.4314 Q1286.27 73.7508 1276.55 73.7508 Q1266.79 73.7508 1261.24 67.4314 Q1255.73 61.0714 1255.73 49.9314 Q1255.73 38.7509 1261.24 32.4315 Q1266.79 26.1121 1276.55 26.1121 Z" fill="#000000" fill-rule="nonzero" fill-opacity="1" /><path clip-path="url(#clip320)" d="M1316.94 65.7705 L1316.94 89.8329 L1309.44 89.8329 L1309.44 27.2059 L1316.94 27.2059 L1316.94 34.0924 Q1319.29 30.0415 1322.85 28.0971 Q1326.46 26.1121 1331.44 26.1121 Q1339.7 26.1121 1344.85 32.6746 Q1350.03 39.2371 1350.03 49.9314 Q1350.03 60.6258 1344.85 67.1883 Q1339.7 73.7508 1331.44 73.7508 Q1326.46 73.7508 1322.85 71.8063 Q1319.29 69.8214 1316.94 65.7705 M1342.29 49.9314 Q1342.29 41.7081 1338.89 37.0496 Q1335.53 32.3505 1329.62 32.3505 Q1323.7 32.3505 1320.3 37.0496 Q1316.94 41.7081 1316.94 49.9314 Q1316.94 58.1548 1320.3 62.8538 Q1323.7 67.5124 1329.62 67.5124 Q1335.53 67.5124 1338.89 62.8538 Q1342.29 58.1548 1342.29 49.9314 Z" fill="#000000" fill-rule="nonzero" fill-opacity="1" /><path clip-path="url(#clip320)" d="M1379.97 32.4315 Q1373.97 32.4315 1370.49 37.1306 Q1367.01 41.7891 1367.01 49.9314 Q1367.01 58.0738 1370.45 62.7728 Q1373.93 67.4314 1379.97 67.4314 Q1385.92 67.4314 1389.41 62.7323 Q1392.89 58.0333 1392.89 49.9314 Q1392.89 41.8701 1389.41 37.1711 Q1385.92 32.4315 1379.97 32.4315 M1379.97 26.1121 Q1389.69 26.1121 1395.24 32.4315 Q1400.79 38.7509 1400.79 49.9314 Q1400.79 61.0714 1395.24 67.4314 Q1389.69 73.7508 1379.97 73.7508 Q1370.21 73.7508 1364.66 67.4314 Q1359.15 61.0714 1359.15 49.9314 Q1359.15 38.7509 1364.66 32.4315 Q1370.21 26.1121 1379.97 26.1121 Z" fill="#000000" fill-rule="nonzero" fill-opacity="1" /><path clip-path="url(#clip320)" d="M1439.44 34.1734 Q1438.18 33.4443 1436.68 33.1202 Q1435.22 32.7556 1433.44 32.7556 Q1427.12 32.7556 1423.72 36.8875 Q1420.36 40.9789 1420.36 48.6757 L1420.36 72.576 L1412.86 72.576 L1412.86 27.2059 L1420.36 27.2059 L1420.36 34.2544 Q1422.71 30.1225 1426.47 28.1376 Q1430.24 26.1121 1435.63 26.1121 Q1436.4 26.1121 1437.33 26.2337 Q1438.26 26.3147 1439.39 26.5172 L1439.44 34.1734 Z" fill="#000000" fill-rule="nonzero" fill-opacity="1" /><path clip-path="url(#clip320)" d="M1454.63 14.324 L1454.63 27.2059 L1469.98 27.2059 L1469.98 32.9987 L1454.63 32.9987 L1454.63 57.6282 Q1454.63 63.1779 1456.12 64.7578 Q1457.66 66.3376 1462.32 66.3376 L1469.98 66.3376 L1469.98 72.576 L1462.32 72.576 Q1453.69 72.576 1450.41 69.3758 Q1447.13 66.1351 1447.13 57.6282 L1447.13 32.9987 L1441.66 32.9987 L1441.66 27.2059 L1447.13 27.2059 L1447.13 14.324 L1454.63 14.324 Z" fill="#000000" fill-rule="nonzero" fill-opacity="1" /><path clip-path="url(#clip320)" d="M1479.78 27.2059 L1487.24 27.2059 L1487.24 72.576 L1479.78 72.576 L1479.78 27.2059 M1479.78 9.54393 L1487.24 9.54393 L1487.24 18.9825 L1479.78 18.9825 L1479.78 9.54393 Z" fill="#000000" fill-rule="nonzero" fill-opacity="1" /><path clip-path="url(#clip320)" d="M1520.41 32.4315 Q1514.42 32.4315 1510.93 37.1306 Q1507.45 41.7891 1507.45 49.9314 Q1507.45 58.0738 1510.89 62.7728 Q1514.38 67.4314 1520.41 67.4314 Q1526.37 67.4314 1529.85 62.7323 Q1533.34 58.0333 1533.34 49.9314 Q1533.34 41.8701 1529.85 37.1711 Q1526.37 32.4315 1520.41 32.4315 M1520.41 26.1121 Q1530.14 26.1121 1535.68 32.4315 Q1541.23 38.7509 1541.23 49.9314 Q1541.23 61.0714 1535.68 67.4314 Q1530.14 73.7508 1520.41 73.7508 Q1510.65 73.7508 1505.1 67.4314 Q1499.59 61.0714 1499.59 49.9314 Q1499.59 38.7509 1505.1 32.4315 Q1510.65 26.1121 1520.41 26.1121 Z" fill="#000000" fill-rule="nonzero" fill-opacity="1" /><path clip-path="url(#clip320)" d="M1591.3 45.1919 L1591.3 72.576 L1583.85 72.576 L1583.85 45.4349 Q1583.85 38.994 1581.34 35.7938 Q1578.83 32.5936 1573.8 32.5936 Q1567.77 32.5936 1564.28 36.4419 Q1560.8 40.2903 1560.8 46.9338 L1560.8 72.576 L1553.31 72.576 L1553.31 27.2059 L1560.8 27.2059 L1560.8 34.2544 Q1563.47 30.163 1567.08 28.1376 Q1570.73 26.1121 1575.46 26.1121 Q1583.28 26.1121 1587.29 30.9732 Q1591.3 35.7938 1591.3 45.1919 Z" fill="#000000" fill-rule="nonzero" fill-opacity="1" /><path clip-path="url(#clip320)" d="M1665.11 49.9314 Q1665.11 41.7081 1661.71 37.0496 Q1658.35 32.3505 1652.43 32.3505 Q1646.52 32.3505 1643.11 37.0496 Q1639.75 41.7081 1639.75 49.9314 Q1639.75 58.1548 1643.11 62.8538 Q1646.52 67.5124 1652.43 67.5124 Q1658.35 67.5124 1661.71 62.8538 Q1665.11 58.1548 1665.11 49.9314 M1639.75 34.0924 Q1642.1 30.0415 1645.67 28.0971 Q1649.27 26.1121 1654.25 26.1121 Q1662.52 26.1121 1667.66 32.6746 Q1672.85 39.2371 1672.85 49.9314 Q1672.85 60.6258 1667.66 67.1883 Q1662.52 73.7508 1654.25 73.7508 Q1649.27 73.7508 1645.67 71.8063 Q1642.1 69.8214 1639.75 65.7705 L1639.75 72.576 L1632.26 72.576 L1632.26 9.54393 L1639.75 9.54393 L1639.75 34.0924 Z" fill="#000000" fill-rule="nonzero" fill-opacity="1" /><path clip-path="url(#clip320)" d="M1704.08 76.7889 Q1700.92 84.8907 1697.92 87.3618 Q1694.93 89.8329 1689.9 89.8329 L1683.95 89.8329 L1683.95 83.5945 L1688.32 83.5945 Q1691.4 83.5945 1693.1 82.1361 Q1694.8 80.6778 1696.87 75.2496 L1698.21 71.8468 L1679.86 27.2059 L1687.76 27.2059 L1701.93 62.6918 L1716.11 27.2059 L1724.01 27.2059 L1704.08 76.7889 Z" fill="#000000" fill-rule="nonzero" fill-opacity="1" /><path clip-path="url(#clip320)" d="M1756.34 27.2059 L1763.79 27.2059 L1773.11 62.6108 L1782.38 27.2059 L1791.18 27.2059 L1800.49 62.6108 L1809.77 27.2059 L1817.22 27.2059 L1805.35 72.576 L1796.56 72.576 L1786.8 35.3887 L1777 72.576 L1768.21 72.576 L1756.34 27.2059 Z" fill="#000000" fill-rule="nonzero" fill-opacity="1" /><path clip-path="url(#clip320)" d="M1875.52 49.7694 Q1866.48 49.7694 1863 51.8354 Q1859.51 53.9013 1859.51 58.8839 Q1859.51 62.8538 1862.11 65.2034 Q1864.74 67.5124 1869.24 67.5124 Q1875.43 67.5124 1879.16 63.1374 Q1882.93 58.7219 1882.93 51.4303 L1882.93 49.7694 L1875.52 49.7694 M1890.38 46.6907 L1890.38 72.576 L1882.93 72.576 L1882.93 65.6895 Q1880.38 69.8214 1876.57 71.8063 Q1872.76 73.7508 1867.25 73.7508 Q1860.28 73.7508 1856.15 69.8619 Q1852.06 65.9325 1852.06 59.3701 Q1852.06 51.7138 1857.16 47.825 Q1862.31 43.9361 1872.48 43.9361 L1882.93 43.9361 L1882.93 43.2069 Q1882.93 38.0623 1879.53 35.2672 Q1876.16 32.4315 1870.05 32.4315 Q1866.16 32.4315 1862.47 33.3632 Q1858.78 34.295 1855.38 36.1584 L1855.38 29.2718 Q1859.47 27.692 1863.32 26.9223 Q1867.17 26.1121 1870.82 26.1121 Q1880.66 26.1121 1885.52 31.2163 Q1890.38 36.3204 1890.38 46.6907 Z" fill="#000000" fill-rule="nonzero" fill-opacity="1" /><path clip-path="url(#clip320)" d="M1943.45 45.1919 L1943.45 72.576 L1936 72.576 L1936 45.4349 Q1936 38.994 1933.48 35.7938 Q1930.97 32.5936 1925.95 32.5936 Q1919.91 32.5936 1916.43 36.4419 Q1912.95 40.2903 1912.95 46.9338 L1912.95 72.576 L1905.45 72.576 L1905.45 27.2059 L1912.95 27.2059 L1912.95 34.2544 Q1915.62 30.163 1919.22 28.1376 Q1922.87 26.1121 1927.61 26.1121 Q1935.43 26.1121 1939.44 30.9732 Q1943.45 35.7938 1943.45 45.1919 Z" fill="#000000" fill-rule="nonzero" fill-opacity="1" /><path clip-path="url(#clip320)" d="M1988.17 34.0924 L1988.17 9.54393 L1995.62 9.54393 L1995.62 72.576 L1988.17 72.576 L1988.17 65.7705 Q1985.82 69.8214 1982.22 71.8063 Q1978.65 73.7508 1973.63 73.7508 Q1965.4 73.7508 1960.22 67.1883 Q1955.07 60.6258 1955.07 49.9314 Q1955.07 39.2371 1960.22 32.6746 Q1965.4 26.1121 1973.63 26.1121 Q1978.65 26.1121 1982.22 28.0971 Q1985.82 30.0415 1988.17 34.0924 M1962.77 49.9314 Q1962.77 58.1548 1966.13 62.8538 Q1969.54 67.5124 1975.45 67.5124 Q1981.37 67.5124 1984.77 62.8538 Q1988.17 58.1548 1988.17 49.9314 Q1988.17 41.7081 1984.77 37.0496 Q1981.37 32.3505 1975.45 32.3505 Q1969.54 32.3505 1966.13 37.0496 Q1962.77 41.7081 1962.77 49.9314 Z" fill="#000000" fill-rule="nonzero" fill-opacity="1" /><path clip-path="url(#clip320)" d="M2078.91 63.9476 L2078.91 47.7034 L2065.54 47.7034 L2065.54 40.9789 L2087.01 40.9789 L2087.01 66.9452 Q2082.27 70.3075 2076.56 72.0494 Q2070.85 73.7508 2064.37 73.7508 Q2050.19 73.7508 2042.17 65.4869 Q2034.19 57.1826 2034.19 42.3968 Q2034.19 27.5705 2042.17 19.3066 Q2050.19 11.0023 2064.37 11.0023 Q2070.28 11.0023 2075.59 12.4606 Q2080.94 13.9189 2085.43 16.7545 L2085.43 25.464 Q2080.9 21.6156 2075.79 19.6712 Q2070.69 17.7268 2065.06 17.7268 Q2053.96 17.7268 2048.37 23.9246 Q2042.82 30.1225 2042.82 42.3968 Q2042.82 54.6305 2048.37 60.8284 Q2053.96 67.0263 2065.06 67.0263 Q2069.39 67.0263 2072.79 66.2971 Q2076.2 65.5274 2078.91 63.9476 Z" fill="#000000" fill-rule="nonzero" fill-opacity="1" /><path clip-path="url(#clip320)" d="M2140.44 48.0275 L2140.44 51.6733 L2106.17 51.6733 Q2106.66 59.3701 2110.79 63.421 Q2114.96 67.4314 2122.38 67.4314 Q2126.67 67.4314 2130.68 66.3781 Q2134.73 65.3249 2138.7 63.2184 L2138.7 70.267 Q2134.69 71.9684 2130.48 72.8596 Q2126.27 73.7508 2121.93 73.7508 Q2111.08 73.7508 2104.72 67.4314 Q2098.4 61.1119 2098.4 50.3365 Q2098.4 39.1965 2104.39 32.6746 Q2110.43 26.1121 2120.64 26.1121 Q2129.79 26.1121 2135.1 32.0264 Q2140.44 37.9003 2140.44 48.0275 M2132.99 45.84 Q2132.91 39.7232 2129.55 36.0774 Q2126.23 32.4315 2120.72 32.4315 Q2114.48 32.4315 2110.71 35.9558 Q2106.98 39.4801 2106.42 45.8805 L2132.99 45.84 Z" fill="#000000" fill-rule="nonzero" fill-opacity="1" /><path clip-path="url(#clip320)" d="M2190.39 45.1919 L2190.39 72.576 L2182.94 72.576 L2182.94 45.4349 Q2182.94 38.994 2180.43 35.7938 Q2177.92 32.5936 2172.89 32.5936 Q2166.86 32.5936 2163.37 36.4419 Q2159.89 40.2903 2159.89 46.9338 L2159.89 72.576 L2152.39 72.576 L2152.39 27.2059 L2159.89 27.2059 L2159.89 34.2544 Q2162.56 30.163 2166.17 28.1376 Q2169.81 26.1121 2174.55 26.1121 Q2182.37 26.1121 2186.38 30.9732 Q2190.39 35.7938 2190.39 45.1919 Z" fill="#000000" fill-rule="nonzero" fill-opacity="1" /><path clip-path="url(#clip320)" d="M2235.11 34.0924 L2235.11 9.54393 L2242.57 9.54393 L2242.57 72.576 L2235.11 72.576 L2235.11 65.7705 Q2232.76 69.8214 2229.16 71.8063 Q2225.59 73.7508 2220.57 73.7508 Q2212.35 73.7508 2207.16 67.1883 Q2202.02 60.6258 2202.02 49.9314 Q2202.02 39.2371 2207.16 32.6746 Q2212.35 26.1121 2220.57 26.1121 Q2225.59 26.1121 2229.16 28.0971 Q2232.76 30.0415 2235.11 34.0924 M2209.71 49.9314 Q2209.71 58.1548 2213.08 62.8538 Q2216.48 67.5124 2222.39 67.5124 Q2228.31 67.5124 2231.71 62.8538 Q2235.11 58.1548 2235.11 49.9314 Q2235.11 41.7081 2231.71 37.0496 Q2228.31 32.3505 2222.39 32.3505 Q2216.48 32.3505 2213.08 37.0496 Q2209.71 41.7081 2209.71 49.9314 Z" fill="#000000" fill-rule="nonzero" fill-opacity="1" /><path clip-path="url(#clip320)" d="M2296.73 48.0275 L2296.73 51.6733 L2262.46 51.6733 Q2262.94 59.3701 2267.08 63.421 Q2271.25 67.4314 2278.66 67.4314 Q2282.96 67.4314 2286.97 66.3781 Q2291.02 65.3249 2294.99 63.2184 L2294.99 70.267 Q2290.98 71.9684 2286.76 72.8596 Q2282.55 73.7508 2278.22 73.7508 Q2267.36 73.7508 2261 67.4314 Q2254.68 61.1119 2254.68 50.3365 Q2254.68 39.1965 2260.68 32.6746 Q2266.71 26.1121 2276.92 26.1121 Q2286.07 26.1121 2291.38 32.0264 Q2296.73 37.9003 2296.73 48.0275 M2289.27 45.84 Q2289.19 39.7232 2285.83 36.0774 Q2282.51 32.4315 2277 32.4315 Q2270.76 32.4315 2266.99 35.9558 Q2263.27 39.4801 2262.7 45.8805 L2289.27 45.84 Z" fill="#000000" fill-rule="nonzero" fill-opacity="1" /><path clip-path="url(#clip320)" d="M2335.25 34.1734 Q2334 33.4443 2332.5 33.1202 Q2331.04 32.7556 2329.26 32.7556 Q2322.94 32.7556 2319.53 36.8875 Q2316.17 40.9789 2316.17 48.6757 L2316.17 72.576 L2308.68 72.576 L2308.68 27.2059 L2316.17 27.2059 L2316.17 34.2544 Q2318.52 30.1225 2322.29 28.1376 Q2326.06 26.1121 2331.44 26.1121 Q2332.21 26.1121 2333.15 26.2337 Q2334.08 26.3147 2335.21 26.5172 L2335.25 34.1734 Z" fill="#000000" fill-rule="nonzero" fill-opacity="1" /><path clip-path="url(#clip322)" d="M327.678 285.936 L327.678 1423.18 L647.141 1423.18 L647.141 285.936 L327.678 285.936 L327.678 285.936  Z" fill="#009af9" fill-rule="evenodd" fill-opacity="1"/>
<polyline clip-path="url(#clip322)" style="stroke:#000000; stroke-linecap:round; stroke-linejoin:round; stroke-width:4; stroke-opacity:1; fill:none" points="327.678,285.936 327.678,1423.18 647.141,1423.18 647.141,285.936 327.678,285.936 "/>
<path clip-path="url(#clip322)" d="M1605.53 606.084 L1605.53 1423.18 L1924.99 1423.18 L1924.99 606.084 L1605.53 606.084 L1605.53 606.084  Z" fill="#009af9" fill-rule="evenodd" fill-opacity="1"/>
<polyline clip-path="url(#clip322)" style="stroke:#000000; stroke-linecap:round; stroke-linejoin:round; stroke-width:4; stroke-opacity:1; fill:none" points="1605.53,606.084 1605.53,1423.18 1924.99,1423.18 1924.99,606.084 1605.53,606.084 "/>
<circle clip-path="url(#clip322)" style="fill:#009af9; stroke:none; fill-opacity:0" cx="487.41" cy="285.936" r="2"/>
<circle clip-path="url(#clip322)" style="fill:#009af9; stroke:none; fill-opacity:0" cx="1765.26" cy="606.084" r="2"/>
<path clip-path="url(#clip322)" d="M647.141 123.472 L647.141 1423.18 L966.605 1423.18 L966.605 123.472 L647.141 123.472 L647.141 123.472  Z" fill="#e26f46" fill-rule="evenodd" fill-opacity="1"/>
<polyline clip-path="url(#clip322)" style="stroke:#000000; stroke-linecap:round; stroke-linejoin:round; stroke-width:4; stroke-opacity:1; fill:none" points="647.141,123.472 647.141,1423.18 966.605,1423.18 966.605,123.472 647.141,123.472 "/>
<path clip-path="url(#clip322)" d="M1924.99 522.463 L1924.99 1423.18 L2244.46 1423.18 L2244.46 522.463 L1924.99 522.463 L1924.99 522.463  Z" fill="#e26f46" fill-rule="evenodd" fill-opacity="1"/>
<polyline clip-path="url(#clip322)" style="stroke:#000000; stroke-linecap:round; stroke-linejoin:round; stroke-width:4; stroke-opacity:1; fill:none" points="1924.99,522.463 1924.99,1423.18 2244.46,1423.18 2244.46,522.463 1924.99,522.463 "/>
<circle clip-path="url(#clip322)" style="fill:#e26f46; stroke:none; fill-opacity:0" cx="806.873" cy="123.472" r="2"/>
<circle clip-path="url(#clip322)" style="fill:#e26f46; stroke:none; fill-opacity:0" cx="2084.73" cy="522.463" r="2"/>
<path clip-path="url(#clip320)" d="M1730.07 322.316 L2281.64 322.316 L2281.64 166.796 L1730.07 166.796  Z" fill="#ffffff" fill-rule="evenodd" fill-opacity="1"/>
<polyline clip-path="url(#clip320)" style="stroke:#000000; stroke-linecap:round; stroke-linejoin:round; stroke-width:4; stroke-opacity:1; fill:none" points="1730.07,322.316 2281.64,322.316 2281.64,166.796 1730.07,166.796 1730.07,322.316 "/>
<path clip-path="url(#clip320)" d="M1753.77 239.372 L1896 239.372 L1896 197.9 L1753.77 197.9 L1753.77 239.372  Z" fill="#009af9" fill-rule="evenodd" fill-opacity="1"/>
<polyline clip-path="url(#clip320)" style="stroke:#000000; stroke-linecap:round; stroke-linejoin:round; stroke-width:4; stroke-opacity:1; fill:none" points="1753.77,239.372 1896,239.372 1896,197.9 1753.77,197.9 1753.77,239.372 "/>
<path clip-path="url(#clip320)" d="M1919.7 201.356 L1948.94 201.356 L1948.94 205.291 L1936.67 205.291 L1936.67 235.916 L1931.97 235.916 L1931.97 205.291 L1919.7 205.291 L1919.7 201.356 Z" fill="#000000" fill-rule="nonzero" fill-opacity="1" /><path clip-path="url(#clip320)" d="M1961.32 213.971 Q1960.6 213.555 1959.75 213.37 Q1958.91 213.161 1957.89 213.161 Q1954.28 213.161 1952.34 215.522 Q1950.42 217.86 1950.42 222.258 L1950.42 235.916 L1946.14 235.916 L1946.14 209.99 L1950.42 209.99 L1950.42 214.018 Q1951.76 211.657 1953.91 210.522 Q1956.07 209.365 1959.14 209.365 Q1959.58 209.365 1960.12 209.434 Q1960.65 209.481 1961.3 209.596 L1961.32 213.971 Z" fill="#000000" fill-rule="nonzero" fill-opacity="1" /><path clip-path="url(#clip320)" d="M1986.92 221.888 L1986.92 223.971 L1967.34 223.971 Q1967.62 228.369 1969.98 230.684 Q1972.36 232.976 1976.6 232.976 Q1979.05 232.976 1981.34 232.374 Q1983.66 231.772 1985.93 230.569 L1985.93 234.596 Q1983.64 235.568 1981.23 236.078 Q1978.82 236.587 1976.34 236.587 Q1970.14 236.587 1966.51 232.976 Q1962.89 229.365 1962.89 223.207 Q1962.89 216.842 1966.32 213.115 Q1969.77 209.365 1975.6 209.365 Q1980.83 209.365 1983.87 212.745 Q1986.92 216.101 1986.92 221.888 M1982.66 220.638 Q1982.62 217.143 1980.7 215.059 Q1978.8 212.976 1975.65 212.976 Q1972.08 212.976 1969.93 214.99 Q1967.8 217.004 1967.48 220.661 L1982.66 220.638 Z" fill="#000000" fill-rule="nonzero" fill-opacity="1" /><path clip-path="url(#clip320)" d="M2005.7 222.883 Q2000.53 222.883 1998.54 224.064 Q1996.55 225.244 1996.55 228.092 Q1996.55 230.36 1998.03 231.703 Q1999.54 233.022 2002.11 233.022 Q2005.65 233.022 2007.78 230.522 Q2009.93 227.999 2009.93 223.832 L2009.93 222.883 L2005.7 222.883 M2014.19 221.124 L2014.19 235.916 L2009.93 235.916 L2009.93 231.981 Q2008.47 234.342 2006.3 235.476 Q2004.12 236.587 2000.97 236.587 Q1996.99 236.587 1994.63 234.365 Q1992.29 232.119 1992.29 228.369 Q1992.29 223.994 1995.21 221.772 Q1998.15 219.55 2003.96 219.55 L2009.93 219.55 L2009.93 219.133 Q2009.93 216.194 2007.99 214.596 Q2006.07 212.976 2002.57 212.976 Q2000.35 212.976 1998.24 213.508 Q1996.14 214.041 1994.19 215.106 L1994.19 211.17 Q1996.53 210.268 1998.73 209.828 Q2000.93 209.365 2003.01 209.365 Q2008.63 209.365 2011.41 212.282 Q2014.19 215.198 2014.19 221.124 Z" fill="#000000" fill-rule="nonzero" fill-opacity="1" /><path clip-path="url(#clip320)" d="M2027.18 202.629 L2027.18 209.99 L2035.95 209.99 L2035.95 213.3 L2027.18 213.3 L2027.18 227.374 Q2027.18 230.545 2028.03 231.448 Q2028.91 232.351 2031.57 232.351 L2035.95 232.351 L2035.95 235.916 L2031.57 235.916 Q2026.64 235.916 2024.77 234.087 Q2022.89 232.235 2022.89 227.374 L2022.89 213.3 L2019.77 213.3 L2019.77 209.99 L2022.89 209.99 L2022.89 202.629 L2027.18 202.629 Z" fill="#000000" fill-rule="nonzero" fill-opacity="1" /><path clip-path="url(#clip320)" d="M2061.74 214.967 Q2063.33 212.096 2065.56 210.731 Q2067.78 209.365 2070.79 209.365 Q2074.84 209.365 2077.04 212.212 Q2079.24 215.036 2079.24 220.268 L2079.24 235.916 L2074.95 235.916 L2074.95 220.407 Q2074.95 216.68 2073.63 214.874 Q2072.32 213.069 2069.61 213.069 Q2066.3 213.069 2064.38 215.268 Q2062.45 217.467 2062.45 221.263 L2062.45 235.916 L2058.17 235.916 L2058.17 220.407 Q2058.17 216.657 2056.85 214.874 Q2055.53 213.069 2052.78 213.069 Q2049.51 213.069 2047.59 215.291 Q2045.67 217.49 2045.67 221.263 L2045.67 235.916 L2041.39 235.916 L2041.39 209.99 L2045.67 209.99 L2045.67 214.018 Q2047.13 211.633 2049.17 210.499 Q2051.2 209.365 2054.01 209.365 Q2056.83 209.365 2058.8 210.8 Q2060.79 212.235 2061.74 214.967 Z" fill="#000000" fill-rule="nonzero" fill-opacity="1" /><path clip-path="url(#clip320)" d="M2109.91 221.888 L2109.91 223.971 L2090.32 223.971 Q2090.6 228.369 2092.96 230.684 Q2095.35 232.976 2099.58 232.976 Q2102.04 232.976 2104.33 232.374 Q2106.64 231.772 2108.91 230.569 L2108.91 234.596 Q2106.62 235.568 2104.21 236.078 Q2101.81 236.587 2099.33 236.587 Q2093.13 236.587 2089.49 232.976 Q2085.88 229.365 2085.88 223.207 Q2085.88 216.842 2089.31 213.115 Q2092.75 209.365 2098.59 209.365 Q2103.82 209.365 2106.85 212.745 Q2109.91 216.101 2109.91 221.888 M2105.65 220.638 Q2105.6 217.143 2103.68 215.059 Q2101.78 212.976 2098.63 212.976 Q2095.07 212.976 2092.92 214.99 Q2090.79 217.004 2090.46 220.661 L2105.65 220.638 Z" fill="#000000" fill-rule="nonzero" fill-opacity="1" /><path clip-path="url(#clip320)" d="M2138.45 220.268 L2138.45 235.916 L2134.19 235.916 L2134.19 220.407 Q2134.19 216.726 2132.75 214.897 Q2131.32 213.069 2128.45 213.069 Q2125 213.069 2123.01 215.268 Q2121.02 217.467 2121.02 221.263 L2121.02 235.916 L2116.74 235.916 L2116.74 209.99 L2121.02 209.99 L2121.02 214.018 Q2122.55 211.68 2124.61 210.522 Q2126.69 209.365 2129.4 209.365 Q2133.87 209.365 2136.16 212.143 Q2138.45 214.897 2138.45 220.268 Z" fill="#000000" fill-rule="nonzero" fill-opacity="1" /><path clip-path="url(#clip320)" d="M2151.16 202.629 L2151.16 209.99 L2159.93 209.99 L2159.93 213.3 L2151.16 213.3 L2151.16 227.374 Q2151.16 230.545 2152.01 231.448 Q2152.89 232.351 2155.56 232.351 L2159.93 232.351 L2159.93 235.916 L2155.56 235.916 Q2150.62 235.916 2148.75 234.087 Q2146.87 232.235 2146.87 227.374 L2146.87 213.3 L2143.75 213.3 L2143.75 209.99 L2146.87 209.99 L2146.87 202.629 L2151.16 202.629 Z" fill="#000000" fill-rule="nonzero" fill-opacity="1" /><path clip-path="url(#clip320)" d="M2181.16 214.388 L2210.83 214.388 L2210.83 218.277 L2181.16 218.277 L2181.16 214.388 M2181.16 223.832 L2210.83 223.832 L2210.83 227.768 L2181.16 227.768 L2181.16 223.832 Z" fill="#000000" fill-rule="nonzero" fill-opacity="1" /><path clip-path="url(#clip320)" d="M2245.99 204.434 Q2242.38 204.434 2240.56 207.999 Q2238.75 211.541 2238.75 218.67 Q2238.75 225.777 2240.56 229.342 Q2242.38 232.883 2245.99 232.883 Q2249.63 232.883 2251.43 229.342 Q2253.26 225.777 2253.26 218.67 Q2253.26 211.541 2251.43 207.999 Q2249.63 204.434 2245.99 204.434 M2245.99 200.731 Q2251.8 200.731 2254.86 205.337 Q2257.94 209.92 2257.94 218.67 Q2257.94 227.397 2254.86 232.004 Q2251.8 236.587 2245.99 236.587 Q2240.18 236.587 2237.11 232.004 Q2234.05 227.397 2234.05 218.67 Q2234.05 209.92 2237.11 205.337 Q2240.18 200.731 2245.99 200.731 Z" fill="#000000" fill-rule="nonzero" fill-opacity="1" /><path clip-path="url(#clip320)" d="M1753.77 291.212 L1896 291.212 L1896 249.74 L1753.77 249.74 L1753.77 291.212  Z" fill="#e26f46" fill-rule="evenodd" fill-opacity="1"/>
<polyline clip-path="url(#clip320)" style="stroke:#000000; stroke-linecap:round; stroke-linejoin:round; stroke-width:4; stroke-opacity:1; fill:none" points="1753.77,291.212 1896,291.212 1896,249.74 1753.77,249.74 1753.77,291.212 "/>
<path clip-path="url(#clip320)" d="M1919.7 253.196 L1948.94 253.196 L1948.94 257.131 L1936.67 257.131 L1936.67 287.756 L1931.97 287.756 L1931.97 257.131 L1919.7 257.131 L1919.7 253.196 Z" fill="#000000" fill-rule="nonzero" fill-opacity="1" /><path clip-path="url(#clip320)" d="M1961.32 265.811 Q1960.6 265.395 1959.75 265.21 Q1958.91 265.001 1957.89 265.001 Q1954.28 265.001 1952.34 267.362 Q1950.42 269.7 1950.42 274.098 L1950.42 287.756 L1946.14 287.756 L1946.14 261.83 L1950.42 261.83 L1950.42 265.858 Q1951.76 263.497 1953.91 262.362 Q1956.07 261.205 1959.14 261.205 Q1959.58 261.205 1960.12 261.274 Q1960.65 261.321 1961.3 261.436 L1961.32 265.811 Z" fill="#000000" fill-rule="nonzero" fill-opacity="1" /><path clip-path="url(#clip320)" d="M1986.92 273.728 L1986.92 275.811 L1967.34 275.811 Q1967.62 280.209 1969.98 282.524 Q1972.36 284.816 1976.6 284.816 Q1979.05 284.816 1981.34 284.214 Q1983.66 283.612 1985.93 282.409 L1985.93 286.436 Q1983.64 287.408 1981.23 287.918 Q1978.82 288.427 1976.34 288.427 Q1970.14 288.427 1966.51 284.816 Q1962.89 281.205 1962.89 275.047 Q1962.89 268.682 1966.32 264.955 Q1969.77 261.205 1975.6 261.205 Q1980.83 261.205 1983.87 264.585 Q1986.92 267.941 1986.92 273.728 M1982.66 272.478 Q1982.62 268.983 1980.7 266.899 Q1978.8 264.816 1975.65 264.816 Q1972.08 264.816 1969.93 266.83 Q1967.8 268.844 1967.48 272.501 L1982.66 272.478 Z" fill="#000000" fill-rule="nonzero" fill-opacity="1" /><path clip-path="url(#clip320)" d="M2005.7 274.723 Q2000.53 274.723 1998.54 275.904 Q1996.55 277.084 1996.55 279.932 Q1996.55 282.2 1998.03 283.543 Q1999.54 284.862 2002.11 284.862 Q2005.65 284.862 2007.78 282.362 Q2009.93 279.839 2009.93 275.672 L2009.93 274.723 L2005.7 274.723 M2014.19 272.964 L2014.19 287.756 L2009.93 287.756 L2009.93 283.821 Q2008.47 286.182 2006.3 287.316 Q2004.12 288.427 2000.97 288.427 Q1996.99 288.427 1994.63 286.205 Q1992.29 283.959 1992.29 280.209 Q1992.29 275.834 1995.21 273.612 Q1998.15 271.39 2003.96 271.39 L2009.93 271.39 L2009.93 270.973 Q2009.93 268.034 2007.99 266.436 Q2006.07 264.816 2002.57 264.816 Q2000.35 264.816 1998.24 265.348 Q1996.14 265.881 1994.19 266.946 L1994.19 263.01 Q1996.53 262.108 1998.73 261.668 Q2000.93 261.205 2003.01 261.205 Q2008.63 261.205 2011.41 264.122 Q2014.19 267.038 2014.19 272.964 Z" fill="#000000" fill-rule="nonzero" fill-opacity="1" /><path clip-path="url(#clip320)" d="M2027.18 254.469 L2027.18 261.83 L2035.95 261.83 L2035.95 265.14 L2027.18 265.14 L2027.18 279.214 Q2027.18 282.385 2028.03 283.288 Q2028.91 284.191 2031.57 284.191 L2035.95 284.191 L2035.95 287.756 L2031.57 287.756 Q2026.64 287.756 2024.77 285.927 Q2022.89 284.075 2022.89 279.214 L2022.89 265.14 L2019.77 265.14 L2019.77 261.83 L2022.89 261.83 L2022.89 254.469 L2027.18 254.469 Z" fill="#000000" fill-rule="nonzero" fill-opacity="1" /><path clip-path="url(#clip320)" d="M2061.74 266.807 Q2063.33 263.936 2065.56 262.571 Q2067.78 261.205 2070.79 261.205 Q2074.84 261.205 2077.04 264.052 Q2079.24 266.876 2079.24 272.108 L2079.24 287.756 L2074.95 287.756 L2074.95 272.247 Q2074.95 268.52 2073.63 266.714 Q2072.32 264.909 2069.61 264.909 Q2066.3 264.909 2064.38 267.108 Q2062.45 269.307 2062.45 273.103 L2062.45 287.756 L2058.17 287.756 L2058.17 272.247 Q2058.17 268.497 2056.85 266.714 Q2055.53 264.909 2052.78 264.909 Q2049.51 264.909 2047.59 267.131 Q2045.67 269.33 2045.67 273.103 L2045.67 287.756 L2041.39 287.756 L2041.39 261.83 L2045.67 261.83 L2045.67 265.858 Q2047.13 263.473 2049.17 262.339 Q2051.2 261.205 2054.01 261.205 Q2056.83 261.205 2058.8 262.64 Q2060.79 264.075 2061.74 266.807 Z" fill="#000000" fill-rule="nonzero" fill-opacity="1" /><path clip-path="url(#clip320)" d="M2109.91 273.728 L2109.91 275.811 L2090.32 275.811 Q2090.6 280.209 2092.96 282.524 Q2095.35 284.816 2099.58 284.816 Q2102.04 284.816 2104.33 284.214 Q2106.64 283.612 2108.91 282.409 L2108.91 286.436 Q2106.62 287.408 2104.21 287.918 Q2101.81 288.427 2099.33 288.427 Q2093.13 288.427 2089.49 284.816 Q2085.88 281.205 2085.88 275.047 Q2085.88 268.682 2089.31 264.955 Q2092.75 261.205 2098.59 261.205 Q2103.82 261.205 2106.85 264.585 Q2109.91 267.941 2109.91 273.728 M2105.65 272.478 Q2105.6 268.983 2103.68 266.899 Q2101.78 264.816 2098.63 264.816 Q2095.07 264.816 2092.92 266.83 Q2090.79 268.844 2090.46 272.501 L2105.65 272.478 Z" fill="#000000" fill-rule="nonzero" fill-opacity="1" /><path clip-path="url(#clip320)" d="M2138.45 272.108 L2138.45 287.756 L2134.19 287.756 L2134.19 272.247 Q2134.19 268.566 2132.75 266.737 Q2131.32 264.909 2128.45 264.909 Q2125 264.909 2123.01 267.108 Q2121.02 269.307 2121.02 273.103 L2121.02 287.756 L2116.74 287.756 L2116.74 261.83 L2121.02 261.83 L2121.02 265.858 Q2122.55 263.52 2124.61 262.362 Q2126.69 261.205 2129.4 261.205 Q2133.87 261.205 2136.16 263.983 Q2138.45 266.737 2138.45 272.108 Z" fill="#000000" fill-rule="nonzero" fill-opacity="1" /><path clip-path="url(#clip320)" d="M2151.16 254.469 L2151.16 261.83 L2159.93 261.83 L2159.93 265.14 L2151.16 265.14 L2151.16 279.214 Q2151.16 282.385 2152.01 283.288 Q2152.89 284.191 2155.56 284.191 L2159.93 284.191 L2159.93 287.756 L2155.56 287.756 Q2150.62 287.756 2148.75 285.927 Q2146.87 284.075 2146.87 279.214 L2146.87 265.14 L2143.75 265.14 L2143.75 261.83 L2146.87 261.83 L2146.87 254.469 L2151.16 254.469 Z" fill="#000000" fill-rule="nonzero" fill-opacity="1" /><path clip-path="url(#clip320)" d="M2181.16 266.228 L2210.83 266.228 L2210.83 270.117 L2181.16 270.117 L2181.16 266.228 M2181.16 275.672 L2210.83 275.672 L2210.83 279.608 L2181.16 279.608 L2181.16 275.672 Z" fill="#000000" fill-rule="nonzero" fill-opacity="1" /><path clip-path="url(#clip320)" d="M2236.81 283.821 L2244.44 283.821 L2244.44 257.455 L2236.13 259.122 L2236.13 254.862 L2244.4 253.196 L2249.07 253.196 L2249.07 283.821 L2256.71 283.821 L2256.71 287.756 L2236.81 287.756 L2236.81 283.821 Z" fill="#000000" fill-rule="nonzero" fill-opacity="1" /></svg>