<?xml version="1.0" encoding="utf-8"?>
<svg xmlns="http://www.w3.org/2000/svg" xmlns:xlink="http://www.w3.org/1999/xlink" width="600" height="400" viewBox="0 0 2400 1600">
<defs>
  <clipPath id="clip390">
    <rect x="0" y="0" width="2400" height="1600"/>
  </clipPath>
</defs>
<path clip-path="url(#clip390)" d="M0 1600 L2400 1600 L2400 0 L0 0  Z" fill="#ffffff" fill-rule="evenodd" fill-opacity="1"/>
<defs>
  <clipPath id="clip391">
    <rect x="480" y="0" width="1681" height="1600"/>
  </clipPath>
</defs>
<path clip-path="url(#clip390)" d="M138.959 1486.45 L2352.76 1486.45 L2352.76 123.472 L138.959 123.472  Z" fill="#ffffff" fill-rule="evenodd" fill-opacity="1"/>
<defs>
  <clipPath id="clip392">
    <rect x="138" y="123" width="2215" height="1364"/>
  </clipPath>
</defs>
<polyline clip-path="url(#clip392)" style="stroke:#000000; stroke-linecap:round; stroke-linejoin:round; stroke-width:2; stroke-opacity:0.1; fill:none" points="439.838,1486.45 439.838,123.472 "/>
<polyline clip-path="url(#clip392)" style="stroke:#000000; stroke-linecap:round; stroke-linejoin:round; stroke-width:2; stroke-opacity:0.1; fill:none" points="887.627,1486.45 887.627,123.472 "/>
<polyline clip-path="url(#clip392)" style="stroke:#000000; stroke-linecap:round; stroke-linejoin:round; stroke-width:2; stroke-opacity:0.1; fill:none" points="1335.42,1486.45 1335.42,123.472 "/>
<polyline clip-path="url(#clip392)" style="stroke:#000000; stroke-linecap:round; stroke-linejoin:round; stroke-width:2; stroke-opacity:0.1; fill:none" points="1783.2,1486.45 1783.2,123.472 "/>
<polyline clip-path="url(#clip392)" style="stroke:#000000; stroke-linecap:round; stroke-linejoin:round; stroke-width:2; stroke-opacity:0.1; fill:none" points="2230.99,1486.45 2230.99,123.472 "/>
<polyline clip-path="url(#clip390)" style="stroke:#000000; stroke-linecap:round; stroke-linejoin:round; stroke-width:4; stroke-opacity:1; fill:none" points="138.959,1486.45 2352.76,1486.45 "/>
<polyline clip-path="url(#clip390)" style="stroke:#000000; stroke-linecap:round; stroke-linejoin:round; stroke-width:4; stroke-opacity:1; fill:none" points="439.838,1486.45 439.838,1467.55 "/>
<polyline clip-path="url(#clip390)" style="stroke:#000000; stroke-linecap:round; stroke-linejoin:round; stroke-width:4; stroke-opacity:1; fill:none" points="887.627,1486.45 887.627,1467.55 "/>
<polyline clip-path="url(#clip390)" style="stroke:#000000; stroke-linecap:round; stroke-linejoin:round; stroke-width:4; stroke-opacity:1; fill:none" points="1335.42,1486.45 1335.42,1467.55 "/>
<polyline clip-path="url(#clip390)" style="stroke:#000000; stroke-linecap:round; stroke-linejoin:round; stroke-width:4; stroke-opacity:1; fill:none" points="1783.2,1486.45 1783.2,1467.55 "/>
<polyline clip-path="url(#clip390)" style="stroke:#000000; stroke-linecap:round; stroke-linejoin:round; stroke-width:4; stroke-opacity:1; fill:none" points="2230.99,1486.45 2230.99,1467.55 "/>
<path clip-path="url(#clip390)" d="M371.783 1532.02 L401.458 1532.02 L401.458 1535.95 L371.783 1535.95 L371.783 1532.02 Z" fill="#000000" fill-rule="nonzero" fill-opacity="1" /><path clip-path="url(#clip390)" d="M421.551 1517.37 Q417.94 1517.37 416.111 1520.93 Q414.305 1524.47 414.305 1531.6 Q414.305 1538.71 416.111 1542.27 Q417.94 1545.82 421.551 1545.82 Q425.185 1545.82 426.991 1542.27 Q428.819 1538.71 428.819 1531.6 Q428.819 1524.47 426.991 1520.93 Q425.185 1517.37 421.551 1517.37 M421.551 1513.66 Q427.361 1513.66 430.416 1518.27 Q433.495 1522.85 433.495 1531.6 Q433.495 1540.33 430.416 1544.94 Q427.361 1549.52 421.551 1549.52 Q415.741 1549.52 412.662 1544.94 Q409.606 1540.33 409.606 1531.6 Q409.606 1522.85 412.662 1518.27 Q415.741 1513.66 421.551 1513.66 Z" fill="#000000" fill-rule="nonzero" fill-opacity="1" /><path clip-path="url(#clip390)" d="M441.713 1542.97 L446.597 1542.97 L446.597 1548.85 L441.713 1548.85 L441.713 1542.97 Z" fill="#000000" fill-rule="nonzero" fill-opacity="1" /><path clip-path="url(#clip390)" d="M457.592 1544.91 L465.231 1544.91 L465.231 1518.55 L456.921 1520.21 L456.921 1515.95 L465.185 1514.29 L469.861 1514.29 L469.861 1544.91 L477.5 1544.91 L477.5 1548.85 L457.592 1548.85 L457.592 1544.91 Z" fill="#000000" fill-rule="nonzero" fill-opacity="1" /><path clip-path="url(#clip390)" d="M486.99 1514.29 L505.347 1514.29 L505.347 1518.22 L491.273 1518.22 L491.273 1526.7 Q492.291 1526.35 493.31 1526.19 Q494.328 1526 495.347 1526 Q501.134 1526 504.513 1529.17 Q507.893 1532.34 507.893 1537.76 Q507.893 1543.34 504.421 1546.44 Q500.949 1549.52 494.629 1549.52 Q492.453 1549.52 490.185 1549.15 Q487.939 1548.78 485.532 1548.04 L485.532 1543.34 Q487.615 1544.47 489.837 1545.03 Q492.06 1545.58 494.537 1545.58 Q498.541 1545.58 500.879 1543.48 Q503.217 1541.37 503.217 1537.76 Q503.217 1534.15 500.879 1532.04 Q498.541 1529.94 494.537 1529.94 Q492.662 1529.94 490.787 1530.35 Q488.935 1530.77 486.99 1531.65 L486.99 1514.29 Z" fill="#000000" fill-rule="nonzero" fill-opacity="1" /><path clip-path="url(#clip390)" d="M819.074 1532.02 L848.749 1532.02 L848.749 1535.95 L819.074 1535.95 L819.074 1532.02 Z" fill="#000000" fill-rule="nonzero" fill-opacity="1" /><path clip-path="url(#clip390)" d="M868.842 1517.37 Q865.231 1517.37 863.402 1520.93 Q861.597 1524.47 861.597 1531.6 Q861.597 1538.71 863.402 1542.27 Q865.231 1545.82 868.842 1545.82 Q872.476 1545.82 874.282 1542.27 Q876.11 1538.71 876.11 1531.6 Q876.11 1524.47 874.282 1520.93 Q872.476 1517.37 868.842 1517.37 M868.842 1513.66 Q874.652 1513.66 877.708 1518.27 Q880.786 1522.85 880.786 1531.6 Q880.786 1540.33 877.708 1544.94 Q874.652 1549.52 868.842 1549.52 Q863.032 1549.52 859.953 1544.94 Q856.898 1540.33 856.898 1531.6 Q856.898 1522.85 859.953 1518.27 Q863.032 1513.66 868.842 1513.66 Z" fill="#000000" fill-rule="nonzero" fill-opacity="1" /><path clip-path="url(#clip390)" d="M889.004 1542.97 L893.888 1542.97 L893.888 1548.85 L889.004 1548.85 L889.004 1542.97 Z" fill="#000000" fill-rule="nonzero" fill-opacity="1" /><path clip-path="url(#clip390)" d="M904.883 1544.91 L912.522 1544.91 L912.522 1518.55 L904.212 1520.21 L904.212 1515.95 L912.476 1514.29 L917.152 1514.29 L917.152 1544.91 L924.791 1544.91 L924.791 1548.85 L904.883 1548.85 L904.883 1544.91 Z" fill="#000000" fill-rule="nonzero" fill-opacity="1" /><path clip-path="url(#clip390)" d="M944.235 1517.37 Q940.624 1517.37 938.795 1520.93 Q936.99 1524.47 936.99 1531.6 Q936.99 1538.71 938.795 1542.27 Q940.624 1545.82 944.235 1545.82 Q947.869 1545.82 949.675 1542.27 Q951.504 1538.71 951.504 1531.6 Q951.504 1524.47 949.675 1520.93 Q947.869 1517.37 944.235 1517.37 M944.235 1513.66 Q950.045 1513.66 953.101 1518.27 Q956.179 1522.85 956.179 1531.6 Q956.179 1540.33 953.101 1544.94 Q950.045 1549.52 944.235 1549.52 Q938.425 1549.52 935.346 1544.94 Q932.291 1540.33 932.291 1531.6 Q932.291 1522.85 935.346 1518.27 Q938.425 1513.66 944.235 1513.66 Z" fill="#000000" fill-rule="nonzero" fill-opacity="1" /><path clip-path="url(#clip390)" d="M1267.36 1532.02 L1297.04 1532.02 L1297.04 1535.95 L1267.36 1535.95 L1267.36 1532.02 Z" fill="#000000" fill-rule="nonzero" fill-opacity="1" /><path clip-path="url(#clip390)" d="M1317.13 1517.37 Q1313.52 1517.37 1311.69 1520.93 Q1309.88 1524.47 1309.88 1531.6 Q1309.88 1538.71 1311.69 1542.27 Q1313.52 1545.82 1317.13 1545.82 Q1320.76 1545.82 1322.57 1542.27 Q1324.4 1538.71 1324.4 1531.6 Q1324.4 1524.47 1322.57 1520.93 Q1320.76 1517.37 1317.13 1517.37 M1317.13 1513.66 Q1322.94 1513.66 1325.99 1518.27 Q1329.07 1522.85 1329.07 1531.6 Q1329.07 1540.33 1325.99 1544.94 Q1322.94 1549.52 1317.13 1549.52 Q1311.32 1549.52 1308.24 1544.94 Q1305.18 1540.33 1305.18 1531.6 Q1305.18 1522.85 1308.24 1518.27 Q1311.32 1513.66 1317.13 1513.66 Z" fill="#000000" fill-rule="nonzero" fill-opacity="1" /><path clip-path="url(#clip390)" d="M1337.29 1542.97 L1342.17 1542.97 L1342.17 1548.85 L1337.29 1548.85 L1337.29 1542.97 Z" fill="#000000" fill-rule="nonzero" fill-opacity="1" /><path clip-path="url(#clip390)" d="M1362.36 1517.37 Q1358.75 1517.37 1356.92 1520.93 Q1355.11 1524.47 1355.11 1531.6 Q1355.11 1538.71 1356.92 1542.27 Q1358.75 1545.82 1362.36 1545.82 Q1365.99 1545.82 1367.8 1542.27 Q1369.63 1538.71 1369.63 1531.6 Q1369.63 1524.47 1367.8 1520.93 Q1365.99 1517.37 1362.36 1517.37 M1362.36 1513.66 Q1368.17 1513.66 1371.23 1518.27 Q1374.3 1522.85 1374.3 1531.6 Q1374.3 1540.33 1371.23 1544.94 Q1368.17 1549.52 1362.36 1549.52 Q1356.55 1549.52 1353.47 1544.94 Q1350.42 1540.33 1350.42 1531.6 Q1350.42 1522.85 1353.47 1518.27 Q1356.55 1513.66 1362.36 1513.66 Z" fill="#000000" fill-rule="nonzero" fill-opacity="1" /><path clip-path="url(#clip390)" d="M1382.57 1514.29 L1400.92 1514.29 L1400.92 1518.22 L1386.85 1518.22 L1386.85 1526.7 Q1387.87 1526.35 1388.89 1526.19 Q1389.91 1526 1390.92 1526 Q1396.71 1526 1400.09 1529.17 Q1403.47 1532.34 1403.47 1537.76 Q1403.47 1543.34 1400 1546.44 Q1396.53 1549.52 1390.21 1549.52 Q1388.03 1549.52 1385.76 1549.15 Q1383.52 1548.78 1381.11 1548.04 L1381.11 1543.34 Q1383.19 1544.47 1385.42 1545.03 Q1387.64 1545.58 1390.11 1545.58 Q1394.12 1545.58 1396.46 1543.48 Q1398.79 1541.37 1398.79 1537.76 Q1398.79 1534.15 1396.46 1532.04 Q1394.12 1529.94 1390.11 1529.94 Q1388.24 1529.94 1386.36 1530.35 Q1384.51 1530.77 1382.57 1531.65 L1382.57 1514.29 Z" fill="#000000" fill-rule="nonzero" fill-opacity="1" /><path clip-path="url(#clip390)" d="M1745.51 1517.37 Q1741.9 1517.37 1740.07 1520.93 Q1738.26 1524.47 1738.26 1531.6 Q1738.26 1538.71 1740.07 1542.27 Q1741.9 1545.82 1745.51 1545.82 Q1749.14 1545.82 1750.95 1542.27 Q1752.78 1538.71 1752.78 1531.6 Q1752.78 1524.47 1750.95 1520.93 Q1749.14 1517.37 1745.51 1517.37 M1745.51 1513.66 Q1751.32 1513.66 1754.37 1518.27 Q1757.45 1522.85 1757.45 1531.6 Q1757.45 1540.33 1754.37 1544.94 Q1751.32 1549.52 1745.51 1549.52 Q1739.7 1549.52 1736.62 1544.94 Q1733.56 1540.33 1733.56 1531.6 Q1733.56 1522.85 1736.62 1518.27 Q1739.7 1513.66 1745.51 1513.66 Z" fill="#000000" fill-rule="nonzero" fill-opacity="1" /><path clip-path="url(#clip390)" d="M1765.67 1542.97 L1770.55 1542.97 L1770.55 1548.85 L1765.67 1548.85 L1765.67 1542.97 Z" fill="#000000" fill-rule="nonzero" fill-opacity="1" /><path clip-path="url(#clip390)" d="M1790.74 1517.37 Q1787.13 1517.37 1785.3 1520.93 Q1783.49 1524.47 1783.49 1531.6 Q1783.49 1538.71 1785.3 1542.27 Q1787.13 1545.82 1790.74 1545.82 Q1794.37 1545.82 1796.18 1542.27 Q1798.01 1538.71 1798.01 1531.6 Q1798.01 1524.47 1796.18 1520.93 Q1794.37 1517.37 1790.74 1517.37 M1790.74 1513.66 Q1796.55 1513.66 1799.6 1518.27 Q1802.68 1522.85 1802.68 1531.6 Q1802.68 1540.33 1799.6 1544.94 Q1796.55 1549.52 1790.74 1549.52 Q1784.93 1549.52 1781.85 1544.94 Q1778.79 1540.33 1778.79 1531.6 Q1778.79 1522.85 1781.85 1518.27 Q1784.93 1513.66 1790.74 1513.66 Z" fill="#000000" fill-rule="nonzero" fill-opacity="1" /><path clip-path="url(#clip390)" d="M1820.9 1517.37 Q1817.29 1517.37 1815.46 1520.93 Q1813.66 1524.47 1813.66 1531.6 Q1813.66 1538.71 1815.46 1542.27 Q1817.29 1545.82 1820.9 1545.82 Q1824.54 1545.82 1826.34 1542.27 Q1828.17 1538.71 1828.17 1531.6 Q1828.17 1524.47 1826.34 1520.93 Q1824.54 1517.37 1820.9 1517.37 M1820.9 1513.66 Q1826.71 1513.66 1829.77 1518.27 Q1832.85 1522.85 1832.85 1531.6 Q1832.85 1540.33 1829.77 1544.94 Q1826.71 1549.52 1820.9 1549.52 Q1815.09 1549.52 1812.01 1544.94 Q1808.96 1540.33 1808.96 1531.6 Q1808.96 1522.85 1812.01 1518.27 Q1815.09 1513.66 1820.9 1513.66 Z" fill="#000000" fill-rule="nonzero" fill-opacity="1" /><path clip-path="url(#clip390)" d="M2193.79 1517.37 Q2190.18 1517.37 2188.35 1520.93 Q2186.55 1524.47 2186.55 1531.6 Q2186.55 1538.71 2188.35 1542.27 Q2190.18 1545.82 2193.79 1545.82 Q2197.43 1545.82 2199.23 1542.27 Q2201.06 1538.71 2201.06 1531.6 Q2201.06 1524.47 2199.23 1520.93 Q2197.43 1517.37 2193.79 1517.37 M2193.79 1513.66 Q2199.6 1513.66 2202.66 1518.27 Q2205.74 1522.85 2205.74 1531.6 Q2205.74 1540.33 2202.66 1544.94 Q2199.6 1549.52 2193.79 1549.52 Q2187.98 1549.52 2184.91 1544.94 Q2181.85 1540.33 2181.85 1531.6 Q2181.85 1522.85 2184.91 1518.27 Q2187.98 1513.66 2193.79 1513.66 Z" fill="#000000" fill-rule="nonzero" fill-opacity="1" /><path clip-path="url(#clip390)" d="M2213.96 1542.97 L2218.84 1542.97 L2218.84 1548.85 L2213.96 1548.85 L2213.96 1542.97 Z" fill="#000000" fill-rule="nonzero" fill-opacity="1" /><path clip-path="url(#clip390)" d="M2239.03 1517.37 Q2235.41 1517.37 2233.59 1520.93 Q2231.78 1524.47 2231.78 1531.6 Q2231.78 1538.71 2233.59 1542.27 Q2235.41 1545.82 2239.03 1545.82 Q2242.66 1545.82 2244.47 1542.27 Q2246.29 1538.71 2246.29 1531.6 Q2246.29 1524.47 2244.47 1520.93 Q2242.66 1517.37 2239.03 1517.37 M2239.03 1513.66 Q2244.84 1513.66 2247.89 1518.27 Q2250.97 1522.85 2250.97 1531.6 Q2250.97 1540.33 2247.89 1544.94 Q2244.84 1549.52 2239.03 1549.52 Q2233.22 1549.52 2230.14 1544.94 Q2227.08 1540.33 2227.08 1531.6 Q2227.08 1522.85 2230.14 1518.27 Q2233.22 1513.66 2239.03 1513.66 Z" fill="#000000" fill-rule="nonzero" fill-opacity="1" /><path clip-path="url(#clip390)" d="M2259.23 1514.29 L2277.59 1514.29 L2277.59 1518.22 L2263.52 1518.22 L2263.52 1526.7 Q2264.53 1526.35 2265.55 1526.19 Q2266.57 1526 2267.59 1526 Q2273.38 1526 2276.76 1529.17 Q2280.14 1532.34 2280.14 1537.76 Q2280.14 1543.34 2276.66 1546.44 Q2273.19 1549.52 2266.87 1549.52 Q2264.7 1549.52 2262.43 1549.15 Q2260.18 1548.78 2257.78 1548.04 L2257.78 1543.34 Q2259.86 1544.47 2262.08 1545.03 Q2264.3 1545.58 2266.78 1545.58 Q2270.78 1545.58 2273.12 1543.48 Q2275.46 1541.37 2275.46 1537.76 Q2275.46 1534.15 2273.12 1532.04 Q2270.78 1529.94 2266.78 1529.94 Q2264.91 1529.94 2263.03 1530.35 Q2261.18 1530.77 2259.23 1531.65 L2259.23 1514.29 Z" fill="#000000" fill-rule="nonzero" fill-opacity="1" /><polyline clip-path="url(#clip392)" style="stroke:#000000; stroke-linecap:round; stroke-linejoin:round; stroke-width:2; stroke-opacity:0.1; fill:none" points="138.959,1486.45 2352.76,1486.45 "/>
<polyline clip-path="url(#clip392)" style="stroke:#000000; stroke-linecap:round; stroke-linejoin:round; stroke-width:2; stroke-opacity:0.1; fill:none" points="138.959,1271.81 2352.76,1271.81 "/>
<polyline clip-path="url(#clip392)" style="stroke:#000000; stroke-linecap:round; stroke-linejoin:round; stroke-width:2; stroke-opacity:0.1; fill:none" points="138.959,1057.16 2352.76,1057.16 "/>
<polyline clip-path="url(#clip392)" style="stroke:#000000; stroke-linecap:round; stroke-linejoin:round; stroke-width:2; stroke-opacity:0.1; fill:none" points="138.959,842.522 2352.76,842.522 "/>
<polyline clip-path="url(#clip392)" style="stroke:#000000; stroke-linecap:round; stroke-linejoin:round; stroke-width:2; stroke-opacity:0.1; fill:none" points="138.959,627.88 2352.76,627.88 "/>
<polyline clip-path="url(#clip392)" style="stroke:#000000; stroke-linecap:round; stroke-linejoin:round; stroke-width:2; stroke-opacity:0.1; fill:none" points="138.959,413.239 2352.76,413.239 "/>
<polyline clip-path="url(#clip392)" style="stroke:#000000; stroke-linecap:round; stroke-linejoin:round; stroke-width:2; stroke-opacity:0.1; fill:none" points="138.959,198.597 2352.76,198.597 "/>
<polyline clip-path="url(#clip390)" style="stroke:#000000; stroke-linecap:round; stroke-linejoin:round; stroke-width:4; stroke-opacity:1; fill:none" points="138.959,1486.45 138.959,123.472 "/>
<polyline clip-path="url(#clip390)" style="stroke:#000000; stroke-linecap:round; stroke-linejoin:round; stroke-width:4; stroke-opacity:1; fill:none" points="138.959,1486.45 157.857,1486.45 "/>
<polyline clip-path="url(#clip390)" style="stroke:#000000; stroke-linecap:round; stroke-linejoin:round; stroke-width:4; stroke-opacity:1; fill:none" points="138.959,1271.81 157.857,1271.81 "/>
<polyline clip-path="url(#clip390)" style="stroke:#000000; stroke-linecap:round; stroke-linejoin:round; stroke-width:4; stroke-opacity:1; fill:none" points="138.959,1057.16 157.857,1057.16 "/>
<polyline clip-path="url(#clip390)" style="stroke:#000000; stroke-linecap:round; stroke-linejoin:round; stroke-width:4; stroke-opacity:1; fill:none" points="138.959,842.522 157.857,842.522 "/>
<polyline clip-path="url(#clip390)" style="stroke:#000000; stroke-linecap:round; stroke-linejoin:round; stroke-width:4; stroke-opacity:1; fill:none" points="138.959,627.88 157.857,627.88 "/>
<polyline clip-path="url(#clip390)" style="stroke:#000000; stroke-linecap:round; stroke-linejoin:round; stroke-width:4; stroke-opacity:1; fill:none" points="138.959,413.239 157.857,413.239 "/>
<polyline clip-path="url(#clip390)" style="stroke:#000000; stroke-linecap:round; stroke-linejoin:round; stroke-width:4; stroke-opacity:1; fill:none" points="138.959,198.597 157.857,198.597 "/>
<path clip-path="url(#clip390)" d="M91.0151 1472.25 Q87.404 1472.25 85.5753 1475.81 Q83.7697 1479.35 83.7697 1486.48 Q83.7697 1493.59 85.5753 1497.15 Q87.404 1500.7 91.0151 1500.7 Q94.6493 1500.7 96.4548 1497.15 Q98.2835 1493.59 98.2835 1486.48 Q98.2835 1479.35 96.4548 1475.81 Q94.6493 1472.25 91.0151 1472.25 M91.0151 1468.54 Q96.8252 1468.54 99.8808 1473.15 Q102.959 1477.73 102.959 1486.48 Q102.959 1495.21 99.8808 1499.82 Q96.8252 1504.4 91.0151 1504.4 Q85.2049 1504.4 82.1262 1499.82 Q79.0707 1495.21 79.0707 1486.48 Q79.0707 1477.73 82.1262 1473.15 Q85.2049 1468.54 91.0151 1468.54 Z" fill="#000000" fill-rule="nonzero" fill-opacity="1" /><path clip-path="url(#clip390)" d="M86.6401 1285.15 L102.959 1285.15 L102.959 1289.09 L81.0151 1289.09 L81.0151 1285.15 Q83.6771 1282.4 88.2604 1277.77 Q92.8669 1273.11 94.0475 1271.77 Q96.2928 1269.25 97.1724 1267.51 Q98.0752 1265.75 98.0752 1264.06 Q98.0752 1261.31 96.1308 1259.57 Q94.2095 1257.84 91.1077 1257.84 Q88.9086 1257.84 86.4549 1258.6 Q84.0244 1259.36 81.2466 1260.91 L81.2466 1256.19 Q84.0707 1255.06 86.5243 1254.48 Q88.978 1253.9 91.0151 1253.9 Q96.3854 1253.9 99.5798 1256.59 Q102.774 1259.27 102.774 1263.76 Q102.774 1265.89 101.964 1267.81 Q101.177 1269.71 99.0706 1272.3 Q98.4919 1272.97 95.39 1276.19 Q92.2882 1279.39 86.6401 1285.15 Z" fill="#000000" fill-rule="nonzero" fill-opacity="1" /><path clip-path="url(#clip390)" d="M93.3762 1043.96 L81.5707 1062.41 L93.3762 1062.41 L93.3762 1043.96 M92.1493 1039.88 L98.0289 1039.88 L98.0289 1062.41 L102.959 1062.41 L102.959 1066.3 L98.0289 1066.3 L98.0289 1074.44 L93.3762 1074.44 L93.3762 1066.3 L77.7744 1066.3 L77.7744 1061.78 L92.1493 1039.88 Z" fill="#000000" fill-rule="nonzero" fill-opacity="1" /><path clip-path="url(#clip390)" d="M91.4317 840.659 Q88.2836 840.659 86.4318 842.812 Q84.6031 844.964 84.6031 848.714 Q84.6031 852.441 86.4318 854.617 Q88.2836 856.77 91.4317 856.77 Q94.5799 856.77 96.4085 854.617 Q98.2604 852.441 98.2604 848.714 Q98.2604 844.964 96.4085 842.812 Q94.5799 840.659 91.4317 840.659 M100.714 826.006 L100.714 830.265 Q98.9548 829.432 97.1493 828.992 Q95.3669 828.552 93.6076 828.552 Q88.978 828.552 86.5243 831.677 Q84.0938 834.802 83.7466 841.122 Q85.1123 839.108 87.1725 838.043 Q89.2327 836.955 91.7095 836.955 Q96.9178 836.955 99.927 840.127 Q102.959 843.275 102.959 848.714 Q102.959 854.038 99.8113 857.256 Q96.6632 860.474 91.4317 860.474 Q85.4364 860.474 82.2651 855.89 Q79.0938 851.284 79.0938 842.557 Q79.0938 834.363 82.9827 829.502 Q86.8716 824.617 93.4225 824.617 Q95.1817 824.617 96.9641 824.965 Q98.7696 825.312 100.714 826.006 Z" fill="#000000" fill-rule="nonzero" fill-opacity="1" /><path clip-path="url(#clip390)" d="M91.1077 628.749 Q87.7743 628.749 85.8531 630.531 Q83.9549 632.313 83.9549 635.438 Q83.9549 638.563 85.8531 640.346 Q87.7743 642.128 91.1077 642.128 Q94.441 642.128 96.3623 640.346 Q98.2835 638.54 98.2835 635.438 Q98.2835 632.313 96.3623 630.531 Q94.4641 628.749 91.1077 628.749 M86.4318 626.758 Q83.4225 626.017 81.7327 623.957 Q80.066 621.897 80.066 618.934 Q80.066 614.79 83.0058 612.383 Q85.9688 609.975 91.1077 609.975 Q96.2697 609.975 99.2095 612.383 Q102.149 614.79 102.149 618.934 Q102.149 621.897 100.459 623.957 Q98.7928 626.017 95.8067 626.758 Q99.1863 627.545 101.061 629.836 Q102.959 632.128 102.959 635.438 Q102.959 640.461 99.8808 643.147 Q96.8252 645.832 91.1077 645.832 Q85.3901 645.832 82.3114 643.147 Q79.2559 640.461 79.2559 635.438 Q79.2559 632.128 81.154 629.836 Q83.0521 627.545 86.4318 626.758 M84.7188 619.374 Q84.7188 622.059 86.3855 623.563 Q88.0753 625.068 91.1077 625.068 Q94.1169 625.068 95.8067 623.563 Q97.5197 622.059 97.5197 619.374 Q97.5197 616.688 95.8067 615.184 Q94.1169 613.679 91.1077 613.679 Q88.0753 613.679 86.3855 615.184 Q84.7188 616.688 84.7188 619.374 Z" fill="#000000" fill-rule="nonzero" fill-opacity="1" /><path clip-path="url(#clip390)" d="M51.6634 426.583 L59.3023 426.583 L59.3023 400.218 L50.9921 401.885 L50.9921 397.625 L59.256 395.959 L63.9319 395.959 L63.9319 426.583 L71.5707 426.583 L71.5707 430.519 L51.6634 430.519 L51.6634 426.583 Z" fill="#000000" fill-rule="nonzero" fill-opacity="1" /><path clip-path="url(#clip390)" d="M91.0151 399.037 Q87.404 399.037 85.5753 402.602 Q83.7697 406.144 83.7697 413.273 Q83.7697 420.38 85.5753 423.945 Q87.404 427.486 91.0151 427.486 Q94.6493 427.486 96.4548 423.945 Q98.2835 420.38 98.2835 413.273 Q98.2835 406.144 96.4548 402.602 Q94.6493 399.037 91.0151 399.037 M91.0151 395.334 Q96.8252 395.334 99.8808 399.94 Q102.959 404.523 102.959 413.273 Q102.959 422 99.8808 426.607 Q96.8252 431.19 91.0151 431.19 Q85.2049 431.19 82.1262 426.607 Q79.0707 422 79.0707 413.273 Q79.0707 404.523 82.1262 399.94 Q85.2049 395.334 91.0151 395.334 Z" fill="#000000" fill-rule="nonzero" fill-opacity="1" /><path clip-path="url(#clip390)" d="M53.2606 211.942 L60.8995 211.942 L60.8995 185.576 L52.5893 187.243 L52.5893 182.983 L60.8532 181.317 L65.5291 181.317 L65.5291 211.942 L73.1679 211.942 L73.1679 215.877 L53.2606 215.877 L53.2606 211.942 Z" fill="#000000" fill-rule="nonzero" fill-opacity="1" /><path clip-path="url(#clip390)" d="M86.6401 211.942 L102.959 211.942 L102.959 215.877 L81.0151 215.877 L81.0151 211.942 Q83.6771 209.187 88.2604 204.557 Q92.8669 199.905 94.0475 198.562 Q96.2928 196.039 97.1724 194.303 Q98.0752 192.544 98.0752 190.854 Q98.0752 188.099 96.1308 186.363 Q94.2095 184.627 91.1077 184.627 Q88.9086 184.627 86.4549 185.391 Q84.0244 186.155 81.2466 187.706 L81.2466 182.983 Q84.0707 181.849 86.5243 181.27 Q88.978 180.692 91.0151 180.692 Q96.3854 180.692 99.5798 183.377 Q102.774 186.062 102.774 190.553 Q102.774 192.682 101.964 194.604 Q101.177 196.502 99.0706 199.094 Q98.4919 199.766 95.39 202.983 Q92.2882 206.178 86.6401 211.942 Z" fill="#000000" fill-rule="nonzero" fill-opacity="1" /><path clip-path="url(#clip390)" d="M488.015 12.096 L496.197 12.096 L496.197 36.8875 L525.931 36.8875 L525.931 12.096 L534.114 12.096 L534.114 72.576 L525.931 72.576 L525.931 43.7741 L496.197 43.7741 L496.197 72.576 L488.015 72.576 L488.015 12.096 Z" fill="#000000" fill-rule="nonzero" fill-opacity="1" /><path clip-path="url(#clip390)" d="M550.074 27.2059 L557.528 27.2059 L557.528 72.576 L550.074 72.576 L550.074 27.2059 M550.074 9.54393 L557.528 9.54393 L557.528 18.9825 L550.074 18.9825 L550.074 9.54393 Z" fill="#000000" fill-rule="nonzero" fill-opacity="1" /><path clip-path="url(#clip390)" d="M602.047 28.5427 L602.047 35.5912 Q598.888 33.9709 595.485 33.1607 Q592.082 32.3505 588.436 32.3505 Q582.887 32.3505 580.092 34.0519 Q577.337 35.7533 577.337 39.156 Q577.337 41.7486 579.322 43.2475 Q581.307 44.7058 587.302 46.0426 L589.854 46.6097 Q597.794 48.3111 601.116 51.4303 Q604.478 54.509 604.478 60.0587 Q604.478 66.3781 599.455 70.0644 Q594.472 73.7508 585.722 73.7508 Q582.077 73.7508 578.107 73.0216 Q574.177 72.3329 569.802 70.9151 L569.802 63.2184 Q573.934 65.3654 577.945 66.4591 Q581.955 67.5124 585.884 67.5124 Q591.151 67.5124 593.986 65.73 Q596.822 63.9071 596.822 60.6258 Q596.822 57.5877 594.756 55.9673 Q592.73 54.3469 585.803 52.8481 L583.211 52.2405 Q576.284 50.7821 573.205 47.7845 Q570.126 44.7463 570.126 39.4801 Q570.126 33.0797 574.663 29.5959 Q579.2 26.1121 587.545 26.1121 Q591.677 26.1121 595.323 26.7198 Q598.969 27.3274 602.047 28.5427 Z" fill="#000000" fill-rule="nonzero" fill-opacity="1" /><path clip-path="url(#clip390)" d="M623.72 14.324 L623.72 27.2059 L639.073 27.2059 L639.073 32.9987 L623.72 32.9987 L623.72 57.6282 Q623.72 63.1779 625.219 64.7578 Q626.758 66.3376 631.417 66.3376 L639.073 66.3376 L639.073 72.576 L631.417 72.576 Q622.788 72.576 619.507 69.3758 Q616.226 66.1351 616.226 57.6282 L616.226 32.9987 L610.757 32.9987 L610.757 27.2059 L616.226 27.2059 L616.226 14.324 L623.72 14.324 Z" fill="#000000" fill-rule="nonzero" fill-opacity="1" /><path clip-path="url(#clip390)" d="M666.457 32.4315 Q660.462 32.4315 656.978 37.1306 Q653.494 41.7891 653.494 49.9314 Q653.494 58.0738 656.937 62.7728 Q660.421 67.4314 666.457 67.4314 Q672.412 67.4314 675.895 62.7323 Q679.379 58.0333 679.379 49.9314 Q679.379 41.8701 675.895 37.1711 Q672.412 32.4315 666.457 32.4315 M666.457 26.1121 Q676.179 26.1121 681.729 32.4315 Q687.278 38.7509 687.278 49.9314 Q687.278 61.0714 681.729 67.4314 Q676.179 73.7508 666.457 73.7508 Q656.694 73.7508 651.144 67.4314 Q645.635 61.0714 645.635 49.9314 Q645.635 38.7509 651.144 32.4315 Q656.694 26.1121 666.457 26.1121 Z" fill="#000000" fill-rule="nonzero" fill-opacity="1" /><path clip-path="url(#clip390)" d="M729.489 49.3643 Q729.489 41.2625 726.127 36.8065 Q722.805 32.3505 716.769 32.3505 Q710.774 32.3505 707.411 36.8065 Q704.09 41.2625 704.09 49.3643 Q704.09 57.4256 707.411 61.8816 Q710.774 66.3376 716.769 66.3376 Q722.805 66.3376 726.127 61.8816 Q729.489 57.4256 729.489 49.3643 M736.943 66.9452 Q736.943 78.5308 731.798 84.1616 Q726.653 89.8329 716.04 89.8329 Q712.111 89.8329 708.627 89.2252 Q705.143 88.6581 701.862 87.4428 L701.862 80.1917 Q705.143 81.9741 708.343 82.8248 Q711.543 83.6755 714.865 83.6755 Q722.197 83.6755 725.843 79.8271 Q729.489 76.0193 729.489 68.282 L729.489 64.5957 Q727.18 68.6061 723.575 70.5911 Q719.969 72.576 714.946 72.576 Q706.601 72.576 701.497 66.2161 Q696.393 59.8562 696.393 49.3643 Q696.393 38.832 701.497 32.472 Q706.601 26.1121 714.946 26.1121 Q719.969 26.1121 723.575 28.0971 Q727.18 30.082 729.489 34.0924 L729.489 27.2059 L736.943 27.2059 L736.943 66.9452 Z" fill="#000000" fill-rule="nonzero" fill-opacity="1" /><path clip-path="url(#clip390)" d="M778.586 34.1734 Q777.33 33.4443 775.831 33.1202 Q774.373 32.7556 772.591 32.7556 Q766.271 32.7556 762.868 36.8875 Q759.506 40.9789 759.506 48.6757 L759.506 72.576 L752.012 72.576 L752.012 27.2059 L759.506 27.2059 L759.506 34.2544 Q761.856 30.1225 765.623 28.1376 Q769.39 26.1121 774.778 26.1121 Q775.548 26.1121 776.479 26.2337 Q777.411 26.3147 778.545 26.5172 L778.586 34.1734 Z" fill="#000000" fill-rule="nonzero" fill-opacity="1" /><path clip-path="url(#clip390)" d="M807.023 49.7694 Q797.99 49.7694 794.506 51.8354 Q791.022 53.9013 791.022 58.8839 Q791.022 62.8538 793.615 65.2034 Q796.248 67.5124 800.744 67.5124 Q806.942 67.5124 810.669 63.1374 Q814.436 58.7219 814.436 51.4303 L814.436 49.7694 L807.023 49.7694 M821.89 46.6907 L821.89 72.576 L814.436 72.576 L814.436 65.6895 Q811.884 69.8214 808.076 71.8063 Q804.269 73.7508 798.759 73.7508 Q791.792 73.7508 787.66 69.8619 Q783.568 65.9325 783.568 59.3701 Q783.568 51.7138 788.673 47.825 Q793.817 43.9361 803.985 43.9361 L814.436 43.9361 L814.436 43.2069 Q814.436 38.0623 811.034 35.2672 Q807.671 32.4315 801.554 32.4315 Q797.666 32.4315 793.979 33.3632 Q790.293 34.295 786.89 36.1584 L786.89 29.2718 Q790.982 27.692 794.83 26.9223 Q798.678 26.1121 802.324 26.1121 Q812.168 26.1121 817.029 31.2163 Q821.89 36.3204 821.89 46.6907 Z" fill="#000000" fill-rule="nonzero" fill-opacity="1" /><path clip-path="url(#clip390)" d="M872.567 35.9153 Q875.362 30.8922 879.251 28.5022 Q883.14 26.1121 888.406 26.1121 Q895.495 26.1121 899.343 31.0947 Q903.192 36.0368 903.192 45.1919 L903.192 72.576 L895.698 72.576 L895.698 45.4349 Q895.698 38.913 893.388 35.7533 Q891.079 32.5936 886.34 32.5936 Q880.547 32.5936 877.185 36.4419 Q873.823 40.2903 873.823 46.9338 L873.823 72.576 L866.328 72.576 L866.328 45.4349 Q866.328 38.8725 864.019 35.7533 Q861.71 32.5936 856.89 32.5936 Q851.178 32.5936 847.816 36.4824 Q844.454 40.3308 844.454 46.9338 L844.454 72.576 L836.959 72.576 L836.959 27.2059 L844.454 27.2059 L844.454 34.2544 Q847.006 30.082 850.57 28.0971 Q854.135 26.1121 859.037 26.1121 Q863.979 26.1121 867.422 28.6237 Q870.906 31.1352 872.567 35.9153 Z" fill="#000000" fill-rule="nonzero" fill-opacity="1" /><path clip-path="url(#clip390)" d="M940.663 46.5287 L962.497 46.5287 L962.497 53.1722 L940.663 53.1722 L940.663 46.5287 Z" fill="#000000" fill-rule="nonzero" fill-opacity="1" /><path clip-path="url(#clip390)" d="M1008.11 14.324 L1008.11 27.2059 L1023.46 27.2059 L1023.46 32.9987 L1008.11 32.9987 L1008.11 57.6282 Q1008.11 63.1779 1009.61 64.7578 Q1011.15 66.3376 1015.81 66.3376 L1023.46 66.3376 L1023.46 72.576 L1015.81 72.576 Q1007.18 72.576 1003.9 69.3758 Q1000.62 66.1351 1000.62 57.6282 L1000.62 32.9987 L995.147 32.9987 L995.147 27.2059 L1000.62 27.2059 L1000.62 14.324 L1008.11 14.324 Z" fill="#000000" fill-rule="nonzero" fill-opacity="1" /><path clip-path="url(#clip390)" d="M1056.8 19.2256 L1036.14 51.5113 L1056.8 51.5113 L1056.8 19.2256 M1054.65 12.096 L1064.94 12.096 L1064.94 51.5113 L1073.57 51.5113 L1073.57 58.3168 L1064.94 58.3168 L1064.94 72.576 L1056.8 72.576 L1056.8 58.3168 L1029.5 58.3168 L1029.5 50.4176 L1054.65 12.096 Z" fill="#000000" fill-rule="nonzero" fill-opacity="1" /><path clip-path="url(#clip390)" d="M1093.1 12.096 L1093.1 34.5785 L1086.21 34.5785 L1086.21 12.096 L1093.1 12.096 Z" fill="#000000" fill-rule="nonzero" fill-opacity="1" /><path clip-path="url(#clip390)" d="M1137.78 28.5427 L1137.78 35.5912 Q1134.62 33.9709 1131.22 33.1607 Q1127.81 32.3505 1124.17 32.3505 Q1118.62 32.3505 1115.82 34.0519 Q1113.07 35.7533 1113.07 39.156 Q1113.07 41.7486 1115.05 43.2475 Q1117.04 44.7058 1123.03 46.0426 L1125.59 46.6097 Q1133.53 48.3111 1136.85 51.4303 Q1140.21 54.509 1140.21 60.0587 Q1140.21 66.3781 1135.19 70.0644 Q1130.2 73.7508 1121.45 73.7508 Q1117.81 73.7508 1113.84 73.0216 Q1109.91 72.3329 1105.53 70.9151 L1105.53 63.2184 Q1109.67 65.3654 1113.68 66.4591 Q1117.69 67.5124 1121.62 67.5124 Q1126.88 67.5124 1129.72 65.73 Q1132.55 63.9071 1132.55 60.6258 Q1132.55 57.5877 1130.49 55.9673 Q1128.46 54.3469 1121.54 52.8481 L1118.94 52.2405 Q1112.02 50.7821 1108.94 47.7845 Q1105.86 44.7463 1105.86 39.4801 Q1105.86 33.0797 1110.4 29.5959 Q1114.93 26.1121 1123.28 26.1121 Q1127.41 26.1121 1131.06 26.7198 Q1134.7 27.3274 1137.78 28.5427 Z" fill="#000000" fill-rule="nonzero" fill-opacity="1" /><path clip-path="url(#clip390)" d="M1211.1 28.9478 L1211.1 35.9153 Q1207.94 34.1734 1204.74 33.3227 Q1201.58 32.4315 1198.34 32.4315 Q1191.09 32.4315 1187.08 37.0496 Q1183.07 41.6271 1183.07 49.9314 Q1183.07 58.2358 1187.08 62.8538 Q1191.09 67.4314 1198.34 67.4314 Q1201.58 67.4314 1204.74 66.5807 Q1207.94 65.6895 1211.1 63.9476 L1211.1 70.8341 Q1207.98 72.2924 1204.62 73.0216 Q1201.3 73.7508 1197.53 73.7508 Q1187.28 73.7508 1181.25 67.3098 Q1175.21 60.8689 1175.21 49.9314 Q1175.21 38.832 1181.29 32.472 Q1187.4 26.1121 1198.02 26.1121 Q1201.46 26.1121 1204.74 26.8413 Q1208.02 27.5299 1211.1 28.9478 Z" fill="#000000" fill-rule="nonzero" fill-opacity="1" /><path clip-path="url(#clip390)" d="M1241.64 32.4315 Q1235.65 32.4315 1232.17 37.1306 Q1228.68 41.7891 1228.68 49.9314 Q1228.68 58.0738 1232.13 62.7728 Q1235.61 67.4314 1241.64 67.4314 Q1247.6 67.4314 1251.08 62.7323 Q1254.57 58.0333 1254.57 49.9314 Q1254.57 41.8701 1251.08 37.1711 Q1247.6 32.4315 1241.64 32.4315 M1241.64 26.1121 Q1251.37 26.1121 1256.92 32.4315 Q1262.47 38.7509 1262.47 49.9314 Q1262.47 61.0714 1256.92 67.4314 Q1251.37 73.7508 1241.64 73.7508 Q1231.88 73.7508 1226.33 67.4314 Q1220.82 61.0714 1220.82 49.9314 Q1220.82 38.7509 1226.33 32.4315 Q1231.88 26.1121 1241.64 26.1121 Z" fill="#000000" fill-rule="nonzero" fill-opacity="1" /><path clip-path="url(#clip390)" d="M1313.63 48.0275 L1313.63 51.6733 L1279.36 51.6733 Q1279.84 59.3701 1283.98 63.421 Q1288.15 67.4314 1295.56 67.4314 Q1299.86 67.4314 1303.87 66.3781 Q1307.92 65.3249 1311.89 63.2184 L1311.89 70.267 Q1307.88 71.9684 1303.66 72.8596 Q1299.45 73.7508 1295.12 73.7508 Q1284.26 73.7508 1277.9 67.4314 Q1271.58 61.1119 1271.58 50.3365 Q1271.58 39.1965 1277.58 32.6746 Q1283.61 26.1121 1293.82 26.1121 Q1302.98 26.1121 1308.28 32.0264 Q1313.63 37.9003 1313.63 48.0275 M1306.18 45.84 Q1306.09 39.7232 1302.73 36.0774 Q1299.41 32.4315 1293.9 32.4315 Q1287.66 32.4315 1283.9 35.9558 Q1280.17 39.4801 1279.6 45.8805 L1306.18 45.84 Z" fill="#000000" fill-rule="nonzero" fill-opacity="1" /><path clip-path="url(#clip390)" d="M1348.83 9.54393 L1348.83 15.7418 L1341.7 15.7418 Q1337.69 15.7418 1336.11 17.3622 Q1334.57 18.9825 1334.57 23.1955 L1334.57 27.2059 L1346.85 27.2059 L1346.85 32.9987 L1334.57 32.9987 L1334.57 72.576 L1327.08 72.576 L1327.08 32.9987 L1319.95 32.9987 L1319.95 27.2059 L1327.08 27.2059 L1327.08 24.0462 Q1327.08 16.471 1330.6 13.0277 Q1334.13 9.54393 1341.78 9.54393 L1348.83 9.54393 Z" fill="#000000" fill-rule="nonzero" fill-opacity="1" /><path clip-path="url(#clip390)" d="M1378.04 9.54393 L1378.04 15.7418 L1370.91 15.7418 Q1366.9 15.7418 1365.32 17.3622 Q1363.78 18.9825 1363.78 23.1955 L1363.78 27.2059 L1376.05 27.2059 L1376.05 32.9987 L1363.78 32.9987 L1363.78 72.576 L1356.29 72.576 L1356.29 32.9987 L1349.16 32.9987 L1349.16 27.2059 L1356.29 27.2059 L1356.29 24.0462 Q1356.29 16.471 1359.81 13.0277 Q1363.33 9.54393 1370.99 9.54393 L1378.04 9.54393 Z" fill="#000000" fill-rule="nonzero" fill-opacity="1" /><path clip-path="url(#clip390)" d="M1384.28 27.2059 L1391.73 27.2059 L1391.73 72.576 L1384.28 72.576 L1384.28 27.2059 M1384.28 9.54393 L1391.73 9.54393 L1391.73 18.9825 L1384.28 18.9825 L1384.28 9.54393 Z" fill="#000000" fill-rule="nonzero" fill-opacity="1" /><path clip-path="url(#clip390)" d="M1439.98 28.9478 L1439.98 35.9153 Q1436.82 34.1734 1433.62 33.3227 Q1430.46 32.4315 1427.22 32.4315 Q1419.97 32.4315 1415.96 37.0496 Q1411.94 41.6271 1411.94 49.9314 Q1411.94 58.2358 1415.96 62.8538 Q1419.97 67.4314 1427.22 67.4314 Q1430.46 67.4314 1433.62 66.5807 Q1436.82 65.6895 1439.98 63.9476 L1439.98 70.8341 Q1436.86 72.2924 1433.5 73.0216 Q1430.17 73.7508 1426.41 73.7508 Q1416.16 73.7508 1410.12 67.3098 Q1404.09 60.8689 1404.09 49.9314 Q1404.09 38.832 1410.16 32.472 Q1416.28 26.1121 1426.89 26.1121 Q1430.34 26.1121 1433.62 26.8413 Q1436.9 27.5299 1439.98 28.9478 Z" fill="#000000" fill-rule="nonzero" fill-opacity="1" /><path clip-path="url(#clip390)" d="M1452.94 27.2059 L1460.39 27.2059 L1460.39 72.576 L1452.94 72.576 L1452.94 27.2059 M1452.94 9.54393 L1460.39 9.54393 L1460.39 18.9825 L1452.94 18.9825 L1452.94 9.54393 Z" fill="#000000" fill-rule="nonzero" fill-opacity="1" /><path clip-path="url(#clip390)" d="M1514.8 48.0275 L1514.8 51.6733 L1480.53 51.6733 Q1481.01 59.3701 1485.14 63.421 Q1489.32 67.4314 1496.73 67.4314 Q1501.02 67.4314 1505.03 66.3781 Q1509.09 65.3249 1513.06 63.2184 L1513.06 70.267 Q1509.04 71.9684 1504.83 72.8596 Q1500.62 73.7508 1496.28 73.7508 Q1485.43 73.7508 1479.07 67.4314 Q1472.75 61.1119 1472.75 50.3365 Q1472.75 39.1965 1478.74 32.6746 Q1484.78 26.1121 1494.99 26.1121 Q1504.14 26.1121 1509.45 32.0264 Q1514.8 37.9003 1514.8 48.0275 M1507.34 45.84 Q1507.26 39.7232 1503.9 36.0774 Q1500.58 32.4315 1495.07 32.4315 Q1488.83 32.4315 1485.06 35.9558 Q1481.34 39.4801 1480.77 45.8805 L1507.34 45.84 Z" fill="#000000" fill-rule="nonzero" fill-opacity="1" /><path clip-path="url(#clip390)" d="M1564.74 45.1919 L1564.74 72.576 L1557.29 72.576 L1557.29 45.4349 Q1557.29 38.994 1554.78 35.7938 Q1552.27 32.5936 1547.24 32.5936 Q1541.21 32.5936 1537.73 36.4419 Q1534.24 40.2903 1534.24 46.9338 L1534.24 72.576 L1526.75 72.576 L1526.75 27.2059 L1534.24 27.2059 L1534.24 34.2544 Q1536.92 30.163 1540.52 28.1376 Q1544.17 26.1121 1548.91 26.1121 Q1556.72 26.1121 1560.73 30.9732 Q1564.74 35.7938 1564.74 45.1919 Z" fill="#000000" fill-rule="nonzero" fill-opacity="1" /><path clip-path="url(#clip390)" d="M1586.98 14.324 L1586.98 27.2059 L1602.34 27.2059 L1602.34 32.9987 L1586.98 32.9987 L1586.98 57.6282 Q1586.98 63.1779 1588.48 64.7578 Q1590.02 66.3376 1594.68 66.3376 L1602.34 66.3376 L1602.34 72.576 L1594.68 72.576 Q1586.05 72.576 1582.77 69.3758 Q1579.49 66.1351 1579.49 57.6282 L1579.49 32.9987 L1574.02 32.9987 L1574.02 27.2059 L1579.49 27.2059 L1579.49 14.324 L1586.98 14.324 Z" fill="#000000" fill-rule="nonzero" fill-opacity="1" /><path clip-path="url(#clip390)" d="M1656.42 9.62495 Q1650.99 18.942 1648.36 28.0566 Q1645.72 37.1711 1645.72 46.5287 Q1645.72 55.8863 1648.36 65.0818 Q1651.03 74.2369 1656.42 83.5134 L1649.94 83.5134 Q1643.86 73.9938 1640.82 64.7983 Q1637.82 55.6027 1637.82 46.5287 Q1637.82 37.4952 1640.82 28.3401 Q1643.82 19.1851 1649.94 9.62495 L1656.42 9.62495 Z" fill="#000000" fill-rule="nonzero" fill-opacity="1" /><path clip-path="url(#clip390)" d="M1679.39 18.8205 L1679.39 65.8515 L1689.27 65.8515 Q1701.79 65.8515 1707.58 60.1802 Q1713.41 54.509 1713.41 42.2752 Q1713.41 30.1225 1707.58 24.4918 Q1701.79 18.8205 1689.27 18.8205 L1679.39 18.8205 M1671.2 12.096 L1688.01 12.096 Q1705.59 12.096 1713.82 19.4281 Q1722.04 26.7198 1722.04 42.2752 Q1722.04 57.9117 1713.78 65.2439 Q1705.51 72.576 1688.01 72.576 L1671.2 72.576 L1671.2 12.096 Z" fill="#000000" fill-rule="nonzero" fill-opacity="1" /><path clip-path="url(#clip390)" d="M1773.57 48.0275 L1773.57 51.6733 L1739.3 51.6733 Q1739.78 59.3701 1743.92 63.421 Q1748.09 67.4314 1755.5 67.4314 Q1759.8 67.4314 1763.81 66.3781 Q1767.86 65.3249 1771.83 63.2184 L1771.83 70.267 Q1767.82 71.9684 1763.6 72.8596 Q1759.39 73.7508 1755.06 73.7508 Q1744.2 73.7508 1737.84 67.4314 Q1731.52 61.1119 1731.52 50.3365 Q1731.52 39.1965 1737.52 32.6746 Q1743.55 26.1121 1753.76 26.1121 Q1762.92 26.1121 1768.22 32.0264 Q1773.57 37.9003 1773.57 48.0275 M1766.12 45.84 Q1766.03 39.7232 1762.67 36.0774 Q1759.35 32.4315 1753.84 32.4315 Q1747.6 32.4315 1743.84 35.9558 Q1740.11 39.4801 1739.54 45.8805 L1766.12 45.84 Z" fill="#000000" fill-rule="nonzero" fill-opacity="1" /><path clip-path="url(#clip390)" d="M1823.52 45.1919 L1823.52 72.576 L1816.06 72.576 L1816.06 45.4349 Q1816.06 38.994 1813.55 35.7938 Q1811.04 32.5936 1806.02 32.5936 Q1799.98 32.5936 1796.5 36.4419 Q1793.01 40.2903 1793.01 46.9338 L1793.01 72.576 L1785.52 72.576 L1785.52 27.2059 L1793.01 27.2059 L1793.01 34.2544 Q1795.69 30.163 1799.29 28.1376 Q1802.94 26.1121 1807.68 26.1121 Q1815.5 26.1121 1819.51 30.9732 Q1823.52 35.7938 1823.52 45.1919 Z" fill="#000000" fill-rule="nonzero" fill-opacity="1" /><path clip-path="url(#clip390)" d="M1867.31 28.5427 L1867.31 35.5912 Q1864.15 33.9709 1860.74 33.1607 Q1857.34 32.3505 1853.7 32.3505 Q1848.15 32.3505 1845.35 34.0519 Q1842.6 35.7533 1842.6 39.156 Q1842.6 41.7486 1844.58 43.2475 Q1846.57 44.7058 1852.56 46.0426 L1855.11 46.6097 Q1863.05 48.3111 1866.38 51.4303 Q1869.74 54.509 1869.74 60.0587 Q1869.74 66.3781 1864.71 70.0644 Q1859.73 73.7508 1850.98 73.7508 Q1847.34 73.7508 1843.37 73.0216 Q1839.44 72.3329 1835.06 70.9151 L1835.06 63.2184 Q1839.19 65.3654 1843.2 66.4591 Q1847.21 67.5124 1851.14 67.5124 Q1856.41 67.5124 1859.25 65.73 Q1862.08 63.9071 1862.08 60.6258 Q1862.08 57.5877 1860.02 55.9673 Q1857.99 54.3469 1851.06 52.8481 L1848.47 52.2405 Q1841.54 50.7821 1838.46 47.7845 Q1835.39 44.7463 1835.39 39.4801 Q1835.39 33.0797 1839.92 29.5959 Q1844.46 26.1121 1852.8 26.1121 Q1856.94 26.1121 1860.58 26.7198 Q1864.23 27.3274 1867.31 28.5427 Z" fill="#000000" fill-rule="nonzero" fill-opacity="1" /><path clip-path="url(#clip390)" d="M1881.61 27.2059 L1889.06 27.2059 L1889.06 72.576 L1881.61 72.576 L1881.61 27.2059 M1881.61 9.54393 L1889.06 9.54393 L1889.06 18.9825 L1881.61 18.9825 L1881.61 9.54393 Z" fill="#000000" fill-rule="nonzero" fill-opacity="1" /><path clip-path="url(#clip390)" d="M1912.03 14.324 L1912.03 27.2059 L1927.38 27.2059 L1927.38 32.9987 L1912.03 32.9987 L1912.03 57.6282 Q1912.03 63.1779 1913.53 64.7578 Q1915.07 66.3376 1919.73 66.3376 L1927.38 66.3376 L1927.38 72.576 L1919.73 72.576 Q1911.1 72.576 1907.82 69.3758 Q1904.53 66.1351 1904.53 57.6282 L1904.53 32.9987 L1899.07 32.9987 L1899.07 27.2059 L1904.53 27.2059 L1904.53 14.324 L1912.03 14.324 Z" fill="#000000" fill-rule="nonzero" fill-opacity="1" /><path clip-path="url(#clip390)" d="M1956.06 76.7889 Q1952.9 84.8907 1949.9 87.3618 Q1946.91 89.8329 1941.88 89.8329 L1935.93 89.8329 L1935.93 83.5945 L1940.3 83.5945 Q1943.38 83.5945 1945.08 82.1361 Q1946.79 80.6778 1948.85 75.2496 L1950.19 71.8468 L1931.84 27.2059 L1939.74 27.2059 L1953.92 62.6918 L1968.09 27.2059 L1975.99 27.2059 L1956.06 76.7889 Z" fill="#000000" fill-rule="nonzero" fill-opacity="1" /><path clip-path="url(#clip390)" d="M1985.11 9.62495 L1991.59 9.62495 Q1997.66 19.1851 2000.66 28.3401 Q2003.7 37.4952 2003.7 46.5287 Q2003.7 55.6027 2000.66 64.7983 Q1997.66 73.9938 1991.59 83.5134 L1985.11 83.5134 Q1990.49 74.2369 1993.13 65.0818 Q1995.8 55.8863 1995.8 46.5287 Q1995.8 37.1711 1993.13 28.0566 Q1990.49 18.942 1985.11 9.62495 Z" fill="#000000" fill-rule="nonzero" fill-opacity="1" /><path clip-path="url(#clip392)" d="M260.722 1475.72 L260.722 1486.45 L350.28 1486.45 L350.28 1475.72 L260.722 1475.72 L260.722 1475.72  Z" fill="#009af9" fill-rule="evenodd" fill-opacity="0.6"/>
<polyline clip-path="url(#clip392)" style="stroke:#000000; stroke-linecap:round; stroke-linejoin:round; stroke-width:4; stroke-opacity:0.6; fill:none" points="260.722,1475.72 260.722,1486.45 350.28,1486.45 350.28,1475.72 260.722,1475.72 "/>
<path clip-path="url(#clip392)" d="M350.28 1411.32 L350.28 1486.45 L439.838 1486.45 L439.838 1411.32 L350.28 1411.32 L350.28 1411.32  Z" fill="#009af9" fill-rule="evenodd" fill-opacity="0.6"/>
<polyline clip-path="url(#clip392)" style="stroke:#000000; stroke-linecap:round; stroke-linejoin:round; stroke-width:4; stroke-opacity:0.6; fill:none" points="350.28,1411.32 350.28,1486.45 439.838,1486.45 439.838,1411.32 350.28,1411.32 "/>
<path clip-path="url(#clip392)" d="M439.838 1314.73 L439.838 1486.45 L529.396 1486.45 L529.396 1314.73 L439.838 1314.73 L439.838 1314.73  Z" fill="#009af9" fill-rule="evenodd" fill-opacity="0.6"/>
<polyline clip-path="url(#clip392)" style="stroke:#000000; stroke-linecap:round; stroke-linejoin:round; stroke-width:4; stroke-opacity:0.6; fill:none" points="439.838,1314.73 439.838,1486.45 529.396,1486.45 529.396,1314.73 439.838,1314.73 "/>
<path clip-path="url(#clip392)" d="M529.396 1164.49 L529.396 1486.45 L618.953 1486.45 L618.953 1164.49 L529.396 1164.49 L529.396 1164.49  Z" fill="#009af9" fill-rule="evenodd" fill-opacity="0.6"/>
<polyline clip-path="url(#clip392)" style="stroke:#000000; stroke-linecap:round; stroke-linejoin:round; stroke-width:4; stroke-opacity:0.6; fill:none" points="529.396,1164.49 529.396,1486.45 618.953,1486.45 618.953,1164.49 529.396,1164.49 "/>
<path clip-path="url(#clip392)" d="M618.953 1175.22 L618.953 1486.45 L708.511 1486.45 L708.511 1175.22 L618.953 1175.22 L618.953 1175.22  Z" fill="#009af9" fill-rule="evenodd" fill-opacity="0.6"/>
<polyline clip-path="url(#clip392)" style="stroke:#000000; stroke-linecap:round; stroke-linejoin:round; stroke-width:4; stroke-opacity:0.6; fill:none" points="618.953,1175.22 618.953,1486.45 708.511,1486.45 708.511,1175.22 618.953,1175.22 "/>
<path clip-path="url(#clip392)" d="M708.511 906.915 L708.511 1486.45 L798.069 1486.45 L798.069 906.915 L708.511 906.915 L708.511 906.915  Z" fill="#009af9" fill-rule="evenodd" fill-opacity="0.6"/>
<polyline clip-path="url(#clip392)" style="stroke:#000000; stroke-linecap:round; stroke-linejoin:round; stroke-width:4; stroke-opacity:0.6; fill:none" points="708.511,906.915 708.511,1486.45 798.069,1486.45 798.069,906.915 708.511,906.915 "/>
<path clip-path="url(#clip392)" d="M798.069 799.594 L798.069 1486.45 L887.627 1486.45 L887.627 799.594 L798.069 799.594 L798.069 799.594  Z" fill="#009af9" fill-rule="evenodd" fill-opacity="0.6"/>
<polyline clip-path="url(#clip392)" style="stroke:#000000; stroke-linecap:round; stroke-linejoin:round; stroke-width:4; stroke-opacity:0.6; fill:none" points="798.069,799.594 798.069,1486.45 887.627,1486.45 887.627,799.594 798.069,799.594 "/>
<path clip-path="url(#clip392)" d="M887.627 456.167 L887.627 1486.45 L977.184 1486.45 L977.184 456.167 L887.627 456.167 L887.627 456.167  Z" fill="#009af9" fill-rule="evenodd" fill-opacity="0.6"/>
<polyline clip-path="url(#clip392)" style="stroke:#000000; stroke-linecap:round; stroke-linejoin:round; stroke-width:4; stroke-opacity:0.6; fill:none" points="887.627,456.167 887.627,1486.45 977.184,1486.45 977.184,456.167 887.627,456.167 "/>
<path clip-path="url(#clip392)" d="M977.184 563.488 L977.184 1486.45 L1066.74 1486.45 L1066.74 563.488 L977.184 563.488 L977.184 563.488  Z" fill="#009af9" fill-rule="evenodd" fill-opacity="0.6"/>
<polyline clip-path="url(#clip392)" style="stroke:#000000; stroke-linecap:round; stroke-linejoin:round; stroke-width:4; stroke-opacity:0.6; fill:none" points="977.184,563.488 977.184,1486.45 1066.74,1486.45 1066.74,563.488 977.184,563.488 "/>
<path clip-path="url(#clip392)" d="M1066.74 123.472 L1066.74 1486.45 L1156.3 1486.45 L1156.3 123.472 L1066.74 123.472 L1066.74 123.472  Z" fill="#009af9" fill-rule="evenodd" fill-opacity="0.6"/>
<polyline clip-path="url(#clip392)" style="stroke:#000000; stroke-linecap:round; stroke-linejoin:round; stroke-width:4; stroke-opacity:0.6; fill:none" points="1066.74,123.472 1066.74,1486.45 1156.3,1486.45 1156.3,123.472 1066.74,123.472 "/>
<path clip-path="url(#clip392)" d="M1156.3 230.793 L1156.3 1486.45 L1245.86 1486.45 L1245.86 230.793 L1156.3 230.793 L1156.3 230.793  Z" fill="#009af9" fill-rule="evenodd" fill-opacity="0.6"/>
<polyline clip-path="url(#clip392)" style="stroke:#000000; stroke-linecap:round; stroke-linejoin:round; stroke-width:4; stroke-opacity:0.6; fill:none" points="1156.3,230.793 1156.3,1486.45 1245.86,1486.45 1245.86,230.793 1156.3,230.793 "/>
<path clip-path="url(#clip392)" d="M1245.86 434.703 L1245.86 1486.45 L1335.42 1486.45 L1335.42 434.703 L1245.86 434.703 L1245.86 434.703  Z" fill="#009af9" fill-rule="evenodd" fill-opacity="0.6"/>
<polyline clip-path="url(#clip392)" style="stroke:#000000; stroke-linecap:round; stroke-linejoin:round; stroke-width:4; stroke-opacity:0.6; fill:none" points="1245.86,434.703 1245.86,1486.45 1335.42,1486.45 1335.42,434.703 1245.86,434.703 "/>
<path clip-path="url(#clip392)" d="M1335.42 660.077 L1335.42 1486.45 L1424.97 1486.45 L1424.97 660.077 L1335.42 660.077 L1335.42 660.077  Z" fill="#009af9" fill-rule="evenodd" fill-opacity="0.6"/>
<polyline clip-path="url(#clip392)" style="stroke:#000000; stroke-linecap:round; stroke-linejoin:round; stroke-width:4; stroke-opacity:0.6; fill:none" points="1335.42,660.077 1335.42,1486.45 1424.97,1486.45 1424.97,660.077 1335.42,660.077 "/>
<path clip-path="url(#clip392)" d="M1424.97 778.13 L1424.97 1486.45 L1514.53 1486.45 L1514.53 778.13 L1424.97 778.13 L1424.97 778.13  Z" fill="#009af9" fill-rule="evenodd" fill-opacity="0.6"/>
<polyline clip-path="url(#clip392)" style="stroke:#000000; stroke-linecap:round; stroke-linejoin:round; stroke-width:4; stroke-opacity:0.6; fill:none" points="1424.97,778.13 1424.97,1486.45 1514.53,1486.45 1514.53,778.13 1424.97,778.13 "/>
<path clip-path="url(#clip392)" d="M1514.53 906.915 L1514.53 1486.45 L1604.09 1486.45 L1604.09 906.915 L1514.53 906.915 L1514.53 906.915  Z" fill="#009af9" fill-rule="evenodd" fill-opacity="0.6"/>
<polyline clip-path="url(#clip392)" style="stroke:#000000; stroke-linecap:round; stroke-linejoin:round; stroke-width:4; stroke-opacity:0.6; fill:none" points="1514.53,906.915 1514.53,1486.45 1604.09,1486.45 1604.09,906.915 1514.53,906.915 "/>
<path clip-path="url(#clip392)" d="M1604.09 1143.02 L1604.09 1486.45 L1693.65 1486.45 L1693.65 1143.02 L1604.09 1143.02 L1604.09 1143.02  Z" fill="#009af9" fill-rule="evenodd" fill-opacity="0.6"/>
<polyline clip-path="url(#clip392)" style="stroke:#000000; stroke-linecap:round; stroke-linejoin:round; stroke-width:4; stroke-opacity:0.6; fill:none" points="1604.09,1143.02 1604.09,1486.45 1693.65,1486.45 1693.65,1143.02 1604.09,1143.02 "/>
<path clip-path="url(#clip392)" d="M1693.65 1304 L1693.65 1486.45 L1783.2 1486.45 L1783.2 1304 L1693.65 1304 L1693.65 1304  Z" fill="#009af9" fill-rule="evenodd" fill-opacity="0.6"/>
<polyline clip-path="url(#clip392)" style="stroke:#000000; stroke-linecap:round; stroke-linejoin:round; stroke-width:4; stroke-opacity:0.6; fill:none" points="1693.65,1304 1693.65,1486.45 1783.2,1486.45 1783.2,1304 1693.65,1304 "/>
<path clip-path="url(#clip392)" d="M1783.2 1336.2 L1783.2 1486.45 L1872.76 1486.45 L1872.76 1336.2 L1783.2 1336.2 L1783.2 1336.2  Z" fill="#009af9" fill-rule="evenodd" fill-opacity="0.6"/>
<polyline clip-path="url(#clip392)" style="stroke:#000000; stroke-linecap:round; stroke-linejoin:round; stroke-width:4; stroke-opacity:0.6; fill:none" points="1783.2,1336.2 1783.2,1486.45 1872.76,1486.45 1872.76,1336.2 1783.2,1336.2 "/>
<path clip-path="url(#clip392)" d="M1872.76 1411.32 L1872.76 1486.45 L1962.32 1486.45 L1962.32 1411.32 L1872.76 1411.32 L1872.76 1411.32  Z" fill="#009af9" fill-rule="evenodd" fill-opacity="0.6"/>
<polyline clip-path="url(#clip392)" style="stroke:#000000; stroke-linecap:round; stroke-linejoin:round; stroke-width:4; stroke-opacity:0.6; fill:none" points="1872.76,1411.32 1872.76,1486.45 1962.32,1486.45 1962.32,1411.32 1872.76,1411.32 "/>
<path clip-path="url(#clip392)" d="M1962.32 1411.32 L1962.32 1486.45 L2051.88 1486.45 L2051.88 1411.32 L1962.32 1411.32 L1962.32 1411.32  Z" fill="#009af9" fill-rule="evenodd" fill-opacity="0.6"/>
<polyline clip-path="url(#clip392)" style="stroke:#000000; stroke-linecap:round; stroke-linejoin:round; stroke-width:4; stroke-opacity:0.6; fill:none" points="1962.32,1411.32 1962.32,1486.45 2051.88,1486.45 2051.88,1411.32 1962.32,1411.32 "/>
<path clip-path="url(#clip392)" d="M2051.88 1486.45 L2051.88 1486.45 L2141.44 1486.45 L2141.44 1486.45 L2051.88 1486.45 L2051.88 1486.45  Z" fill="#009af9" fill-rule="evenodd" fill-opacity="0.6"/>
<polyline clip-path="url(#clip392)" style="stroke:#000000; stroke-linecap:round; stroke-linejoin:round; stroke-width:4; stroke-opacity:0.6; fill:none" points="2051.88,1486.45 2051.88,1486.45 2141.44,1486.45 2051.88,1486.45 "/>
<path clip-path="url(#clip392)" d="M2141.44 1475.72 L2141.44 1486.45 L2230.99 1486.45 L2230.99 1475.72 L2141.44 1475.72 L2141.44 1475.72  Z" fill="#009af9" fill-rule="evenodd" fill-opacity="0.6"/>
<polyline clip-path="url(#clip392)" style="stroke:#000000; stroke-linecap:round; stroke-linejoin:round; stroke-width:4; stroke-opacity:0.6; fill:none" points="2141.44,1475.72 2141.44,1486.45 2230.99,1486.45 2230.99,1475.72 2141.44,1475.72 "/>
<circle clip-path="url(#clip392)" style="fill:#009af9; stroke:none; fill-opacity:0" cx="305.501" cy="1475.72" r="2"/>
<circle clip-path="url(#clip392)" style="fill:#009af9; stroke:none; fill-opacity:0" cx="395.059" cy="1411.32" r="2"/>
<circle clip-path="url(#clip392)" style="fill:#009af9; stroke:none; fill-opacity:0" cx="484.617" cy="1314.73" r="2"/>
<circle clip-path="url(#clip392)" style="fill:#009af9; stroke:none; fill-opacity:0" cx="574.174" cy="1164.49" r="2"/>
<circle clip-path="url(#clip392)" style="fill:#009af9; stroke:none; fill-opacity:0" cx="663.732" cy="1175.22" r="2"/>
<circle clip-path="url(#clip392)" style="fill:#009af9; stroke:none; fill-opacity:0" cx="753.29" cy="906.915" r="2"/>
<circle clip-path="url(#clip392)" style="fill:#009af9; stroke:none; fill-opacity:0" cx="842.848" cy="799.594" r="2"/>
<circle clip-path="url(#clip392)" style="fill:#009af9; stroke:none; fill-opacity:0" cx="932.405" cy="456.167" r="2"/>
<circle clip-path="url(#clip392)" style="fill:#009af9; stroke:none; fill-opacity:0" cx="1021.96" cy="563.488" r="2"/>
<circle clip-path="url(#clip392)" style="fill:#009af9; stroke:none; fill-opacity:0" cx="1111.52" cy="123.472" r="2"/>
<circle clip-path="url(#clip392)" style="fill:#009af9; stroke:none; fill-opacity:0" cx="1201.08" cy="230.793" r="2"/>
<circle clip-path="url(#clip392)" style="fill:#009af9; stroke:none; fill-opacity:0" cx="1290.64" cy="434.703" r="2"/>
<circle clip-path="url(#clip392)" style="fill:#009af9; stroke:none; fill-opacity:0" cx="1380.19" cy="660.077" r="2"/>
<circle clip-path="url(#clip392)" style="fill:#009af9; stroke:none; fill-opacity:0" cx="1469.75" cy="778.13" r="2"/>
<circle clip-path="url(#clip392)" style="fill:#009af9; stroke:none; fill-opacity:0" cx="1559.31" cy="906.915" r="2"/>
<circle clip-path="url(#clip392)" style="fill:#009af9; stroke:none; fill-opacity:0" cx="1648.87" cy="1143.02" r="2"/>
<circle clip-path="url(#clip392)" style="fill:#009af9; stroke:none; fill-opacity:0" cx="1738.43" cy="1304" r="2"/>
<circle clip-path="url(#clip392)" style="fill:#009af9; stroke:none; fill-opacity:0" cx="1827.98" cy="1336.2" r="2"/>
<circle clip-path="url(#clip392)" style="fill:#009af9; stroke:none; fill-opacity:0" cx="1917.54" cy="1411.32" r="2"/>
<circle clip-path="url(#clip392)" style="fill:#009af9; stroke:none; fill-opacity:0" cx="2007.1" cy="1411.32" r="2"/>
<circle clip-path="url(#clip392)" style="fill:#009af9; stroke:none; fill-opacity:0" cx="2096.66" cy="1486.45" r="2"/>
<circle clip-path="url(#clip392)" style="fill:#009af9; stroke:none; fill-opacity:0" cx="2186.21" cy="1475.72" r="2"/>
<path clip-path="url(#clip390)" d="M2012.77 272.585 L2278.96 272.585 L2278.96 168.905 L2012.77 168.905  Z" fill="#ffffff" fill-rule="evenodd" fill-opacity="1"/>
<polyline clip-path="url(#clip390)" style="stroke:#000000; stroke-linecap:round; stroke-linejoin:round; stroke-width:4; stroke-opacity:1; fill:none" points="2012.77,272.585 2278.96,272.585 2278.96,168.905 2012.77,168.905 2012.77,272.585 "/>
<path clip-path="url(#clip390)" d="M2037.37 241.481 L2184.95 241.481 L2184.95 200.009 L2037.37 200.009 L2037.37 241.481  Z" fill="#009af9" fill-rule="evenodd" fill-opacity="0.6"/>
<polyline clip-path="url(#clip390)" style="stroke:#000000; stroke-linecap:round; stroke-linejoin:round; stroke-width:4; stroke-opacity:1; fill:none" points="2037.37,241.481 2184.95,241.481 2184.95,200.009 2037.37,200.009 2037.37,241.481 "/>
<path clip-path="url(#clip390)" d="M2216.96 204.738 L2216.96 212.099 L2225.73 212.099 L2225.73 215.409 L2216.96 215.409 L2216.96 229.483 Q2216.96 232.654 2217.81 233.557 Q2218.69 234.46 2221.36 234.46 L2225.73 234.46 L2225.73 238.025 L2221.36 238.025 Q2216.43 238.025 2214.55 236.196 Q2212.68 234.344 2212.68 229.483 L2212.68 215.409 L2209.55 215.409 L2209.55 212.099 L2212.68 212.099 L2212.68 204.738 L2216.96 204.738 Z" fill="#000000" fill-rule="nonzero" fill-opacity="1" /><path clip-path="url(#clip390)" d="M2244.78 207.539 L2232.98 225.988 L2244.78 225.988 L2244.78 207.539 M2243.55 203.465 L2249.43 203.465 L2249.43 225.988 L2254.36 225.988 L2254.36 229.877 L2249.43 229.877 L2249.43 238.025 L2244.78 238.025 L2244.78 229.877 L2229.18 229.877 L2229.18 225.363 L2243.55 203.465 Z" fill="#000000" fill-rule="nonzero" fill-opacity="1" /></svg>