<?xml version="1.0" encoding="utf-8"?>
<svg xmlns="http://www.w3.org/2000/svg" xmlns:xlink="http://www.w3.org/1999/xlink" width="600" height="400" viewBox="0 0 2400 1600">
<defs>
  <clipPath id="clip080">
    <rect x="0" y="0" width="2400" height="1600"/>
  </clipPath>
</defs>
<path clip-path="url(#clip080)" d="M0 1600 L2400 1600 L2400 0 L0 0  Z" fill="#ffffff" fill-rule="evenodd" fill-opacity="1"/>
<defs>
  <clipPath id="clip081">
    <rect x="480" y="0" width="1681" height="1600"/>
  </clipPath>
</defs>
<path clip-path="url(#clip080)" d="M202.227 1423.18 L2352.76 1423.18 L2352.76 123.472 L202.227 123.472  Z" fill="#ffffff" fill-rule="evenodd" fill-opacity="1"/>
<defs>
  <clipPath id="clip082">
    <rect x="202" y="123" width="2152" height="1301"/>
  </clipPath>
</defs>
<polyline clip-path="url(#clip082)" style="stroke:#000000; stroke-linecap:round; stroke-linejoin:round; stroke-width:2; stroke-opacity:0.1; fill:none" points="623.321,1423.18 623.321,123.472 "/>
<polyline clip-path="url(#clip082)" style="stroke:#000000; stroke-linecap:round; stroke-linejoin:round; stroke-width:2; stroke-opacity:0.1; fill:none" points="1059.43,1423.18 1059.43,123.472 "/>
<polyline clip-path="url(#clip082)" style="stroke:#000000; stroke-linecap:round; stroke-linejoin:round; stroke-width:2; stroke-opacity:0.1; fill:none" points="1495.55,1423.18 1495.55,123.472 "/>
<polyline clip-path="url(#clip082)" style="stroke:#000000; stroke-linecap:round; stroke-linejoin:round; stroke-width:2; stroke-opacity:0.1; fill:none" points="1931.66,1423.18 1931.66,123.472 "/>
<polyline clip-path="url(#clip080)" style="stroke:#000000; stroke-linecap:round; stroke-linejoin:round; stroke-width:4; stroke-opacity:1; fill:none" points="202.227,1423.18 2352.76,1423.18 "/>
<polyline clip-path="url(#clip080)" style="stroke:#000000; stroke-linecap:round; stroke-linejoin:round; stroke-width:4; stroke-opacity:1; fill:none" points="623.321,1423.18 623.321,1404.28 "/>
<polyline clip-path="url(#clip080)" style="stroke:#000000; stroke-linecap:round; stroke-linejoin:round; stroke-width:4; stroke-opacity:1; fill:none" points="1059.43,1423.18 1059.43,1404.28 "/>
<polyline clip-path="url(#clip080)" style="stroke:#000000; stroke-linecap:round; stroke-linejoin:round; stroke-width:4; stroke-opacity:1; fill:none" points="1495.55,1423.18 1495.55,1404.28 "/>
<polyline clip-path="url(#clip080)" style="stroke:#000000; stroke-linecap:round; stroke-linejoin:round; stroke-width:4; stroke-opacity:1; fill:none" points="1931.66,1423.18 1931.66,1404.28 "/>
<path clip-path="url(#clip080)" d="M617.974 1481.64 L634.293 1481.64 L634.293 1485.58 L612.349 1485.58 L612.349 1481.64 Q615.011 1478.89 619.594 1474.26 Q624.201 1469.61 625.381 1468.27 Q627.627 1465.74 628.506 1464.01 Q629.409 1462.25 629.409 1460.56 Q629.409 1457.8 627.465 1456.07 Q625.544 1454.33 622.442 1454.33 Q620.243 1454.33 617.789 1455.09 Q615.358 1455.86 612.581 1457.41 L612.581 1452.69 Q615.405 1451.55 617.858 1450.97 Q620.312 1450.39 622.349 1450.39 Q627.719 1450.39 630.914 1453.08 Q634.108 1455.77 634.108 1460.26 Q634.108 1462.39 633.298 1464.31 Q632.511 1466.2 630.405 1468.8 Q629.826 1469.47 626.724 1472.69 Q623.622 1475.88 617.974 1481.64 Z" fill="#000000" fill-rule="nonzero" fill-opacity="1" /><path clip-path="url(#clip080)" d="M1062.44 1455.09 L1050.64 1473.54 L1062.44 1473.54 L1062.44 1455.09 M1061.22 1451.02 L1067.1 1451.02 L1067.1 1473.54 L1072.03 1473.54 L1072.03 1477.43 L1067.1 1477.43 L1067.1 1485.58 L1062.44 1485.58 L1062.44 1477.43 L1046.84 1477.43 L1046.84 1472.92 L1061.22 1451.02 Z" fill="#000000" fill-rule="nonzero" fill-opacity="1" /><path clip-path="url(#clip080)" d="M1495.95 1466.44 Q1492.81 1466.44 1490.95 1468.59 Q1489.12 1470.74 1489.12 1474.49 Q1489.12 1478.22 1490.95 1480.39 Q1492.81 1482.55 1495.95 1482.55 Q1499.1 1482.55 1500.93 1480.39 Q1502.78 1478.22 1502.78 1474.49 Q1502.78 1470.74 1500.93 1468.59 Q1499.1 1466.44 1495.95 1466.44 M1505.24 1451.78 L1505.24 1456.04 Q1503.48 1455.21 1501.67 1454.77 Q1499.89 1454.33 1498.13 1454.33 Q1493.5 1454.33 1491.05 1457.45 Q1488.62 1460.58 1488.27 1466.9 Q1489.63 1464.89 1491.69 1463.82 Q1493.75 1462.73 1496.23 1462.73 Q1501.44 1462.73 1504.45 1465.9 Q1507.48 1469.05 1507.48 1474.49 Q1507.48 1479.82 1504.33 1483.03 Q1501.19 1486.25 1495.95 1486.25 Q1489.96 1486.25 1486.79 1481.67 Q1483.62 1477.06 1483.62 1468.33 Q1483.62 1460.14 1487.5 1455.28 Q1491.39 1450.39 1497.94 1450.39 Q1499.7 1450.39 1501.49 1450.74 Q1503.29 1451.09 1505.24 1451.78 Z" fill="#000000" fill-rule="nonzero" fill-opacity="1" /><path clip-path="url(#clip080)" d="M1931.66 1469.17 Q1928.33 1469.17 1926.41 1470.95 Q1924.51 1472.73 1924.51 1475.86 Q1924.51 1478.98 1926.41 1480.77 Q1928.33 1482.55 1931.66 1482.55 Q1935 1482.55 1936.92 1480.77 Q1938.84 1478.96 1938.84 1475.86 Q1938.84 1472.73 1936.92 1470.95 Q1935.02 1469.17 1931.66 1469.17 M1926.99 1467.18 Q1923.98 1466.44 1922.29 1464.38 Q1920.62 1462.32 1920.62 1459.35 Q1920.62 1455.21 1923.56 1452.8 Q1926.52 1450.39 1931.66 1450.39 Q1936.82 1450.39 1939.76 1452.8 Q1942.7 1455.21 1942.7 1459.35 Q1942.7 1462.32 1941.01 1464.38 Q1939.35 1466.44 1936.36 1467.18 Q1939.74 1467.96 1941.62 1470.26 Q1943.51 1472.55 1943.51 1475.86 Q1943.51 1480.88 1940.44 1483.57 Q1937.38 1486.25 1931.66 1486.25 Q1925.94 1486.25 1922.87 1483.57 Q1919.81 1480.88 1919.81 1475.86 Q1919.81 1472.55 1921.71 1470.26 Q1923.61 1467.96 1926.99 1467.18 M1925.27 1459.79 Q1925.27 1462.48 1926.94 1463.98 Q1928.63 1465.49 1931.66 1465.49 Q1934.67 1465.49 1936.36 1463.98 Q1938.07 1462.48 1938.07 1459.79 Q1938.07 1457.11 1936.36 1455.6 Q1934.67 1454.1 1931.66 1454.1 Q1928.63 1454.1 1926.94 1455.6 Q1925.27 1457.11 1925.27 1459.79 Z" fill="#000000" fill-rule="nonzero" fill-opacity="1" /><path clip-path="url(#clip080)" d="M1108 1520.52 L1114.43 1520.52 L1114.43 1568.04 L1108 1568.04 L1108 1520.52 Z" fill="#000000" fill-rule="nonzero" fill-opacity="1" /><path clip-path="url(#clip080)" d="M1127.23 1520.52 L1136.81 1520.52 L1148.94 1552.86 L1161.13 1520.52 L1170.71 1520.52 L1170.71 1568.04 L1164.44 1568.04 L1164.44 1526.32 L1152.18 1558.91 L1145.72 1558.91 L1133.47 1526.32 L1133.47 1568.04 L1127.23 1568.04 L1127.23 1520.52 Z" fill="#000000" fill-rule="nonzero" fill-opacity="1" /><path clip-path="url(#clip080)" d="M1189.9 1525.81 L1189.9 1562.76 L1197.67 1562.76 Q1207.5 1562.76 1212.05 1558.3 Q1216.64 1553.85 1216.64 1544.24 Q1216.64 1534.69 1212.05 1530.26 Q1207.5 1525.81 1197.67 1525.81 L1189.9 1525.81 M1183.47 1520.52 L1196.68 1520.52 Q1210.49 1520.52 1216.95 1526.28 Q1223.42 1532.01 1223.42 1544.24 Q1223.42 1556.52 1216.92 1562.28 Q1210.43 1568.04 1196.68 1568.04 L1183.47 1568.04 L1183.47 1520.52 Z" fill="#000000" fill-rule="nonzero" fill-opacity="1" /><path clip-path="url(#clip080)" d="M1260.81 1525.81 L1260.81 1562.76 L1268.58 1562.76 Q1278.41 1562.76 1282.97 1558.3 Q1287.55 1553.85 1287.55 1544.24 Q1287.55 1534.69 1282.97 1530.26 Q1278.41 1525.81 1268.58 1525.81 L1260.81 1525.81 M1254.38 1520.52 L1267.59 1520.52 Q1281.41 1520.52 1287.87 1526.28 Q1294.33 1532.01 1294.33 1544.24 Q1294.33 1556.52 1287.84 1562.28 Q1281.34 1568.04 1267.59 1568.04 L1254.38 1568.04 L1254.38 1520.52 Z" fill="#000000" fill-rule="nonzero" fill-opacity="1" /><path clip-path="url(#clip080)" d="M1334.81 1548.76 L1334.81 1551.62 L1307.89 1551.62 Q1308.27 1557.67 1311.52 1560.85 Q1314.79 1564 1320.62 1564 Q1323.99 1564 1327.14 1563.17 Q1330.33 1562.35 1333.45 1560.69 L1333.45 1566.23 Q1330.3 1567.57 1326.99 1568.27 Q1323.67 1568.97 1320.27 1568.97 Q1311.74 1568.97 1306.74 1564 Q1301.78 1559.04 1301.78 1550.57 Q1301.78 1541.82 1306.49 1536.69 Q1311.23 1531.54 1319.25 1531.54 Q1326.44 1531.54 1330.61 1536.18 Q1334.81 1540.8 1334.81 1548.76 M1328.96 1547.04 Q1328.89 1542.23 1326.25 1539.37 Q1323.64 1536.5 1319.31 1536.5 Q1314.41 1536.5 1311.45 1539.27 Q1308.52 1542.04 1308.08 1547.07 L1328.96 1547.04 Z" fill="#000000" fill-rule="nonzero" fill-opacity="1" /><path clip-path="url(#clip080)" d="M1370.08 1533.76 L1370.08 1539.24 Q1367.6 1537.87 1365.08 1537.2 Q1362.6 1536.5 1360.05 1536.5 Q1354.36 1536.5 1351.21 1540.13 Q1348.06 1543.73 1348.06 1550.25 Q1348.06 1556.78 1351.21 1560.4 Q1354.36 1564 1360.05 1564 Q1362.6 1564 1365.08 1563.33 Q1367.6 1562.63 1370.08 1561.26 L1370.08 1566.68 Q1367.63 1567.82 1364.99 1568.39 Q1362.38 1568.97 1359.42 1568.97 Q1351.37 1568.97 1346.62 1563.91 Q1341.88 1558.85 1341.88 1550.25 Q1341.88 1541.53 1346.66 1536.53 Q1351.46 1531.54 1359.8 1531.54 Q1362.51 1531.54 1365.08 1532.11 Q1367.66 1532.65 1370.08 1533.76 Z" fill="#000000" fill-rule="nonzero" fill-opacity="1" /><path clip-path="url(#clip080)" d="M1380.27 1532.4 L1386.12 1532.4 L1386.12 1568.04 L1380.27 1568.04 L1380.27 1532.4 M1380.27 1518.52 L1386.12 1518.52 L1386.12 1525.93 L1380.27 1525.93 L1380.27 1518.52 Z" fill="#000000" fill-rule="nonzero" fill-opacity="1" /><path clip-path="url(#clip080)" d="M1398.38 1518.52 L1404.23 1518.52 L1404.23 1568.04 L1398.38 1568.04 L1398.38 1518.52 Z" fill="#000000" fill-rule="nonzero" fill-opacity="1" /><path clip-path="url(#clip080)" d="M1446.98 1548.76 L1446.98 1551.62 L1420.05 1551.62 Q1420.43 1557.67 1423.68 1560.85 Q1426.96 1564 1432.78 1564 Q1436.16 1564 1439.31 1563.17 Q1442.49 1562.35 1445.61 1560.69 L1445.61 1566.23 Q1442.46 1567.57 1439.15 1568.27 Q1435.84 1568.97 1432.43 1568.97 Q1423.9 1568.97 1418.91 1564 Q1413.94 1559.04 1413.94 1550.57 Q1413.94 1541.82 1418.65 1536.69 Q1423.39 1531.54 1431.41 1531.54 Q1438.61 1531.54 1442.78 1536.18 Q1446.98 1540.8 1446.98 1548.76 M1441.12 1547.04 Q1441.06 1542.23 1438.42 1539.37 Q1435.81 1536.5 1431.48 1536.5 Q1426.58 1536.5 1423.62 1539.27 Q1420.69 1542.04 1420.24 1547.07 L1441.12 1547.04 Z" fill="#000000" fill-rule="nonzero" fill-opacity="1" /><polyline clip-path="url(#clip082)" style="stroke:#000000; stroke-linecap:round; stroke-linejoin:round; stroke-width:2; stroke-opacity:0.1; fill:none" points="202.227,1423.18 2352.76,1423.18 "/>
<polyline clip-path="url(#clip082)" style="stroke:#000000; stroke-linecap:round; stroke-linejoin:round; stroke-width:2; stroke-opacity:0.1; fill:none" points="202.227,1236.39 2352.76,1236.39 "/>
<polyline clip-path="url(#clip082)" style="stroke:#000000; stroke-linecap:round; stroke-linejoin:round; stroke-width:2; stroke-opacity:0.1; fill:none" points="202.227,1049.59 2352.76,1049.59 "/>
<polyline clip-path="url(#clip082)" style="stroke:#000000; stroke-linecap:round; stroke-linejoin:round; stroke-width:2; stroke-opacity:0.1; fill:none" points="202.227,862.802 2352.76,862.802 "/>
<polyline clip-path="url(#clip082)" style="stroke:#000000; stroke-linecap:round; stroke-linejoin:round; stroke-width:2; stroke-opacity:0.1; fill:none" points="202.227,676.009 2352.76,676.009 "/>
<polyline clip-path="url(#clip082)" style="stroke:#000000; stroke-linecap:round; stroke-linejoin:round; stroke-width:2; stroke-opacity:0.1; fill:none" points="202.227,489.216 2352.76,489.216 "/>
<polyline clip-path="url(#clip082)" style="stroke:#000000; stroke-linecap:round; stroke-linejoin:round; stroke-width:2; stroke-opacity:0.1; fill:none" points="202.227,302.424 2352.76,302.424 "/>
<polyline clip-path="url(#clip080)" style="stroke:#000000; stroke-linecap:round; stroke-linejoin:round; stroke-width:4; stroke-opacity:1; fill:none" points="202.227,1423.18 202.227,123.472 "/>
<polyline clip-path="url(#clip080)" style="stroke:#000000; stroke-linecap:round; stroke-linejoin:round; stroke-width:4; stroke-opacity:1; fill:none" points="202.227,1423.18 221.125,1423.18 "/>
<polyline clip-path="url(#clip080)" style="stroke:#000000; stroke-linecap:round; stroke-linejoin:round; stroke-width:4; stroke-opacity:1; fill:none" points="202.227,1236.39 221.125,1236.39 "/>
<polyline clip-path="url(#clip080)" style="stroke:#000000; stroke-linecap:round; stroke-linejoin:round; stroke-width:4; stroke-opacity:1; fill:none" points="202.227,1049.59 221.125,1049.59 "/>
<polyline clip-path="url(#clip080)" style="stroke:#000000; stroke-linecap:round; stroke-linejoin:round; stroke-width:4; stroke-opacity:1; fill:none" points="202.227,862.802 221.125,862.802 "/>
<polyline clip-path="url(#clip080)" style="stroke:#000000; stroke-linecap:round; stroke-linejoin:round; stroke-width:4; stroke-opacity:1; fill:none" points="202.227,676.009 221.125,676.009 "/>
<polyline clip-path="url(#clip080)" style="stroke:#000000; stroke-linecap:round; stroke-linejoin:round; stroke-width:4; stroke-opacity:1; fill:none" points="202.227,489.216 221.125,489.216 "/>
<polyline clip-path="url(#clip080)" style="stroke:#000000; stroke-linecap:round; stroke-linejoin:round; stroke-width:4; stroke-opacity:1; fill:none" points="202.227,302.424 221.125,302.424 "/>
<path clip-path="url(#clip080)" d="M154.283 1408.98 Q150.672 1408.98 148.843 1412.54 Q147.038 1416.08 147.038 1423.21 Q147.038 1430.32 148.843 1433.89 Q150.672 1437.43 154.283 1437.43 Q157.917 1437.43 159.723 1433.89 Q161.552 1430.32 161.552 1423.21 Q161.552 1416.08 159.723 1412.54 Q157.917 1408.98 154.283 1408.98 M154.283 1405.27 Q160.093 1405.27 163.149 1409.88 Q166.227 1414.46 166.227 1423.21 Q166.227 1431.94 163.149 1436.55 Q160.093 1441.13 154.283 1441.13 Q148.473 1441.13 145.394 1436.55 Q142.339 1431.94 142.339 1423.21 Q142.339 1414.46 145.394 1409.88 Q148.473 1405.27 154.283 1405.27 Z" fill="#000000" fill-rule="nonzero" fill-opacity="1" /><path clip-path="url(#clip080)" d="M149.908 1249.73 L166.227 1249.73 L166.227 1253.67 L144.283 1253.67 L144.283 1249.73 Q146.945 1246.98 151.528 1242.35 Q156.135 1237.7 157.315 1236.35 Q159.561 1233.83 160.44 1232.09 Q161.343 1230.33 161.343 1228.64 Q161.343 1225.89 159.399 1224.15 Q157.478 1222.42 154.376 1222.42 Q152.177 1222.42 149.723 1223.18 Q147.292 1223.95 144.515 1225.5 L144.515 1220.77 Q147.339 1219.64 149.792 1219.06 Q152.246 1218.48 154.283 1218.48 Q159.653 1218.48 162.848 1221.17 Q166.042 1223.85 166.042 1228.34 Q166.042 1230.47 165.232 1232.39 Q164.445 1234.29 162.339 1236.88 Q161.76 1237.56 158.658 1240.77 Q155.556 1243.97 149.908 1249.73 Z" fill="#000000" fill-rule="nonzero" fill-opacity="1" /><path clip-path="url(#clip080)" d="M156.644 1036.39 L144.839 1054.84 L156.644 1054.84 L156.644 1036.39 M155.417 1032.31 L161.297 1032.31 L161.297 1054.84 L166.227 1054.84 L166.227 1058.73 L161.297 1058.73 L161.297 1066.87 L156.644 1066.87 L156.644 1058.73 L141.042 1058.73 L141.042 1054.21 L155.417 1032.31 Z" fill="#000000" fill-rule="nonzero" fill-opacity="1" /><path clip-path="url(#clip080)" d="M154.7 860.938 Q151.552 860.938 149.7 863.091 Q147.871 865.244 147.871 868.994 Q147.871 872.721 149.7 874.897 Q151.552 877.049 154.7 877.049 Q157.848 877.049 159.677 874.897 Q161.528 872.721 161.528 868.994 Q161.528 865.244 159.677 863.091 Q157.848 860.938 154.7 860.938 M163.982 846.286 L163.982 850.545 Q162.223 849.712 160.417 849.272 Q158.635 848.832 156.876 848.832 Q152.246 848.832 149.792 851.957 Q147.362 855.082 147.015 861.401 Q148.38 859.387 150.441 858.323 Q152.501 857.235 154.978 857.235 Q160.186 857.235 163.195 860.406 Q166.227 863.554 166.227 868.994 Q166.227 874.318 163.079 877.535 Q159.931 880.753 154.7 880.753 Q148.704 880.753 145.533 876.17 Q142.362 871.563 142.362 862.836 Q142.362 854.642 146.251 849.781 Q150.14 844.897 156.69 844.897 Q158.45 844.897 160.232 845.244 Q162.038 845.591 163.982 846.286 Z" fill="#000000" fill-rule="nonzero" fill-opacity="1" /><path clip-path="url(#clip080)" d="M154.376 676.877 Q151.042 676.877 149.121 678.659 Q147.223 680.442 147.223 683.567 Q147.223 686.692 149.121 688.474 Q151.042 690.257 154.376 690.257 Q157.709 690.257 159.63 688.474 Q161.552 686.669 161.552 683.567 Q161.552 680.442 159.63 678.659 Q157.732 676.877 154.376 676.877 M149.7 674.886 Q146.691 674.146 145.001 672.085 Q143.334 670.025 143.334 667.062 Q143.334 662.919 146.274 660.511 Q149.237 658.104 154.376 658.104 Q159.538 658.104 162.477 660.511 Q165.417 662.919 165.417 667.062 Q165.417 670.025 163.727 672.085 Q162.061 674.146 159.075 674.886 Q162.454 675.673 164.329 677.965 Q166.227 680.257 166.227 683.567 Q166.227 688.59 163.149 691.275 Q160.093 693.96 154.376 693.96 Q148.658 693.96 145.579 691.275 Q142.524 688.59 142.524 683.567 Q142.524 680.257 144.422 677.965 Q146.32 675.673 149.7 674.886 M147.987 667.502 Q147.987 670.187 149.653 671.692 Q151.343 673.197 154.376 673.197 Q157.385 673.197 159.075 671.692 Q160.788 670.187 160.788 667.502 Q160.788 664.817 159.075 663.312 Q157.385 661.808 154.376 661.808 Q151.343 661.808 149.653 663.312 Q147.987 664.817 147.987 667.502 Z" fill="#000000" fill-rule="nonzero" fill-opacity="1" /><path clip-path="url(#clip080)" d="M114.931 502.561 L122.57 502.561 L122.57 476.196 L114.26 477.862 L114.26 473.603 L122.524 471.936 L127.2 471.936 L127.2 502.561 L134.839 502.561 L134.839 506.496 L114.931 506.496 L114.931 502.561 Z" fill="#000000" fill-rule="nonzero" fill-opacity="1" /><path clip-path="url(#clip080)" d="M154.283 475.015 Q150.672 475.015 148.843 478.58 Q147.038 482.121 147.038 489.251 Q147.038 496.357 148.843 499.922 Q150.672 503.464 154.283 503.464 Q157.917 503.464 159.723 499.922 Q161.552 496.357 161.552 489.251 Q161.552 482.121 159.723 478.58 Q157.917 475.015 154.283 475.015 M154.283 471.311 Q160.093 471.311 163.149 475.918 Q166.227 480.501 166.227 489.251 Q166.227 497.978 163.149 502.584 Q160.093 507.168 154.283 507.168 Q148.473 507.168 145.394 502.584 Q142.339 497.978 142.339 489.251 Q142.339 480.501 145.394 475.918 Q148.473 471.311 154.283 471.311 Z" fill="#000000" fill-rule="nonzero" fill-opacity="1" /><path clip-path="url(#clip080)" d="M116.529 315.768 L124.168 315.768 L124.168 289.403 L115.857 291.07 L115.857 286.81 L124.121 285.144 L128.797 285.144 L128.797 315.768 L136.436 315.768 L136.436 319.704 L116.529 319.704 L116.529 315.768 Z" fill="#000000" fill-rule="nonzero" fill-opacity="1" /><path clip-path="url(#clip080)" d="M149.908 315.768 L166.227 315.768 L166.227 319.704 L144.283 319.704 L144.283 315.768 Q146.945 313.014 151.528 308.384 Q156.135 303.731 157.315 302.389 Q159.561 299.866 160.44 298.13 Q161.343 296.37 161.343 294.681 Q161.343 291.926 159.399 290.19 Q157.478 288.454 154.376 288.454 Q152.177 288.454 149.723 289.218 Q147.292 289.982 144.515 291.532 L144.515 286.81 Q147.339 285.676 149.792 285.097 Q152.246 284.519 154.283 284.519 Q159.653 284.519 162.848 287.204 Q166.042 289.889 166.042 294.38 Q166.042 296.509 165.232 298.431 Q164.445 300.329 162.339 302.921 Q161.76 303.593 158.658 306.81 Q155.556 310.005 149.908 315.768 Z" fill="#000000" fill-rule="nonzero" fill-opacity="1" /><path clip-path="url(#clip080)" d="M21.7677 945.311 L39.6235 945.311 L39.6235 937.227 Q39.6235 932.739 37.3 930.288 Q34.9765 927.838 30.6797 927.838 Q26.4147 927.838 24.0912 930.288 Q21.7677 932.739 21.7677 937.227 L21.7677 945.311 M16.4842 951.741 L16.4842 937.227 Q16.4842 929.238 20.1126 925.164 Q23.7092 921.058 30.6797 921.058 Q37.7138 921.058 41.3104 925.164 Q44.907 929.238 44.907 937.227 L44.907 945.311 L64.0042 945.311 L64.0042 951.741 L16.4842 951.741 Z" fill="#000000" fill-rule="nonzero" fill-opacity="1" /><path clip-path="url(#clip080)" d="M44.7161 884.519 L47.5806 884.519 L47.5806 911.446 Q53.6281 911.064 56.8109 907.817 Q59.9619 904.539 59.9619 898.714 Q59.9619 895.341 59.1344 892.19 Q58.3069 889.007 56.6518 885.888 L62.1899 885.888 Q63.5267 889.039 64.227 892.349 Q64.9272 895.659 64.9272 899.065 Q64.9272 907.595 59.9619 912.592 Q54.9967 917.557 46.5303 917.557 Q37.7774 917.557 32.6531 912.846 Q27.4968 908.104 27.4968 900.083 Q27.4968 892.89 32.1438 888.72 Q36.7589 884.519 44.7161 884.519 M42.9973 890.375 Q38.1912 890.439 35.3266 893.081 Q32.4621 895.691 32.4621 900.019 Q32.4621 904.921 35.2312 907.881 Q38.0002 910.809 43.0292 911.255 L42.9973 890.375 Z" fill="#000000" fill-rule="nonzero" fill-opacity="1" /><path clip-path="url(#clip080)" d="M33.8307 854.25 Q33.2578 855.237 33.0032 856.414 Q32.7167 857.56 32.7167 858.961 Q32.7167 863.926 35.9632 866.6 Q39.1779 869.241 45.2253 869.241 L64.0042 869.241 L64.0042 875.13 L28.3562 875.13 L28.3562 869.241 L33.8944 869.241 Q30.6479 867.395 29.0883 864.435 Q27.4968 861.475 27.4968 857.242 Q27.4968 856.637 27.5923 855.905 Q27.656 855.173 27.8151 854.282 L33.8307 854.25 Z" fill="#000000" fill-rule="nonzero" fill-opacity="1" /><path clip-path="url(#clip080)" d="M29.7248 823.886 L35.1993 823.886 Q33.8307 826.368 33.1623 828.883 Q32.4621 831.365 32.4621 833.912 Q32.4621 839.609 36.0905 842.76 Q39.6872 845.911 46.212 845.911 Q52.7369 845.911 56.3653 842.76 Q59.9619 839.609 59.9619 833.912 Q59.9619 831.365 59.2935 828.883 Q58.5933 826.368 57.2247 823.886 L62.6355 823.886 Q63.7814 826.336 64.3543 828.978 Q64.9272 831.588 64.9272 834.548 Q64.9272 842.601 59.8664 847.343 Q54.8057 852.086 46.212 852.086 Q37.491 852.086 32.4939 847.311 Q27.4968 842.505 27.4968 834.166 Q27.4968 831.461 28.0697 828.883 Q28.6108 826.305 29.7248 823.886 Z" fill="#000000" fill-rule="nonzero" fill-opacity="1" /><path clip-path="url(#clip080)" d="M44.7161 783.209 L47.5806 783.209 L47.5806 810.136 Q53.6281 809.754 56.8109 806.507 Q59.9619 803.229 59.9619 797.404 Q59.9619 794.03 59.1344 790.879 Q58.3069 787.697 56.6518 784.577 L62.1899 784.577 Q63.5267 787.728 64.227 791.039 Q64.9272 794.349 64.9272 797.754 Q64.9272 806.284 59.9619 811.282 Q54.9967 816.247 46.5303 816.247 Q37.7774 816.247 32.6531 811.536 Q27.4968 806.794 27.4968 798.773 Q27.4968 791.58 32.1438 787.41 Q36.7589 783.209 44.7161 783.209 M42.9973 789.065 Q38.1912 789.129 35.3266 791.771 Q32.4621 794.381 32.4621 798.709 Q32.4621 803.611 35.2312 806.571 Q38.0002 809.499 43.0292 809.945 L42.9973 789.065 Z" fill="#000000" fill-rule="nonzero" fill-opacity="1" /><path clip-path="url(#clip080)" d="M42.4881 743.964 L64.0042 743.964 L64.0042 749.821 L42.679 749.821 Q37.6183 749.821 35.1038 751.794 Q32.5894 753.767 32.5894 757.714 Q32.5894 762.457 35.6131 765.194 Q38.6368 767.931 43.8567 767.931 L64.0042 767.931 L64.0042 773.819 L28.3562 773.819 L28.3562 767.931 L33.8944 767.931 Q30.6797 765.83 29.0883 762.998 Q27.4968 760.133 27.4968 756.409 Q27.4968 750.266 31.3163 747.115 Q35.1038 743.964 42.4881 743.964 Z" fill="#000000" fill-rule="nonzero" fill-opacity="1" /><path clip-path="url(#clip080)" d="M18.2347 726.49 L28.3562 726.49 L28.3562 714.427 L32.9077 714.427 L32.9077 726.49 L52.2594 726.49 Q56.6199 726.49 57.8613 725.313 Q59.1026 724.103 59.1026 720.443 L59.1026 714.427 L64.0042 714.427 L64.0042 720.443 Q64.0042 727.222 61.4897 729.8 Q58.9434 732.379 52.2594 732.379 L32.9077 732.379 L32.9077 736.675 L28.3562 736.675 L28.3562 732.379 L18.2347 732.379 L18.2347 726.49 Z" fill="#000000" fill-rule="nonzero" fill-opacity="1" /><path clip-path="url(#clip080)" d="M46.0847 690.524 Q46.0847 697.622 47.7079 700.359 Q49.3312 703.096 53.2461 703.096 Q56.3653 703.096 58.2114 701.059 Q60.0256 698.99 60.0256 695.457 Q60.0256 690.588 56.5881 687.659 Q53.1188 684.699 47.3897 684.699 L46.0847 684.699 L46.0847 690.524 M43.6657 678.843 L64.0042 678.843 L64.0042 684.699 L58.5933 684.699 Q61.8398 686.705 63.3994 689.697 Q64.9272 692.688 64.9272 697.017 Q64.9272 702.492 61.8716 705.738 Q58.7843 708.953 53.6281 708.953 Q47.6125 708.953 44.5569 704.942 Q41.5014 700.9 41.5014 692.911 L41.5014 684.699 L40.9285 684.699 Q36.8862 684.699 34.6901 687.373 Q32.4621 690.015 32.4621 694.821 Q32.4621 697.876 33.1941 700.773 Q33.9262 703.669 35.3903 706.343 L29.9795 706.343 Q28.7381 703.128 28.1334 700.104 Q27.4968 697.081 27.4968 694.216 Q27.4968 686.482 31.5072 682.662 Q35.5176 678.843 43.6657 678.843 Z" fill="#000000" fill-rule="nonzero" fill-opacity="1" /><path clip-path="url(#clip080)" d="M45.7664 643.322 Q39.4007 643.322 35.8996 645.964 Q32.3984 648.574 32.3984 653.316 Q32.3984 658.027 35.8996 660.669 Q39.4007 663.279 45.7664 663.279 Q52.1003 663.279 55.6014 660.669 Q59.1026 658.027 59.1026 653.316 Q59.1026 648.574 55.6014 645.964 Q52.1003 643.322 45.7664 643.322 M59.58 637.466 Q68.683 637.466 73.1071 641.508 Q77.5631 645.55 77.5631 653.889 Q77.5631 656.977 77.0857 659.714 Q76.6401 662.451 75.6852 665.029 L69.9879 665.029 Q71.3884 662.451 72.0568 659.937 Q72.7252 657.422 72.7252 654.812 Q72.7252 649.051 69.7015 646.187 Q66.7096 643.322 60.6303 643.322 L57.7339 643.322 Q60.885 645.137 62.4446 647.969 Q64.0042 650.802 64.0042 654.749 Q64.0042 661.305 59.0071 665.316 Q54.01 669.326 45.7664 669.326 Q37.491 669.326 32.4939 665.316 Q27.4968 661.305 27.4968 654.749 Q27.4968 650.802 29.0564 647.969 Q30.616 645.137 33.7671 643.322 L28.3562 643.322 L28.3562 637.466 L59.58 637.466 Z" fill="#000000" fill-rule="nonzero" fill-opacity="1" /><path clip-path="url(#clip080)" d="M44.7161 594.911 L47.5806 594.911 L47.5806 621.838 Q53.6281 621.456 56.8109 618.21 Q59.9619 614.931 59.9619 609.107 Q59.9619 605.733 59.1344 602.582 Q58.3069 599.399 56.6518 596.28 L62.1899 596.28 Q63.5267 599.431 64.227 602.741 Q64.9272 606.051 64.9272 609.457 Q64.9272 617.987 59.9619 622.984 Q54.9967 627.949 46.5303 627.949 Q37.7774 627.949 32.6531 623.239 Q27.4968 618.496 27.4968 610.475 Q27.4968 603.282 32.1438 599.113 Q36.7589 594.911 44.7161 594.911 M42.9973 600.768 Q38.1912 600.831 35.3266 603.473 Q32.4621 606.083 32.4621 610.412 Q32.4621 615.313 35.2312 618.273 Q38.0002 621.202 43.0292 621.647 L42.9973 600.768 Z" fill="#000000" fill-rule="nonzero" fill-opacity="1" /><path clip-path="url(#clip080)" d="M326.805 18.8205 L326.805 65.8515 L336.689 65.8515 Q349.207 65.8515 355 60.1802 Q360.833 54.509 360.833 42.2752 Q360.833 30.1225 355 24.4918 Q349.207 18.8205 336.689 18.8205 L326.805 18.8205 M318.622 12.096 L335.434 12.096 Q353.015 12.096 361.238 19.4281 Q369.461 26.7198 369.461 42.2752 Q369.461 57.9117 361.197 65.2439 Q352.934 72.576 335.434 72.576 L318.622 72.576 L318.622 12.096 Z" fill="#000000" fill-rule="nonzero" fill-opacity="1" /><path clip-path="url(#clip080)" d="M420.989 48.0275 L420.989 51.6733 L386.718 51.6733 Q387.204 59.3701 391.336 63.421 Q395.509 67.4314 402.922 67.4314 Q407.216 67.4314 411.226 66.3781 Q415.277 65.3249 419.247 63.2184 L419.247 70.267 Q415.236 71.9684 411.024 72.8596 Q406.811 73.7508 402.476 73.7508 Q391.62 73.7508 385.26 67.4314 Q378.94 61.1119 378.94 50.3365 Q378.94 39.1965 384.936 32.6746 Q390.972 26.1121 401.18 26.1121 Q410.335 26.1121 415.642 32.0264 Q420.989 37.9003 420.989 48.0275 M413.535 45.84 Q413.454 39.7232 410.092 36.0774 Q406.77 32.4315 401.261 32.4315 Q395.022 32.4315 391.255 35.9558 Q387.528 39.4801 386.961 45.8805 L413.535 45.84 Z" fill="#000000" fill-rule="nonzero" fill-opacity="1" /><path clip-path="url(#clip080)" d="M470.936 45.1919 L470.936 72.576 L463.483 72.576 L463.483 45.4349 Q463.483 38.994 460.971 35.7938 Q458.46 32.5936 453.436 32.5936 Q447.401 32.5936 443.917 36.4419 Q440.433 40.2903 440.433 46.9338 L440.433 72.576 L432.939 72.576 L432.939 27.2059 L440.433 27.2059 L440.433 34.2544 Q443.107 30.163 446.712 28.1376 Q450.358 26.1121 455.097 26.1121 Q462.916 26.1121 466.926 30.9732 Q470.936 35.7938 470.936 45.1919 Z" fill="#000000" fill-rule="nonzero" fill-opacity="1" /><path clip-path="url(#clip080)" d="M514.727 28.5427 L514.727 35.5912 Q511.567 33.9709 508.164 33.1607 Q504.761 32.3505 501.116 32.3505 Q495.566 32.3505 492.771 34.0519 Q490.016 35.7533 490.016 39.156 Q490.016 41.7486 492.001 43.2475 Q493.986 44.7058 499.981 46.0426 L502.533 46.6097 Q510.473 48.3111 513.795 51.4303 Q517.157 54.509 517.157 60.0587 Q517.157 66.3781 512.134 70.0644 Q507.151 73.7508 498.402 73.7508 Q494.756 73.7508 490.786 73.0216 Q486.856 72.3329 482.481 70.9151 L482.481 63.2184 Q486.613 65.3654 490.624 66.4591 Q494.634 67.5124 498.564 67.5124 Q503.83 67.5124 506.665 65.73 Q509.501 63.9071 509.501 60.6258 Q509.501 57.5877 507.435 55.9673 Q505.41 54.3469 498.483 52.8481 L495.89 52.2405 Q488.963 50.7821 485.884 47.7845 Q482.806 44.7463 482.806 39.4801 Q482.806 33.0797 487.343 29.5959 Q491.88 26.1121 500.224 26.1121 Q504.356 26.1121 508.002 26.7198 Q511.648 27.3274 514.727 28.5427 Z" fill="#000000" fill-rule="nonzero" fill-opacity="1" /><path clip-path="url(#clip080)" d="M529.026 27.2059 L536.48 27.2059 L536.48 72.576 L529.026 72.576 L529.026 27.2059 M529.026 9.54393 L536.48 9.54393 L536.48 18.9825 L529.026 18.9825 L529.026 9.54393 Z" fill="#000000" fill-rule="nonzero" fill-opacity="1" /><path clip-path="url(#clip080)" d="M559.449 14.324 L559.449 27.2059 L574.802 27.2059 L574.802 32.9987 L559.449 32.9987 L559.449 57.6282 Q559.449 63.1779 560.947 64.7578 Q562.487 66.3376 567.145 66.3376 L574.802 66.3376 L574.802 72.576 L567.145 72.576 Q558.517 72.576 555.236 69.3758 Q551.954 66.1351 551.954 57.6282 L551.954 32.9987 L546.486 32.9987 L546.486 27.2059 L551.954 27.2059 L551.954 14.324 L559.449 14.324 Z" fill="#000000" fill-rule="nonzero" fill-opacity="1" /><path clip-path="url(#clip080)" d="M603.482 76.7889 Q600.322 84.8907 597.325 87.3618 Q594.327 89.8329 589.304 89.8329 L583.349 89.8329 L583.349 83.5945 L587.724 83.5945 Q590.803 83.5945 592.504 82.1361 Q594.205 80.6778 596.271 75.2496 L597.608 71.8468 L579.258 27.2059 L587.157 27.2059 L601.335 62.6918 L615.513 27.2059 L623.412 27.2059 L603.482 76.7889 Z" fill="#000000" fill-rule="nonzero" fill-opacity="1" /><path clip-path="url(#clip080)" d="M668.58 18.8205 L668.58 41.5461 L678.869 41.5461 Q684.581 41.5461 687.7 38.5889 Q690.819 35.6318 690.819 30.163 Q690.819 24.7348 687.7 21.7777 Q684.581 18.8205 678.869 18.8205 L668.58 18.8205 M660.397 12.096 L678.869 12.096 Q689.037 12.096 694.222 16.714 Q699.448 21.2916 699.448 30.163 Q699.448 39.1155 694.222 43.6931 Q689.037 48.2706 678.869 48.2706 L668.58 48.2706 L668.58 72.576 L660.397 72.576 L660.397 12.096 Z" fill="#000000" fill-rule="nonzero" fill-opacity="1" /><path clip-path="url(#clip080)" d="M710.102 9.54393 L717.555 9.54393 L717.555 72.576 L710.102 72.576 L710.102 9.54393 Z" fill="#000000" fill-rule="nonzero" fill-opacity="1" /><path clip-path="url(#clip080)" d="M750.732 32.4315 Q744.737 32.4315 741.253 37.1306 Q737.769 41.7891 737.769 49.9314 Q737.769 58.0738 741.213 62.7728 Q744.697 67.4314 750.732 67.4314 Q756.687 67.4314 760.171 62.7323 Q763.655 58.0333 763.655 49.9314 Q763.655 41.8701 760.171 37.1711 Q756.687 32.4315 750.732 32.4315 M750.732 26.1121 Q760.455 26.1121 766.004 32.4315 Q771.554 38.7509 771.554 49.9314 Q771.554 61.0714 766.004 67.4314 Q760.455 73.7508 750.732 73.7508 Q740.97 73.7508 735.42 67.4314 Q729.911 61.0714 729.911 49.9314 Q729.911 38.7509 735.42 32.4315 Q740.97 26.1121 750.732 26.1121 Z" fill="#000000" fill-rule="nonzero" fill-opacity="1" /><path clip-path="url(#clip080)" d="M791.282 14.324 L791.282 27.2059 L806.635 27.2059 L806.635 32.9987 L791.282 32.9987 L791.282 57.6282 Q791.282 63.1779 792.781 64.7578 Q794.32 66.3376 798.979 66.3376 L806.635 66.3376 L806.635 72.576 L798.979 72.576 Q790.35 72.576 787.069 69.3758 Q783.788 66.1351 783.788 57.6282 L783.788 32.9987 L778.319 32.9987 L778.319 27.2059 L783.788 27.2059 L783.788 14.324 L791.282 14.324 Z" fill="#000000" fill-rule="nonzero" fill-opacity="1" /><path clip-path="url(#clip080)" d="M860.39 32.4315 Q854.395 32.4315 850.911 37.1306 Q847.427 41.7891 847.427 49.9314 Q847.427 58.0738 850.871 62.7728 Q854.354 67.4314 860.39 67.4314 Q866.345 67.4314 869.829 62.7323 Q873.313 58.0333 873.313 49.9314 Q873.313 41.8701 869.829 37.1711 Q866.345 32.4315 860.39 32.4315 M860.39 26.1121 Q870.113 26.1121 875.662 32.4315 Q881.212 38.7509 881.212 49.9314 Q881.212 61.0714 875.662 67.4314 Q870.113 73.7508 860.39 73.7508 Q850.628 73.7508 845.078 67.4314 Q839.569 61.0714 839.569 49.9314 Q839.569 38.7509 845.078 32.4315 Q850.628 26.1121 860.39 26.1121 Z" fill="#000000" fill-rule="nonzero" fill-opacity="1" /><path clip-path="url(#clip080)" d="M916.536 9.54393 L916.536 15.7418 L909.406 15.7418 Q905.396 15.7418 903.816 17.3622 Q902.277 18.9825 902.277 23.1955 L902.277 27.2059 L914.551 27.2059 L914.551 32.9987 L902.277 32.9987 L902.277 72.576 L894.783 72.576 L894.783 32.9987 L887.653 32.9987 L887.653 27.2059 L894.783 27.2059 L894.783 24.0462 Q894.783 16.471 898.307 13.0277 Q901.831 9.54393 909.487 9.54393 L916.536 9.54393 Z" fill="#000000" fill-rule="nonzero" fill-opacity="1" /><path clip-path="url(#clip080)" d="M949.47 12.096 L957.653 12.096 L957.653 72.576 L949.47 72.576 L949.47 12.096 Z" fill="#000000" fill-rule="nonzero" fill-opacity="1" /><path clip-path="url(#clip080)" d="M973.937 12.096 L986.13 12.096 L1001.56 53.2532 L1017.08 12.096 L1029.27 12.096 L1029.27 72.576 L1021.29 72.576 L1021.29 19.4686 L1005.7 60.9499 L997.473 60.9499 L981.877 19.4686 L981.877 72.576 L973.937 72.576 L973.937 12.096 Z" fill="#000000" fill-rule="nonzero" fill-opacity="1" /><path clip-path="url(#clip080)" d="M1053.7 18.8205 L1053.7 65.8515 L1063.58 65.8515 Q1076.1 65.8515 1081.89 60.1802 Q1087.73 54.509 1087.73 42.2752 Q1087.73 30.1225 1081.89 24.4918 Q1076.1 18.8205 1063.58 18.8205 L1053.7 18.8205 M1045.52 12.096 L1062.33 12.096 Q1079.91 12.096 1088.13 19.4281 Q1096.36 26.7198 1096.36 42.2752 Q1096.36 57.9117 1088.09 65.2439 Q1079.83 72.576 1062.33 72.576 L1045.52 72.576 L1045.52 12.096 Z" fill="#000000" fill-rule="nonzero" fill-opacity="1" /><path clip-path="url(#clip080)" d="M1143.95 18.8205 L1143.95 65.8515 L1153.84 65.8515 Q1166.36 65.8515 1172.15 60.1802 Q1177.98 54.509 1177.98 42.2752 Q1177.98 30.1225 1172.15 24.4918 Q1166.36 18.8205 1153.84 18.8205 L1143.95 18.8205 M1135.77 12.096 L1152.58 12.096 Q1170.16 12.096 1178.39 19.4281 Q1186.61 26.7198 1186.61 42.2752 Q1186.61 57.9117 1178.35 65.2439 Q1170.08 72.576 1152.58 72.576 L1135.77 72.576 L1135.77 12.096 Z" fill="#000000" fill-rule="nonzero" fill-opacity="1" /><path clip-path="url(#clip080)" d="M1238.14 48.0275 L1238.14 51.6733 L1203.87 51.6733 Q1204.35 59.3701 1208.48 63.421 Q1212.66 67.4314 1220.07 67.4314 Q1224.36 67.4314 1228.37 66.3781 Q1232.43 65.3249 1236.4 63.2184 L1236.4 70.267 Q1232.38 71.9684 1228.17 72.8596 Q1223.96 73.7508 1219.62 73.7508 Q1208.77 73.7508 1202.41 67.4314 Q1196.09 61.1119 1196.09 50.3365 Q1196.09 39.1965 1202.08 32.6746 Q1208.12 26.1121 1218.33 26.1121 Q1227.48 26.1121 1232.79 32.0264 Q1238.14 37.9003 1238.14 48.0275 M1230.68 45.84 Q1230.6 39.7232 1227.24 36.0774 Q1223.92 32.4315 1218.41 32.4315 Q1212.17 32.4315 1208.4 35.9558 Q1204.68 39.4801 1204.11 45.8805 L1230.68 45.84 Z" fill="#000000" fill-rule="nonzero" fill-opacity="1" /><path clip-path="url(#clip080)" d="M1283.02 28.9478 L1283.02 35.9153 Q1279.86 34.1734 1276.66 33.3227 Q1273.5 32.4315 1270.26 32.4315 Q1263.01 32.4315 1259 37.0496 Q1254.99 41.6271 1254.99 49.9314 Q1254.99 58.2358 1259 62.8538 Q1263.01 67.4314 1270.26 67.4314 Q1273.5 67.4314 1276.66 66.5807 Q1279.86 65.6895 1283.02 63.9476 L1283.02 70.8341 Q1279.9 72.2924 1276.54 73.0216 Q1273.22 73.7508 1269.45 73.7508 Q1259.2 73.7508 1253.17 67.3098 Q1247.13 60.8689 1247.13 49.9314 Q1247.13 38.832 1253.21 32.472 Q1259.32 26.1121 1269.94 26.1121 Q1273.38 26.1121 1276.66 26.8413 Q1279.94 27.5299 1283.02 28.9478 Z" fill="#000000" fill-rule="nonzero" fill-opacity="1" /><path clip-path="url(#clip080)" d="M1295.98 27.2059 L1303.44 27.2059 L1303.44 72.576 L1295.98 72.576 L1295.98 27.2059 M1295.98 9.54393 L1303.44 9.54393 L1303.44 18.9825 L1295.98 18.9825 L1295.98 9.54393 Z" fill="#000000" fill-rule="nonzero" fill-opacity="1" /><path clip-path="url(#clip080)" d="M1319.03 9.54393 L1326.49 9.54393 L1326.49 72.576 L1319.03 72.576 L1319.03 9.54393 Z" fill="#000000" fill-rule="nonzero" fill-opacity="1" /><path clip-path="url(#clip080)" d="M1380.89 48.0275 L1380.89 51.6733 L1346.62 51.6733 Q1347.11 59.3701 1351.24 63.421 Q1355.41 67.4314 1362.82 67.4314 Q1367.12 67.4314 1371.13 66.3781 Q1375.18 65.3249 1379.15 63.2184 L1379.15 70.267 Q1375.14 71.9684 1370.93 72.8596 Q1366.71 73.7508 1362.38 73.7508 Q1351.52 73.7508 1345.16 67.4314 Q1338.84 61.1119 1338.84 50.3365 Q1338.84 39.1965 1344.84 32.6746 Q1350.87 26.1121 1361.08 26.1121 Q1370.24 26.1121 1375.54 32.0264 Q1380.89 37.9003 1380.89 48.0275 M1373.44 45.84 Q1373.36 39.7232 1369.99 36.0774 Q1366.67 32.4315 1361.16 32.4315 Q1354.92 32.4315 1351.16 35.9558 Q1347.43 39.4801 1346.86 45.8805 L1373.44 45.84 Z" fill="#000000" fill-rule="nonzero" fill-opacity="1" /><path clip-path="url(#clip080)" d="M1452.07 49.9314 Q1452.07 41.7081 1448.66 37.0496 Q1445.3 32.3505 1439.39 32.3505 Q1433.47 32.3505 1430.07 37.0496 Q1426.71 41.7081 1426.71 49.9314 Q1426.71 58.1548 1430.07 62.8538 Q1433.47 67.5124 1439.39 67.5124 Q1445.3 67.5124 1448.66 62.8538 Q1452.07 58.1548 1452.07 49.9314 M1426.71 34.0924 Q1429.06 30.0415 1432.62 28.0971 Q1436.23 26.1121 1441.21 26.1121 Q1449.47 26.1121 1454.62 32.6746 Q1459.8 39.2371 1459.8 49.9314 Q1459.8 60.6258 1454.62 67.1883 Q1449.47 73.7508 1441.21 73.7508 Q1436.23 73.7508 1432.62 71.8063 Q1429.06 69.8214 1426.71 65.7705 L1426.71 72.576 L1419.21 72.576 L1419.21 9.54393 L1426.71 9.54393 L1426.71 34.0924 Z" fill="#000000" fill-rule="nonzero" fill-opacity="1" /><path clip-path="url(#clip080)" d="M1491.04 76.7889 Q1487.88 84.8907 1484.88 87.3618 Q1481.88 89.8329 1476.86 89.8329 L1470.9 89.8329 L1470.9 83.5945 L1475.28 83.5945 Q1478.36 83.5945 1480.06 82.1361 Q1481.76 80.6778 1483.82 75.2496 L1485.16 71.8468 L1466.81 27.2059 L1474.71 27.2059 L1488.89 62.6918 L1503.07 27.2059 L1510.97 27.2059 L1491.04 76.7889 Z" fill="#000000" fill-rule="nonzero" fill-opacity="1" /><path clip-path="url(#clip080)" d="M1539.56 12.096 L1590.73 12.096 L1590.73 18.9825 L1569.26 18.9825 L1569.26 72.576 L1561.03 72.576 L1561.03 18.9825 L1539.56 18.9825 L1539.56 12.096 Z" fill="#000000" fill-rule="nonzero" fill-opacity="1" /><path clip-path="url(#clip080)" d="M1612.4 34.1734 Q1611.14 33.4443 1609.65 33.1202 Q1608.19 32.7556 1606.4 32.7556 Q1600.09 32.7556 1596.68 36.8875 Q1593.32 40.9789 1593.32 48.6757 L1593.32 72.576 L1585.83 72.576 L1585.83 27.2059 L1593.32 27.2059 L1593.32 34.2544 Q1595.67 30.1225 1599.44 28.1376 Q1603.2 26.1121 1608.59 26.1121 Q1609.36 26.1121 1610.29 26.2337 Q1611.23 26.3147 1612.36 26.5172 L1612.4 34.1734 Z" fill="#000000" fill-rule="nonzero" fill-opacity="1" /><path clip-path="url(#clip080)" d="M1657.2 48.0275 L1657.2 51.6733 L1622.93 51.6733 Q1623.42 59.3701 1627.55 63.421 Q1631.72 67.4314 1639.14 67.4314 Q1643.43 67.4314 1647.44 66.3781 Q1651.49 65.3249 1655.46 63.2184 L1655.46 70.267 Q1651.45 71.9684 1647.24 72.8596 Q1643.03 73.7508 1638.69 73.7508 Q1627.83 73.7508 1621.47 67.4314 Q1615.15 61.1119 1615.15 50.3365 Q1615.15 39.1965 1621.15 32.6746 Q1627.19 26.1121 1637.39 26.1121 Q1646.55 26.1121 1651.86 32.0264 Q1657.2 37.9003 1657.2 48.0275 M1649.75 45.84 Q1649.67 39.7232 1646.31 36.0774 Q1642.98 32.4315 1637.48 32.4315 Q1631.24 32.4315 1627.47 35.9558 Q1623.74 39.4801 1623.18 45.8805 L1649.75 45.84 Z" fill="#000000" fill-rule="nonzero" fill-opacity="1" /><path clip-path="url(#clip080)" d="M1690.06 49.7694 Q1681.02 49.7694 1677.54 51.8354 Q1674.05 53.9013 1674.05 58.8839 Q1674.05 62.8538 1676.65 65.2034 Q1679.28 67.5124 1683.78 67.5124 Q1689.98 67.5124 1693.7 63.1374 Q1697.47 58.7219 1697.47 51.4303 L1697.47 49.7694 L1690.06 49.7694 M1704.92 46.6907 L1704.92 72.576 L1697.47 72.576 L1697.47 65.6895 Q1694.92 69.8214 1691.11 71.8063 Q1687.3 73.7508 1681.79 73.7508 Q1674.82 73.7508 1670.69 69.8619 Q1666.6 65.9325 1666.6 59.3701 Q1666.6 51.7138 1671.71 47.825 Q1676.85 43.9361 1687.02 43.9361 L1697.47 43.9361 L1697.47 43.2069 Q1697.47 38.0623 1694.07 35.2672 Q1690.7 32.4315 1684.59 32.4315 Q1680.7 32.4315 1677.01 33.3632 Q1673.33 34.295 1669.92 36.1584 L1669.92 29.2718 Q1674.01 27.692 1677.86 26.9223 Q1681.71 26.1121 1685.36 26.1121 Q1695.2 26.1121 1700.06 31.2163 Q1704.92 36.3204 1704.92 46.6907 Z" fill="#000000" fill-rule="nonzero" fill-opacity="1" /><path clip-path="url(#clip080)" d="M1727.65 14.324 L1727.65 27.2059 L1743 27.2059 L1743 32.9987 L1727.65 32.9987 L1727.65 57.6282 Q1727.65 63.1779 1729.15 64.7578 Q1730.69 66.3376 1735.35 66.3376 L1743 66.3376 L1743 72.576 L1735.35 72.576 Q1726.72 72.576 1723.44 69.3758 Q1720.15 66.1351 1720.15 57.6282 L1720.15 32.9987 L1714.69 32.9987 L1714.69 27.2059 L1720.15 27.2059 L1720.15 14.324 L1727.65 14.324 Z" fill="#000000" fill-rule="nonzero" fill-opacity="1" /><path clip-path="url(#clip080)" d="M1788.13 35.9153 Q1790.92 30.8922 1794.81 28.5022 Q1798.7 26.1121 1803.97 26.1121 Q1811.06 26.1121 1814.9 31.0947 Q1818.75 36.0368 1818.75 45.1919 L1818.75 72.576 L1811.26 72.576 L1811.26 45.4349 Q1811.26 38.913 1808.95 35.7533 Q1806.64 32.5936 1801.9 32.5936 Q1796.11 32.5936 1792.75 36.4419 Q1789.38 40.2903 1789.38 46.9338 L1789.38 72.576 L1781.89 72.576 L1781.89 45.4349 Q1781.89 38.8725 1779.58 35.7533 Q1777.27 32.5936 1772.45 32.5936 Q1766.74 32.5936 1763.38 36.4824 Q1760.02 40.3308 1760.02 46.9338 L1760.02 72.576 L1752.52 72.576 L1752.52 27.2059 L1760.02 27.2059 L1760.02 34.2544 Q1762.57 30.082 1766.13 28.0971 Q1769.7 26.1121 1774.6 26.1121 Q1779.54 26.1121 1782.98 28.6237 Q1786.47 31.1352 1788.13 35.9153 Z" fill="#000000" fill-rule="nonzero" fill-opacity="1" /><path clip-path="url(#clip080)" d="M1872.43 48.0275 L1872.43 51.6733 L1838.16 51.6733 Q1838.64 59.3701 1842.78 63.421 Q1846.95 67.4314 1854.36 67.4314 Q1858.65 67.4314 1862.67 66.3781 Q1866.72 65.3249 1870.69 63.2184 L1870.69 70.267 Q1866.68 71.9684 1862.46 72.8596 Q1858.25 73.7508 1853.92 73.7508 Q1843.06 73.7508 1836.7 67.4314 Q1830.38 61.1119 1830.38 50.3365 Q1830.38 39.1965 1836.37 32.6746 Q1842.41 26.1121 1852.62 26.1121 Q1861.77 26.1121 1867.08 32.0264 Q1872.43 37.9003 1872.43 48.0275 M1864.97 45.84 Q1864.89 39.7232 1861.53 36.0774 Q1858.21 32.4315 1852.7 32.4315 Q1846.46 32.4315 1842.69 35.9558 Q1838.97 39.4801 1838.4 45.8805 L1864.97 45.84 Z" fill="#000000" fill-rule="nonzero" fill-opacity="1" /><path clip-path="url(#clip080)" d="M1922.38 45.1919 L1922.38 72.576 L1914.92 72.576 L1914.92 45.4349 Q1914.92 38.994 1912.41 35.7938 Q1909.9 32.5936 1904.88 32.5936 Q1898.84 32.5936 1895.36 36.4419 Q1891.87 40.2903 1891.87 46.9338 L1891.87 72.576 L1884.38 72.576 L1884.38 27.2059 L1891.87 27.2059 L1891.87 34.2544 Q1894.55 30.163 1898.15 28.1376 Q1901.8 26.1121 1906.54 26.1121 Q1914.35 26.1121 1918.36 30.9732 Q1922.38 35.7938 1922.38 45.1919 Z" fill="#000000" fill-rule="nonzero" fill-opacity="1" /><path clip-path="url(#clip080)" d="M1944.61 14.324 L1944.61 27.2059 L1959.97 27.2059 L1959.97 32.9987 L1944.61 32.9987 L1944.61 57.6282 Q1944.61 63.1779 1946.11 64.7578 Q1947.65 66.3376 1952.31 66.3376 L1959.97 66.3376 L1959.97 72.576 L1952.31 72.576 Q1943.68 72.576 1940.4 69.3758 Q1937.12 66.1351 1937.12 57.6282 L1937.12 32.9987 L1931.65 32.9987 L1931.65 27.2059 L1937.12 27.2059 L1937.12 14.324 L1944.61 14.324 Z" fill="#000000" fill-rule="nonzero" fill-opacity="1" /><path clip-path="url(#clip080)" d="M2037.7 63.9476 L2037.7 47.7034 L2024.34 47.7034 L2024.34 40.9789 L2045.81 40.9789 L2045.81 66.9452 Q2041.07 70.3075 2035.36 72.0494 Q2029.64 73.7508 2023.16 73.7508 Q2008.98 73.7508 2000.96 65.4869 Q1992.98 57.1826 1992.98 42.3968 Q1992.98 27.5705 2000.96 19.3066 Q2008.98 11.0023 2023.16 11.0023 Q2029.08 11.0023 2034.38 12.4606 Q2039.73 13.9189 2044.23 16.7545 L2044.23 25.464 Q2039.69 21.6156 2034.59 19.6712 Q2029.48 17.7268 2023.85 17.7268 Q2012.75 17.7268 2007.16 23.9246 Q2001.61 30.1225 2001.61 42.3968 Q2001.61 54.6305 2007.16 60.8284 Q2012.75 67.0263 2023.85 67.0263 Q2028.19 67.0263 2031.59 66.2971 Q2034.99 65.5274 2037.7 63.9476 Z" fill="#000000" fill-rule="nonzero" fill-opacity="1" /><path clip-path="url(#clip080)" d="M2086.72 34.1734 Q2085.46 33.4443 2083.97 33.1202 Q2082.51 32.7556 2080.73 32.7556 Q2074.41 32.7556 2071 36.8875 Q2067.64 40.9789 2067.64 48.6757 L2067.64 72.576 L2060.15 72.576 L2060.15 27.2059 L2067.64 27.2059 L2067.64 34.2544 Q2069.99 30.1225 2073.76 28.1376 Q2077.53 26.1121 2082.91 26.1121 Q2083.68 26.1121 2084.61 26.2337 Q2085.55 26.3147 2086.68 26.5172 L2086.72 34.1734 Z" fill="#000000" fill-rule="nonzero" fill-opacity="1" /><path clip-path="url(#clip080)" d="M2110.3 32.4315 Q2104.3 32.4315 2100.82 37.1306 Q2097.33 41.7891 2097.33 49.9314 Q2097.33 58.0738 2100.78 62.7728 Q2104.26 67.4314 2110.3 67.4314 Q2116.25 67.4314 2119.74 62.7323 Q2123.22 58.0333 2123.22 49.9314 Q2123.22 41.8701 2119.74 37.1711 Q2116.25 32.4315 2110.3 32.4315 M2110.3 26.1121 Q2120.02 26.1121 2125.57 32.4315 Q2131.12 38.7509 2131.12 49.9314 Q2131.12 61.0714 2125.57 67.4314 Q2120.02 73.7508 2110.3 73.7508 Q2100.53 73.7508 2094.98 67.4314 Q2089.48 61.0714 2089.48 49.9314 Q2089.48 38.7509 2094.98 32.4315 Q2100.53 26.1121 2110.3 26.1121 Z" fill="#000000" fill-rule="nonzero" fill-opacity="1" /><path clip-path="url(#clip080)" d="M2142.7 54.671 L2142.7 27.2059 L2150.16 27.2059 L2150.16 54.3874 Q2150.16 60.8284 2152.67 64.0691 Q2155.18 67.2693 2160.2 67.2693 Q2166.24 67.2693 2169.72 63.421 Q2173.25 59.5726 2173.25 52.9291 L2173.25 27.2059 L2180.7 27.2059 L2180.7 72.576 L2173.25 72.576 L2173.25 65.6084 Q2170.53 69.7404 2166.93 71.7658 Q2163.36 73.7508 2158.62 73.7508 Q2150.81 73.7508 2146.75 68.8897 Q2142.7 64.0286 2142.7 54.671 M2161.46 26.1121 L2161.46 26.1121 Z" fill="#000000" fill-rule="nonzero" fill-opacity="1" /><path clip-path="url(#clip080)" d="M2203.27 65.7705 L2203.27 89.8329 L2195.77 89.8329 L2195.77 27.2059 L2203.27 27.2059 L2203.27 34.0924 Q2205.61 30.0415 2209.18 28.0971 Q2212.78 26.1121 2217.77 26.1121 Q2226.03 26.1121 2231.18 32.6746 Q2236.36 39.2371 2236.36 49.9314 Q2236.36 60.6258 2231.18 67.1883 Q2226.03 73.7508 2217.77 73.7508 Q2212.78 73.7508 2209.18 71.8063 Q2205.61 69.8214 2203.27 65.7705 M2228.62 49.9314 Q2228.62 41.7081 2225.22 37.0496 Q2221.86 32.3505 2215.94 32.3505 Q2210.03 32.3505 2206.63 37.0496 Q2203.27 41.7081 2203.27 49.9314 Q2203.27 58.1548 2206.63 62.8538 Q2210.03 67.5124 2215.94 67.5124 Q2221.86 67.5124 2225.22 62.8538 Q2228.62 58.1548 2228.62 49.9314 Z" fill="#000000" fill-rule="nonzero" fill-opacity="1" /><path clip-path="url(#clip082)" d="M318.042 1224.46 L318.042 1423.18 L405.265 1423.18 L405.265 1224.46 L318.042 1224.46 L318.042 1224.46  Z" fill="#009af9" fill-rule="evenodd" fill-opacity="1"/>
<polyline clip-path="url(#clip082)" style="stroke:#000000; stroke-linecap:round; stroke-linejoin:round; stroke-width:4; stroke-opacity:1; fill:none" points="318.042,1224.46 318.042,1423.18 405.265,1423.18 405.265,1224.46 318.042,1224.46 "/>
<path clip-path="url(#clip082)" d="M536.099 300.705 L536.099 1423.18 L623.321 1423.18 L623.321 300.705 L536.099 300.705 L536.099 300.705  Z" fill="#009af9" fill-rule="evenodd" fill-opacity="1"/>
<polyline clip-path="url(#clip082)" style="stroke:#000000; stroke-linecap:round; stroke-linejoin:round; stroke-width:4; stroke-opacity:1; fill:none" points="536.099,300.705 536.099,1423.18 623.321,1423.18 623.321,300.705 536.099,300.705 "/>
<path clip-path="url(#clip082)" d="M754.155 300.705 L754.155 1423.18 L841.378 1423.18 L841.378 300.705 L754.155 300.705 L754.155 300.705  Z" fill="#009af9" fill-rule="evenodd" fill-opacity="1"/>
<polyline clip-path="url(#clip082)" style="stroke:#000000; stroke-linecap:round; stroke-linejoin:round; stroke-width:4; stroke-opacity:1; fill:none" points="754.155,300.705 754.155,1423.18 841.378,1423.18 841.378,300.705 754.155,300.705 "/>
<path clip-path="url(#clip082)" d="M972.212 542.386 L972.212 1423.18 L1059.43 1423.18 L1059.43 542.386 L972.212 542.386 L972.212 542.386  Z" fill="#009af9" fill-rule="evenodd" fill-opacity="1"/>
<polyline clip-path="url(#clip082)" style="stroke:#000000; stroke-linecap:round; stroke-linejoin:round; stroke-width:4; stroke-opacity:1; fill:none" points="972.212,542.386 972.212,1423.18 1059.43,1423.18 1059.43,542.386 972.212,542.386 "/>
<path clip-path="url(#clip082)" d="M1190.27 810.921 L1190.27 1423.18 L1277.49 1423.18 L1277.49 810.921 L1190.27 810.921 L1190.27 810.921  Z" fill="#009af9" fill-rule="evenodd" fill-opacity="1"/>
<polyline clip-path="url(#clip082)" style="stroke:#000000; stroke-linecap:round; stroke-linejoin:round; stroke-width:4; stroke-opacity:1; fill:none" points="1190.27,810.921 1190.27,1423.18 1277.49,1423.18 1277.49,810.921 1190.27,810.921 "/>
<path clip-path="url(#clip082)" d="M1408.33 1063.34 L1408.33 1423.18 L1495.55 1423.18 L1495.55 1063.34 L1408.33 1063.34 L1408.33 1063.34  Z" fill="#009af9" fill-rule="evenodd" fill-opacity="1"/>
<polyline clip-path="url(#clip082)" style="stroke:#000000; stroke-linecap:round; stroke-linejoin:round; stroke-width:4; stroke-opacity:1; fill:none" points="1408.33,1063.34 1408.33,1423.18 1495.55,1423.18 1495.55,1063.34 1408.33,1063.34 "/>
<path clip-path="url(#clip082)" d="M1626.38 1396.33 L1626.38 1423.18 L1713.61 1423.18 L1713.61 1396.33 L1626.38 1396.33 L1626.38 1396.33  Z" fill="#009af9" fill-rule="evenodd" fill-opacity="1"/>
<polyline clip-path="url(#clip082)" style="stroke:#000000; stroke-linecap:round; stroke-linejoin:round; stroke-width:4; stroke-opacity:1; fill:none" points="1626.38,1396.33 1626.38,1423.18 1713.61,1423.18 1713.61,1396.33 1626.38,1396.33 "/>
<path clip-path="url(#clip082)" d="M1844.44 1358.73 L1844.44 1423.18 L1931.66 1423.18 L1931.66 1358.73 L1844.44 1358.73 L1844.44 1358.73  Z" fill="#009af9" fill-rule="evenodd" fill-opacity="1"/>
<polyline clip-path="url(#clip082)" style="stroke:#000000; stroke-linecap:round; stroke-linejoin:round; stroke-width:4; stroke-opacity:1; fill:none" points="1844.44,1358.73 1844.44,1423.18 1931.66,1423.18 1931.66,1358.73 1844.44,1358.73 "/>
<path clip-path="url(#clip082)" d="M2062.5 1417.81 L2062.5 1423.18 L2149.72 1423.18 L2149.72 1417.81 L2062.5 1417.81 L2062.5 1417.81  Z" fill="#009af9" fill-rule="evenodd" fill-opacity="1"/>
<polyline clip-path="url(#clip082)" style="stroke:#000000; stroke-linecap:round; stroke-linejoin:round; stroke-width:4; stroke-opacity:1; fill:none" points="2062.5,1417.81 2062.5,1423.18 2149.72,1423.18 2149.72,1417.81 2062.5,1417.81 "/>
<circle clip-path="url(#clip082)" style="fill:#009af9; stroke:none; fill-opacity:0" cx="361.653" cy="1224.46" r="2"/>
<circle clip-path="url(#clip082)" style="fill:#009af9; stroke:none; fill-opacity:0" cx="579.71" cy="300.705" r="2"/>
<circle clip-path="url(#clip082)" style="fill:#009af9; stroke:none; fill-opacity:0" cx="797.767" cy="300.705" r="2"/>
<circle clip-path="url(#clip082)" style="fill:#009af9; stroke:none; fill-opacity:0" cx="1015.82" cy="542.386" r="2"/>
<circle clip-path="url(#clip082)" style="fill:#009af9; stroke:none; fill-opacity:0" cx="1233.88" cy="810.921" r="2"/>
<circle clip-path="url(#clip082)" style="fill:#009af9; stroke:none; fill-opacity:0" cx="1451.94" cy="1063.34" r="2"/>
<circle clip-path="url(#clip082)" style="fill:#009af9; stroke:none; fill-opacity:0" cx="1669.99" cy="1396.33" r="2"/>
<circle clip-path="url(#clip082)" style="fill:#009af9; stroke:none; fill-opacity:0" cx="1888.05" cy="1358.73" r="2"/>
<circle clip-path="url(#clip082)" style="fill:#009af9; stroke:none; fill-opacity:0" cx="2106.11" cy="1417.81" r="2"/>
<path clip-path="url(#clip082)" d="M405.265 1229.83 L405.265 1423.18 L492.487 1423.18 L492.487 1229.83 L405.265 1229.83 L405.265 1229.83  Z" fill="#e26f46" fill-rule="evenodd" fill-opacity="1"/>
<polyline clip-path="url(#clip082)" style="stroke:#000000; stroke-linecap:round; stroke-linejoin:round; stroke-width:4; stroke-opacity:1; fill:none" points="405.265,1229.83 405.265,1423.18 492.487,1423.18 492.487,1229.83 405.265,1229.83 "/>
<path clip-path="url(#clip082)" d="M623.321 128.843 L623.321 1423.18 L710.544 1423.18 L710.544 128.843 L623.321 128.843 L623.321 128.843  Z" fill="#e26f46" fill-rule="evenodd" fill-opacity="1"/>
<polyline clip-path="url(#clip082)" style="stroke:#000000; stroke-linecap:round; stroke-linejoin:round; stroke-width:4; stroke-opacity:1; fill:none" points="623.321,128.843 623.321,1423.18 710.544,1423.18 710.544,128.843 623.321,128.843 "/>
<path clip-path="url(#clip082)" d="M841.378 123.472 L841.378 1423.18 L928.601 1423.18 L928.601 123.472 L841.378 123.472 L841.378 123.472  Z" fill="#e26f46" fill-rule="evenodd" fill-opacity="1"/>
<polyline clip-path="url(#clip082)" style="stroke:#000000; stroke-linecap:round; stroke-linejoin:round; stroke-width:4; stroke-opacity:1; fill:none" points="841.378,123.472 841.378,1423.18 928.601,1423.18 928.601,123.472 841.378,123.472 "/>
<path clip-path="url(#clip082)" d="M1059.43 359.783 L1059.43 1423.18 L1146.66 1423.18 L1146.66 359.783 L1059.43 359.783 L1059.43 359.783  Z" fill="#e26f46" fill-rule="evenodd" fill-opacity="1"/>
<polyline clip-path="url(#clip082)" style="stroke:#000000; stroke-linecap:round; stroke-linejoin:round; stroke-width:4; stroke-opacity:1; fill:none" points="1059.43,359.783 1059.43,1423.18 1146.66,1423.18 1146.66,359.783 1059.43,359.783 "/>
<path clip-path="url(#clip082)" d="M1277.49 810.921 L1277.49 1423.18 L1364.71 1423.18 L1364.71 810.921 L1277.49 810.921 L1277.49 810.921  Z" fill="#e26f46" fill-rule="evenodd" fill-opacity="1"/>
<polyline clip-path="url(#clip082)" style="stroke:#000000; stroke-linecap:round; stroke-linejoin:round; stroke-width:4; stroke-opacity:1; fill:none" points="1277.49,810.921 1277.49,1423.18 1364.71,1423.18 1364.71,810.921 1277.49,810.921 "/>
<path clip-path="url(#clip082)" d="M1495.55 1068.71 L1495.55 1423.18 L1582.77 1423.18 L1582.77 1068.71 L1495.55 1068.71 L1495.55 1068.71  Z" fill="#e26f46" fill-rule="evenodd" fill-opacity="1"/>
<polyline clip-path="url(#clip082)" style="stroke:#000000; stroke-linecap:round; stroke-linejoin:round; stroke-width:4; stroke-opacity:1; fill:none" points="1495.55,1068.71 1495.55,1423.18 1582.77,1423.18 1582.77,1068.71 1495.55,1068.71 "/>
<path clip-path="url(#clip082)" d="M1713.61 1380.21 L1713.61 1423.18 L1800.83 1423.18 L1800.83 1380.21 L1713.61 1380.21 L1713.61 1380.21  Z" fill="#e26f46" fill-rule="evenodd" fill-opacity="1"/>
<polyline clip-path="url(#clip082)" style="stroke:#000000; stroke-linecap:round; stroke-linejoin:round; stroke-width:4; stroke-opacity:1; fill:none" points="1713.61,1380.21 1713.61,1423.18 1800.83,1423.18 1800.83,1380.21 1713.61,1380.21 "/>
<path clip-path="url(#clip082)" d="M1931.66 1342.62 L1931.66 1423.18 L2018.88 1423.18 L2018.88 1342.62 L1931.66 1342.62 L1931.66 1342.62  Z" fill="#e26f46" fill-rule="evenodd" fill-opacity="1"/>
<polyline clip-path="url(#clip082)" style="stroke:#000000; stroke-linecap:round; stroke-linejoin:round; stroke-width:4; stroke-opacity:1; fill:none" points="1931.66,1342.62 1931.66,1423.18 2018.88,1423.18 2018.88,1342.62 1931.66,1342.62 "/>
<path clip-path="url(#clip082)" d="M2149.72 1417.81 L2149.72 1423.18 L2236.94 1423.18 L2236.94 1417.81 L2149.72 1417.81 L2149.72 1417.81  Z" fill="#e26f46" fill-rule="evenodd" fill-opacity="1"/>
<polyline clip-path="url(#clip082)" style="stroke:#000000; stroke-linecap:round; stroke-linejoin:round; stroke-width:4; stroke-opacity:1; fill:none" points="2149.72,1417.81 2149.72,1423.18 2236.94,1423.18 2236.94,1417.81 2149.72,1417.81 "/>
<circle clip-path="url(#clip082)" style="fill:#e26f46; stroke:none; fill-opacity:0" cx="448.876" cy="1229.83" r="2"/>
<circle clip-path="url(#clip082)" style="fill:#e26f46; stroke:none; fill-opacity:0" cx="666.933" cy="128.843" r="2"/>
<circle clip-path="url(#clip082)" style="fill:#e26f46; stroke:none; fill-opacity:0" cx="884.989" cy="123.472" r="2"/>
<circle clip-path="url(#clip082)" style="fill:#e26f46; stroke:none; fill-opacity:0" cx="1103.05" cy="359.783" r="2"/>
<circle clip-path="url(#clip082)" style="fill:#e26f46; stroke:none; fill-opacity:0" cx="1321.1" cy="810.921" r="2"/>
<circle clip-path="url(#clip082)" style="fill:#e26f46; stroke:none; fill-opacity:0" cx="1539.16" cy="1068.71" r="2"/>
<circle clip-path="url(#clip082)" style="fill:#e26f46; stroke:none; fill-opacity:0" cx="1757.22" cy="1380.21" r="2"/>
<circle clip-path="url(#clip082)" style="fill:#e26f46; stroke:none; fill-opacity:0" cx="1975.27" cy="1342.62" r="2"/>
<circle clip-path="url(#clip082)" style="fill:#e26f46; stroke:none; fill-opacity:0" cx="2193.33" cy="1417.81" r="2"/>
<path clip-path="url(#clip080)" d="M1825.79 322.316 L2281.07 322.316 L2281.07 166.796 L1825.79 166.796  Z" fill="#ffffff" fill-rule="evenodd" fill-opacity="1"/>
<polyline clip-path="url(#clip080)" style="stroke:#000000; stroke-linecap:round; stroke-linejoin:round; stroke-width:4; stroke-opacity:1; fill:none" points="1825.79,322.316 2281.07,322.316 2281.07,166.796 1825.79,166.796 1825.79,322.316 "/>
<path clip-path="url(#clip080)" d="M1849.68 239.372 L1993.05 239.372 L1993.05 197.9 L1849.68 197.9 L1849.68 239.372  Z" fill="#009af9" fill-rule="evenodd" fill-opacity="1"/>
<polyline clip-path="url(#clip080)" style="stroke:#000000; stroke-linecap:round; stroke-linejoin:round; stroke-width:4; stroke-opacity:1; fill:none" points="1849.68,239.372 1993.05,239.372 1993.05,197.9 1849.68,197.9 1849.68,239.372 "/>
<path clip-path="url(#clip080)" d="M2044.82 204.018 L2044.82 208.948 Q2042.46 206.749 2039.77 205.661 Q2037.11 204.573 2034.1 204.573 Q2028.17 204.573 2025.03 208.208 Q2021.88 211.819 2021.88 218.67 Q2021.88 225.499 2025.03 229.133 Q2028.17 232.744 2034.1 232.744 Q2037.11 232.744 2039.77 231.656 Q2042.46 230.569 2044.82 228.369 L2044.82 233.254 Q2042.36 234.92 2039.61 235.754 Q2036.88 236.587 2033.82 236.587 Q2025.97 236.587 2021.46 231.795 Q2016.95 226.981 2016.95 218.67 Q2016.95 210.337 2021.46 205.546 Q2025.97 200.731 2033.82 200.731 Q2036.92 200.731 2039.65 201.564 Q2042.41 202.374 2044.82 204.018 Z" fill="#000000" fill-rule="nonzero" fill-opacity="1" /><path clip-path="url(#clip080)" d="M2061.9 212.976 Q2058.47 212.976 2056.48 215.661 Q2054.49 218.323 2054.49 222.976 Q2054.49 227.629 2056.46 230.314 Q2058.45 232.976 2061.9 232.976 Q2065.3 232.976 2067.29 230.291 Q2069.28 227.606 2069.28 222.976 Q2069.28 218.37 2067.29 215.684 Q2065.3 212.976 2061.9 212.976 M2061.9 209.365 Q2067.46 209.365 2070.63 212.976 Q2073.8 216.587 2073.8 222.976 Q2073.8 229.342 2070.63 232.976 Q2067.46 236.587 2061.9 236.587 Q2056.32 236.587 2053.15 232.976 Q2050 229.342 2050 222.976 Q2050 216.587 2053.15 212.976 Q2056.32 209.365 2061.9 209.365 Z" fill="#000000" fill-rule="nonzero" fill-opacity="1" /><path clip-path="url(#clip080)" d="M2102.41 220.268 L2102.41 235.916 L2098.15 235.916 L2098.15 220.407 Q2098.15 216.726 2096.71 214.897 Q2095.28 213.069 2092.41 213.069 Q2088.96 213.069 2086.97 215.268 Q2084.98 217.467 2084.98 221.263 L2084.98 235.916 L2080.7 235.916 L2080.7 209.99 L2084.98 209.99 L2084.98 214.018 Q2086.51 211.68 2088.57 210.522 Q2090.65 209.365 2093.36 209.365 Q2097.83 209.365 2100.12 212.143 Q2102.41 214.897 2102.41 220.268 Z" fill="#000000" fill-rule="nonzero" fill-opacity="1" /><path clip-path="url(#clip080)" d="M2115.12 202.629 L2115.12 209.99 L2123.89 209.99 L2123.89 213.3 L2115.12 213.3 L2115.12 227.374 Q2115.12 230.545 2115.97 231.448 Q2116.85 232.351 2119.52 232.351 L2123.89 232.351 L2123.89 235.916 L2119.52 235.916 Q2114.59 235.916 2112.71 234.087 Q2110.84 232.235 2110.84 227.374 L2110.84 213.3 L2107.71 213.3 L2107.71 209.99 L2110.84 209.99 L2110.84 202.629 L2115.12 202.629 Z" fill="#000000" fill-rule="nonzero" fill-opacity="1" /><path clip-path="url(#clip080)" d="M2144.52 213.971 Q2143.8 213.555 2142.94 213.37 Q2142.11 213.161 2141.09 213.161 Q2137.48 213.161 2135.53 215.522 Q2133.61 217.86 2133.61 222.258 L2133.61 235.916 L2129.33 235.916 L2129.33 209.99 L2133.61 209.99 L2133.61 214.018 Q2134.96 211.657 2137.11 210.522 Q2139.26 209.365 2142.34 209.365 Q2142.78 209.365 2143.31 209.434 Q2143.84 209.481 2144.49 209.596 L2144.52 213.971 Z" fill="#000000" fill-rule="nonzero" fill-opacity="1" /><path clip-path="url(#clip080)" d="M2157.99 212.976 Q2154.56 212.976 2152.57 215.661 Q2150.58 218.323 2150.58 222.976 Q2150.58 227.629 2152.55 230.314 Q2154.54 232.976 2157.99 232.976 Q2161.39 232.976 2163.38 230.291 Q2165.37 227.606 2165.37 222.976 Q2165.37 218.37 2163.38 215.684 Q2161.39 212.976 2157.99 212.976 M2157.99 209.365 Q2163.54 209.365 2166.71 212.976 Q2169.89 216.587 2169.89 222.976 Q2169.89 229.342 2166.71 232.976 Q2163.54 236.587 2157.99 236.587 Q2152.41 236.587 2149.24 232.976 Q2146.09 229.342 2146.09 222.976 Q2146.09 216.587 2149.24 212.976 Q2152.41 209.365 2157.99 209.365 Z" fill="#000000" fill-rule="nonzero" fill-opacity="1" /><path clip-path="url(#clip080)" d="M2176.95 199.897 L2181.21 199.897 L2181.21 235.916 L2176.95 235.916 L2176.95 199.897 Z" fill="#000000" fill-rule="nonzero" fill-opacity="1" /><path clip-path="url(#clip080)" d="M1849.68 291.212 L1993.05 291.212 L1993.05 249.74 L1849.68 249.74 L1849.68 291.212  Z" fill="#e26f46" fill-rule="evenodd" fill-opacity="1"/>
<polyline clip-path="url(#clip080)" style="stroke:#000000; stroke-linecap:round; stroke-linejoin:round; stroke-width:4; stroke-opacity:1; fill:none" points="1849.68,291.212 1993.05,291.212 1993.05,249.74 1849.68,249.74 1849.68,291.212 "/>
<path clip-path="url(#clip080)" d="M2016.95 253.196 L2046.18 253.196 L2046.18 257.131 L2033.91 257.131 L2033.91 287.756 L2029.22 287.756 L2029.22 257.131 L2016.95 257.131 L2016.95 253.196 Z" fill="#000000" fill-rule="nonzero" fill-opacity="1" /><path clip-path="url(#clip080)" d="M2058.57 265.811 Q2057.85 265.395 2056.99 265.21 Q2056.16 265.001 2055.14 265.001 Q2051.53 265.001 2049.59 267.362 Q2047.66 269.7 2047.66 274.098 L2047.66 287.756 L2043.38 287.756 L2043.38 261.83 L2047.66 261.83 L2047.66 265.858 Q2049.01 263.497 2051.16 262.362 Q2053.31 261.205 2056.39 261.205 Q2056.83 261.205 2057.36 261.274 Q2057.9 261.321 2058.54 261.436 L2058.57 265.811 Z" fill="#000000" fill-rule="nonzero" fill-opacity="1" /><path clip-path="url(#clip080)" d="M2084.17 273.728 L2084.17 275.811 L2064.59 275.811 Q2064.86 280.209 2067.22 282.524 Q2069.61 284.816 2073.84 284.816 Q2076.3 284.816 2078.59 284.214 Q2080.9 283.612 2083.17 282.409 L2083.17 286.436 Q2080.88 287.408 2078.47 287.918 Q2076.07 288.427 2073.59 288.427 Q2067.39 288.427 2063.75 284.816 Q2060.14 281.205 2060.14 275.047 Q2060.14 268.682 2063.57 264.955 Q2067.02 261.205 2072.85 261.205 Q2078.08 261.205 2081.11 264.585 Q2084.17 267.941 2084.17 273.728 M2079.91 272.478 Q2079.86 268.983 2077.94 266.899 Q2076.04 264.816 2072.9 264.816 Q2069.33 264.816 2067.18 266.83 Q2065.05 268.844 2064.72 272.501 L2079.91 272.478 Z" fill="#000000" fill-rule="nonzero" fill-opacity="1" /><path clip-path="url(#clip080)" d="M2102.94 274.723 Q2097.78 274.723 2095.79 275.904 Q2093.8 277.084 2093.8 279.932 Q2093.8 282.2 2095.28 283.543 Q2096.78 284.862 2099.35 284.862 Q2102.9 284.862 2105.02 282.362 Q2107.18 279.839 2107.18 275.672 L2107.18 274.723 L2102.94 274.723 M2111.44 272.964 L2111.44 287.756 L2107.18 287.756 L2107.18 283.821 Q2105.72 286.182 2103.54 287.316 Q2101.37 288.427 2098.22 288.427 Q2094.24 288.427 2091.88 286.205 Q2089.54 283.959 2089.54 280.209 Q2089.54 275.834 2092.46 273.612 Q2095.4 271.39 2101.21 271.39 L2107.18 271.39 L2107.18 270.973 Q2107.18 268.034 2105.23 266.436 Q2103.31 264.816 2099.82 264.816 Q2097.59 264.816 2095.49 265.348 Q2093.38 265.881 2091.44 266.946 L2091.44 263.01 Q2093.77 262.108 2095.97 261.668 Q2098.17 261.205 2100.26 261.205 Q2105.88 261.205 2108.66 264.122 Q2111.44 267.038 2111.44 272.964 Z" fill="#000000" fill-rule="nonzero" fill-opacity="1" /><path clip-path="url(#clip080)" d="M2124.42 254.469 L2124.42 261.83 L2133.2 261.83 L2133.2 265.14 L2124.42 265.14 L2124.42 279.214 Q2124.42 282.385 2125.28 283.288 Q2126.16 284.191 2128.82 284.191 L2133.2 284.191 L2133.2 287.756 L2128.82 287.756 Q2123.89 287.756 2122.02 285.927 Q2120.14 284.075 2120.14 279.214 L2120.14 265.14 L2117.02 265.14 L2117.02 261.83 L2120.14 261.83 L2120.14 254.469 L2124.42 254.469 Z" fill="#000000" fill-rule="nonzero" fill-opacity="1" /><path clip-path="url(#clip080)" d="M2158.98 266.807 Q2160.58 263.936 2162.8 262.571 Q2165.02 261.205 2168.03 261.205 Q2172.08 261.205 2174.28 264.052 Q2176.48 266.876 2176.48 272.108 L2176.48 287.756 L2172.2 287.756 L2172.2 272.247 Q2172.2 268.52 2170.88 266.714 Q2169.56 264.909 2166.85 264.909 Q2163.54 264.909 2161.62 267.108 Q2159.7 269.307 2159.7 273.103 L2159.7 287.756 L2155.42 287.756 L2155.42 272.247 Q2155.42 268.497 2154.1 266.714 Q2152.78 264.909 2150.02 264.909 Q2146.76 264.909 2144.84 267.131 Q2142.92 269.33 2142.92 273.103 L2142.92 287.756 L2138.64 287.756 L2138.64 261.83 L2142.92 261.83 L2142.92 265.858 Q2144.38 263.473 2146.41 262.339 Q2148.45 261.205 2151.25 261.205 Q2154.08 261.205 2156.04 262.64 Q2158.03 264.075 2158.98 266.807 Z" fill="#000000" fill-rule="nonzero" fill-opacity="1" /><path clip-path="url(#clip080)" d="M2207.15 273.728 L2207.15 275.811 L2187.57 275.811 Q2187.85 280.209 2190.21 282.524 Q2192.59 284.816 2196.83 284.816 Q2199.28 284.816 2201.58 284.214 Q2203.89 283.612 2206.16 282.409 L2206.16 286.436 Q2203.87 287.408 2201.46 287.918 Q2199.05 288.427 2196.58 288.427 Q2190.37 288.427 2186.74 284.816 Q2183.13 281.205 2183.13 275.047 Q2183.13 268.682 2186.55 264.955 Q2190 261.205 2195.83 261.205 Q2201.07 261.205 2204.1 264.585 Q2207.15 267.941 2207.15 273.728 M2202.89 272.478 Q2202.85 268.983 2200.93 266.899 Q2199.03 264.816 2195.88 264.816 Q2192.32 264.816 2190.16 266.83 Q2188.03 268.844 2187.71 272.501 L2202.89 272.478 Z" fill="#000000" fill-rule="nonzero" fill-opacity="1" /><path clip-path="url(#clip080)" d="M2235.7 272.108 L2235.7 287.756 L2231.44 287.756 L2231.44 272.247 Q2231.44 268.566 2230 266.737 Q2228.57 264.909 2225.7 264.909 Q2222.25 264.909 2220.26 267.108 Q2218.27 269.307 2218.27 273.103 L2218.27 287.756 L2213.98 287.756 L2213.98 261.83 L2218.27 261.83 L2218.27 265.858 Q2219.79 263.52 2221.85 262.362 Q2223.94 261.205 2226.64 261.205 Q2231.11 261.205 2233.4 263.983 Q2235.7 266.737 2235.7 272.108 Z" fill="#000000" fill-rule="nonzero" fill-opacity="1" /><path clip-path="url(#clip080)" d="M2248.4 254.469 L2248.4 261.83 L2257.18 261.83 L2257.18 265.14 L2248.4 265.14 L2248.4 279.214 Q2248.4 282.385 2249.26 283.288 Q2250.14 284.191 2252.8 284.191 L2257.18 284.191 L2257.18 287.756 L2252.8 287.756 Q2247.87 287.756 2246 285.927 Q2244.12 284.075 2244.12 279.214 L2244.12 265.14 L2241 265.14 L2241 261.83 L2244.12 261.83 L2244.12 254.469 L2248.4 254.469 Z" fill="#000000" fill-rule="nonzero" fill-opacity="1" /></svg>