<?xml version="1.0" encoding="UTF-8"?>
<svg xmlns="http://www.w3.org/2000/svg"
     xmlns:xlink="http://www.w3.org/1999/xlink"
     xmlns:gadfly="http://www.gadflyjl.org/ns"
     version="1.2"
     width="141.42mm" height="100mm" viewBox="0 0 141.42 100"
     stroke="none"
     fill="#000000"
     stroke-width="0.3"
     font-size="3.88"
>
<defs>
  <marker id="arrow" markerWidth="15" markerHeight="7" refX="5" refY="3.5" orient="auto" markerUnits="strokeWidth">
    <path d="M0,0 L15,3.5 L0,7 z" stroke="context-stroke" fill="context-stroke"/>
  </marker>
</defs>
<g stroke="#000000" stroke-opacity="0.000" fill="#FFFFFF" id="img-1393d92f-1">
  <g transform="translate(106.07,50)">
    <path d="M-35.36,-50 L35.36,-50 35.36,50 -35.36,50  z" class="primitive"/>
  </g>
</g>
<g class="plotroot xscalable yscalable" id="img-1393d92f-2">
  <g font-size="3.88" font-family="'PT Sans','Helvetica Neue','Helvetica',sans-serif" fill="#564A55" stroke="#000000" stroke-opacity="0.000" id="img-1393d92f-3">
    <g transform="translate(112.88,88.39)">
      <g class="primitive">
        <text text-anchor="middle" dy="0.6em">Estimated Effect</text>
      </g>
    </g>
  </g>
  <g class="guide xlabels" font-size="2.82" font-family="'PT Sans Caption','Helvetica Neue','Helvetica',sans-serif" fill="#6C606B" id="img-1393d92f-4">
    <g transform="translate(91.34,81.72)">
      <g class="primitive">
        <text text-anchor="middle" dy="0.6em">8</text>
      </g>
    </g>
    <g transform="translate(102.11,81.72)">
      <g class="primitive">
        <text text-anchor="middle" dy="0.6em">9</text>
      </g>
    </g>
    <g transform="translate(112.88,81.72)">
      <g class="primitive">
        <text text-anchor="middle" dy="0.6em">10</text>
      </g>
    </g>
    <g transform="translate(123.65,81.72)">
      <g class="primitive">
        <text text-anchor="middle" dy="0.6em">11</text>
      </g>
    </g>
    <g transform="translate(134.42,81.72)">
      <g class="primitive">
        <text text-anchor="middle" dy="0.6em">12</text>
      </g>
    </g>
  </g>
  <g clip-path="url(#img-1393d92f-5)">
    <g id="img-1393d92f-6">
      <g pointer-events="visible" stroke-width="0.3" fill="#FFFFFF" stroke="#000000" stroke-opacity="0.000" class="guide background" id="img-1393d92f-7">
        <g transform="translate(112.88,45.66)" id="img-1393d92f-8">
          <path d="M-23.54,-35.05 L23.54,-35.05 23.54,35.05 -23.54,35.05  z" class="primitive"/>
        </g>
      </g>
      <g class="guide ygridlines xfixed" stroke-dasharray="0.5,0.5" stroke-width="0.2" stroke="#D0D0E0" id="img-1393d92f-9">
        <g transform="translate(112.88,78.72)" id="img-1393d92f-10">
          <path fill="none" d="M-23.54,0 L23.54,0 " class="primitive"/>
        </g>
        <g transform="translate(112.88,62.19)" id="img-1393d92f-11">
          <path fill="none" d="M-23.54,0 L23.54,0 " class="primitive"/>
        </g>
        <g transform="translate(112.88,45.66)" id="img-1393d92f-12">
          <path fill="none" d="M-23.54,0 L23.54,0 " class="primitive"/>
        </g>
        <g transform="translate(112.88,29.14)" id="img-1393d92f-13">
          <path fill="none" d="M-23.54,0 L23.54,0 " class="primitive"/>
        </g>
        <g transform="translate(112.88,12.61)" id="img-1393d92f-14">
          <path fill="none" d="M-23.54,0 L23.54,0 " class="primitive"/>
        </g>
      </g>
      <g class="guide xgridlines yfixed" stroke-dasharray="0.5,0.5" stroke-width="0.2" stroke="#D0D0E0" id="img-1393d92f-15">
        <g transform="translate(91.34,45.66)" id="img-1393d92f-16">
          <path fill="none" d="M0,-35.05 L0,35.05 " class="primitive"/>
        </g>
        <g transform="translate(102.11,45.66)" id="img-1393d92f-17">
          <path fill="none" d="M0,-35.05 L0,35.05 " class="primitive"/>
        </g>
        <g transform="translate(112.88,45.66)" id="img-1393d92f-18">
          <path fill="none" d="M0,-35.05 L0,35.05 " class="primitive"/>
        </g>
        <g transform="translate(123.65,45.66)" id="img-1393d92f-19">
          <path fill="none" d="M0,-35.05 L0,35.05 " class="primitive"/>
        </g>
        <g transform="translate(134.42,45.66)" id="img-1393d92f-20">
          <path fill="none" d="M0,-35.05 L0,35.05 " class="primitive"/>
        </g>
      </g>
      <g class="plotpanel" id="img-1393d92f-21">
        <metadata>
          <boundingbox value="89.34234478532142mm 10.611666666666665mm 47.07901145198809mm 70.10333333333334mm"/>
          <unitbox value="7.814294717302971 2.0605113206595735 4.371410565394058 -2.1210226413191466"/>
        </metadata>
        <g shape-rendering="crispEdges" stroke-width="0.3" id="img-1393d92f-22">
          <g class="geometry" fill-opacity="1" stroke="#000000" stroke-opacity="0.000" fill="#ADD8E6" id="img-1393d92f-23">
            <g transform="translate(92.42,78.72)" id="img-1393d92f-24">
              <path d="M-1.1,-0 L1.1,-0 1.1,0 -1.1,0  z" class="primitive"/>
            </g>
            <g transform="translate(94.57,78.72)" id="img-1393d92f-25">
              <path d="M-1.1,-0 L1.1,-0 1.1,0 -1.1,0  z" class="primitive"/>
            </g>
            <g transform="translate(96.73,78.72)" id="img-1393d92f-26">
              <path d="M-1.1,-0 L1.1,-0 1.1,0 -1.1,0  z" class="primitive"/>
            </g>
            <g transform="translate(98.88,78.72)" id="img-1393d92f-27">
              <path d="M-1.1,-0 L1.1,-0 1.1,0 -1.1,0  z" class="primitive"/>
            </g>
            <g transform="translate(101.04,78.72)" id="img-1393d92f-28">
              <path d="M-1.1,-0 L1.1,-0 1.1,0 -1.1,0  z" class="primitive"/>
            </g>
            <g transform="translate(103.19,78.72)" id="img-1393d92f-29">
              <path d="M-1.1,-0 L1.1,-0 1.1,0 -1.1,0  z" class="primitive"/>
            </g>
            <g transform="translate(105.34,78.72)" id="img-1393d92f-30">
              <path d="M-1.1,-0 L1.1,-0 1.1,0 -1.1,0  z" class="primitive"/>
            </g>
            <g transform="translate(107.5,78.72)" id="img-1393d92f-31">
              <path d="M-1.1,-0 L1.1,-0 1.1,0 -1.1,0  z" class="primitive"/>
            </g>
            <g transform="translate(109.65,78.72)" id="img-1393d92f-32">
              <path d="M-1.1,-0 L1.1,-0 1.1,0 -1.1,0  z" class="primitive"/>
            </g>
            <g transform="translate(111.8,78.72)" id="img-1393d92f-33">
              <path d="M-1.1,-0 L1.1,-0 1.1,0 -1.1,0  z" class="primitive"/>
            </g>
            <g transform="translate(113.96,78.72)" id="img-1393d92f-34">
              <path d="M-1.1,-0 L1.1,-0 1.1,0 -1.1,0  z" class="primitive"/>
            </g>
            <g transform="translate(116.11,77.56)" id="img-1393d92f-35">
              <path d="M-1.1,-1.16 L1.1,-1.16 1.1,1.16 -1.1,1.16  z" class="primitive"/>
            </g>
            <g transform="translate(118.27,45.75)" id="img-1393d92f-36">
              <path d="M-1.1,-32.97 L1.1,-32.97 1.1,32.97 -1.1,32.97  z" class="primitive"/>
            </g>
            <g transform="translate(120.42,60.78)" id="img-1393d92f-37">
              <path d="M-1.1,-17.93 L1.1,-17.93 1.1,17.93 -1.1,17.93  z" class="primitive"/>
            </g>
            <g transform="translate(122.57,48.8)" id="img-1393d92f-38">
              <path d="M-1.1,-29.91 L1.1,-29.91 1.1,29.91 -1.1,29.91  z" class="primitive"/>
            </g>
            <g transform="translate(124.73,78.05)" id="img-1393d92f-39">
              <path d="M-1.1,-0.66 L1.1,-0.66 1.1,0.66 -1.1,0.66  z" class="primitive"/>
            </g>
            <g transform="translate(126.88,78.72)" id="img-1393d92f-40">
              <path d="M-1.1,-0 L1.1,-0 1.1,0 -1.1,0  z" class="primitive"/>
            </g>
            <g transform="translate(129.04,78.72)" id="img-1393d92f-41">
              <path d="M-1.1,-0 L1.1,-0 1.1,0 -1.1,0  z" class="primitive"/>
            </g>
            <g transform="translate(131.19,78.72)" id="img-1393d92f-42">
              <path d="M-1.1,-0 L1.1,-0 1.1,0 -1.1,0  z" class="primitive"/>
            </g>
            <g transform="translate(133.34,78.72)" id="img-1393d92f-43">
              <path d="M-1.1,-0 L1.1,-0 1.1,0 -1.1,0  z" class="primitive"/>
            </g>
          </g>
        </g>
      </g>
    </g>
  </g>
  <g class="guide ylabels" font-size="2.82" font-family="'PT Sans Caption','Helvetica Neue','Helvetica',sans-serif" fill="#6C606B" id="img-1393d92f-44">
    <g transform="translate(88.34,78.72)" id="img-1393d92f-45">
      <g class="primitive">
        <text text-anchor="end" dy="0.35em">0.0</text>
      </g>
    </g>
    <g transform="translate(88.34,62.19)" id="img-1393d92f-46">
      <g class="primitive">
        <text text-anchor="end" dy="0.35em">0.5</text>
      </g>
    </g>
    <g transform="translate(88.34,45.66)" id="img-1393d92f-47">
      <g class="primitive">
        <text text-anchor="end" dy="0.35em">1.0</text>
      </g>
    </g>
    <g transform="translate(88.34,29.14)" id="img-1393d92f-48">
      <g class="primitive">
        <text text-anchor="end" dy="0.35em">1.5</text>
      </g>
    </g>
    <g transform="translate(88.34,12.61)" id="img-1393d92f-49">
      <g class="primitive">
        <text text-anchor="end" dy="0.35em">2.0</text>
      </g>
    </g>
  </g>
  <g font-size="3.88" font-family="'PT Sans','Helvetica Neue','Helvetica',sans-serif" fill="#564A55" stroke="#000000" stroke-opacity="0.000" id="img-1393d92f-50">
    <g transform="translate(79.52,43.66)" id="img-1393d92f-51">
      <g class="primitive">
        <text text-anchor="middle" dy="0.35em" transform="rotate(-90,0, 2)">Density</text>
      </g>
    </g>
  </g>
  <g font-size="3.88" font-family="'PT Sans','Helvetica Neue','Helvetica',sans-serif" fill="#564A55" stroke="#000000" stroke-opacity="0.000" id="img-1393d92f-52">
    <g transform="translate(112.88,5)" id="img-1393d92f-53">
      <g class="primitive">
        <text text-anchor="middle" dy="0.6em">Naive estimation</text>
      </g>
    </g>
  </g>
</g>
<g stroke="#000000" stroke-opacity="0.000" fill="#FFFFFF" id="img-1393d92f-54">
  <g transform="translate(35.36,50)" id="img-1393d92f-55">
    <path d="M-35.36,-50 L35.36,-50 35.36,50 -35.36,50  z" class="primitive"/>
  </g>
</g>
<g class="plotroot xscalable yscalable" id="img-1393d92f-56">
  <g font-size="3.88" font-family="'PT Sans','Helvetica Neue','Helvetica',sans-serif" fill="#564A55" stroke="#000000" stroke-opacity="0.000" id="img-1393d92f-57">
    <g transform="translate(42.17,88.39)" id="img-1393d92f-58">
      <g class="primitive">
        <text text-anchor="middle" dy="0.6em">Estimated Effect</text>
      </g>
    </g>
  </g>
  <g class="guide xlabels" font-size="2.82" font-family="'PT Sans Caption','Helvetica Neue','Helvetica',sans-serif" fill="#6C606B" id="img-1393d92f-59">
    <g transform="translate(20.63,81.72)" id="img-1393d92f-60">
      <g class="primitive">
        <text text-anchor="middle" dy="0.6em">8</text>
      </g>
    </g>
    <g transform="translate(31.4,81.72)" id="img-1393d92f-61">
      <g class="primitive">
        <text text-anchor="middle" dy="0.6em">9</text>
      </g>
    </g>
    <g transform="translate(42.17,81.72)" id="img-1393d92f-62">
      <g class="primitive">
        <text text-anchor="middle" dy="0.6em">10</text>
      </g>
    </g>
    <g transform="translate(52.94,81.72)" id="img-1393d92f-63">
      <g class="primitive">
        <text text-anchor="middle" dy="0.6em">11</text>
      </g>
    </g>
    <g transform="translate(63.71,81.72)" id="img-1393d92f-64">
      <g class="primitive">
        <text text-anchor="middle" dy="0.6em">12</text>
      </g>
    </g>
  </g>
  <g clip-path="url(#img-1393d92f-65)">
    <g id="img-1393d92f-66">
      <g pointer-events="visible" stroke-width="0.3" fill="#FFFFFF" stroke="#000000" stroke-opacity="0.000" class="guide background" id="img-1393d92f-67">
        <g transform="translate(42.17,45.66)" id="img-1393d92f-68">
          <path d="M-23.54,-35.05 L23.54,-35.05 23.54,35.05 -23.54,35.05  z" class="primitive"/>
        </g>
      </g>
      <g class="guide ygridlines xfixed" stroke-dasharray="0.5,0.5" stroke-width="0.2" stroke="#D0D0E0" id="img-1393d92f-69">
        <g transform="translate(42.17,78.72)" id="img-1393d92f-70">
          <path fill="none" d="M-23.54,0 L23.54,0 " class="primitive"/>
        </g>
        <g transform="translate(42.17,65.49)" id="img-1393d92f-71">
          <path fill="none" d="M-23.54,0 L23.54,0 " class="primitive"/>
        </g>
        <g transform="translate(42.17,52.27)" id="img-1393d92f-72">
          <path fill="none" d="M-23.54,0 L23.54,0 " class="primitive"/>
        </g>
        <g transform="translate(42.17,39.05)" id="img-1393d92f-73">
          <path fill="none" d="M-23.54,0 L23.54,0 " class="primitive"/>
        </g>
        <g transform="translate(42.17,25.83)" id="img-1393d92f-74">
          <path fill="none" d="M-23.54,0 L23.54,0 " class="primitive"/>
        </g>
        <g transform="translate(42.17,12.61)" id="img-1393d92f-75">
          <path fill="none" d="M-23.54,0 L23.54,0 " class="primitive"/>
        </g>
      </g>
      <g class="guide xgridlines yfixed" stroke-dasharray="0.5,0.5" stroke-width="0.2" stroke="#D0D0E0" id="img-1393d92f-76">
        <g transform="translate(20.63,45.66)" id="img-1393d92f-77">
          <path fill="none" d="M0,-35.05 L0,35.05 " class="primitive"/>
        </g>
        <g transform="translate(31.4,45.66)" id="img-1393d92f-78">
          <path fill="none" d="M0,-35.05 L0,35.05 " class="primitive"/>
        </g>
        <g transform="translate(42.17,45.66)" id="img-1393d92f-79">
          <path fill="none" d="M0,-35.05 L0,35.05 " class="primitive"/>
        </g>
        <g transform="translate(52.94,45.66)" id="img-1393d92f-80">
          <path fill="none" d="M0,-35.05 L0,35.05 " class="primitive"/>
        </g>
        <g transform="translate(63.71,45.66)" id="img-1393d92f-81">
          <path fill="none" d="M0,-35.05 L0,35.05 " class="primitive"/>
        </g>
      </g>
      <g class="plotpanel" id="img-1393d92f-82">
        <metadata>
          <boundingbox value="18.631666666666668mm 10.611666666666665mm 47.07901145198809mm 70.10333333333334mm"/>
          <unitbox value="7.814294717302971 2.575639150824467 4.371410565394058 -2.6512783016489334"/>
        </metadata>
        <g shape-rendering="crispEdges" stroke-width="0.3" id="img-1393d92f-83">
          <g class="geometry" fill-opacity="1" stroke="#000000" stroke-opacity="0.000" fill="#ADD8E6" id="img-1393d92f-84">
            <g transform="translate(21.71,78.72)" id="img-1393d92f-85">
              <path d="M-1.1,-0 L1.1,-0 1.1,0 -1.1,0  z" class="primitive"/>
            </g>
            <g transform="translate(23.86,78.72)" id="img-1393d92f-86">
              <path d="M-1.1,-0 L1.1,-0 1.1,0 -1.1,0  z" class="primitive"/>
            </g>
            <g transform="translate(26.02,78.72)" id="img-1393d92f-87">
              <path d="M-1.1,-0 L1.1,-0 1.1,0 -1.1,0  z" class="primitive"/>
            </g>
            <g transform="translate(28.17,78.72)" id="img-1393d92f-88">
              <path d="M-1.1,-0 L1.1,-0 1.1,0 -1.1,0  z" class="primitive"/>
            </g>
            <g transform="translate(30.32,78.72)" id="img-1393d92f-89">
              <path d="M-1.1,-0 L1.1,-0 1.1,0 -1.1,0  z" class="primitive"/>
            </g>
            <g transform="translate(32.48,78.72)" id="img-1393d92f-90">
              <path d="M-1.1,-0 L1.1,-0 1.1,0 -1.1,0  z" class="primitive"/>
            </g>
            <g transform="translate(34.63,78.65)" id="img-1393d92f-91">
              <path d="M-1.1,-0.07 L1.1,-0.07 1.1,0.07 -1.1,0.07  z" class="primitive"/>
            </g>
            <g transform="translate(36.79,78.45)" id="img-1393d92f-92">
              <path d="M-1.1,-0.26 L1.1,-0.26 1.1,0.26 -1.1,0.26  z" class="primitive"/>
            </g>
            <g transform="translate(38.94,74.09)" id="img-1393d92f-93">
              <path d="M-1.1,-4.63 L1.1,-4.63 1.1,4.63 -1.1,4.63  z" class="primitive"/>
            </g>
            <g transform="translate(41.09,53)" id="img-1393d92f-94">
              <path d="M-1.1,-25.71 L1.1,-25.71 1.1,25.71 -1.1,25.71  z" class="primitive"/>
            </g>
            <g transform="translate(43.25,48.97)" id="img-1393d92f-95">
              <path d="M-1.1,-29.75 L1.1,-29.75 1.1,29.75 -1.1,29.75  z" class="primitive"/>
            </g>
            <g transform="translate(45.4,73.16)" id="img-1393d92f-96">
              <path d="M-1.1,-5.55 L1.1,-5.55 1.1,5.55 -1.1,5.55  z" class="primitive"/>
            </g>
            <g transform="translate(47.56,78.58)" id="img-1393d92f-97">
              <path d="M-1.1,-0.13 L1.1,-0.13 1.1,0.13 -1.1,0.13  z" class="primitive"/>
            </g>
            <g transform="translate(49.71,78.72)" id="img-1393d92f-98">
              <path d="M-1.1,-0 L1.1,-0 1.1,0 -1.1,0  z" class="primitive"/>
            </g>
            <g transform="translate(51.86,78.72)" id="img-1393d92f-99">
              <path d="M-1.1,-0 L1.1,-0 1.1,0 -1.1,0  z" class="primitive"/>
            </g>
            <g transform="translate(54.02,78.72)" id="img-1393d92f-100">
              <path d="M-1.1,-0 L1.1,-0 1.1,0 -1.1,0  z" class="primitive"/>
            </g>
            <g transform="translate(56.17,78.72)" id="img-1393d92f-101">
              <path d="M-1.1,-0 L1.1,-0 1.1,0 -1.1,0  z" class="primitive"/>
            </g>
            <g transform="translate(58.33,78.72)" id="img-1393d92f-102">
              <path d="M-1.1,-0 L1.1,-0 1.1,0 -1.1,0  z" class="primitive"/>
            </g>
            <g transform="translate(60.48,78.72)" id="img-1393d92f-103">
              <path d="M-1.1,-0 L1.1,-0 1.1,0 -1.1,0  z" class="primitive"/>
            </g>
            <g transform="translate(62.63,78.72)" id="img-1393d92f-104">
              <path d="M-1.1,-0 L1.1,-0 1.1,0 -1.1,0  z" class="primitive"/>
            </g>
          </g>
        </g>
      </g>
    </g>
  </g>
  <g class="guide ylabels" font-size="2.82" font-family="'PT Sans Caption','Helvetica Neue','Helvetica',sans-serif" fill="#6C606B" id="img-1393d92f-105">
    <g transform="translate(17.63,78.72)" id="img-1393d92f-106">
      <g class="primitive">
        <text text-anchor="end" dy="0.35em">0.0</text>
      </g>
    </g>
    <g transform="translate(17.63,65.49)" id="img-1393d92f-107">
      <g class="primitive">
        <text text-anchor="end" dy="0.35em">0.5</text>
      </g>
    </g>
    <g transform="translate(17.63,52.27)" id="img-1393d92f-108">
      <g class="primitive">
        <text text-anchor="end" dy="0.35em">1.0</text>
      </g>
    </g>
    <g transform="translate(17.63,39.05)" id="img-1393d92f-109">
      <g class="primitive">
        <text text-anchor="end" dy="0.35em">1.5</text>
      </g>
    </g>
    <g transform="translate(17.63,25.83)" id="img-1393d92f-110">
      <g class="primitive">
        <text text-anchor="end" dy="0.35em">2.0</text>
      </g>
    </g>
    <g transform="translate(17.63,12.61)" id="img-1393d92f-111">
      <g class="primitive">
        <text text-anchor="end" dy="0.35em">2.5</text>
      </g>
    </g>
  </g>
  <g font-size="3.88" font-family="'PT Sans','Helvetica Neue','Helvetica',sans-serif" fill="#564A55" stroke="#000000" stroke-opacity="0.000" id="img-1393d92f-112">
    <g transform="translate(8.81,43.66)" id="img-1393d92f-113">
      <g class="primitive">
        <text text-anchor="middle" dy="0.35em" transform="rotate(-90,0, 2)">Density</text>
      </g>
    </g>
  </g>
  <g font-size="3.88" font-family="'PT Sans','Helvetica Neue','Helvetica',sans-serif" fill="#564A55" stroke="#000000" stroke-opacity="0.000" id="img-1393d92f-114">
    <g transform="translate(42.17,5)" id="img-1393d92f-115">
      <g class="primitive">
        <text text-anchor="middle" dy="0.6em">Orthogonal estimation</text>
      </g>
    </g>
  </g>
</g>
<defs>
  <clipPath id="img-1393d92f-5">
    <path d="M89.34,10.61 L136.42,10.61 136.42,80.72 89.34,80.72 " />
  </clipPath>
  <clipPath id="img-1393d92f-65">
    <path d="M18.63,10.61 L65.71,10.61 65.71,80.72 18.63,80.72 " />
  </clipPath>
</defs>
</svg>