<?xml version="1.0" encoding="utf-8"?>
<svg xmlns="http://www.w3.org/2000/svg" xmlns:xlink="http://www.w3.org/1999/xlink" width="600" height="400" viewBox="0 0 2400 1600">
<defs>
  <clipPath id="clip480">
    <rect x="0" y="0" width="2400" height="1600"/>
  </clipPath>
</defs>
<path clip-path="url(#clip480)" d="M0 1600 L2400 1600 L2400 0 L0 0  Z" fill="#ffffff" fill-rule="evenodd" fill-opacity="1"/>
<defs>
  <clipPath id="clip481">
    <rect x="480" y="0" width="1681" height="1600"/>
  </clipPath>
</defs>
<path clip-path="url(#clip480)" d="M184.191 1486.45 L2352.76 1486.45 L2352.76 123.472 L184.191 123.472  Z" fill="#ffffff" fill-rule="evenodd" fill-opacity="1"/>
<defs>
  <clipPath id="clip482">
    <rect x="184" y="123" width="2170" height="1364"/>
  </clipPath>
</defs>
<polyline clip-path="url(#clip482)" style="stroke:#000000; stroke-linecap:round; stroke-linejoin:round; stroke-width:2; stroke-opacity:0.1; fill:none" points="303.466,1486.45 303.466,123.472 "/>
<polyline clip-path="url(#clip482)" style="stroke:#000000; stroke-linecap:round; stroke-linejoin:round; stroke-width:2; stroke-opacity:0.1; fill:none" points="674.622,1486.45 674.622,123.472 "/>
<polyline clip-path="url(#clip482)" style="stroke:#000000; stroke-linecap:round; stroke-linejoin:round; stroke-width:2; stroke-opacity:0.1; fill:none" points="1045.78,1486.45 1045.78,123.472 "/>
<polyline clip-path="url(#clip482)" style="stroke:#000000; stroke-linecap:round; stroke-linejoin:round; stroke-width:2; stroke-opacity:0.1; fill:none" points="1416.94,1486.45 1416.94,123.472 "/>
<polyline clip-path="url(#clip482)" style="stroke:#000000; stroke-linecap:round; stroke-linejoin:round; stroke-width:2; stroke-opacity:0.1; fill:none" points="1788.09,1486.45 1788.09,123.472 "/>
<polyline clip-path="url(#clip482)" style="stroke:#000000; stroke-linecap:round; stroke-linejoin:round; stroke-width:2; stroke-opacity:0.1; fill:none" points="2159.25,1486.45 2159.25,123.472 "/>
<polyline clip-path="url(#clip480)" style="stroke:#000000; stroke-linecap:round; stroke-linejoin:round; stroke-width:4; stroke-opacity:1; fill:none" points="184.191,1486.45 2352.76,1486.45 "/>
<polyline clip-path="url(#clip480)" style="stroke:#000000; stroke-linecap:round; stroke-linejoin:round; stroke-width:4; stroke-opacity:1; fill:none" points="303.466,1486.45 303.466,1467.55 "/>
<polyline clip-path="url(#clip480)" style="stroke:#000000; stroke-linecap:round; stroke-linejoin:round; stroke-width:4; stroke-opacity:1; fill:none" points="674.622,1486.45 674.622,1467.55 "/>
<polyline clip-path="url(#clip480)" style="stroke:#000000; stroke-linecap:round; stroke-linejoin:round; stroke-width:4; stroke-opacity:1; fill:none" points="1045.78,1486.45 1045.78,1467.55 "/>
<polyline clip-path="url(#clip480)" style="stroke:#000000; stroke-linecap:round; stroke-linejoin:round; stroke-width:4; stroke-opacity:1; fill:none" points="1416.94,1486.45 1416.94,1467.55 "/>
<polyline clip-path="url(#clip480)" style="stroke:#000000; stroke-linecap:round; stroke-linejoin:round; stroke-width:4; stroke-opacity:1; fill:none" points="1788.09,1486.45 1788.09,1467.55 "/>
<polyline clip-path="url(#clip480)" style="stroke:#000000; stroke-linecap:round; stroke-linejoin:round; stroke-width:4; stroke-opacity:1; fill:none" points="2159.25,1486.45 2159.25,1467.55 "/>
<path clip-path="url(#clip480)" d="M265.769 1517.37 Q262.158 1517.37 260.329 1520.93 Q258.524 1524.47 258.524 1531.6 Q258.524 1538.71 260.329 1542.27 Q262.158 1545.82 265.769 1545.82 Q269.403 1545.82 271.209 1542.27 Q273.038 1538.71 273.038 1531.6 Q273.038 1524.47 271.209 1520.93 Q269.403 1517.37 265.769 1517.37 M265.769 1513.66 Q271.579 1513.66 274.635 1518.27 Q277.713 1522.85 277.713 1531.6 Q277.713 1540.33 274.635 1544.94 Q271.579 1549.52 265.769 1549.52 Q259.959 1549.52 256.88 1544.94 Q253.825 1540.33 253.825 1531.6 Q253.825 1522.85 256.88 1518.27 Q259.959 1513.66 265.769 1513.66 Z" fill="#000000" fill-rule="nonzero" fill-opacity="1" /><path clip-path="url(#clip480)" d="M285.931 1542.97 L290.815 1542.97 L290.815 1548.85 L285.931 1548.85 L285.931 1542.97 Z" fill="#000000" fill-rule="nonzero" fill-opacity="1" /><path clip-path="url(#clip480)" d="M311 1517.37 Q307.389 1517.37 305.561 1520.93 Q303.755 1524.47 303.755 1531.6 Q303.755 1538.71 305.561 1542.27 Q307.389 1545.82 311 1545.82 Q314.635 1545.82 316.44 1542.27 Q318.269 1538.71 318.269 1531.6 Q318.269 1524.47 316.44 1520.93 Q314.635 1517.37 311 1517.37 M311 1513.66 Q316.81 1513.66 319.866 1518.27 Q322.945 1522.85 322.945 1531.6 Q322.945 1540.33 319.866 1544.94 Q316.81 1549.52 311 1549.52 Q305.19 1549.52 302.111 1544.94 Q299.056 1540.33 299.056 1531.6 Q299.056 1522.85 302.111 1518.27 Q305.19 1513.66 311 1513.66 Z" fill="#000000" fill-rule="nonzero" fill-opacity="1" /><path clip-path="url(#clip480)" d="M341.162 1517.37 Q337.551 1517.37 335.722 1520.93 Q333.917 1524.47 333.917 1531.6 Q333.917 1538.71 335.722 1542.27 Q337.551 1545.82 341.162 1545.82 Q344.796 1545.82 346.602 1542.27 Q348.431 1538.71 348.431 1531.6 Q348.431 1524.47 346.602 1520.93 Q344.796 1517.37 341.162 1517.37 M341.162 1513.66 Q346.972 1513.66 350.028 1518.27 Q353.107 1522.85 353.107 1531.6 Q353.107 1540.33 350.028 1544.94 Q346.972 1549.52 341.162 1549.52 Q335.352 1549.52 332.273 1544.94 Q329.218 1540.33 329.218 1531.6 Q329.218 1522.85 332.273 1518.27 Q335.352 1513.66 341.162 1513.66 Z" fill="#000000" fill-rule="nonzero" fill-opacity="1" /><path clip-path="url(#clip480)" d="M637.424 1517.37 Q633.812 1517.37 631.984 1520.93 Q630.178 1524.47 630.178 1531.6 Q630.178 1538.71 631.984 1542.27 Q633.812 1545.82 637.424 1545.82 Q641.058 1545.82 642.863 1542.27 Q644.692 1538.71 644.692 1531.6 Q644.692 1524.47 642.863 1520.93 Q641.058 1517.37 637.424 1517.37 M637.424 1513.66 Q643.234 1513.66 646.289 1518.27 Q649.368 1522.85 649.368 1531.6 Q649.368 1540.33 646.289 1544.94 Q643.234 1549.52 637.424 1549.52 Q631.613 1549.52 628.535 1544.94 Q625.479 1540.33 625.479 1531.6 Q625.479 1522.85 628.535 1518.27 Q631.613 1513.66 637.424 1513.66 Z" fill="#000000" fill-rule="nonzero" fill-opacity="1" /><path clip-path="url(#clip480)" d="M657.585 1542.97 L662.47 1542.97 L662.47 1548.85 L657.585 1548.85 L657.585 1542.97 Z" fill="#000000" fill-rule="nonzero" fill-opacity="1" /><path clip-path="url(#clip480)" d="M682.655 1517.37 Q679.044 1517.37 677.215 1520.93 Q675.409 1524.47 675.409 1531.6 Q675.409 1538.71 677.215 1542.27 Q679.044 1545.82 682.655 1545.82 Q686.289 1545.82 688.095 1542.27 Q689.923 1538.71 689.923 1531.6 Q689.923 1524.47 688.095 1520.93 Q686.289 1517.37 682.655 1517.37 M682.655 1513.66 Q688.465 1513.66 691.52 1518.27 Q694.599 1522.85 694.599 1531.6 Q694.599 1540.33 691.52 1544.94 Q688.465 1549.52 682.655 1549.52 Q676.845 1549.52 673.766 1544.94 Q670.71 1540.33 670.71 1531.6 Q670.71 1522.85 673.766 1518.27 Q676.845 1513.66 682.655 1513.66 Z" fill="#000000" fill-rule="nonzero" fill-opacity="1" /><path clip-path="url(#clip480)" d="M702.863 1514.29 L721.219 1514.29 L721.219 1518.22 L707.145 1518.22 L707.145 1526.7 Q708.164 1526.35 709.182 1526.19 Q710.201 1526 711.219 1526 Q717.006 1526 720.386 1529.17 Q723.766 1532.34 723.766 1537.76 Q723.766 1543.34 720.293 1546.44 Q716.821 1549.52 710.502 1549.52 Q708.326 1549.52 706.057 1549.15 Q703.812 1548.78 701.405 1548.04 L701.405 1543.34 Q703.488 1544.47 705.71 1545.03 Q707.932 1545.58 710.409 1545.58 Q714.414 1545.58 716.752 1543.48 Q719.09 1541.37 719.09 1537.76 Q719.09 1534.15 716.752 1532.04 Q714.414 1529.94 710.409 1529.94 Q708.534 1529.94 706.659 1530.35 Q704.807 1530.77 702.863 1531.65 L702.863 1514.29 Z" fill="#000000" fill-rule="nonzero" fill-opacity="1" /><path clip-path="url(#clip480)" d="M1008.08 1517.37 Q1004.47 1517.37 1002.64 1520.93 Q1000.84 1524.47 1000.84 1531.6 Q1000.84 1538.71 1002.64 1542.27 Q1004.47 1545.82 1008.08 1545.82 Q1011.72 1545.82 1013.52 1542.27 Q1015.35 1538.71 1015.35 1531.6 Q1015.35 1524.47 1013.52 1520.93 Q1011.72 1517.37 1008.08 1517.37 M1008.08 1513.66 Q1013.89 1513.66 1016.95 1518.27 Q1020.03 1522.85 1020.03 1531.6 Q1020.03 1540.33 1016.95 1544.94 Q1013.89 1549.52 1008.08 1549.52 Q1002.27 1549.52 999.194 1544.94 Q996.138 1540.33 996.138 1531.6 Q996.138 1522.85 999.194 1518.27 Q1002.27 1513.66 1008.08 1513.66 Z" fill="#000000" fill-rule="nonzero" fill-opacity="1" /><path clip-path="url(#clip480)" d="M1028.24 1542.97 L1033.13 1542.97 L1033.13 1548.85 L1028.24 1548.85 L1028.24 1542.97 Z" fill="#000000" fill-rule="nonzero" fill-opacity="1" /><path clip-path="url(#clip480)" d="M1044.12 1544.91 L1051.76 1544.91 L1051.76 1518.55 L1043.45 1520.21 L1043.45 1515.95 L1051.72 1514.29 L1056.39 1514.29 L1056.39 1544.91 L1064.03 1544.91 L1064.03 1548.85 L1044.12 1548.85 L1044.12 1544.91 Z" fill="#000000" fill-rule="nonzero" fill-opacity="1" /><path clip-path="url(#clip480)" d="M1083.48 1517.37 Q1079.86 1517.37 1078.04 1520.93 Q1076.23 1524.47 1076.23 1531.6 Q1076.23 1538.71 1078.04 1542.27 Q1079.86 1545.82 1083.48 1545.82 Q1087.11 1545.82 1088.92 1542.27 Q1090.74 1538.71 1090.74 1531.6 Q1090.74 1524.47 1088.92 1520.93 Q1087.11 1517.37 1083.48 1517.37 M1083.48 1513.66 Q1089.29 1513.66 1092.34 1518.27 Q1095.42 1522.85 1095.42 1531.6 Q1095.42 1540.33 1092.34 1544.94 Q1089.29 1549.52 1083.48 1549.52 Q1077.67 1549.52 1074.59 1544.94 Q1071.53 1540.33 1071.53 1531.6 Q1071.53 1522.85 1074.59 1518.27 Q1077.67 1513.66 1083.48 1513.66 Z" fill="#000000" fill-rule="nonzero" fill-opacity="1" /><path clip-path="url(#clip480)" d="M1379.74 1517.37 Q1376.13 1517.37 1374.3 1520.93 Q1372.49 1524.47 1372.49 1531.6 Q1372.49 1538.71 1374.3 1542.27 Q1376.13 1545.82 1379.74 1545.82 Q1383.37 1545.82 1385.18 1542.27 Q1387.01 1538.71 1387.01 1531.6 Q1387.01 1524.47 1385.18 1520.93 Q1383.37 1517.37 1379.74 1517.37 M1379.74 1513.66 Q1385.55 1513.66 1388.6 1518.27 Q1391.68 1522.85 1391.68 1531.6 Q1391.68 1540.33 1388.6 1544.94 Q1385.55 1549.52 1379.74 1549.52 Q1373.93 1549.52 1370.85 1544.94 Q1367.79 1540.33 1367.79 1531.6 Q1367.79 1522.85 1370.85 1518.27 Q1373.93 1513.66 1379.74 1513.66 Z" fill="#000000" fill-rule="nonzero" fill-opacity="1" /><path clip-path="url(#clip480)" d="M1399.9 1542.97 L1404.78 1542.97 L1404.78 1548.85 L1399.9 1548.85 L1399.9 1542.97 Z" fill="#000000" fill-rule="nonzero" fill-opacity="1" /><path clip-path="url(#clip480)" d="M1415.78 1544.91 L1423.42 1544.91 L1423.42 1518.55 L1415.11 1520.21 L1415.11 1515.95 L1423.37 1514.29 L1428.05 1514.29 L1428.05 1544.91 L1435.69 1544.91 L1435.69 1548.85 L1415.78 1548.85 L1415.78 1544.91 Z" fill="#000000" fill-rule="nonzero" fill-opacity="1" /><path clip-path="url(#clip480)" d="M1445.18 1514.29 L1463.53 1514.29 L1463.53 1518.22 L1449.46 1518.22 L1449.46 1526.7 Q1450.48 1526.35 1451.5 1526.19 Q1452.51 1526 1453.53 1526 Q1459.32 1526 1462.7 1529.17 Q1466.08 1532.34 1466.08 1537.76 Q1466.08 1543.34 1462.61 1546.44 Q1459.13 1549.52 1452.82 1549.52 Q1450.64 1549.52 1448.37 1549.15 Q1446.13 1548.78 1443.72 1548.04 L1443.72 1543.34 Q1445.8 1544.47 1448.02 1545.03 Q1450.25 1545.58 1452.72 1545.58 Q1456.73 1545.58 1459.07 1543.48 Q1461.4 1541.37 1461.4 1537.76 Q1461.4 1534.15 1459.07 1532.04 Q1456.73 1529.94 1452.72 1529.94 Q1450.85 1529.94 1448.97 1530.35 Q1447.12 1530.77 1445.18 1531.65 L1445.18 1514.29 Z" fill="#000000" fill-rule="nonzero" fill-opacity="1" /><path clip-path="url(#clip480)" d="M1750.4 1517.37 Q1746.79 1517.37 1744.96 1520.93 Q1743.15 1524.47 1743.15 1531.6 Q1743.15 1538.71 1744.96 1542.27 Q1746.79 1545.82 1750.4 1545.82 Q1754.03 1545.82 1755.84 1542.27 Q1757.66 1538.71 1757.66 1531.6 Q1757.66 1524.47 1755.84 1520.93 Q1754.03 1517.37 1750.4 1517.37 M1750.4 1513.66 Q1756.21 1513.66 1759.26 1518.27 Q1762.34 1522.85 1762.34 1531.6 Q1762.34 1540.33 1759.26 1544.94 Q1756.21 1549.52 1750.4 1549.52 Q1744.59 1549.52 1741.51 1544.94 Q1738.45 1540.33 1738.45 1531.6 Q1738.45 1522.85 1741.51 1518.27 Q1744.59 1513.66 1750.4 1513.66 Z" fill="#000000" fill-rule="nonzero" fill-opacity="1" /><path clip-path="url(#clip480)" d="M1770.56 1542.97 L1775.44 1542.97 L1775.44 1548.85 L1770.56 1548.85 L1770.56 1542.97 Z" fill="#000000" fill-rule="nonzero" fill-opacity="1" /><path clip-path="url(#clip480)" d="M1789.66 1544.91 L1805.97 1544.91 L1805.97 1548.85 L1784.03 1548.85 L1784.03 1544.91 Q1786.69 1542.16 1791.28 1537.53 Q1795.88 1532.88 1797.06 1531.53 Q1799.31 1529.01 1800.19 1527.27 Q1801.09 1525.51 1801.09 1523.82 Q1801.09 1521.07 1799.15 1519.33 Q1797.22 1517.6 1794.12 1517.6 Q1791.92 1517.6 1789.47 1518.36 Q1787.04 1519.13 1784.26 1520.68 L1784.26 1515.95 Q1787.09 1514.82 1789.54 1514.24 Q1791.99 1513.66 1794.03 1513.66 Q1799.4 1513.66 1802.6 1516.35 Q1805.79 1519.03 1805.79 1523.52 Q1805.79 1525.65 1804.98 1527.57 Q1804.19 1529.47 1802.09 1532.07 Q1801.51 1532.74 1798.41 1535.95 Q1795.3 1539.15 1789.66 1544.91 Z" fill="#000000" fill-rule="nonzero" fill-opacity="1" /><path clip-path="url(#clip480)" d="M1825.79 1517.37 Q1822.18 1517.37 1820.35 1520.93 Q1818.54 1524.47 1818.54 1531.6 Q1818.54 1538.71 1820.35 1542.27 Q1822.18 1545.82 1825.79 1545.82 Q1829.42 1545.82 1831.23 1542.27 Q1833.06 1538.71 1833.06 1531.6 Q1833.06 1524.47 1831.23 1520.93 Q1829.42 1517.37 1825.79 1517.37 M1825.79 1513.66 Q1831.6 1513.66 1834.66 1518.27 Q1837.73 1522.85 1837.73 1531.6 Q1837.73 1540.33 1834.66 1544.94 Q1831.6 1549.52 1825.79 1549.52 Q1819.98 1549.52 1816.9 1544.94 Q1813.84 1540.33 1813.84 1531.6 Q1813.84 1522.85 1816.9 1518.27 Q1819.98 1513.66 1825.79 1513.66 Z" fill="#000000" fill-rule="nonzero" fill-opacity="1" /><path clip-path="url(#clip480)" d="M2122.05 1517.37 Q2118.44 1517.37 2116.61 1520.93 Q2114.81 1524.47 2114.81 1531.6 Q2114.81 1538.71 2116.61 1542.27 Q2118.44 1545.82 2122.05 1545.82 Q2125.68 1545.82 2127.49 1542.27 Q2129.32 1538.71 2129.32 1531.6 Q2129.32 1524.47 2127.49 1520.93 Q2125.68 1517.37 2122.05 1517.37 M2122.05 1513.66 Q2127.86 1513.66 2130.92 1518.27 Q2134 1522.85 2134 1531.6 Q2134 1540.33 2130.92 1544.94 Q2127.86 1549.52 2122.05 1549.52 Q2116.24 1549.52 2113.16 1544.94 Q2110.11 1540.33 2110.11 1531.6 Q2110.11 1522.85 2113.16 1518.27 Q2116.24 1513.66 2122.05 1513.66 Z" fill="#000000" fill-rule="nonzero" fill-opacity="1" /><path clip-path="url(#clip480)" d="M2142.21 1542.97 L2147.1 1542.97 L2147.1 1548.85 L2142.21 1548.85 L2142.21 1542.97 Z" fill="#000000" fill-rule="nonzero" fill-opacity="1" /><path clip-path="url(#clip480)" d="M2161.31 1544.91 L2177.63 1544.91 L2177.63 1548.85 L2155.68 1548.85 L2155.68 1544.91 Q2158.35 1542.16 2162.93 1537.53 Q2167.54 1532.88 2168.72 1531.53 Q2170.96 1529.01 2171.84 1527.27 Q2172.74 1525.51 2172.74 1523.82 Q2172.74 1521.07 2170.8 1519.33 Q2168.88 1517.6 2165.78 1517.6 Q2163.58 1517.6 2161.12 1518.36 Q2158.69 1519.13 2155.92 1520.68 L2155.92 1515.95 Q2158.74 1514.82 2161.19 1514.24 Q2163.65 1513.66 2165.68 1513.66 Q2171.06 1513.66 2174.25 1516.35 Q2177.44 1519.03 2177.44 1523.52 Q2177.44 1525.65 2176.63 1527.57 Q2175.85 1529.47 2173.74 1532.07 Q2173.16 1532.74 2170.06 1535.95 Q2166.96 1539.15 2161.31 1544.91 Z" fill="#000000" fill-rule="nonzero" fill-opacity="1" /><path clip-path="url(#clip480)" d="M2187.49 1514.29 L2205.85 1514.29 L2205.85 1518.22 L2191.77 1518.22 L2191.77 1526.7 Q2192.79 1526.35 2193.81 1526.19 Q2194.83 1526 2195.85 1526 Q2201.63 1526 2205.01 1529.17 Q2208.39 1532.34 2208.39 1537.76 Q2208.39 1543.34 2204.92 1546.44 Q2201.45 1549.52 2195.13 1549.52 Q2192.95 1549.52 2190.68 1549.15 Q2188.44 1548.78 2186.03 1548.04 L2186.03 1543.34 Q2188.12 1544.47 2190.34 1545.03 Q2192.56 1545.58 2195.04 1545.58 Q2199.04 1545.58 2201.38 1543.48 Q2203.72 1541.37 2203.72 1537.76 Q2203.72 1534.15 2201.38 1532.04 Q2199.04 1529.94 2195.04 1529.94 Q2193.16 1529.94 2191.29 1530.35 Q2189.43 1530.77 2187.49 1531.65 L2187.49 1514.29 Z" fill="#000000" fill-rule="nonzero" fill-opacity="1" /><polyline clip-path="url(#clip482)" style="stroke:#000000; stroke-linecap:round; stroke-linejoin:round; stroke-width:2; stroke-opacity:0.1; fill:none" points="184.191,1486.45 2352.76,1486.45 "/>
<polyline clip-path="url(#clip482)" style="stroke:#000000; stroke-linecap:round; stroke-linejoin:round; stroke-width:2; stroke-opacity:0.1; fill:none" points="184.191,1191.43 2352.76,1191.43 "/>
<polyline clip-path="url(#clip482)" style="stroke:#000000; stroke-linecap:round; stroke-linejoin:round; stroke-width:2; stroke-opacity:0.1; fill:none" points="184.191,896.415 2352.76,896.415 "/>
<polyline clip-path="url(#clip482)" style="stroke:#000000; stroke-linecap:round; stroke-linejoin:round; stroke-width:2; stroke-opacity:0.1; fill:none" points="184.191,601.399 2352.76,601.399 "/>
<polyline clip-path="url(#clip482)" style="stroke:#000000; stroke-linecap:round; stroke-linejoin:round; stroke-width:2; stroke-opacity:0.1; fill:none" points="184.191,306.382 2352.76,306.382 "/>
<polyline clip-path="url(#clip480)" style="stroke:#000000; stroke-linecap:round; stroke-linejoin:round; stroke-width:4; stroke-opacity:1; fill:none" points="184.191,1486.45 184.191,123.472 "/>
<polyline clip-path="url(#clip480)" style="stroke:#000000; stroke-linecap:round; stroke-linejoin:round; stroke-width:4; stroke-opacity:1; fill:none" points="184.191,1486.45 203.088,1486.45 "/>
<polyline clip-path="url(#clip480)" style="stroke:#000000; stroke-linecap:round; stroke-linejoin:round; stroke-width:4; stroke-opacity:1; fill:none" points="184.191,1191.43 203.088,1191.43 "/>
<polyline clip-path="url(#clip480)" style="stroke:#000000; stroke-linecap:round; stroke-linejoin:round; stroke-width:4; stroke-opacity:1; fill:none" points="184.191,896.415 203.088,896.415 "/>
<polyline clip-path="url(#clip480)" style="stroke:#000000; stroke-linecap:round; stroke-linejoin:round; stroke-width:4; stroke-opacity:1; fill:none" points="184.191,601.399 203.088,601.399 "/>
<polyline clip-path="url(#clip480)" style="stroke:#000000; stroke-linecap:round; stroke-linejoin:round; stroke-width:4; stroke-opacity:1; fill:none" points="184.191,306.382 203.088,306.382 "/>
<path clip-path="url(#clip480)" d="M91.0151 1472.25 Q87.404 1472.25 85.5753 1475.81 Q83.7697 1479.35 83.7697 1486.48 Q83.7697 1493.59 85.5753 1497.15 Q87.404 1500.7 91.0151 1500.7 Q94.6493 1500.7 96.4548 1497.15 Q98.2835 1493.59 98.2835 1486.48 Q98.2835 1479.35 96.4548 1475.81 Q94.6493 1472.25 91.0151 1472.25 M91.0151 1468.54 Q96.8252 1468.54 99.8808 1473.15 Q102.959 1477.73 102.959 1486.48 Q102.959 1495.21 99.8808 1499.82 Q96.8252 1504.4 91.0151 1504.4 Q85.2049 1504.4 82.1262 1499.82 Q79.0707 1495.21 79.0707 1486.48 Q79.0707 1477.73 82.1262 1473.15 Q85.2049 1468.54 91.0151 1468.54 Z" fill="#000000" fill-rule="nonzero" fill-opacity="1" /><path clip-path="url(#clip480)" d="M111.177 1497.85 L116.061 1497.85 L116.061 1503.73 L111.177 1503.73 L111.177 1497.85 Z" fill="#000000" fill-rule="nonzero" fill-opacity="1" /><path clip-path="url(#clip480)" d="M136.246 1472.25 Q132.635 1472.25 130.807 1475.81 Q129.001 1479.35 129.001 1486.48 Q129.001 1493.59 130.807 1497.15 Q132.635 1500.7 136.246 1500.7 Q139.881 1500.7 141.686 1497.15 Q143.515 1493.59 143.515 1486.48 Q143.515 1479.35 141.686 1475.81 Q139.881 1472.25 136.246 1472.25 M136.246 1468.54 Q142.056 1468.54 145.112 1473.15 Q148.191 1477.73 148.191 1486.48 Q148.191 1495.21 145.112 1499.82 Q142.056 1504.4 136.246 1504.4 Q130.436 1504.4 127.357 1499.82 Q124.302 1495.21 124.302 1486.48 Q124.302 1477.73 127.357 1473.15 Q130.436 1468.54 136.246 1468.54 Z" fill="#000000" fill-rule="nonzero" fill-opacity="1" /><path clip-path="url(#clip480)" d="M86.0382 1204.78 L102.358 1204.78 L102.358 1208.71 L80.4133 1208.71 L80.4133 1204.78 Q83.0753 1202.02 87.6586 1197.39 Q92.2651 1192.74 93.4456 1191.4 Q95.691 1188.87 96.5706 1187.14 Q97.4734 1185.38 97.4734 1183.69 Q97.4734 1180.93 95.5289 1179.2 Q93.6076 1177.46 90.5058 1177.46 Q88.3067 1177.46 85.8531 1178.23 Q83.4225 1178.99 80.6447 1180.54 L80.6447 1175.82 Q83.4688 1174.68 85.9225 1174.11 Q88.3762 1173.53 90.4132 1173.53 Q95.7836 1173.53 98.978 1176.21 Q102.172 1178.9 102.172 1183.39 Q102.172 1185.52 101.362 1187.44 Q100.575 1189.34 98.4687 1191.93 Q97.89 1192.6 94.7882 1195.82 Q91.6864 1199.01 86.0382 1204.78 Z" fill="#000000" fill-rule="nonzero" fill-opacity="1" /><path clip-path="url(#clip480)" d="M112.172 1202.83 L117.057 1202.83 L117.057 1208.71 L112.172 1208.71 L112.172 1202.83 Z" fill="#000000" fill-rule="nonzero" fill-opacity="1" /><path clip-path="url(#clip480)" d="M127.288 1174.15 L145.644 1174.15 L145.644 1178.09 L131.57 1178.09 L131.57 1186.56 Q132.589 1186.21 133.607 1186.05 Q134.626 1185.86 135.644 1185.86 Q141.431 1185.86 144.811 1189.04 Q148.191 1192.21 148.191 1197.62 Q148.191 1203.2 144.718 1206.3 Q141.246 1209.38 134.927 1209.38 Q132.751 1209.38 130.482 1209.01 Q128.237 1208.64 125.83 1207.9 L125.83 1203.2 Q127.913 1204.34 130.135 1204.89 Q132.357 1205.45 134.834 1205.45 Q138.839 1205.45 141.177 1203.34 Q143.515 1201.23 143.515 1197.62 Q143.515 1194.01 141.177 1191.91 Q138.839 1189.8 134.834 1189.8 Q132.959 1189.8 131.084 1190.22 Q129.232 1190.63 127.288 1191.51 L127.288 1174.15 Z" fill="#000000" fill-rule="nonzero" fill-opacity="1" /><path clip-path="url(#clip480)" d="M81.0614 879.135 L99.4178 879.135 L99.4178 883.07 L85.3438 883.07 L85.3438 891.542 Q86.3623 891.195 87.3808 891.033 Q88.3993 890.848 89.4178 890.848 Q95.2049 890.848 98.5845 894.019 Q101.964 897.191 101.964 902.607 Q101.964 908.186 98.4919 911.288 Q95.0197 914.366 88.7003 914.366 Q86.5243 914.366 84.2558 913.996 Q82.0105 913.626 79.6031 912.885 L79.6031 908.186 Q81.6864 909.32 83.9086 909.876 Q86.1308 910.431 88.6077 910.431 Q92.6123 910.431 94.9502 908.325 Q97.2882 906.218 97.2882 902.607 Q97.2882 898.996 94.9502 896.89 Q92.6123 894.783 88.6077 894.783 Q86.7327 894.783 84.8577 895.2 Q83.0058 895.616 81.0614 896.496 L81.0614 879.135 Z" fill="#000000" fill-rule="nonzero" fill-opacity="1" /><path clip-path="url(#clip480)" d="M111.177 907.815 L116.061 907.815 L116.061 913.695 L111.177 913.695 L111.177 907.815 Z" fill="#000000" fill-rule="nonzero" fill-opacity="1" /><path clip-path="url(#clip480)" d="M136.246 882.214 Q132.635 882.214 130.807 885.779 Q129.001 889.32 129.001 896.45 Q129.001 903.556 130.807 907.121 Q132.635 910.663 136.246 910.663 Q139.881 910.663 141.686 907.121 Q143.515 903.556 143.515 896.45 Q143.515 889.32 141.686 885.779 Q139.881 882.214 136.246 882.214 M136.246 878.51 Q142.056 878.51 145.112 883.117 Q148.191 887.7 148.191 896.45 Q148.191 905.177 145.112 909.783 Q142.056 914.366 136.246 914.366 Q130.436 914.366 127.357 909.783 Q124.302 905.177 124.302 896.45 Q124.302 887.7 127.357 883.117 Q130.436 878.51 136.246 878.51 Z" fill="#000000" fill-rule="nonzero" fill-opacity="1" /><path clip-path="url(#clip480)" d="M80.8299 584.119 L103.052 584.119 L103.052 586.109 L90.5058 618.679 L85.6216 618.679 L97.4271 588.054 L80.8299 588.054 L80.8299 584.119 Z" fill="#000000" fill-rule="nonzero" fill-opacity="1" /><path clip-path="url(#clip480)" d="M112.172 612.799 L117.057 612.799 L117.057 618.679 L112.172 618.679 L112.172 612.799 Z" fill="#000000" fill-rule="nonzero" fill-opacity="1" /><path clip-path="url(#clip480)" d="M127.288 584.119 L145.644 584.119 L145.644 588.054 L131.57 588.054 L131.57 596.526 Q132.589 596.179 133.607 596.017 Q134.626 595.832 135.644 595.832 Q141.431 595.832 144.811 599.003 Q148.191 602.174 148.191 607.591 Q148.191 613.169 144.718 616.271 Q141.246 619.35 134.927 619.35 Q132.751 619.35 130.482 618.98 Q128.237 618.609 125.83 617.869 L125.83 613.169 Q127.913 614.304 130.135 614.859 Q132.357 615.415 134.834 615.415 Q138.839 615.415 141.177 613.308 Q143.515 611.202 143.515 607.591 Q143.515 603.98 141.177 601.873 Q138.839 599.767 134.834 599.767 Q132.959 599.767 131.084 600.183 Q129.232 600.6 127.288 601.48 L127.288 584.119 Z" fill="#000000" fill-rule="nonzero" fill-opacity="1" /><path clip-path="url(#clip480)" d="M51.6634 319.727 L59.3023 319.727 L59.3023 293.362 L50.9921 295.028 L50.9921 290.769 L59.256 289.102 L63.9319 289.102 L63.9319 319.727 L71.5707 319.727 L71.5707 323.662 L51.6634 323.662 L51.6634 319.727 Z" fill="#000000" fill-rule="nonzero" fill-opacity="1" /><path clip-path="url(#clip480)" d="M91.0151 292.181 Q87.404 292.181 85.5753 295.746 Q83.7697 299.287 83.7697 306.417 Q83.7697 313.523 85.5753 317.088 Q87.404 320.63 91.0151 320.63 Q94.6493 320.63 96.4548 317.088 Q98.2835 313.523 98.2835 306.417 Q98.2835 299.287 96.4548 295.746 Q94.6493 292.181 91.0151 292.181 M91.0151 288.477 Q96.8252 288.477 99.8808 293.084 Q102.959 297.667 102.959 306.417 Q102.959 315.144 99.8808 319.75 Q96.8252 324.334 91.0151 324.334 Q85.2049 324.334 82.1262 319.75 Q79.0707 315.144 79.0707 306.417 Q79.0707 297.667 82.1262 293.084 Q85.2049 288.477 91.0151 288.477 Z" fill="#000000" fill-rule="nonzero" fill-opacity="1" /><path clip-path="url(#clip480)" d="M111.177 317.783 L116.061 317.783 L116.061 323.662 L111.177 323.662 L111.177 317.783 Z" fill="#000000" fill-rule="nonzero" fill-opacity="1" /><path clip-path="url(#clip480)" d="M136.246 292.181 Q132.635 292.181 130.807 295.746 Q129.001 299.287 129.001 306.417 Q129.001 313.523 130.807 317.088 Q132.635 320.63 136.246 320.63 Q139.881 320.63 141.686 317.088 Q143.515 313.523 143.515 306.417 Q143.515 299.287 141.686 295.746 Q139.881 292.181 136.246 292.181 M136.246 288.477 Q142.056 288.477 145.112 293.084 Q148.191 297.667 148.191 306.417 Q148.191 315.144 145.112 319.75 Q142.056 324.334 136.246 324.334 Q130.436 324.334 127.357 319.75 Q124.302 315.144 124.302 306.417 Q124.302 297.667 127.357 293.084 Q130.436 288.477 136.246 288.477 Z" fill="#000000" fill-rule="nonzero" fill-opacity="1" /><path clip-path="url(#clip480)" d="M410.289 12.096 L418.472 12.096 L418.472 36.8875 L448.206 36.8875 L448.206 12.096 L456.389 12.096 L456.389 72.576 L448.206 72.576 L448.206 43.7741 L418.472 43.7741 L418.472 72.576 L410.289 72.576 L410.289 12.096 Z" fill="#000000" fill-rule="nonzero" fill-opacity="1" /><path clip-path="url(#clip480)" d="M472.349 27.2059 L479.803 27.2059 L479.803 72.576 L472.349 72.576 L472.349 27.2059 M472.349 9.54393 L479.803 9.54393 L479.803 18.9825 L472.349 18.9825 L472.349 9.54393 Z" fill="#000000" fill-rule="nonzero" fill-opacity="1" /><path clip-path="url(#clip480)" d="M524.322 28.5427 L524.322 35.5912 Q521.162 33.9709 517.76 33.1607 Q514.357 32.3505 510.711 32.3505 Q505.161 32.3505 502.366 34.0519 Q499.612 35.7533 499.612 39.156 Q499.612 41.7486 501.597 43.2475 Q503.582 44.7058 509.577 46.0426 L512.129 46.6097 Q520.069 48.3111 523.39 51.4303 Q526.753 54.509 526.753 60.0587 Q526.753 66.3781 521.73 70.0644 Q516.747 73.7508 507.997 73.7508 Q504.351 73.7508 500.381 73.0216 Q496.452 72.3329 492.077 70.9151 L492.077 63.2184 Q496.209 65.3654 500.219 66.4591 Q504.23 67.5124 508.159 67.5124 Q513.425 67.5124 516.261 65.73 Q519.097 63.9071 519.097 60.6258 Q519.097 57.5877 517.031 55.9673 Q515.005 54.3469 508.078 52.8481 L505.485 52.2405 Q498.558 50.7821 495.48 47.7845 Q492.401 44.7463 492.401 39.4801 Q492.401 33.0797 496.938 29.5959 Q501.475 26.1121 509.82 26.1121 Q513.952 26.1121 517.598 26.7198 Q521.244 27.3274 524.322 28.5427 Z" fill="#000000" fill-rule="nonzero" fill-opacity="1" /><path clip-path="url(#clip480)" d="M545.995 14.324 L545.995 27.2059 L561.347 27.2059 L561.347 32.9987 L545.995 32.9987 L545.995 57.6282 Q545.995 63.1779 547.493 64.7578 Q549.033 66.3376 553.691 66.3376 L561.347 66.3376 L561.347 72.576 L553.691 72.576 Q545.063 72.576 541.782 69.3758 Q538.5 66.1351 538.5 57.6282 L538.5 32.9987 L533.032 32.9987 L533.032 27.2059 L538.5 27.2059 L538.5 14.324 L545.995 14.324 Z" fill="#000000" fill-rule="nonzero" fill-opacity="1" /><path clip-path="url(#clip480)" d="M588.732 32.4315 Q582.736 32.4315 579.252 37.1306 Q575.769 41.7891 575.769 49.9314 Q575.769 58.0738 579.212 62.7728 Q582.696 67.4314 588.732 67.4314 Q594.686 67.4314 598.17 62.7323 Q601.654 58.0333 601.654 49.9314 Q601.654 41.8701 598.17 37.1711 Q594.686 32.4315 588.732 32.4315 M588.732 26.1121 Q598.454 26.1121 604.003 32.4315 Q609.553 38.7509 609.553 49.9314 Q609.553 61.0714 604.003 67.4314 Q598.454 73.7508 588.732 73.7508 Q578.969 73.7508 573.419 67.4314 Q567.91 61.0714 567.91 49.9314 Q567.91 38.7509 573.419 32.4315 Q578.969 26.1121 588.732 26.1121 Z" fill="#000000" fill-rule="nonzero" fill-opacity="1" /><path clip-path="url(#clip480)" d="M651.764 49.3643 Q651.764 41.2625 648.401 36.8065 Q645.08 32.3505 639.044 32.3505 Q633.048 32.3505 629.686 36.8065 Q626.364 41.2625 626.364 49.3643 Q626.364 57.4256 629.686 61.8816 Q633.048 66.3376 639.044 66.3376 Q645.08 66.3376 648.401 61.8816 Q651.764 57.4256 651.764 49.3643 M659.217 66.9452 Q659.217 78.5308 654.073 84.1616 Q648.928 89.8329 638.315 89.8329 Q634.385 89.8329 630.901 89.2252 Q627.418 88.6581 624.136 87.4428 L624.136 80.1917 Q627.418 81.9741 630.618 82.8248 Q633.818 83.6755 637.14 83.6755 Q644.472 83.6755 648.118 79.8271 Q651.764 76.0193 651.764 68.282 L651.764 64.5957 Q649.455 68.6061 645.849 70.5911 Q642.244 72.576 637.221 72.576 Q628.876 72.576 623.772 66.2161 Q618.668 59.8562 618.668 49.3643 Q618.668 38.832 623.772 32.472 Q628.876 26.1121 637.221 26.1121 Q642.244 26.1121 645.849 28.0971 Q649.455 30.082 651.764 34.0924 L651.764 27.2059 L659.217 27.2059 L659.217 66.9452 Z" fill="#000000" fill-rule="nonzero" fill-opacity="1" /><path clip-path="url(#clip480)" d="M700.861 34.1734 Q699.605 33.4443 698.106 33.1202 Q696.648 32.7556 694.865 32.7556 Q688.546 32.7556 685.143 36.8875 Q681.781 40.9789 681.781 48.6757 L681.781 72.576 L674.287 72.576 L674.287 27.2059 L681.781 27.2059 L681.781 34.2544 Q684.13 30.1225 687.898 28.1376 Q691.665 26.1121 697.053 26.1121 Q697.822 26.1121 698.754 26.2337 Q699.686 26.3147 700.82 26.5172 L700.861 34.1734 Z" fill="#000000" fill-rule="nonzero" fill-opacity="1" /><path clip-path="url(#clip480)" d="M729.298 49.7694 Q720.264 49.7694 716.781 51.8354 Q713.297 53.9013 713.297 58.8839 Q713.297 62.8538 715.889 65.2034 Q718.523 67.5124 723.019 67.5124 Q729.217 67.5124 732.944 63.1374 Q736.711 58.7219 736.711 51.4303 L736.711 49.7694 L729.298 49.7694 M744.165 46.6907 L744.165 72.576 L736.711 72.576 L736.711 65.6895 Q734.159 69.8214 730.351 71.8063 Q726.543 73.7508 721.034 73.7508 Q714.067 73.7508 709.935 69.8619 Q705.843 65.9325 705.843 59.3701 Q705.843 51.7138 710.947 47.825 Q716.092 43.9361 726.26 43.9361 L736.711 43.9361 L736.711 43.2069 Q736.711 38.0623 733.308 35.2672 Q729.946 32.4315 723.829 32.4315 Q719.94 32.4315 716.254 33.3632 Q712.568 34.295 709.165 36.1584 L709.165 29.2718 Q713.256 27.692 717.105 26.9223 Q720.953 26.1121 724.599 26.1121 Q734.443 26.1121 739.304 31.2163 Q744.165 36.3204 744.165 46.6907 Z" fill="#000000" fill-rule="nonzero" fill-opacity="1" /><path clip-path="url(#clip480)" d="M794.842 35.9153 Q797.637 30.8922 801.526 28.5022 Q805.414 26.1121 810.681 26.1121 Q817.77 26.1121 821.618 31.0947 Q825.466 36.0368 825.466 45.1919 L825.466 72.576 L817.972 72.576 L817.972 45.4349 Q817.972 38.913 815.663 35.7533 Q813.354 32.5936 808.615 32.5936 Q802.822 32.5936 799.46 36.4419 Q796.097 40.2903 796.097 46.9338 L796.097 72.576 L788.603 72.576 L788.603 45.4349 Q788.603 38.8725 786.294 35.7533 Q783.985 32.5936 779.165 32.5936 Q773.453 32.5936 770.091 36.4824 Q766.728 40.3308 766.728 46.9338 L766.728 72.576 L759.234 72.576 L759.234 27.2059 L766.728 27.2059 L766.728 34.2544 Q769.28 30.082 772.845 28.0971 Q776.41 26.1121 781.312 26.1121 Q786.254 26.1121 789.697 28.6237 Q793.181 31.1352 794.842 35.9153 Z" fill="#000000" fill-rule="nonzero" fill-opacity="1" /><path clip-path="url(#clip480)" d="M862.937 46.5287 L884.772 46.5287 L884.772 53.1722 L862.937 53.1722 L862.937 46.5287 Z" fill="#000000" fill-rule="nonzero" fill-opacity="1" /><path clip-path="url(#clip480)" d="M945.981 9.54393 L945.981 15.7418 L938.851 15.7418 Q934.841 15.7418 933.261 17.3622 Q931.722 18.9825 931.722 23.1955 L931.722 27.2059 L943.996 27.2059 L943.996 32.9987 L931.722 32.9987 L931.722 72.576 L924.227 72.576 L924.227 32.9987 L917.098 32.9987 L917.098 27.2059 L924.227 27.2059 L924.227 24.0462 Q924.227 16.471 927.752 13.0277 Q931.276 9.54393 938.932 9.54393 L945.981 9.54393 Z" fill="#000000" fill-rule="nonzero" fill-opacity="1" /><path clip-path="url(#clip480)" d="M991.027 48.0275 L991.027 51.6733 L956.756 51.6733 Q957.242 59.3701 961.374 63.421 Q965.547 67.4314 972.96 67.4314 Q977.254 67.4314 981.264 66.3781 Q985.315 65.3249 989.285 63.2184 L989.285 70.267 Q985.275 71.9684 981.062 72.8596 Q976.849 73.7508 972.514 73.7508 Q961.658 73.7508 955.298 67.4314 Q948.978 61.1119 948.978 50.3365 Q948.978 39.1965 954.974 32.6746 Q961.01 26.1121 971.218 26.1121 Q980.373 26.1121 985.68 32.0264 Q991.027 37.9003 991.027 48.0275 M983.573 45.84 Q983.492 39.7232 980.13 36.0774 Q976.808 32.4315 971.299 32.4315 Q965.061 32.4315 961.293 35.9558 Q957.566 39.4801 956.999 45.8805 L983.573 45.84 Z" fill="#000000" fill-rule="nonzero" fill-opacity="1" /><path clip-path="url(#clip480)" d="M1038.58 35.9153 Q1041.38 30.8922 1045.27 28.5022 Q1049.16 26.1121 1054.42 26.1121 Q1061.51 26.1121 1065.36 31.0947 Q1069.21 36.0368 1069.21 45.1919 L1069.21 72.576 L1061.72 72.576 L1061.72 45.4349 Q1061.72 38.913 1059.41 35.7533 Q1057.1 32.5936 1052.36 32.5936 Q1046.56 32.5936 1043.2 36.4419 Q1039.84 40.2903 1039.84 46.9338 L1039.84 72.576 L1032.35 72.576 L1032.35 45.4349 Q1032.35 38.8725 1030.04 35.7533 Q1027.73 32.5936 1022.91 32.5936 Q1017.2 32.5936 1013.83 36.4824 Q1010.47 40.3308 1010.47 46.9338 L1010.47 72.576 L1002.98 72.576 L1002.98 27.2059 L1010.47 27.2059 L1010.47 34.2544 Q1013.02 30.082 1016.59 28.0971 Q1020.15 26.1121 1025.05 26.1121 Q1030 26.1121 1033.44 28.6237 Q1036.92 31.1352 1038.58 35.9153 Z" fill="#000000" fill-rule="nonzero" fill-opacity="1" /><path clip-path="url(#clip480)" d="M1104.7 49.7694 Q1095.66 49.7694 1092.18 51.8354 Q1088.69 53.9013 1088.69 58.8839 Q1088.69 62.8538 1091.29 65.2034 Q1093.92 67.5124 1098.42 67.5124 Q1104.61 67.5124 1108.34 63.1374 Q1112.11 58.7219 1112.11 51.4303 L1112.11 49.7694 L1104.7 49.7694 M1119.56 46.6907 L1119.56 72.576 L1112.11 72.576 L1112.11 65.6895 Q1109.56 69.8214 1105.75 71.8063 Q1101.94 73.7508 1096.43 73.7508 Q1089.46 73.7508 1085.33 69.8619 Q1081.24 65.9325 1081.24 59.3701 Q1081.24 51.7138 1086.34 47.825 Q1091.49 43.9361 1101.66 43.9361 L1112.11 43.9361 L1112.11 43.2069 Q1112.11 38.0623 1108.71 35.2672 Q1105.34 32.4315 1099.23 32.4315 Q1095.34 32.4315 1091.65 33.3632 Q1087.97 34.295 1084.56 36.1584 L1084.56 29.2718 Q1088.65 27.692 1092.5 26.9223 Q1096.35 26.1121 1100 26.1121 Q1109.84 26.1121 1114.7 31.2163 Q1119.56 36.3204 1119.56 46.6907 Z" fill="#000000" fill-rule="nonzero" fill-opacity="1" /><path clip-path="url(#clip480)" d="M1134.91 9.54393 L1142.37 9.54393 L1142.37 72.576 L1134.91 72.576 L1134.91 9.54393 Z" fill="#000000" fill-rule="nonzero" fill-opacity="1" /><path clip-path="url(#clip480)" d="M1196.77 48.0275 L1196.77 51.6733 L1162.5 51.6733 Q1162.99 59.3701 1167.12 63.421 Q1171.29 67.4314 1178.71 67.4314 Q1183 67.4314 1187.01 66.3781 Q1191.06 65.3249 1195.03 63.2184 L1195.03 70.267 Q1191.02 71.9684 1186.81 72.8596 Q1182.59 73.7508 1178.26 73.7508 Q1167.4 73.7508 1161.04 67.4314 Q1154.72 61.1119 1154.72 50.3365 Q1154.72 39.1965 1160.72 32.6746 Q1166.76 26.1121 1176.96 26.1121 Q1186.12 26.1121 1191.43 32.0264 Q1196.77 37.9003 1196.77 48.0275 M1189.32 45.84 Q1189.24 39.7232 1185.88 36.0774 Q1182.55 32.4315 1177.04 32.4315 Q1170.81 32.4315 1167.04 35.9558 Q1163.31 39.4801 1162.74 45.8805 L1189.32 45.84 Z" fill="#000000" fill-rule="nonzero" fill-opacity="1" /><path clip-path="url(#clip480)" d="M1216.05 12.096 L1216.05 34.5785 L1209.17 34.5785 L1209.17 12.096 L1216.05 12.096 Z" fill="#000000" fill-rule="nonzero" fill-opacity="1" /><path clip-path="url(#clip480)" d="M1260.74 28.5427 L1260.74 35.5912 Q1257.58 33.9709 1254.17 33.1607 Q1250.77 32.3505 1247.13 32.3505 Q1241.58 32.3505 1238.78 34.0519 Q1236.03 35.7533 1236.03 39.156 Q1236.03 41.7486 1238.01 43.2475 Q1240 44.7058 1245.99 46.0426 L1248.54 46.6097 Q1256.48 48.3111 1259.8 51.4303 Q1263.17 54.509 1263.17 60.0587 Q1263.17 66.3781 1258.14 70.0644 Q1253.16 73.7508 1244.41 73.7508 Q1240.77 73.7508 1236.8 73.0216 Q1232.87 72.3329 1228.49 70.9151 L1228.49 63.2184 Q1232.62 65.3654 1236.63 66.4591 Q1240.64 67.5124 1244.57 67.5124 Q1249.84 67.5124 1252.67 65.73 Q1255.51 63.9071 1255.51 60.6258 Q1255.51 57.5877 1253.44 55.9673 Q1251.42 54.3469 1244.49 52.8481 L1241.9 52.2405 Q1234.97 50.7821 1231.89 47.7845 Q1228.81 44.7463 1228.81 39.4801 Q1228.81 33.0797 1233.35 29.5959 Q1237.89 26.1121 1246.23 26.1121 Q1250.37 26.1121 1254.01 26.7198 Q1257.66 27.3274 1260.74 28.5427 Z" fill="#000000" fill-rule="nonzero" fill-opacity="1" /><path clip-path="url(#clip480)" d="M1334.06 28.9478 L1334.06 35.9153 Q1330.9 34.1734 1327.7 33.3227 Q1324.54 32.4315 1321.3 32.4315 Q1314.05 32.4315 1310.04 37.0496 Q1306.03 41.6271 1306.03 49.9314 Q1306.03 58.2358 1310.04 62.8538 Q1314.05 67.4314 1321.3 67.4314 Q1324.54 67.4314 1327.7 66.5807 Q1330.9 65.6895 1334.06 63.9476 L1334.06 70.8341 Q1330.94 72.2924 1327.58 73.0216 Q1324.25 73.7508 1320.49 73.7508 Q1310.24 73.7508 1304.2 67.3098 Q1298.17 60.8689 1298.17 49.9314 Q1298.17 38.832 1304.24 32.472 Q1310.36 26.1121 1320.97 26.1121 Q1324.42 26.1121 1327.7 26.8413 Q1330.98 27.5299 1334.06 28.9478 Z" fill="#000000" fill-rule="nonzero" fill-opacity="1" /><path clip-path="url(#clip480)" d="M1364.6 32.4315 Q1358.61 32.4315 1355.12 37.1306 Q1351.64 41.7891 1351.64 49.9314 Q1351.64 58.0738 1355.08 62.7728 Q1358.57 67.4314 1364.6 67.4314 Q1370.56 67.4314 1374.04 62.7323 Q1377.52 58.0333 1377.52 49.9314 Q1377.52 41.8701 1374.04 37.1711 Q1370.56 32.4315 1364.6 32.4315 M1364.6 26.1121 Q1374.32 26.1121 1379.87 32.4315 Q1385.42 38.7509 1385.42 49.9314 Q1385.42 61.0714 1379.87 67.4314 Q1374.32 73.7508 1364.6 73.7508 Q1354.84 73.7508 1349.29 67.4314 Q1343.78 61.0714 1343.78 49.9314 Q1343.78 38.7509 1349.29 32.4315 Q1354.84 26.1121 1364.6 26.1121 Z" fill="#000000" fill-rule="nonzero" fill-opacity="1" /><path clip-path="url(#clip480)" d="M1436.59 48.0275 L1436.59 51.6733 L1402.32 51.6733 Q1402.8 59.3701 1406.93 63.421 Q1411.11 67.4314 1418.52 67.4314 Q1422.81 67.4314 1426.82 66.3781 Q1430.87 65.3249 1434.84 63.2184 L1434.84 70.267 Q1430.83 71.9684 1426.62 72.8596 Q1422.41 73.7508 1418.07 73.7508 Q1407.22 73.7508 1400.86 67.4314 Q1394.54 61.1119 1394.54 50.3365 Q1394.54 39.1965 1400.53 32.6746 Q1406.57 26.1121 1416.78 26.1121 Q1425.93 26.1121 1431.24 32.0264 Q1436.59 37.9003 1436.59 48.0275 M1429.13 45.84 Q1429.05 39.7232 1425.69 36.0774 Q1422.37 32.4315 1416.86 32.4315 Q1410.62 32.4315 1406.85 35.9558 Q1403.13 39.4801 1402.56 45.8805 L1429.13 45.84 Z" fill="#000000" fill-rule="nonzero" fill-opacity="1" /><path clip-path="url(#clip480)" d="M1471.79 9.54393 L1471.79 15.7418 L1464.66 15.7418 Q1460.65 15.7418 1459.07 17.3622 Q1457.53 18.9825 1457.53 23.1955 L1457.53 27.2059 L1469.8 27.2059 L1469.8 32.9987 L1457.53 32.9987 L1457.53 72.576 L1450.03 72.576 L1450.03 32.9987 L1442.91 32.9987 L1442.91 27.2059 L1450.03 27.2059 L1450.03 24.0462 Q1450.03 16.471 1453.56 13.0277 Q1457.08 9.54393 1464.74 9.54393 L1471.79 9.54393 Z" fill="#000000" fill-rule="nonzero" fill-opacity="1" /><path clip-path="url(#clip480)" d="M1501 9.54393 L1501 15.7418 L1493.87 15.7418 Q1489.86 15.7418 1488.28 17.3622 Q1486.74 18.9825 1486.74 23.1955 L1486.74 27.2059 L1499.01 27.2059 L1499.01 32.9987 L1486.74 32.9987 L1486.74 72.576 L1479.24 72.576 L1479.24 32.9987 L1472.11 32.9987 L1472.11 27.2059 L1479.24 27.2059 L1479.24 24.0462 Q1479.24 16.471 1482.77 13.0277 Q1486.29 9.54393 1493.95 9.54393 L1501 9.54393 Z" fill="#000000" fill-rule="nonzero" fill-opacity="1" /><path clip-path="url(#clip480)" d="M1507.23 27.2059 L1514.69 27.2059 L1514.69 72.576 L1507.23 72.576 L1507.23 27.2059 M1507.23 9.54393 L1514.69 9.54393 L1514.69 18.9825 L1507.23 18.9825 L1507.23 9.54393 Z" fill="#000000" fill-rule="nonzero" fill-opacity="1" /><path clip-path="url(#clip480)" d="M1562.93 28.9478 L1562.93 35.9153 Q1559.77 34.1734 1556.57 33.3227 Q1553.41 32.4315 1550.17 32.4315 Q1542.92 32.4315 1538.91 37.0496 Q1534.9 41.6271 1534.9 49.9314 Q1534.9 58.2358 1538.91 62.8538 Q1542.92 67.4314 1550.17 67.4314 Q1553.41 67.4314 1556.57 66.5807 Q1559.77 65.6895 1562.93 63.9476 L1562.93 70.8341 Q1559.81 72.2924 1556.45 73.0216 Q1553.13 73.7508 1549.36 73.7508 Q1539.11 73.7508 1533.08 67.3098 Q1527.04 60.8689 1527.04 49.9314 Q1527.04 38.832 1533.12 32.472 Q1539.24 26.1121 1549.85 26.1121 Q1553.29 26.1121 1556.57 26.8413 Q1559.85 27.5299 1562.93 28.9478 Z" fill="#000000" fill-rule="nonzero" fill-opacity="1" /><path clip-path="url(#clip480)" d="M1575.9 27.2059 L1583.35 27.2059 L1583.35 72.576 L1575.9 72.576 L1575.9 27.2059 M1575.9 9.54393 L1583.35 9.54393 L1583.35 18.9825 L1575.9 18.9825 L1575.9 9.54393 Z" fill="#000000" fill-rule="nonzero" fill-opacity="1" /><path clip-path="url(#clip480)" d="M1637.75 48.0275 L1637.75 51.6733 L1603.48 51.6733 Q1603.97 59.3701 1608.1 63.421 Q1612.27 67.4314 1619.69 67.4314 Q1623.98 67.4314 1627.99 66.3781 Q1632.04 65.3249 1636.01 63.2184 L1636.01 70.267 Q1632 71.9684 1627.79 72.8596 Q1623.58 73.7508 1619.24 73.7508 Q1608.38 73.7508 1602.02 67.4314 Q1595.71 61.1119 1595.71 50.3365 Q1595.71 39.1965 1601.7 32.6746 Q1607.74 26.1121 1617.94 26.1121 Q1627.1 26.1121 1632.41 32.0264 Q1637.75 37.9003 1637.75 48.0275 M1630.3 45.84 Q1630.22 39.7232 1626.86 36.0774 Q1623.54 32.4315 1618.03 32.4315 Q1611.79 32.4315 1608.02 35.9558 Q1604.29 39.4801 1603.73 45.8805 L1630.3 45.84 Z" fill="#000000" fill-rule="nonzero" fill-opacity="1" /><path clip-path="url(#clip480)" d="M1687.7 45.1919 L1687.7 72.576 L1680.25 72.576 L1680.25 45.4349 Q1680.25 38.994 1677.74 35.7938 Q1675.22 32.5936 1670.2 32.5936 Q1664.17 32.5936 1660.68 36.4419 Q1657.2 40.2903 1657.2 46.9338 L1657.2 72.576 L1649.7 72.576 L1649.7 27.2059 L1657.2 27.2059 L1657.2 34.2544 Q1659.87 30.163 1663.48 28.1376 Q1667.12 26.1121 1671.86 26.1121 Q1679.68 26.1121 1683.69 30.9732 Q1687.7 35.7938 1687.7 45.1919 Z" fill="#000000" fill-rule="nonzero" fill-opacity="1" /><path clip-path="url(#clip480)" d="M1709.94 14.324 L1709.94 27.2059 L1725.29 27.2059 L1725.29 32.9987 L1709.94 32.9987 L1709.94 57.6282 Q1709.94 63.1779 1711.44 64.7578 Q1712.98 66.3376 1717.64 66.3376 L1725.29 66.3376 L1725.29 72.576 L1717.64 72.576 Q1709.01 72.576 1705.73 69.3758 Q1702.45 66.1351 1702.45 57.6282 L1702.45 32.9987 L1696.98 32.9987 L1696.98 27.2059 L1702.45 27.2059 L1702.45 14.324 L1709.94 14.324 Z" fill="#000000" fill-rule="nonzero" fill-opacity="1" /><path clip-path="url(#clip480)" d="M1779.37 9.62495 Q1773.95 18.942 1771.31 28.0566 Q1768.68 37.1711 1768.68 46.5287 Q1768.68 55.8863 1771.31 65.0818 Q1773.99 74.2369 1779.37 83.5134 L1772.89 83.5134 Q1766.82 73.9938 1763.78 64.7983 Q1760.78 55.6027 1760.78 46.5287 Q1760.78 37.4952 1763.78 28.3401 Q1766.78 19.1851 1772.89 9.62495 L1779.37 9.62495 Z" fill="#000000" fill-rule="nonzero" fill-opacity="1" /><path clip-path="url(#clip480)" d="M1802.34 18.8205 L1802.34 65.8515 L1812.23 65.8515 Q1824.74 65.8515 1830.54 60.1802 Q1836.37 54.509 1836.37 42.2752 Q1836.37 30.1225 1830.54 24.4918 Q1824.74 18.8205 1812.23 18.8205 L1802.34 18.8205 M1794.16 12.096 L1810.97 12.096 Q1828.55 12.096 1836.77 19.4281 Q1845 26.7198 1845 42.2752 Q1845 57.9117 1836.73 65.2439 Q1828.47 72.576 1810.97 72.576 L1794.16 72.576 L1794.16 12.096 Z" fill="#000000" fill-rule="nonzero" fill-opacity="1" /><path clip-path="url(#clip480)" d="M1896.53 48.0275 L1896.53 51.6733 L1862.25 51.6733 Q1862.74 59.3701 1866.87 63.421 Q1871.05 67.4314 1878.46 67.4314 Q1882.75 67.4314 1886.76 66.3781 Q1890.81 65.3249 1894.78 63.2184 L1894.78 70.267 Q1890.77 71.9684 1886.56 72.8596 Q1882.35 73.7508 1878.01 73.7508 Q1867.16 73.7508 1860.8 67.4314 Q1854.48 61.1119 1854.48 50.3365 Q1854.48 39.1965 1860.47 32.6746 Q1866.51 26.1121 1876.72 26.1121 Q1885.87 26.1121 1891.18 32.0264 Q1896.53 37.9003 1896.53 48.0275 M1889.07 45.84 Q1888.99 39.7232 1885.63 36.0774 Q1882.31 32.4315 1876.8 32.4315 Q1870.56 32.4315 1866.79 35.9558 Q1863.07 39.4801 1862.5 45.8805 L1889.07 45.84 Z" fill="#000000" fill-rule="nonzero" fill-opacity="1" /><path clip-path="url(#clip480)" d="M1946.47 45.1919 L1946.47 72.576 L1939.02 72.576 L1939.02 45.4349 Q1939.02 38.994 1936.51 35.7938 Q1934 32.5936 1928.97 32.5936 Q1922.94 32.5936 1919.45 36.4419 Q1915.97 40.2903 1915.97 46.9338 L1915.97 72.576 L1908.48 72.576 L1908.48 27.2059 L1915.97 27.2059 L1915.97 34.2544 Q1918.64 30.163 1922.25 28.1376 Q1925.89 26.1121 1930.63 26.1121 Q1938.45 26.1121 1942.46 30.9732 Q1946.47 35.7938 1946.47 45.1919 Z" fill="#000000" fill-rule="nonzero" fill-opacity="1" /><path clip-path="url(#clip480)" d="M1990.26 28.5427 L1990.26 35.5912 Q1987.1 33.9709 1983.7 33.1607 Q1980.3 32.3505 1976.65 32.3505 Q1971.1 32.3505 1968.31 34.0519 Q1965.55 35.7533 1965.55 39.156 Q1965.55 41.7486 1967.54 43.2475 Q1969.52 44.7058 1975.52 46.0426 L1978.07 46.6097 Q1986.01 48.3111 1989.33 51.4303 Q1992.69 54.509 1992.69 60.0587 Q1992.69 66.3781 1987.67 70.0644 Q1982.69 73.7508 1973.94 73.7508 Q1970.29 73.7508 1966.32 73.0216 Q1962.39 72.3329 1958.02 70.9151 L1958.02 63.2184 Q1962.15 65.3654 1966.16 66.4591 Q1970.17 67.5124 1974.1 67.5124 Q1979.37 67.5124 1982.2 65.73 Q1985.04 63.9071 1985.04 60.6258 Q1985.04 57.5877 1982.97 55.9673 Q1980.95 54.3469 1974.02 52.8481 L1971.43 52.2405 Q1964.5 50.7821 1961.42 47.7845 Q1958.34 44.7463 1958.34 39.4801 Q1958.34 33.0797 1962.88 29.5959 Q1967.42 26.1121 1975.76 26.1121 Q1979.89 26.1121 1983.54 26.7198 Q1987.18 27.3274 1990.26 28.5427 Z" fill="#000000" fill-rule="nonzero" fill-opacity="1" /><path clip-path="url(#clip480)" d="M2004.56 27.2059 L2012.02 27.2059 L2012.02 72.576 L2004.56 72.576 L2004.56 27.2059 M2004.56 9.54393 L2012.02 9.54393 L2012.02 18.9825 L2004.56 18.9825 L2004.56 9.54393 Z" fill="#000000" fill-rule="nonzero" fill-opacity="1" /><path clip-path="url(#clip480)" d="M2034.99 14.324 L2034.99 27.2059 L2050.34 27.2059 L2050.34 32.9987 L2034.99 32.9987 L2034.99 57.6282 Q2034.99 63.1779 2036.48 64.7578 Q2038.02 66.3376 2042.68 66.3376 L2050.34 66.3376 L2050.34 72.576 L2042.68 72.576 Q2034.05 72.576 2030.77 69.3758 Q2027.49 66.1351 2027.49 57.6282 L2027.49 32.9987 L2022.02 32.9987 L2022.02 27.2059 L2027.49 27.2059 L2027.49 14.324 L2034.99 14.324 Z" fill="#000000" fill-rule="nonzero" fill-opacity="1" /><path clip-path="url(#clip480)" d="M2079.02 76.7889 Q2075.86 84.8907 2072.86 87.3618 Q2069.86 89.8329 2064.84 89.8329 L2058.89 89.8329 L2058.89 83.5945 L2063.26 83.5945 Q2066.34 83.5945 2068.04 82.1361 Q2069.74 80.6778 2071.81 75.2496 L2073.14 71.8468 L2054.79 27.2059 L2062.69 27.2059 L2076.87 62.6918 L2091.05 27.2059 L2098.95 27.2059 L2079.02 76.7889 Z" fill="#000000" fill-rule="nonzero" fill-opacity="1" /><path clip-path="url(#clip480)" d="M2108.06 9.62495 L2114.55 9.62495 Q2120.62 19.1851 2123.62 28.3401 Q2126.66 37.4952 2126.66 46.5287 Q2126.66 55.6027 2123.62 64.7983 Q2120.62 73.9938 2114.55 83.5134 L2108.06 83.5134 Q2113.45 74.2369 2116.08 65.0818 Q2118.76 55.8863 2118.76 46.5287 Q2118.76 37.1711 2116.08 28.0566 Q2113.45 18.942 2108.06 9.62495 Z" fill="#000000" fill-rule="nonzero" fill-opacity="1" /><path clip-path="url(#clip482)" d="M303.466 1480.55 L303.466 1486.45 L451.928 1486.45 L451.928 1480.55 L303.466 1480.55 L303.466 1480.55  Z" fill="#009af9" fill-rule="evenodd" fill-opacity="0.6"/>
<polyline clip-path="url(#clip482)" style="stroke:#000000; stroke-linecap:round; stroke-linejoin:round; stroke-width:4; stroke-opacity:0.6; fill:none" points="303.466,1480.55 303.466,1486.45 451.928,1486.45 451.928,1480.55 303.466,1480.55 "/>
<path clip-path="url(#clip482)" d="M451.928 1451.05 L451.928 1486.45 L600.391 1486.45 L600.391 1451.05 L451.928 1451.05 L451.928 1451.05  Z" fill="#009af9" fill-rule="evenodd" fill-opacity="0.6"/>
<polyline clip-path="url(#clip482)" style="stroke:#000000; stroke-linecap:round; stroke-linejoin:round; stroke-width:4; stroke-opacity:0.6; fill:none" points="451.928,1451.05 451.928,1486.45 600.391,1486.45 600.391,1451.05 451.928,1451.05 "/>
<path clip-path="url(#clip482)" d="M600.391 1344.84 L600.391 1486.45 L748.854 1486.45 L748.854 1344.84 L600.391 1344.84 L600.391 1344.84  Z" fill="#009af9" fill-rule="evenodd" fill-opacity="0.6"/>
<polyline clip-path="url(#clip482)" style="stroke:#000000; stroke-linecap:round; stroke-linejoin:round; stroke-width:4; stroke-opacity:0.6; fill:none" points="600.391,1344.84 600.391,1486.45 748.854,1486.45 748.854,1344.84 600.391,1344.84 "/>
<path clip-path="url(#clip482)" d="M748.854 1102.93 L748.854 1486.45 L897.316 1486.45 L897.316 1102.93 L748.854 1102.93 L748.854 1102.93  Z" fill="#009af9" fill-rule="evenodd" fill-opacity="0.6"/>
<polyline clip-path="url(#clip482)" style="stroke:#000000; stroke-linecap:round; stroke-linejoin:round; stroke-width:4; stroke-opacity:0.6; fill:none" points="748.854,1102.93 748.854,1486.45 897.316,1486.45 897.316,1102.93 748.854,1102.93 "/>
<path clip-path="url(#clip482)" d="M897.316 660.402 L897.316 1486.45 L1045.78 1486.45 L1045.78 660.402 L897.316 660.402 L897.316 660.402  Z" fill="#009af9" fill-rule="evenodd" fill-opacity="0.6"/>
<polyline clip-path="url(#clip482)" style="stroke:#000000; stroke-linecap:round; stroke-linejoin:round; stroke-width:4; stroke-opacity:0.6; fill:none" points="897.316,660.402 897.316,1486.45 1045.78,1486.45 1045.78,660.402 897.316,660.402 "/>
<path clip-path="url(#clip482)" d="M1045.78 359.485 L1045.78 1486.45 L1194.24 1486.45 L1194.24 359.485 L1045.78 359.485 L1045.78 359.485  Z" fill="#009af9" fill-rule="evenodd" fill-opacity="0.6"/>
<polyline clip-path="url(#clip482)" style="stroke:#000000; stroke-linecap:round; stroke-linejoin:round; stroke-width:4; stroke-opacity:0.6; fill:none" points="1045.78,359.485 1045.78,1486.45 1194.24,1486.45 1194.24,359.485 1045.78,359.485 "/>
<path clip-path="url(#clip482)" d="M1194.24 123.472 L1194.24 1486.45 L1342.7 1486.45 L1342.7 123.472 L1194.24 123.472 L1194.24 123.472  Z" fill="#009af9" fill-rule="evenodd" fill-opacity="0.6"/>
<polyline clip-path="url(#clip482)" style="stroke:#000000; stroke-linecap:round; stroke-linejoin:round; stroke-width:4; stroke-opacity:0.6; fill:none" points="1194.24,123.472 1194.24,1486.45 1342.7,1486.45 1342.7,123.472 1194.24,123.472 "/>
<path clip-path="url(#clip482)" d="M1342.7 388.987 L1342.7 1486.45 L1491.17 1486.45 L1491.17 388.987 L1342.7 388.987 L1342.7 388.987  Z" fill="#009af9" fill-rule="evenodd" fill-opacity="0.6"/>
<polyline clip-path="url(#clip482)" style="stroke:#000000; stroke-linecap:round; stroke-linejoin:round; stroke-width:4; stroke-opacity:0.6; fill:none" points="1342.7,388.987 1342.7,1486.45 1491.17,1486.45 1491.17,388.987 1342.7,388.987 "/>
<path clip-path="url(#clip482)" d="M1491.17 943.618 L1491.17 1486.45 L1639.63 1486.45 L1639.63 943.618 L1491.17 943.618 L1491.17 943.618  Z" fill="#009af9" fill-rule="evenodd" fill-opacity="0.6"/>
<polyline clip-path="url(#clip482)" style="stroke:#000000; stroke-linecap:round; stroke-linejoin:round; stroke-width:4; stroke-opacity:0.6; fill:none" points="1491.17,943.618 1491.17,1486.45 1639.63,1486.45 1639.63,943.618 1491.17,943.618 "/>
<path clip-path="url(#clip482)" d="M1639.63 1203.23 L1639.63 1486.45 L1788.09 1486.45 L1788.09 1203.23 L1639.63 1203.23 L1639.63 1203.23  Z" fill="#009af9" fill-rule="evenodd" fill-opacity="0.6"/>
<polyline clip-path="url(#clip482)" style="stroke:#000000; stroke-linecap:round; stroke-linejoin:round; stroke-width:4; stroke-opacity:0.6; fill:none" points="1639.63,1203.23 1639.63,1486.45 1788.09,1486.45 1788.09,1203.23 1639.63,1203.23 "/>
<path clip-path="url(#clip482)" d="M1788.09 1403.84 L1788.09 1486.45 L1936.56 1486.45 L1936.56 1403.84 L1788.09 1403.84 L1788.09 1403.84  Z" fill="#009af9" fill-rule="evenodd" fill-opacity="0.6"/>
<polyline clip-path="url(#clip482)" style="stroke:#000000; stroke-linecap:round; stroke-linejoin:round; stroke-width:4; stroke-opacity:0.6; fill:none" points="1788.09,1403.84 1788.09,1486.45 1936.56,1486.45 1936.56,1403.84 1788.09,1403.84 "/>
<path clip-path="url(#clip482)" d="M1936.56 1480.55 L1936.56 1486.45 L2085.02 1486.45 L2085.02 1480.55 L1936.56 1480.55 L1936.56 1480.55  Z" fill="#009af9" fill-rule="evenodd" fill-opacity="0.6"/>
<polyline clip-path="url(#clip482)" style="stroke:#000000; stroke-linecap:round; stroke-linejoin:round; stroke-width:4; stroke-opacity:0.6; fill:none" points="1936.56,1480.55 1936.56,1486.45 2085.02,1486.45 2085.02,1480.55 1936.56,1480.55 "/>
<path clip-path="url(#clip482)" d="M2085.02 1480.55 L2085.02 1486.45 L2233.48 1486.45 L2233.48 1480.55 L2085.02 1480.55 L2085.02 1480.55  Z" fill="#009af9" fill-rule="evenodd" fill-opacity="0.6"/>
<polyline clip-path="url(#clip482)" style="stroke:#000000; stroke-linecap:round; stroke-linejoin:round; stroke-width:4; stroke-opacity:0.6; fill:none" points="2085.02,1480.55 2085.02,1486.45 2233.48,1486.45 2233.48,1480.55 2085.02,1480.55 "/>
<circle clip-path="url(#clip482)" style="fill:#009af9; stroke:none; fill-opacity:0" cx="377.697" cy="1480.55" r="2"/>
<circle clip-path="url(#clip482)" style="fill:#009af9; stroke:none; fill-opacity:0" cx="526.16" cy="1451.05" r="2"/>
<circle clip-path="url(#clip482)" style="fill:#009af9; stroke:none; fill-opacity:0" cx="674.622" cy="1344.84" r="2"/>
<circle clip-path="url(#clip482)" style="fill:#009af9; stroke:none; fill-opacity:0" cx="823.085" cy="1102.93" r="2"/>
<circle clip-path="url(#clip482)" style="fill:#009af9; stroke:none; fill-opacity:0" cx="971.548" cy="660.402" r="2"/>
<circle clip-path="url(#clip482)" style="fill:#009af9; stroke:none; fill-opacity:0" cx="1120.01" cy="359.485" r="2"/>
<circle clip-path="url(#clip482)" style="fill:#009af9; stroke:none; fill-opacity:0" cx="1268.47" cy="123.472" r="2"/>
<circle clip-path="url(#clip482)" style="fill:#009af9; stroke:none; fill-opacity:0" cx="1416.94" cy="388.987" r="2"/>
<circle clip-path="url(#clip482)" style="fill:#009af9; stroke:none; fill-opacity:0" cx="1565.4" cy="943.618" r="2"/>
<circle clip-path="url(#clip482)" style="fill:#009af9; stroke:none; fill-opacity:0" cx="1713.86" cy="1203.23" r="2"/>
<circle clip-path="url(#clip482)" style="fill:#009af9; stroke:none; fill-opacity:0" cx="1862.32" cy="1403.84" r="2"/>
<circle clip-path="url(#clip482)" style="fill:#009af9; stroke:none; fill-opacity:0" cx="2010.79" cy="1480.55" r="2"/>
<circle clip-path="url(#clip482)" style="fill:#009af9; stroke:none; fill-opacity:0" cx="2159.25" cy="1480.55" r="2"/>
<path clip-path="url(#clip480)" d="M1903.8 272.585 L2280.47 272.585 L2280.47 168.905 L1903.8 168.905  Z" fill="#ffffff" fill-rule="evenodd" fill-opacity="1"/>
<polyline clip-path="url(#clip480)" style="stroke:#000000; stroke-linecap:round; stroke-linejoin:round; stroke-width:4; stroke-opacity:1; fill:none" points="1903.8,272.585 2280.47,272.585 2280.47,168.905 1903.8,168.905 1903.8,272.585 "/>
<path clip-path="url(#clip480)" d="M1927.9 241.481 L2072.47 241.481 L2072.47 200.009 L1927.9 200.009 L1927.9 241.481  Z" fill="#009af9" fill-rule="evenodd" fill-opacity="0.6"/>
<polyline clip-path="url(#clip480)" style="stroke:#000000; stroke-linecap:round; stroke-linejoin:round; stroke-width:4; stroke-opacity:1; fill:none" points="1927.9,241.481 2072.47,241.481 2072.47,200.009 1927.9,200.009 1927.9,241.481 "/>
<path clip-path="url(#clip480)" d="M2113.07 202.006 L2113.07 205.548 L2108.99 205.548 Q2106.7 205.548 2105.8 206.474 Q2104.92 207.4 2104.92 209.807 L2104.92 212.099 L2111.93 212.099 L2111.93 215.409 L2104.92 215.409 L2104.92 238.025 L2100.64 238.025 L2100.64 215.409 L2096.56 215.409 L2096.56 212.099 L2100.64 212.099 L2100.64 210.293 Q2100.64 205.965 2102.65 203.997 Q2104.66 202.006 2109.04 202.006 L2113.07 202.006 Z" fill="#000000" fill-rule="nonzero" fill-opacity="1" /><path clip-path="url(#clip480)" d="M2138.81 223.997 L2138.81 226.08 L2119.22 226.08 Q2119.5 230.478 2121.86 232.793 Q2124.25 235.085 2128.48 235.085 Q2130.94 235.085 2133.23 234.483 Q2135.54 233.881 2137.81 232.677 L2137.81 236.705 Q2135.52 237.677 2133.11 238.187 Q2130.7 238.696 2128.23 238.696 Q2122.02 238.696 2118.39 235.085 Q2114.78 231.474 2114.78 225.316 Q2114.78 218.951 2118.2 215.224 Q2121.65 211.474 2127.49 211.474 Q2132.72 211.474 2135.75 214.853 Q2138.81 218.21 2138.81 223.997 M2134.55 222.747 Q2134.5 219.252 2132.58 217.168 Q2130.68 215.085 2127.53 215.085 Q2123.97 215.085 2121.82 217.099 Q2119.69 219.113 2119.36 222.77 L2134.55 222.747 Z" fill="#000000" fill-rule="nonzero" fill-opacity="1" /><path clip-path="url(#clip480)" d="M2165.98 217.076 Q2167.58 214.205 2169.8 212.84 Q2172.02 211.474 2175.03 211.474 Q2179.08 211.474 2181.28 214.321 Q2183.48 217.145 2183.48 222.377 L2183.48 238.025 L2179.2 238.025 L2179.2 222.515 Q2179.2 218.789 2177.88 216.983 Q2176.56 215.178 2173.85 215.178 Q2170.54 215.178 2168.62 217.377 Q2166.7 219.576 2166.7 223.372 L2166.7 238.025 L2162.42 238.025 L2162.42 222.515 Q2162.42 218.765 2161.1 216.983 Q2159.78 215.178 2157.02 215.178 Q2153.76 215.178 2151.84 217.4 Q2149.92 219.599 2149.92 223.372 L2149.92 238.025 L2145.64 238.025 L2145.64 212.099 L2149.92 212.099 L2149.92 216.127 Q2151.38 213.742 2153.41 212.608 Q2155.45 211.474 2158.25 211.474 Q2161.07 211.474 2163.04 212.909 Q2165.03 214.344 2165.98 217.076 Z" fill="#000000" fill-rule="nonzero" fill-opacity="1" /><path clip-path="url(#clip480)" d="M2203.76 224.992 Q2198.6 224.992 2196.61 226.173 Q2194.62 227.353 2194.62 230.201 Q2194.62 232.469 2196.1 233.812 Q2197.6 235.131 2200.17 235.131 Q2203.71 235.131 2205.84 232.631 Q2208 230.108 2208 225.941 L2208 224.992 L2203.76 224.992 M2212.26 223.233 L2212.26 238.025 L2208 238.025 L2208 234.089 Q2206.54 236.451 2204.36 237.585 Q2202.19 238.696 2199.04 238.696 Q2195.06 238.696 2192.7 236.474 Q2190.36 234.228 2190.36 230.478 Q2190.36 226.103 2193.27 223.881 Q2196.21 221.659 2202.02 221.659 L2208 221.659 L2208 221.242 Q2208 218.303 2206.05 216.705 Q2204.13 215.085 2200.63 215.085 Q2198.41 215.085 2196.31 215.617 Q2194.2 216.15 2192.26 217.215 L2192.26 213.279 Q2194.59 212.377 2196.79 211.937 Q2198.99 211.474 2201.07 211.474 Q2206.7 211.474 2209.48 214.391 Q2212.26 217.307 2212.26 223.233 Z" fill="#000000" fill-rule="nonzero" fill-opacity="1" /><path clip-path="url(#clip480)" d="M2221.03 202.006 L2225.29 202.006 L2225.29 238.025 L2221.03 238.025 L2221.03 202.006 Z" fill="#000000" fill-rule="nonzero" fill-opacity="1" /><path clip-path="url(#clip480)" d="M2256.38 223.997 L2256.38 226.08 L2236.79 226.08 Q2237.07 230.478 2239.43 232.793 Q2241.82 235.085 2246.05 235.085 Q2248.5 235.085 2250.8 234.483 Q2253.11 233.881 2255.38 232.677 L2255.38 236.705 Q2253.09 237.677 2250.68 238.187 Q2248.27 238.696 2245.8 238.696 Q2239.59 238.696 2235.96 235.085 Q2232.35 231.474 2232.35 225.316 Q2232.35 218.951 2235.77 215.224 Q2239.22 211.474 2245.06 211.474 Q2250.29 211.474 2253.32 214.853 Q2256.38 218.21 2256.38 223.997 M2252.12 222.747 Q2252.07 219.252 2250.15 217.168 Q2248.25 215.085 2245.1 215.085 Q2241.54 215.085 2239.38 217.099 Q2237.25 219.113 2236.93 222.77 L2252.12 222.747 Z" fill="#000000" fill-rule="nonzero" fill-opacity="1" /></svg>