<?xml version="1.0" encoding="UTF-8"?>
<svg xmlns="http://www.w3.org/2000/svg"
     xmlns:xlink="http://www.w3.org/1999/xlink"
     xmlns:gadfly="http://www.gadflyjl.org/ns"
     version="1.2"
     width="141.42mm" height="100mm" viewBox="0 0 141.42 100"
     stroke="none"
     fill="#000000"
     stroke-width="0.3"
     font-size="3.88"
>
<defs>
  <marker id="arrow" markerWidth="15" markerHeight="7" refX="5" refY="3.5" orient="auto" markerUnits="strokeWidth">
    <path d="M0,0 L15,3.5 L0,7 z" stroke="context-stroke" fill="context-stroke"/>
  </marker>
</defs>
<g stroke="#000000" stroke-opacity="0.000" fill="#FFFFFF" id="img-debc4743-1">
  <g transform="translate(106.07,50)">
    <path d="M-35.36,-50 L35.36,-50 35.36,50 -35.36,50  z" class="primitive"/>
  </g>
</g>
<g class="plotroot xscalable yscalable" id="img-debc4743-2">
  <g font-size="3.88" font-family="'PT Sans','Helvetica Neue','Helvetica',sans-serif" fill="#564A55" stroke="#000000" stroke-opacity="0.000" id="img-debc4743-3">
    <g transform="translate(112.88,88.39)">
      <g class="primitive">
        <text text-anchor="middle" dy="0.6em">Estimated Effect</text>
      </g>
    </g>
  </g>
  <g class="guide xlabels" font-size="2.82" font-family="'PT Sans Caption','Helvetica Neue','Helvetica',sans-serif" fill="#6C606B" id="img-debc4743-4">
    <g transform="translate(91.34,81.72)">
      <g class="primitive">
        <text text-anchor="middle" dy="0.6em">8</text>
      </g>
    </g>
    <g transform="translate(102.11,81.72)">
      <g class="primitive">
        <text text-anchor="middle" dy="0.6em">9</text>
      </g>
    </g>
    <g transform="translate(112.88,81.72)">
      <g class="primitive">
        <text text-anchor="middle" dy="0.6em">10</text>
      </g>
    </g>
    <g transform="translate(123.65,81.72)">
      <g class="primitive">
        <text text-anchor="middle" dy="0.6em">11</text>
      </g>
    </g>
    <g transform="translate(134.42,81.72)">
      <g class="primitive">
        <text text-anchor="middle" dy="0.6em">12</text>
      </g>
    </g>
  </g>
  <g clip-path="url(#img-debc4743-5)">
    <g id="img-debc4743-6">
      <g pointer-events="visible" stroke-width="0.3" fill="#FFFFFF" stroke="#000000" stroke-opacity="0.000" class="guide background" id="img-debc4743-7">
        <g transform="translate(112.88,45.66)" id="img-debc4743-8">
          <path d="M-23.54,-35.05 L23.54,-35.05 23.54,35.05 -23.54,35.05  z" class="primitive"/>
        </g>
      </g>
      <g class="guide ygridlines xfixed" stroke-dasharray="0.5,0.5" stroke-width="0.2" stroke="#D0D0E0" id="img-debc4743-9">
        <g transform="translate(112.88,78.72)" id="img-debc4743-10">
          <path fill="none" d="M-23.54,0 L23.54,0 " class="primitive"/>
        </g>
        <g transform="translate(112.88,62.19)" id="img-debc4743-11">
          <path fill="none" d="M-23.54,0 L23.54,0 " class="primitive"/>
        </g>
        <g transform="translate(112.88,45.66)" id="img-debc4743-12">
          <path fill="none" d="M-23.54,0 L23.54,0 " class="primitive"/>
        </g>
        <g transform="translate(112.88,29.14)" id="img-debc4743-13">
          <path fill="none" d="M-23.54,0 L23.54,0 " class="primitive"/>
        </g>
        <g transform="translate(112.88,12.61)" id="img-debc4743-14">
          <path fill="none" d="M-23.54,0 L23.54,0 " class="primitive"/>
        </g>
      </g>
      <g class="guide xgridlines yfixed" stroke-dasharray="0.5,0.5" stroke-width="0.2" stroke="#D0D0E0" id="img-debc4743-15">
        <g transform="translate(91.34,45.66)" id="img-debc4743-16">
          <path fill="none" d="M0,-35.05 L0,35.05 " class="primitive"/>
        </g>
        <g transform="translate(102.11,45.66)" id="img-debc4743-17">
          <path fill="none" d="M0,-35.05 L0,35.05 " class="primitive"/>
        </g>
        <g transform="translate(112.88,45.66)" id="img-debc4743-18">
          <path fill="none" d="M0,-35.05 L0,35.05 " class="primitive"/>
        </g>
        <g transform="translate(123.65,45.66)" id="img-debc4743-19">
          <path fill="none" d="M0,-35.05 L0,35.05 " class="primitive"/>
        </g>
        <g transform="translate(134.42,45.66)" id="img-debc4743-20">
          <path fill="none" d="M0,-35.05 L0,35.05 " class="primitive"/>
        </g>
      </g>
      <g class="plotpanel" id="img-debc4743-21">
        <metadata>
          <boundingbox value="89.34234478532142mm 10.611666666666665mm 47.07901145198809mm 70.10333333333334mm"/>
          <unitbox value="7.814294717302971 2.0605113206595735 4.371410565394058 -2.1210226413191466"/>
        </metadata>
        <g shape-rendering="crispEdges" stroke-width="0.3" id="img-debc4743-22">
          <g class="geometry" fill-opacity="1" stroke="#000000" stroke-opacity="0.000" fill="#ADD8E6" id="img-debc4743-23">
            <g transform="translate(92.42,78.72)" id="img-debc4743-24">
              <path d="M-1.1,-0 L1.1,-0 1.1,0 -1.1,0  z" class="primitive"/>
            </g>
            <g transform="translate(94.57,78.72)" id="img-debc4743-25">
              <path d="M-1.1,-0 L1.1,-0 1.1,0 -1.1,0  z" class="primitive"/>
            </g>
            <g transform="translate(96.73,78.72)" id="img-debc4743-26">
              <path d="M-1.1,-0 L1.1,-0 1.1,0 -1.1,0  z" class="primitive"/>
            </g>
            <g transform="translate(98.88,78.72)" id="img-debc4743-27">
              <path d="M-1.1,-0 L1.1,-0 1.1,0 -1.1,0  z" class="primitive"/>
            </g>
            <g transform="translate(101.04,78.72)" id="img-debc4743-28">
              <path d="M-1.1,-0 L1.1,-0 1.1,0 -1.1,0  z" class="primitive"/>
            </g>
            <g transform="translate(103.19,78.72)" id="img-debc4743-29">
              <path d="M-1.1,-0 L1.1,-0 1.1,0 -1.1,0  z" class="primitive"/>
            </g>
            <g transform="translate(105.34,78.72)" id="img-debc4743-30">
              <path d="M-1.1,-0 L1.1,-0 1.1,0 -1.1,0  z" class="primitive"/>
            </g>
            <g transform="translate(107.5,78.72)" id="img-debc4743-31">
              <path d="M-1.1,-0 L1.1,-0 1.1,0 -1.1,0  z" class="primitive"/>
            </g>
            <g transform="translate(109.65,78.72)" id="img-debc4743-32">
              <path d="M-1.1,-0 L1.1,-0 1.1,0 -1.1,0  z" class="primitive"/>
            </g>
            <g transform="translate(111.8,78.72)" id="img-debc4743-33">
              <path d="M-1.1,-0 L1.1,-0 1.1,0 -1.1,0  z" class="primitive"/>
            </g>
            <g transform="translate(113.96,78.72)" id="img-debc4743-34">
              <path d="M-1.1,-0 L1.1,-0 1.1,0 -1.1,0  z" class="primitive"/>
            </g>
            <g transform="translate(116.11,77.06)" id="img-debc4743-35">
              <path d="M-1.1,-1.65 L1.1,-1.65 1.1,1.65 -1.1,1.65  z" class="primitive"/>
            </g>
            <g transform="translate(118.27,47.32)" id="img-debc4743-36">
              <path d="M-1.1,-31.4 L1.1,-31.4 1.1,31.4 -1.1,31.4  z" class="primitive"/>
            </g>
            <g transform="translate(120.42,58.06)" id="img-debc4743-37">
              <path d="M-1.1,-20.66 L1.1,-20.66 1.1,20.66 -1.1,20.66  z" class="primitive"/>
            </g>
            <g transform="translate(122.57,50.62)" id="img-debc4743-38">
              <path d="M-1.1,-28.09 L1.1,-28.09 1.1,28.09 -1.1,28.09  z" class="primitive"/>
            </g>
            <g transform="translate(124.73,77.89)" id="img-debc4743-39">
              <path d="M-1.1,-0.83 L1.1,-0.83 1.1,0.83 -1.1,0.83  z" class="primitive"/>
            </g>
            <g transform="translate(126.88,78.72)" id="img-debc4743-40">
              <path d="M-1.1,-0 L1.1,-0 1.1,0 -1.1,0  z" class="primitive"/>
            </g>
            <g transform="translate(129.04,78.72)" id="img-debc4743-41">
              <path d="M-1.1,-0 L1.1,-0 1.1,0 -1.1,0  z" class="primitive"/>
            </g>
            <g transform="translate(131.19,78.72)" id="img-debc4743-42">
              <path d="M-1.1,-0 L1.1,-0 1.1,0 -1.1,0  z" class="primitive"/>
            </g>
            <g transform="translate(133.34,78.72)" id="img-debc4743-43">
              <path d="M-1.1,-0 L1.1,-0 1.1,0 -1.1,0  z" class="primitive"/>
            </g>
          </g>
        </g>
      </g>
    </g>
  </g>
  <g class="guide ylabels" font-size="2.82" font-family="'PT Sans Caption','Helvetica Neue','Helvetica',sans-serif" fill="#6C606B" id="img-debc4743-44">
    <g transform="translate(88.34,78.72)" id="img-debc4743-45">
      <g class="primitive">
        <text text-anchor="end" dy="0.35em">0.0</text>
      </g>
    </g>
    <g transform="translate(88.34,62.19)" id="img-debc4743-46">
      <g class="primitive">
        <text text-anchor="end" dy="0.35em">0.5</text>
      </g>
    </g>
    <g transform="translate(88.34,45.66)" id="img-debc4743-47">
      <g class="primitive">
        <text text-anchor="end" dy="0.35em">1.0</text>
      </g>
    </g>
    <g transform="translate(88.34,29.14)" id="img-debc4743-48">
      <g class="primitive">
        <text text-anchor="end" dy="0.35em">1.5</text>
      </g>
    </g>
    <g transform="translate(88.34,12.61)" id="img-debc4743-49">
      <g class="primitive">
        <text text-anchor="end" dy="0.35em">2.0</text>
      </g>
    </g>
  </g>
  <g font-size="3.88" font-family="'PT Sans','Helvetica Neue','Helvetica',sans-serif" fill="#564A55" stroke="#000000" stroke-opacity="0.000" id="img-debc4743-50">
    <g transform="translate(79.52,43.66)" id="img-debc4743-51">
      <g class="primitive">
        <text text-anchor="middle" dy="0.35em" transform="rotate(-90,0, 2)">Density</text>
      </g>
    </g>
  </g>
  <g font-size="3.88" font-family="'PT Sans','Helvetica Neue','Helvetica',sans-serif" fill="#564A55" stroke="#000000" stroke-opacity="0.000" id="img-debc4743-52">
    <g transform="translate(112.88,5)" id="img-debc4743-53">
      <g class="primitive">
        <text text-anchor="middle" dy="0.6em">Naive estimation</text>
      </g>
    </g>
  </g>
</g>
<g stroke="#000000" stroke-opacity="0.000" fill="#FFFFFF" id="img-debc4743-54">
  <g transform="translate(35.36,50)" id="img-debc4743-55">
    <path d="M-35.36,-50 L35.36,-50 35.36,50 -35.36,50  z" class="primitive"/>
  </g>
</g>
<g class="plotroot xscalable yscalable" id="img-debc4743-56">
  <g font-size="3.88" font-family="'PT Sans','Helvetica Neue','Helvetica',sans-serif" fill="#564A55" stroke="#000000" stroke-opacity="0.000" id="img-debc4743-57">
    <g transform="translate(41,88.39)" id="img-debc4743-58">
      <g class="primitive">
        <text text-anchor="middle" dy="0.6em">Estimated Effect</text>
      </g>
    </g>
  </g>
  <g class="guide xlabels" font-size="2.82" font-family="'PT Sans Caption','Helvetica Neue','Helvetica',sans-serif" fill="#6C606B" id="img-debc4743-59">
    <g transform="translate(18.28,81.72)" id="img-debc4743-60">
      <g class="primitive">
        <text text-anchor="middle" dy="0.6em">8</text>
      </g>
    </g>
    <g transform="translate(29.64,81.72)" id="img-debc4743-61">
      <g class="primitive">
        <text text-anchor="middle" dy="0.6em">9</text>
      </g>
    </g>
    <g transform="translate(41,81.72)" id="img-debc4743-62">
      <g class="primitive">
        <text text-anchor="middle" dy="0.6em">10</text>
      </g>
    </g>
    <g transform="translate(52.35,81.72)" id="img-debc4743-63">
      <g class="primitive">
        <text text-anchor="middle" dy="0.6em">11</text>
      </g>
    </g>
    <g transform="translate(63.71,81.72)" id="img-debc4743-64">
      <g class="primitive">
        <text text-anchor="middle" dy="0.6em">12</text>
      </g>
    </g>
  </g>
  <g clip-path="url(#img-debc4743-65)">
    <g id="img-debc4743-66">
      <g pointer-events="visible" stroke-width="0.3" fill="#FFFFFF" stroke="#000000" stroke-opacity="0.000" class="guide background" id="img-debc4743-67">
        <g transform="translate(41,45.66)" id="img-debc4743-68">
          <path d="M-24.71,-35.05 L24.71,-35.05 24.71,35.05 -24.71,35.05  z" class="primitive"/>
        </g>
      </g>
      <g class="guide ygridlines xfixed" stroke-dasharray="0.5,0.5" stroke-width="0.2" stroke="#D0D0E0" id="img-debc4743-69">
        <g transform="translate(41,78.72)" id="img-debc4743-70">
          <path fill="none" d="M-24.71,0 L24.71,0 " class="primitive"/>
        </g>
        <g transform="translate(41,56.68)" id="img-debc4743-71">
          <path fill="none" d="M-24.71,0 L24.71,0 " class="primitive"/>
        </g>
        <g transform="translate(41,34.65)" id="img-debc4743-72">
          <path fill="none" d="M-24.71,0 L24.71,0 " class="primitive"/>
        </g>
        <g transform="translate(41,12.61)" id="img-debc4743-73">
          <path fill="none" d="M-24.71,0 L24.71,0 " class="primitive"/>
        </g>
      </g>
      <g class="guide xgridlines yfixed" stroke-dasharray="0.5,0.5" stroke-width="0.2" stroke="#D0D0E0" id="img-debc4743-74">
        <g transform="translate(18.28,45.66)" id="img-debc4743-75">
          <path fill="none" d="M0,-35.05 L0,35.05 " class="primitive"/>
        </g>
        <g transform="translate(29.64,45.66)" id="img-debc4743-76">
          <path fill="none" d="M0,-35.05 L0,35.05 " class="primitive"/>
        </g>
        <g transform="translate(41,45.66)" id="img-debc4743-77">
          <path fill="none" d="M0,-35.05 L0,35.05 " class="primitive"/>
        </g>
        <g transform="translate(52.35,45.66)" id="img-debc4743-78">
          <path fill="none" d="M0,-35.05 L0,35.05 " class="primitive"/>
        </g>
        <g transform="translate(63.71,45.66)" id="img-debc4743-79">
          <path fill="none" d="M0,-35.05 L0,35.05 " class="primitive"/>
        </g>
      </g>
      <g class="plotpanel" id="img-debc4743-80">
        <metadata>
          <boundingbox value="16.284999999999997mm 10.611666666666665mm 49.42567811865476mm 70.10333333333334mm"/>
          <unitbox value="7.823888154644528 3.09076698098936 4.352223690710945 -3.1815339619787197"/>
        </metadata>
        <g shape-rendering="crispEdges" stroke-width="0.3" id="img-debc4743-81">
          <g class="geometry" fill-opacity="1" stroke="#000000" stroke-opacity="0.000" fill="#ADD8E6" id="img-debc4743-82">
            <g transform="translate(19.42,78.72)" id="img-debc4743-83">
              <path d="M-1.16,-0 L1.16,-0 1.16,0 -1.16,0  z" class="primitive"/>
            </g>
            <g transform="translate(21.69,78.72)" id="img-debc4743-84">
              <path d="M-1.16,-0 L1.16,-0 1.16,0 -1.16,0  z" class="primitive"/>
            </g>
            <g transform="translate(23.96,78.72)" id="img-debc4743-85">
              <path d="M-1.16,-0 L1.16,-0 1.16,0 -1.16,0  z" class="primitive"/>
            </g>
            <g transform="translate(26.23,78.72)" id="img-debc4743-86">
              <path d="M-1.16,-0 L1.16,-0 1.16,0 -1.16,0  z" class="primitive"/>
            </g>
            <g transform="translate(28.51,78.72)" id="img-debc4743-87">
              <path d="M-1.16,-0 L1.16,-0 1.16,0 -1.16,0  z" class="primitive"/>
            </g>
            <g transform="translate(30.78,78.72)" id="img-debc4743-88">
              <path d="M-1.16,-0 L1.16,-0 1.16,0 -1.16,0  z" class="primitive"/>
            </g>
            <g transform="translate(33.05,78.72)" id="img-debc4743-89">
              <path d="M-1.16,-0 L1.16,-0 1.16,0 -1.16,0  z" class="primitive"/>
            </g>
            <g transform="translate(35.32,78.72)" id="img-debc4743-90">
              <path d="M-1.16,-0 L1.16,-0 1.16,0 -1.16,0  z" class="primitive"/>
            </g>
            <g transform="translate(37.59,76.51)" id="img-debc4743-91">
              <path d="M-1.16,-2.2 L1.16,-2.2 1.16,2.2 -1.16,2.2  z" class="primitive"/>
            </g>
            <g transform="translate(39.86,60.54)" id="img-debc4743-92">
              <path d="M-1.16,-18.18 L1.16,-18.18 1.16,18.18 -1.16,18.18  z" class="primitive"/>
            </g>
            <g transform="translate(42.13,49.52)" id="img-debc4743-93">
              <path d="M-1.16,-29.2 L1.16,-29.2 1.16,29.2 -1.16,29.2  z" class="primitive"/>
            </g>
            <g transform="translate(44.4,73.21)" id="img-debc4743-94">
              <path d="M-1.16,-5.51 L1.16,-5.51 1.16,5.51 -1.16,5.51  z" class="primitive"/>
            </g>
            <g transform="translate(46.68,78.72)" id="img-debc4743-95">
              <path d="M-1.16,-0 L1.16,-0 1.16,0 -1.16,0  z" class="primitive"/>
            </g>
            <g transform="translate(48.95,78.72)" id="img-debc4743-96">
              <path d="M-1.16,-0 L1.16,-0 1.16,0 -1.16,0  z" class="primitive"/>
            </g>
            <g transform="translate(51.22,78.72)" id="img-debc4743-97">
              <path d="M-1.16,-0 L1.16,-0 1.16,0 -1.16,0  z" class="primitive"/>
            </g>
            <g transform="translate(53.49,78.72)" id="img-debc4743-98">
              <path d="M-1.16,-0 L1.16,-0 1.16,0 -1.16,0  z" class="primitive"/>
            </g>
            <g transform="translate(55.76,78.72)" id="img-debc4743-99">
              <path d="M-1.16,-0 L1.16,-0 1.16,0 -1.16,0  z" class="primitive"/>
            </g>
            <g transform="translate(58.03,78.72)" id="img-debc4743-100">
              <path d="M-1.16,-0 L1.16,-0 1.16,0 -1.16,0  z" class="primitive"/>
            </g>
            <g transform="translate(60.3,78.72)" id="img-debc4743-101">
              <path d="M-1.16,-0 L1.16,-0 1.16,0 -1.16,0  z" class="primitive"/>
            </g>
            <g transform="translate(62.58,78.72)" id="img-debc4743-102">
              <path d="M-1.16,-0 L1.16,-0 1.16,0 -1.16,0  z" class="primitive"/>
            </g>
          </g>
        </g>
      </g>
    </g>
  </g>
  <g class="guide ylabels" font-size="2.82" font-family="'PT Sans Caption','Helvetica Neue','Helvetica',sans-serif" fill="#6C606B" id="img-debc4743-103">
    <g transform="translate(15.28,78.72)" id="img-debc4743-104">
      <g class="primitive">
        <text text-anchor="end" dy="0.35em">0</text>
      </g>
    </g>
    <g transform="translate(15.28,56.68)" id="img-debc4743-105">
      <g class="primitive">
        <text text-anchor="end" dy="0.35em">1</text>
      </g>
    </g>
    <g transform="translate(15.28,34.65)" id="img-debc4743-106">
      <g class="primitive">
        <text text-anchor="end" dy="0.35em">2</text>
      </g>
    </g>
    <g transform="translate(15.28,12.61)" id="img-debc4743-107">
      <g class="primitive">
        <text text-anchor="end" dy="0.35em">3</text>
      </g>
    </g>
  </g>
  <g font-size="3.88" font-family="'PT Sans','Helvetica Neue','Helvetica',sans-serif" fill="#564A55" stroke="#000000" stroke-opacity="0.000" id="img-debc4743-108">
    <g transform="translate(8.81,43.66)" id="img-debc4743-109">
      <g class="primitive">
        <text text-anchor="middle" dy="0.35em" transform="rotate(-90,0, 2)">Density</text>
      </g>
    </g>
  </g>
  <g font-size="3.88" font-family="'PT Sans','Helvetica Neue','Helvetica',sans-serif" fill="#564A55" stroke="#000000" stroke-opacity="0.000" id="img-debc4743-110">
    <g transform="translate(41,5)" id="img-debc4743-111">
      <g class="primitive">
        <text text-anchor="middle" dy="0.6em">Orthogonal estimation</text>
      </g>
    </g>
  </g>
</g>
<defs>
  <clipPath id="img-debc4743-5">
    <path d="M89.34,10.61 L136.42,10.61 136.42,80.72 89.34,80.72 " />
  </clipPath>
  <clipPath id="img-debc4743-65">
    <path d="M16.28,10.61 L65.71,10.61 65.71,80.72 16.28,80.72 " />
  </clipPath>
</defs>
</svg>