<?xml version="1.0" encoding="utf-8"?>
<svg xmlns="http://www.w3.org/2000/svg" xmlns:xlink="http://www.w3.org/1999/xlink" width="600" height="400" viewBox="0 0 2400 1600">
<defs>
  <clipPath id="clip570">
    <rect x="0" y="0" width="2400" height="1600"/>
  </clipPath>
</defs>
<path clip-path="url(#clip570)" d="M0 1600 L2400 1600 L2400 0 L0 0  Z" fill="#ffffff" fill-rule="evenodd" fill-opacity="1"/>
<defs>
  <clipPath id="clip571">
    <rect x="480" y="0" width="1681" height="1600"/>
  </clipPath>
</defs>
<path clip-path="url(#clip570)" d="M112.177 1486.45 L2352.76 1486.45 L2352.76 123.472 L112.177 123.472  Z" fill="#ffffff" fill-rule="evenodd" fill-opacity="1"/>
<defs>
  <clipPath id="clip572">
    <rect x="112" y="123" width="2242" height="1364"/>
  </clipPath>
</defs>
<polyline clip-path="url(#clip572)" style="stroke:#000000; stroke-linecap:round; stroke-linejoin:round; stroke-width:2; stroke-opacity:0.1; fill:none" points="326.054,1486.45 326.054,123.472 "/>
<polyline clip-path="url(#clip572)" style="stroke:#000000; stroke-linecap:round; stroke-linejoin:round; stroke-width:2; stroke-opacity:0.1; fill:none" points="779.26,1486.45 779.26,123.472 "/>
<polyline clip-path="url(#clip572)" style="stroke:#000000; stroke-linecap:round; stroke-linejoin:round; stroke-width:2; stroke-opacity:0.1; fill:none" points="1232.47,1486.45 1232.47,123.472 "/>
<polyline clip-path="url(#clip572)" style="stroke:#000000; stroke-linecap:round; stroke-linejoin:round; stroke-width:2; stroke-opacity:0.1; fill:none" points="1685.67,1486.45 1685.67,123.472 "/>
<polyline clip-path="url(#clip572)" style="stroke:#000000; stroke-linecap:round; stroke-linejoin:round; stroke-width:2; stroke-opacity:0.1; fill:none" points="2138.88,1486.45 2138.88,123.472 "/>
<polyline clip-path="url(#clip570)" style="stroke:#000000; stroke-linecap:round; stroke-linejoin:round; stroke-width:4; stroke-opacity:1; fill:none" points="112.177,1486.45 2352.76,1486.45 "/>
<polyline clip-path="url(#clip570)" style="stroke:#000000; stroke-linecap:round; stroke-linejoin:round; stroke-width:4; stroke-opacity:1; fill:none" points="326.054,1486.45 326.054,1467.55 "/>
<polyline clip-path="url(#clip570)" style="stroke:#000000; stroke-linecap:round; stroke-linejoin:round; stroke-width:4; stroke-opacity:1; fill:none" points="779.26,1486.45 779.26,1467.55 "/>
<polyline clip-path="url(#clip570)" style="stroke:#000000; stroke-linecap:round; stroke-linejoin:round; stroke-width:4; stroke-opacity:1; fill:none" points="1232.47,1486.45 1232.47,1467.55 "/>
<polyline clip-path="url(#clip570)" style="stroke:#000000; stroke-linecap:round; stroke-linejoin:round; stroke-width:4; stroke-opacity:1; fill:none" points="1685.67,1486.45 1685.67,1467.55 "/>
<polyline clip-path="url(#clip570)" style="stroke:#000000; stroke-linecap:round; stroke-linejoin:round; stroke-width:4; stroke-opacity:1; fill:none" points="2138.88,1486.45 2138.88,1467.55 "/>
<path clip-path="url(#clip570)" d="M273.08 1532.02 L302.756 1532.02 L302.756 1535.95 L273.08 1535.95 L273.08 1532.02 Z" fill="#000000" fill-rule="nonzero" fill-opacity="1" /><path clip-path="url(#clip570)" d="M322.848 1517.37 Q319.237 1517.37 317.408 1520.93 Q315.603 1524.47 315.603 1531.6 Q315.603 1538.71 317.408 1542.27 Q319.237 1545.82 322.848 1545.82 Q326.482 1545.82 328.288 1542.27 Q330.117 1538.71 330.117 1531.6 Q330.117 1524.47 328.288 1520.93 Q326.482 1517.37 322.848 1517.37 M322.848 1513.66 Q328.658 1513.66 331.714 1518.27 Q334.793 1522.85 334.793 1531.6 Q334.793 1540.33 331.714 1544.94 Q328.658 1549.52 322.848 1549.52 Q317.038 1549.52 313.959 1544.94 Q310.904 1540.33 310.904 1531.6 Q310.904 1522.85 313.959 1518.27 Q317.038 1513.66 322.848 1513.66 Z" fill="#000000" fill-rule="nonzero" fill-opacity="1" /><path clip-path="url(#clip570)" d="M343.01 1542.97 L347.894 1542.97 L347.894 1548.85 L343.01 1548.85 L343.01 1542.97 Z" fill="#000000" fill-rule="nonzero" fill-opacity="1" /><path clip-path="url(#clip570)" d="M358.126 1514.29 L376.482 1514.29 L376.482 1518.22 L362.408 1518.22 L362.408 1526.7 Q363.427 1526.35 364.445 1526.19 Q365.464 1526 366.482 1526 Q372.269 1526 375.649 1529.17 Q379.028 1532.34 379.028 1537.76 Q379.028 1543.34 375.556 1546.44 Q372.084 1549.52 365.765 1549.52 Q363.589 1549.52 361.32 1549.15 Q359.075 1548.78 356.667 1548.04 L356.667 1543.34 Q358.751 1544.47 360.973 1545.03 Q363.195 1545.58 365.672 1545.58 Q369.677 1545.58 372.015 1543.48 Q374.353 1541.37 374.353 1537.76 Q374.353 1534.15 372.015 1532.04 Q369.677 1529.94 365.672 1529.94 Q363.797 1529.94 361.922 1530.35 Q360.07 1530.77 358.126 1531.65 L358.126 1514.29 Z" fill="#000000" fill-rule="nonzero" fill-opacity="1" /><path clip-path="url(#clip570)" d="M725.545 1532.02 L755.221 1532.02 L755.221 1535.95 L725.545 1535.95 L725.545 1532.02 Z" fill="#000000" fill-rule="nonzero" fill-opacity="1" /><path clip-path="url(#clip570)" d="M775.314 1517.37 Q771.703 1517.37 769.874 1520.93 Q768.068 1524.47 768.068 1531.6 Q768.068 1538.71 769.874 1542.27 Q771.703 1545.82 775.314 1545.82 Q778.948 1545.82 780.753 1542.27 Q782.582 1538.71 782.582 1531.6 Q782.582 1524.47 780.753 1520.93 Q778.948 1517.37 775.314 1517.37 M775.314 1513.66 Q781.124 1513.66 784.179 1518.27 Q787.258 1522.85 787.258 1531.6 Q787.258 1540.33 784.179 1544.94 Q781.124 1549.52 775.314 1549.52 Q769.503 1549.52 766.425 1544.94 Q763.369 1540.33 763.369 1531.6 Q763.369 1522.85 766.425 1518.27 Q769.503 1513.66 775.314 1513.66 Z" fill="#000000" fill-rule="nonzero" fill-opacity="1" /><path clip-path="url(#clip570)" d="M795.476 1542.97 L800.36 1542.97 L800.36 1548.85 L795.476 1548.85 L795.476 1542.97 Z" fill="#000000" fill-rule="nonzero" fill-opacity="1" /><path clip-path="url(#clip570)" d="M823.392 1518.36 L811.587 1536.81 L823.392 1536.81 L823.392 1518.36 M822.165 1514.29 L828.045 1514.29 L828.045 1536.81 L832.975 1536.81 L832.975 1540.7 L828.045 1540.7 L828.045 1548.85 L823.392 1548.85 L823.392 1540.7 L807.79 1540.7 L807.79 1536.19 L822.165 1514.29 Z" fill="#000000" fill-rule="nonzero" fill-opacity="1" /><path clip-path="url(#clip570)" d="M1179.32 1532.02 L1208.99 1532.02 L1208.99 1535.95 L1179.32 1535.95 L1179.32 1532.02 Z" fill="#000000" fill-rule="nonzero" fill-opacity="1" /><path clip-path="url(#clip570)" d="M1229.09 1517.37 Q1225.48 1517.37 1223.65 1520.93 Q1221.84 1524.47 1221.84 1531.6 Q1221.84 1538.71 1223.65 1542.27 Q1225.48 1545.82 1229.09 1545.82 Q1232.72 1545.82 1234.53 1542.27 Q1236.36 1538.71 1236.36 1531.6 Q1236.36 1524.47 1234.53 1520.93 Q1232.72 1517.37 1229.09 1517.37 M1229.09 1513.66 Q1234.9 1513.66 1237.95 1518.27 Q1241.03 1522.85 1241.03 1531.6 Q1241.03 1540.33 1237.95 1544.94 Q1234.9 1549.52 1229.09 1549.52 Q1223.28 1549.52 1220.2 1544.94 Q1217.14 1540.33 1217.14 1531.6 Q1217.14 1522.85 1220.2 1518.27 Q1223.28 1513.66 1229.09 1513.66 Z" fill="#000000" fill-rule="nonzero" fill-opacity="1" /><path clip-path="url(#clip570)" d="M1249.25 1542.97 L1254.13 1542.97 L1254.13 1548.85 L1249.25 1548.85 L1249.25 1542.97 Z" fill="#000000" fill-rule="nonzero" fill-opacity="1" /><path clip-path="url(#clip570)" d="M1278.48 1530.21 Q1281.84 1530.93 1283.72 1533.2 Q1285.61 1535.47 1285.61 1538.8 Q1285.61 1543.92 1282.1 1546.72 Q1278.58 1549.52 1272.1 1549.52 Q1269.92 1549.52 1267.61 1549.08 Q1265.31 1548.66 1262.86 1547.81 L1262.86 1543.29 Q1264.8 1544.43 1267.12 1545.01 Q1269.43 1545.58 1271.96 1545.58 Q1276.36 1545.58 1278.65 1543.85 Q1280.96 1542.11 1280.96 1538.8 Q1280.96 1535.75 1278.81 1534.03 Q1276.68 1532.3 1272.86 1532.3 L1268.83 1532.3 L1268.83 1528.45 L1273.05 1528.45 Q1276.49 1528.45 1278.32 1527.09 Q1280.15 1525.7 1280.15 1523.11 Q1280.15 1520.45 1278.25 1519.03 Q1276.38 1517.6 1272.86 1517.6 Q1270.94 1517.6 1268.74 1518.01 Q1266.54 1518.43 1263.9 1519.31 L1263.9 1515.14 Q1266.56 1514.4 1268.88 1514.03 Q1271.22 1513.66 1273.28 1513.66 Q1278.6 1513.66 1281.7 1516.09 Q1284.8 1518.5 1284.8 1522.62 Q1284.8 1525.49 1283.16 1527.48 Q1281.52 1529.45 1278.48 1530.21 Z" fill="#000000" fill-rule="nonzero" fill-opacity="1" /><path clip-path="url(#clip570)" d="M1633 1532.02 L1662.68 1532.02 L1662.68 1535.95 L1633 1535.95 L1633 1532.02 Z" fill="#000000" fill-rule="nonzero" fill-opacity="1" /><path clip-path="url(#clip570)" d="M1682.77 1517.37 Q1679.16 1517.37 1677.33 1520.93 Q1675.52 1524.47 1675.52 1531.6 Q1675.52 1538.71 1677.33 1542.27 Q1679.16 1545.82 1682.77 1545.82 Q1686.4 1545.82 1688.21 1542.27 Q1690.04 1538.71 1690.04 1531.6 Q1690.04 1524.47 1688.21 1520.93 Q1686.4 1517.37 1682.77 1517.37 M1682.77 1513.66 Q1688.58 1513.66 1691.63 1518.27 Q1694.71 1522.85 1694.71 1531.6 Q1694.71 1540.33 1691.63 1544.94 Q1688.58 1549.52 1682.77 1549.52 Q1676.96 1549.52 1673.88 1544.94 Q1670.82 1540.33 1670.82 1531.6 Q1670.82 1522.85 1673.88 1518.27 Q1676.96 1513.66 1682.77 1513.66 Z" fill="#000000" fill-rule="nonzero" fill-opacity="1" /><path clip-path="url(#clip570)" d="M1702.93 1542.97 L1707.81 1542.97 L1707.81 1548.85 L1702.93 1548.85 L1702.93 1542.97 Z" fill="#000000" fill-rule="nonzero" fill-opacity="1" /><path clip-path="url(#clip570)" d="M1722.03 1544.91 L1738.35 1544.91 L1738.35 1548.85 L1716.4 1548.85 L1716.4 1544.91 Q1719.06 1542.16 1723.65 1537.53 Q1728.25 1532.88 1729.43 1531.53 Q1731.68 1529.01 1732.56 1527.27 Q1733.46 1525.51 1733.46 1523.82 Q1733.46 1521.07 1731.52 1519.33 Q1729.6 1517.6 1726.49 1517.6 Q1724.3 1517.6 1721.84 1518.36 Q1719.41 1519.13 1716.63 1520.68 L1716.63 1515.95 Q1719.46 1514.82 1721.91 1514.24 Q1724.36 1513.66 1726.4 1513.66 Q1731.77 1513.66 1734.97 1516.35 Q1738.16 1519.03 1738.16 1523.52 Q1738.16 1525.65 1737.35 1527.57 Q1736.56 1529.47 1734.46 1532.07 Q1733.88 1532.74 1730.78 1535.95 Q1727.67 1539.15 1722.03 1544.91 Z" fill="#000000" fill-rule="nonzero" fill-opacity="1" /><path clip-path="url(#clip570)" d="M2086.02 1532.02 L2115.7 1532.02 L2115.7 1535.95 L2086.02 1535.95 L2086.02 1532.02 Z" fill="#000000" fill-rule="nonzero" fill-opacity="1" /><path clip-path="url(#clip570)" d="M2135.79 1517.37 Q2132.18 1517.37 2130.35 1520.93 Q2128.54 1524.47 2128.54 1531.6 Q2128.54 1538.71 2130.35 1542.27 Q2132.18 1545.82 2135.79 1545.82 Q2139.42 1545.82 2141.23 1542.27 Q2143.06 1538.71 2143.06 1531.6 Q2143.06 1524.47 2141.23 1520.93 Q2139.42 1517.37 2135.79 1517.37 M2135.79 1513.66 Q2141.6 1513.66 2144.65 1518.27 Q2147.73 1522.85 2147.73 1531.6 Q2147.73 1540.33 2144.65 1544.94 Q2141.6 1549.52 2135.79 1549.52 Q2129.98 1549.52 2126.9 1544.94 Q2123.84 1540.33 2123.84 1531.6 Q2123.84 1522.85 2126.9 1518.27 Q2129.98 1513.66 2135.79 1513.66 Z" fill="#000000" fill-rule="nonzero" fill-opacity="1" /><path clip-path="url(#clip570)" d="M2155.95 1542.97 L2160.83 1542.97 L2160.83 1548.85 L2155.95 1548.85 L2155.95 1542.97 Z" fill="#000000" fill-rule="nonzero" fill-opacity="1" /><path clip-path="url(#clip570)" d="M2171.83 1544.91 L2179.47 1544.91 L2179.47 1518.55 L2171.16 1520.21 L2171.16 1515.95 L2179.42 1514.29 L2184.1 1514.29 L2184.1 1544.91 L2191.74 1544.91 L2191.74 1548.85 L2171.83 1548.85 L2171.83 1544.91 Z" fill="#000000" fill-rule="nonzero" fill-opacity="1" /><polyline clip-path="url(#clip572)" style="stroke:#000000; stroke-linecap:round; stroke-linejoin:round; stroke-width:2; stroke-opacity:0.1; fill:none" points="112.177,1486.45 2352.76,1486.45 "/>
<polyline clip-path="url(#clip572)" style="stroke:#000000; stroke-linecap:round; stroke-linejoin:round; stroke-width:2; stroke-opacity:0.1; fill:none" points="112.177,1284.53 2352.76,1284.53 "/>
<polyline clip-path="url(#clip572)" style="stroke:#000000; stroke-linecap:round; stroke-linejoin:round; stroke-width:2; stroke-opacity:0.1; fill:none" points="112.177,1082.6 2352.76,1082.6 "/>
<polyline clip-path="url(#clip572)" style="stroke:#000000; stroke-linecap:round; stroke-linejoin:round; stroke-width:2; stroke-opacity:0.1; fill:none" points="112.177,880.681 2352.76,880.681 "/>
<polyline clip-path="url(#clip572)" style="stroke:#000000; stroke-linecap:round; stroke-linejoin:round; stroke-width:2; stroke-opacity:0.1; fill:none" points="112.177,678.759 2352.76,678.759 "/>
<polyline clip-path="url(#clip572)" style="stroke:#000000; stroke-linecap:round; stroke-linejoin:round; stroke-width:2; stroke-opacity:0.1; fill:none" points="112.177,476.836 2352.76,476.836 "/>
<polyline clip-path="url(#clip572)" style="stroke:#000000; stroke-linecap:round; stroke-linejoin:round; stroke-width:2; stroke-opacity:0.1; fill:none" points="112.177,274.914 2352.76,274.914 "/>
<polyline clip-path="url(#clip570)" style="stroke:#000000; stroke-linecap:round; stroke-linejoin:round; stroke-width:4; stroke-opacity:1; fill:none" points="112.177,1486.45 112.177,123.472 "/>
<polyline clip-path="url(#clip570)" style="stroke:#000000; stroke-linecap:round; stroke-linejoin:round; stroke-width:4; stroke-opacity:1; fill:none" points="112.177,1486.45 131.075,1486.45 "/>
<polyline clip-path="url(#clip570)" style="stroke:#000000; stroke-linecap:round; stroke-linejoin:round; stroke-width:4; stroke-opacity:1; fill:none" points="112.177,1284.53 131.075,1284.53 "/>
<polyline clip-path="url(#clip570)" style="stroke:#000000; stroke-linecap:round; stroke-linejoin:round; stroke-width:4; stroke-opacity:1; fill:none" points="112.177,1082.6 131.075,1082.6 "/>
<polyline clip-path="url(#clip570)" style="stroke:#000000; stroke-linecap:round; stroke-linejoin:round; stroke-width:4; stroke-opacity:1; fill:none" points="112.177,880.681 131.075,880.681 "/>
<polyline clip-path="url(#clip570)" style="stroke:#000000; stroke-linecap:round; stroke-linejoin:round; stroke-width:4; stroke-opacity:1; fill:none" points="112.177,678.759 131.075,678.759 "/>
<polyline clip-path="url(#clip570)" style="stroke:#000000; stroke-linecap:round; stroke-linejoin:round; stroke-width:4; stroke-opacity:1; fill:none" points="112.177,476.836 131.075,476.836 "/>
<polyline clip-path="url(#clip570)" style="stroke:#000000; stroke-linecap:round; stroke-linejoin:round; stroke-width:4; stroke-opacity:1; fill:none" points="112.177,274.914 131.075,274.914 "/>
<path clip-path="url(#clip570)" d="M64.2328 1472.25 Q60.6217 1472.25 58.793 1475.81 Q56.9875 1479.35 56.9875 1486.48 Q56.9875 1493.59 58.793 1497.15 Q60.6217 1500.7 64.2328 1500.7 Q67.867 1500.7 69.6726 1497.15 Q71.5013 1493.59 71.5013 1486.48 Q71.5013 1479.35 69.6726 1475.81 Q67.867 1472.25 64.2328 1472.25 M64.2328 1468.54 Q70.0429 1468.54 73.0985 1473.15 Q76.1772 1477.73 76.1772 1486.48 Q76.1772 1495.21 73.0985 1499.82 Q70.0429 1504.4 64.2328 1504.4 Q58.4226 1504.4 55.344 1499.82 Q52.2884 1495.21 52.2884 1486.48 Q52.2884 1477.73 55.344 1473.15 Q58.4226 1468.54 64.2328 1468.54 Z" fill="#000000" fill-rule="nonzero" fill-opacity="1" /><path clip-path="url(#clip570)" d="M56.2699 1297.87 L63.9087 1297.87 L63.9087 1271.5 L55.5986 1273.17 L55.5986 1268.91 L63.8624 1267.25 L68.5383 1267.25 L68.5383 1297.87 L76.1772 1297.87 L76.1772 1301.81 L56.2699 1301.81 L56.2699 1297.87 Z" fill="#000000" fill-rule="nonzero" fill-opacity="1" /><path clip-path="url(#clip570)" d="M59.8578 1095.95 L76.1772 1095.95 L76.1772 1099.88 L54.2328 1099.88 L54.2328 1095.95 Q56.8949 1093.19 61.4782 1088.56 Q66.0846 1083.91 67.2652 1082.57 Q69.5105 1080.05 70.3902 1078.31 Q71.2929 1076.55 71.2929 1074.86 Q71.2929 1072.11 69.3485 1070.37 Q67.4272 1068.63 64.3254 1068.63 Q62.1263 1068.63 59.6726 1069.4 Q57.2421 1070.16 54.4643 1071.71 L54.4643 1066.99 Q57.2884 1065.86 59.7421 1065.28 Q62.1958 1064.7 64.2328 1064.7 Q69.6031 1064.7 72.7976 1067.38 Q75.992 1070.07 75.992 1074.56 Q75.992 1076.69 75.1818 1078.61 Q74.3948 1080.51 72.2883 1083.1 Q71.7096 1083.77 68.6078 1086.99 Q65.5059 1090.18 59.8578 1095.95 Z" fill="#000000" fill-rule="nonzero" fill-opacity="1" /><path clip-path="url(#clip570)" d="M69.0476 879.327 Q72.404 880.044 74.279 882.313 Q76.1772 884.581 76.1772 887.915 Q76.1772 893.03 72.6587 895.831 Q69.1402 898.632 62.6587 898.632 Q60.4828 898.632 58.168 898.192 Q55.8764 897.776 53.4227 896.919 L53.4227 892.405 Q55.3671 893.54 57.6819 894.118 Q59.9967 894.697 62.5198 894.697 Q66.918 894.697 69.2096 892.961 Q71.5244 891.225 71.5244 887.915 Q71.5244 884.859 69.3717 883.146 Q67.242 881.41 63.4226 881.41 L59.3949 881.41 L59.3949 877.567 L63.6078 877.567 Q67.0569 877.567 68.8855 876.202 Q70.7142 874.813 70.7142 872.22 Q70.7142 869.558 68.8161 868.146 Q66.9411 866.711 63.4226 866.711 Q61.5013 866.711 59.3023 867.128 Q57.1032 867.544 54.4643 868.424 L54.4643 864.257 Q57.1264 863.517 59.4412 863.146 Q61.7791 862.776 63.8393 862.776 Q69.1633 862.776 72.2652 865.206 Q75.367 867.614 75.367 871.734 Q75.367 874.605 73.7235 876.595 Q72.08 878.563 69.0476 879.327 Z" fill="#000000" fill-rule="nonzero" fill-opacity="1" /><path clip-path="url(#clip570)" d="M66.5939 665.553 L54.7884 684.002 L66.5939 684.002 L66.5939 665.553 M65.367 661.479 L71.2466 661.479 L71.2466 684.002 L76.1772 684.002 L76.1772 687.89 L71.2466 687.89 L71.2466 696.039 L66.5939 696.039 L66.5939 687.89 L50.9921 687.89 L50.9921 683.377 L65.367 661.479 Z" fill="#000000" fill-rule="nonzero" fill-opacity="1" /><path clip-path="url(#clip570)" d="M55.2745 459.556 L73.6309 459.556 L73.6309 463.491 L59.5569 463.491 L59.5569 471.964 Q60.5754 471.616 61.5939 471.454 Q62.6124 471.269 63.6309 471.269 Q69.418 471.269 72.7976 474.44 Q76.1772 477.612 76.1772 483.028 Q76.1772 488.607 72.705 491.709 Q69.2328 494.788 62.9134 494.788 Q60.7374 494.788 58.4689 494.417 Q56.2236 494.047 53.8162 493.306 L53.8162 488.607 Q55.8995 489.741 58.1217 490.297 Q60.3439 490.852 62.8208 490.852 Q66.8254 490.852 69.1633 488.746 Q71.5013 486.639 71.5013 483.028 Q71.5013 479.417 69.1633 477.311 Q66.8254 475.204 62.8208 475.204 Q60.9458 475.204 59.0708 475.621 Q57.2189 476.038 55.2745 476.917 L55.2745 459.556 Z" fill="#000000" fill-rule="nonzero" fill-opacity="1" /><path clip-path="url(#clip570)" d="M64.6495 273.05 Q61.5013 273.05 59.6495 275.203 Q57.8208 277.356 57.8208 281.106 Q57.8208 284.833 59.6495 287.009 Q61.5013 289.161 64.6495 289.161 Q67.7976 289.161 69.6263 287.009 Q71.4781 284.833 71.4781 281.106 Q71.4781 277.356 69.6263 275.203 Q67.7976 273.05 64.6495 273.05 M73.9318 258.398 L73.9318 262.657 Q72.1726 261.824 70.367 261.384 Q68.5846 260.944 66.8254 260.944 Q62.1958 260.944 59.7421 264.069 Q57.3115 267.194 56.9643 273.513 Q58.33 271.5 60.3902 270.435 Q62.4504 269.347 64.9272 269.347 Q70.1355 269.347 73.1448 272.518 Q76.1772 275.666 76.1772 281.106 Q76.1772 286.43 73.029 289.648 Q69.8809 292.865 64.6495 292.865 Q58.6541 292.865 55.4828 288.282 Q52.3116 283.675 52.3116 274.949 Q52.3116 266.754 56.2004 261.893 Q60.0893 257.009 66.6402 257.009 Q68.3994 257.009 70.1818 257.356 Q71.9874 257.703 73.9318 258.398 Z" fill="#000000" fill-rule="nonzero" fill-opacity="1" /><path clip-path="url(#clip570)" d="M407.176 12.096 L415.359 12.096 L415.359 36.8875 L445.092 36.8875 L445.092 12.096 L453.275 12.096 L453.275 72.576 L445.092 72.576 L445.092 43.7741 L415.359 43.7741 L415.359 72.576 L407.176 72.576 L407.176 12.096 Z" fill="#000000" fill-rule="nonzero" fill-opacity="1" /><path clip-path="url(#clip570)" d="M469.236 27.2059 L476.689 27.2059 L476.689 72.576 L469.236 72.576 L469.236 27.2059 M469.236 9.54393 L476.689 9.54393 L476.689 18.9825 L469.236 18.9825 L469.236 9.54393 Z" fill="#000000" fill-rule="nonzero" fill-opacity="1" /><path clip-path="url(#clip570)" d="M521.209 28.5427 L521.209 35.5912 Q518.049 33.9709 514.646 33.1607 Q511.244 32.3505 507.598 32.3505 Q502.048 32.3505 499.253 34.0519 Q496.498 35.7533 496.498 39.156 Q496.498 41.7486 498.483 43.2475 Q500.468 44.7058 506.463 46.0426 L509.016 46.6097 Q516.955 48.3111 520.277 51.4303 Q523.639 54.509 523.639 60.0587 Q523.639 66.3781 518.616 70.0644 Q513.634 73.7508 504.884 73.7508 Q501.238 73.7508 497.268 73.0216 Q493.339 72.3329 488.964 70.9151 L488.964 63.2184 Q493.096 65.3654 497.106 66.4591 Q501.116 67.5124 505.046 67.5124 Q510.312 67.5124 513.147 65.73 Q515.983 63.9071 515.983 60.6258 Q515.983 57.5877 513.917 55.9673 Q511.892 54.3469 504.965 52.8481 L502.372 52.2405 Q495.445 50.7821 492.366 47.7845 Q489.288 44.7463 489.288 39.4801 Q489.288 33.0797 493.825 29.5959 Q498.362 26.1121 506.707 26.1121 Q510.838 26.1121 514.484 26.7198 Q518.13 27.3274 521.209 28.5427 Z" fill="#000000" fill-rule="nonzero" fill-opacity="1" /><path clip-path="url(#clip570)" d="M542.881 14.324 L542.881 27.2059 L558.234 27.2059 L558.234 32.9987 L542.881 32.9987 L542.881 57.6282 Q542.881 63.1779 544.38 64.7578 Q545.919 66.3376 550.578 66.3376 L558.234 66.3376 L558.234 72.576 L550.578 72.576 Q541.949 72.576 538.668 69.3758 Q535.387 66.1351 535.387 57.6282 L535.387 32.9987 L529.918 32.9987 L529.918 27.2059 L535.387 27.2059 L535.387 14.324 L542.881 14.324 Z" fill="#000000" fill-rule="nonzero" fill-opacity="1" /><path clip-path="url(#clip570)" d="M585.618 32.4315 Q579.623 32.4315 576.139 37.1306 Q572.655 41.7891 572.655 49.9314 Q572.655 58.0738 576.099 62.7728 Q579.582 67.4314 585.618 67.4314 Q591.573 67.4314 595.057 62.7323 Q598.541 58.0333 598.541 49.9314 Q598.541 41.8701 595.057 37.1711 Q591.573 32.4315 585.618 32.4315 M585.618 26.1121 Q595.34 26.1121 600.89 32.4315 Q606.44 38.7509 606.44 49.9314 Q606.44 61.0714 600.89 67.4314 Q595.34 73.7508 585.618 73.7508 Q575.855 73.7508 570.306 67.4314 Q564.797 61.0714 564.797 49.9314 Q564.797 38.7509 570.306 32.4315 Q575.855 26.1121 585.618 26.1121 Z" fill="#000000" fill-rule="nonzero" fill-opacity="1" /><path clip-path="url(#clip570)" d="M648.65 49.3643 Q648.65 41.2625 645.288 36.8065 Q641.966 32.3505 635.93 32.3505 Q629.935 32.3505 626.573 36.8065 Q623.251 41.2625 623.251 49.3643 Q623.251 57.4256 626.573 61.8816 Q629.935 66.3376 635.93 66.3376 Q641.966 66.3376 645.288 61.8816 Q648.65 57.4256 648.65 49.3643 M656.104 66.9452 Q656.104 78.5308 650.959 84.1616 Q645.815 89.8329 635.201 89.8329 Q631.272 89.8329 627.788 89.2252 Q624.304 88.6581 621.023 87.4428 L621.023 80.1917 Q624.304 81.9741 627.505 82.8248 Q630.705 83.6755 634.026 83.6755 Q641.359 83.6755 645.004 79.8271 Q648.65 76.0193 648.65 68.282 L648.65 64.5957 Q646.341 68.6061 642.736 70.5911 Q639.131 72.576 634.107 72.576 Q625.763 72.576 620.658 66.2161 Q615.554 59.8562 615.554 49.3643 Q615.554 38.832 620.658 32.472 Q625.763 26.1121 634.107 26.1121 Q639.131 26.1121 642.736 28.0971 Q646.341 30.082 648.65 34.0924 L648.65 27.2059 L656.104 27.2059 L656.104 66.9452 Z" fill="#000000" fill-rule="nonzero" fill-opacity="1" /><path clip-path="url(#clip570)" d="M697.747 34.1734 Q696.491 33.4443 694.993 33.1202 Q693.534 32.7556 691.752 32.7556 Q685.432 32.7556 682.03 36.8875 Q678.667 40.9789 678.667 48.6757 L678.667 72.576 L671.173 72.576 L671.173 27.2059 L678.667 27.2059 L678.667 34.2544 Q681.017 30.1225 684.784 28.1376 Q688.552 26.1121 693.939 26.1121 Q694.709 26.1121 695.641 26.2337 Q696.572 26.3147 697.707 26.5172 L697.747 34.1734 Z" fill="#000000" fill-rule="nonzero" fill-opacity="1" /><path clip-path="url(#clip570)" d="M726.185 49.7694 Q717.151 49.7694 713.667 51.8354 Q710.183 53.9013 710.183 58.8839 Q710.183 62.8538 712.776 65.2034 Q715.409 67.5124 719.906 67.5124 Q726.104 67.5124 729.83 63.1374 Q733.598 58.7219 733.598 51.4303 L733.598 49.7694 L726.185 49.7694 M741.051 46.6907 L741.051 72.576 L733.598 72.576 L733.598 65.6895 Q731.046 69.8214 727.238 71.8063 Q723.43 73.7508 717.921 73.7508 Q710.953 73.7508 706.821 69.8619 Q702.73 65.9325 702.73 59.3701 Q702.73 51.7138 707.834 47.825 Q712.979 43.9361 723.146 43.9361 L733.598 43.9361 L733.598 43.2069 Q733.598 38.0623 730.195 35.2672 Q726.833 32.4315 720.716 32.4315 Q716.827 32.4315 713.141 33.3632 Q709.454 34.295 706.052 36.1584 L706.052 29.2718 Q710.143 27.692 713.991 26.9223 Q717.84 26.1121 721.485 26.1121 Q731.329 26.1121 736.19 31.2163 Q741.051 36.3204 741.051 46.6907 Z" fill="#000000" fill-rule="nonzero" fill-opacity="1" /><path clip-path="url(#clip570)" d="M791.728 35.9153 Q794.523 30.8922 798.412 28.5022 Q802.301 26.1121 807.567 26.1121 Q814.656 26.1121 818.505 31.0947 Q822.353 36.0368 822.353 45.1919 L822.353 72.576 L814.859 72.576 L814.859 45.4349 Q814.859 38.913 812.55 35.7533 Q810.241 32.5936 805.501 32.5936 Q799.708 32.5936 796.346 36.4419 Q792.984 40.2903 792.984 46.9338 L792.984 72.576 L785.49 72.576 L785.49 45.4349 Q785.49 38.8725 783.181 35.7533 Q780.872 32.5936 776.051 32.5936 Q770.339 32.5936 766.977 36.4824 Q763.615 40.3308 763.615 46.9338 L763.615 72.576 L756.121 72.576 L756.121 27.2059 L763.615 27.2059 L763.615 34.2544 Q766.167 30.082 769.732 28.0971 Q773.297 26.1121 778.198 26.1121 Q783.14 26.1121 786.584 28.6237 Q790.067 31.1352 791.728 35.9153 Z" fill="#000000" fill-rule="nonzero" fill-opacity="1" /><path clip-path="url(#clip570)" d="M859.824 46.5287 L881.658 46.5287 L881.658 53.1722 L859.824 53.1722 L859.824 46.5287 Z" fill="#000000" fill-rule="nonzero" fill-opacity="1" /><path clip-path="url(#clip570)" d="M952.468 49.9314 Q952.468 41.7081 949.065 37.0496 Q945.703 32.3505 939.789 32.3505 Q933.874 32.3505 930.472 37.0496 Q927.109 41.7081 927.109 49.9314 Q927.109 58.1548 930.472 62.8538 Q933.874 67.5124 939.789 67.5124 Q945.703 67.5124 949.065 62.8538 Q952.468 58.1548 952.468 49.9314 M927.109 34.0924 Q929.459 30.0415 933.024 28.0971 Q936.629 26.1121 941.612 26.1121 Q949.875 26.1121 955.02 32.6746 Q960.205 39.2371 960.205 49.9314 Q960.205 60.6258 955.02 67.1883 Q949.875 73.7508 941.612 73.7508 Q936.629 73.7508 933.024 71.8063 Q929.459 69.8214 927.109 65.7705 L927.109 72.576 L919.615 72.576 L919.615 9.54393 L927.109 9.54393 L927.109 34.0924 Z" fill="#000000" fill-rule="nonzero" fill-opacity="1" /><path clip-path="url(#clip570)" d="M972.561 9.54393 L980.014 9.54393 L980.014 72.576 L972.561 72.576 L972.561 9.54393 Z" fill="#000000" fill-rule="nonzero" fill-opacity="1" /><path clip-path="url(#clip570)" d="M1016.23 49.7694 Q1007.2 49.7694 1003.71 51.8354 Q1000.23 53.9013 1000.23 58.8839 Q1000.23 62.8538 1002.82 65.2034 Q1005.45 67.5124 1009.95 67.5124 Q1016.15 67.5124 1019.88 63.1374 Q1023.64 58.7219 1023.64 51.4303 L1023.64 49.7694 L1016.23 49.7694 M1031.1 46.6907 L1031.1 72.576 L1023.64 72.576 L1023.64 65.6895 Q1021.09 69.8214 1017.28 71.8063 Q1013.47 73.7508 1007.97 73.7508 Q1001 73.7508 996.866 69.8619 Q992.775 65.9325 992.775 59.3701 Q992.775 51.7138 997.879 47.825 Q1003.02 43.9361 1013.19 43.9361 L1023.64 43.9361 L1023.64 43.2069 Q1023.64 38.0623 1020.24 35.2672 Q1016.88 32.4315 1010.76 32.4315 Q1006.87 32.4315 1003.19 33.3632 Q999.499 34.295 996.096 36.1584 L996.096 29.2718 Q1000.19 27.692 1004.04 26.9223 Q1007.88 26.1121 1011.53 26.1121 Q1021.37 26.1121 1026.24 31.2163 Q1031.1 36.3204 1031.1 46.6907 Z" fill="#000000" fill-rule="nonzero" fill-opacity="1" /><path clip-path="url(#clip570)" d="M1079.1 28.9478 L1079.1 35.9153 Q1075.94 34.1734 1072.74 33.3227 Q1069.58 32.4315 1066.34 32.4315 Q1059.09 32.4315 1055.08 37.0496 Q1051.07 41.6271 1051.07 49.9314 Q1051.07 58.2358 1055.08 62.8538 Q1059.09 67.4314 1066.34 67.4314 Q1069.58 67.4314 1072.74 66.5807 Q1075.94 65.6895 1079.1 63.9476 L1079.1 70.8341 Q1075.98 72.2924 1072.62 73.0216 Q1069.3 73.7508 1065.53 73.7508 Q1055.28 73.7508 1049.24 67.3098 Q1043.21 60.8689 1043.21 49.9314 Q1043.21 38.832 1049.28 32.472 Q1055.4 26.1121 1066.01 26.1121 Q1069.46 26.1121 1072.74 26.8413 Q1076.02 27.5299 1079.1 28.9478 Z" fill="#000000" fill-rule="nonzero" fill-opacity="1" /><path clip-path="url(#clip570)" d="M1091.78 9.54393 L1099.27 9.54393 L1099.27 46.7717 L1121.51 27.2059 L1131.03 27.2059 L1106.97 48.4326 L1132.04 72.576 L1122.32 72.576 L1099.27 50.4176 L1099.27 72.576 L1091.78 72.576 L1091.78 9.54393 Z" fill="#000000" fill-rule="nonzero" fill-opacity="1" /><path clip-path="url(#clip570)" d="M1147.15 12.096 L1147.15 34.5785 L1140.27 34.5785 L1140.27 12.096 L1147.15 12.096 Z" fill="#000000" fill-rule="nonzero" fill-opacity="1" /><path clip-path="url(#clip570)" d="M1191.84 28.5427 L1191.84 35.5912 Q1188.68 33.9709 1185.27 33.1607 Q1181.87 32.3505 1178.22 32.3505 Q1172.68 32.3505 1169.88 34.0519 Q1167.13 35.7533 1167.13 39.156 Q1167.13 41.7486 1169.11 43.2475 Q1171.1 44.7058 1177.09 46.0426 L1179.64 46.6097 Q1187.58 48.3111 1190.9 51.4303 Q1194.27 54.509 1194.27 60.0587 Q1194.27 66.3781 1189.24 70.0644 Q1184.26 73.7508 1175.51 73.7508 Q1171.87 73.7508 1167.9 73.0216 Q1163.97 72.3329 1159.59 70.9151 L1159.59 63.2184 Q1163.72 65.3654 1167.73 66.4591 Q1171.74 67.5124 1175.67 67.5124 Q1180.94 67.5124 1183.77 65.73 Q1186.61 63.9071 1186.61 60.6258 Q1186.61 57.5877 1184.54 55.9673 Q1182.52 54.3469 1175.59 52.8481 L1173 52.2405 Q1166.07 50.7821 1162.99 47.7845 Q1159.91 44.7463 1159.91 39.4801 Q1159.91 33.0797 1164.45 29.5959 Q1168.99 26.1121 1177.33 26.1121 Q1181.47 26.1121 1185.11 26.7198 Q1188.76 27.3274 1191.84 28.5427 Z" fill="#000000" fill-rule="nonzero" fill-opacity="1" /><path clip-path="url(#clip570)" d="M1265.16 28.9478 L1265.16 35.9153 Q1262 34.1734 1258.8 33.3227 Q1255.64 32.4315 1252.4 32.4315 Q1245.15 32.4315 1241.14 37.0496 Q1237.13 41.6271 1237.13 49.9314 Q1237.13 58.2358 1241.14 62.8538 Q1245.15 67.4314 1252.4 67.4314 Q1255.64 67.4314 1258.8 66.5807 Q1262 65.6895 1265.16 63.9476 L1265.16 70.8341 Q1262.04 72.2924 1258.68 73.0216 Q1255.35 73.7508 1251.59 73.7508 Q1241.34 73.7508 1235.3 67.3098 Q1229.27 60.8689 1229.27 49.9314 Q1229.27 38.832 1235.34 32.472 Q1241.46 26.1121 1252.07 26.1121 Q1255.52 26.1121 1258.8 26.8413 Q1262.08 27.5299 1265.16 28.9478 Z" fill="#000000" fill-rule="nonzero" fill-opacity="1" /><path clip-path="url(#clip570)" d="M1295.7 32.4315 Q1289.71 32.4315 1286.22 37.1306 Q1282.74 41.7891 1282.74 49.9314 Q1282.74 58.0738 1286.18 62.7728 Q1289.67 67.4314 1295.7 67.4314 Q1301.66 67.4314 1305.14 62.7323 Q1308.62 58.0333 1308.62 49.9314 Q1308.62 41.8701 1305.14 37.1711 Q1301.66 32.4315 1295.7 32.4315 M1295.7 26.1121 Q1305.42 26.1121 1310.97 32.4315 Q1316.52 38.7509 1316.52 49.9314 Q1316.52 61.0714 1310.97 67.4314 Q1305.42 73.7508 1295.7 73.7508 Q1285.94 73.7508 1280.39 67.4314 Q1274.88 61.0714 1274.88 49.9314 Q1274.88 38.7509 1280.39 32.4315 Q1285.94 26.1121 1295.7 26.1121 Z" fill="#000000" fill-rule="nonzero" fill-opacity="1" /><path clip-path="url(#clip570)" d="M1367.69 48.0275 L1367.69 51.6733 L1333.42 51.6733 Q1333.9 59.3701 1338.03 63.421 Q1342.21 67.4314 1349.62 67.4314 Q1353.91 67.4314 1357.92 66.3781 Q1361.97 65.3249 1365.94 63.2184 L1365.94 70.267 Q1361.93 71.9684 1357.72 72.8596 Q1353.51 73.7508 1349.17 73.7508 Q1338.32 73.7508 1331.96 67.4314 Q1325.64 61.1119 1325.64 50.3365 Q1325.64 39.1965 1331.63 32.6746 Q1337.67 26.1121 1347.88 26.1121 Q1357.03 26.1121 1362.34 32.0264 Q1367.69 37.9003 1367.69 48.0275 M1360.23 45.84 Q1360.15 39.7232 1356.79 36.0774 Q1353.47 32.4315 1347.96 32.4315 Q1341.72 32.4315 1337.95 35.9558 Q1334.23 39.4801 1333.66 45.8805 L1360.23 45.84 Z" fill="#000000" fill-rule="nonzero" fill-opacity="1" /><path clip-path="url(#clip570)" d="M1402.89 9.54393 L1402.89 15.7418 L1395.76 15.7418 Q1391.75 15.7418 1390.17 17.3622 Q1388.63 18.9825 1388.63 23.1955 L1388.63 27.2059 L1400.9 27.2059 L1400.9 32.9987 L1388.63 32.9987 L1388.63 72.576 L1381.13 72.576 L1381.13 32.9987 L1374.01 32.9987 L1374.01 27.2059 L1381.13 27.2059 L1381.13 24.0462 Q1381.13 16.471 1384.66 13.0277 Q1388.18 9.54393 1395.84 9.54393 L1402.89 9.54393 Z" fill="#000000" fill-rule="nonzero" fill-opacity="1" /><path clip-path="url(#clip570)" d="M1432.1 9.54393 L1432.1 15.7418 L1424.97 15.7418 Q1420.96 15.7418 1419.38 17.3622 Q1417.84 18.9825 1417.84 23.1955 L1417.84 27.2059 L1430.11 27.2059 L1430.11 32.9987 L1417.84 32.9987 L1417.84 72.576 L1410.34 72.576 L1410.34 32.9987 L1403.21 32.9987 L1403.21 27.2059 L1410.34 27.2059 L1410.34 24.0462 Q1410.34 16.471 1413.87 13.0277 Q1417.39 9.54393 1425.05 9.54393 L1432.1 9.54393 Z" fill="#000000" fill-rule="nonzero" fill-opacity="1" /><path clip-path="url(#clip570)" d="M1438.33 27.2059 L1445.79 27.2059 L1445.79 72.576 L1438.33 72.576 L1438.33 27.2059 M1438.33 9.54393 L1445.79 9.54393 L1445.79 18.9825 L1438.33 18.9825 L1438.33 9.54393 Z" fill="#000000" fill-rule="nonzero" fill-opacity="1" /><path clip-path="url(#clip570)" d="M1494.03 28.9478 L1494.03 35.9153 Q1490.87 34.1734 1487.67 33.3227 Q1484.51 32.4315 1481.27 32.4315 Q1474.02 32.4315 1470.01 37.0496 Q1466 41.6271 1466 49.9314 Q1466 58.2358 1470.01 62.8538 Q1474.02 67.4314 1481.27 67.4314 Q1484.51 67.4314 1487.67 66.5807 Q1490.87 65.6895 1494.03 63.9476 L1494.03 70.8341 Q1490.91 72.2924 1487.55 73.0216 Q1484.23 73.7508 1480.46 73.7508 Q1470.21 73.7508 1464.18 67.3098 Q1458.14 60.8689 1458.14 49.9314 Q1458.14 38.832 1464.22 32.472 Q1470.34 26.1121 1480.95 26.1121 Q1484.39 26.1121 1487.67 26.8413 Q1490.95 27.5299 1494.03 28.9478 Z" fill="#000000" fill-rule="nonzero" fill-opacity="1" /><path clip-path="url(#clip570)" d="M1507 27.2059 L1514.45 27.2059 L1514.45 72.576 L1507 72.576 L1507 27.2059 M1507 9.54393 L1514.45 9.54393 L1514.45 18.9825 L1507 18.9825 L1507 9.54393 Z" fill="#000000" fill-rule="nonzero" fill-opacity="1" /><path clip-path="url(#clip570)" d="M1568.85 48.0275 L1568.85 51.6733 L1534.58 51.6733 Q1535.07 59.3701 1539.2 63.421 Q1543.37 67.4314 1550.79 67.4314 Q1555.08 67.4314 1559.09 66.3781 Q1563.14 65.3249 1567.11 63.2184 L1567.11 70.267 Q1563.1 71.9684 1558.89 72.8596 Q1554.68 73.7508 1550.34 73.7508 Q1539.48 73.7508 1533.12 67.4314 Q1526.81 61.1119 1526.81 50.3365 Q1526.81 39.1965 1532.8 32.6746 Q1538.84 26.1121 1549.04 26.1121 Q1558.2 26.1121 1563.51 32.0264 Q1568.85 37.9003 1568.85 48.0275 M1561.4 45.84 Q1561.32 39.7232 1557.96 36.0774 Q1554.63 32.4315 1549.13 32.4315 Q1542.89 32.4315 1539.12 35.9558 Q1535.39 39.4801 1534.83 45.8805 L1561.4 45.84 Z" fill="#000000" fill-rule="nonzero" fill-opacity="1" /><path clip-path="url(#clip570)" d="M1618.8 45.1919 L1618.8 72.576 L1611.35 72.576 L1611.35 45.4349 Q1611.35 38.994 1608.84 35.7938 Q1606.32 32.5936 1601.3 32.5936 Q1595.27 32.5936 1591.78 36.4419 Q1588.3 40.2903 1588.3 46.9338 L1588.3 72.576 L1580.8 72.576 L1580.8 27.2059 L1588.3 27.2059 L1588.3 34.2544 Q1590.97 30.163 1594.58 28.1376 Q1598.22 26.1121 1602.96 26.1121 Q1610.78 26.1121 1614.79 30.9732 Q1618.8 35.7938 1618.8 45.1919 Z" fill="#000000" fill-rule="nonzero" fill-opacity="1" /><path clip-path="url(#clip570)" d="M1641.04 14.324 L1641.04 27.2059 L1656.39 27.2059 L1656.39 32.9987 L1641.04 32.9987 L1641.04 57.6282 Q1641.04 63.1779 1642.54 64.7578 Q1644.08 66.3376 1648.74 66.3376 L1656.39 66.3376 L1656.39 72.576 L1648.74 72.576 Q1640.11 72.576 1636.83 69.3758 Q1633.55 66.1351 1633.55 57.6282 L1633.55 32.9987 L1628.08 32.9987 L1628.08 27.2059 L1633.55 27.2059 L1633.55 14.324 L1641.04 14.324 Z" fill="#000000" fill-rule="nonzero" fill-opacity="1" /><path clip-path="url(#clip570)" d="M1710.47 9.62495 Q1705.05 18.942 1702.41 28.0566 Q1699.78 37.1711 1699.78 46.5287 Q1699.78 55.8863 1702.41 65.0818 Q1705.09 74.2369 1710.47 83.5134 L1703.99 83.5134 Q1697.92 73.9938 1694.88 64.7983 Q1691.88 55.6027 1691.88 46.5287 Q1691.88 37.4952 1694.88 28.3401 Q1697.87 19.1851 1703.99 9.62495 L1710.47 9.62495 Z" fill="#000000" fill-rule="nonzero" fill-opacity="1" /><path clip-path="url(#clip570)" d="M1733.44 18.8205 L1733.44 65.8515 L1743.33 65.8515 Q1755.84 65.8515 1761.64 60.1802 Q1767.47 54.509 1767.47 42.2752 Q1767.47 30.1225 1761.64 24.4918 Q1755.84 18.8205 1743.33 18.8205 L1733.44 18.8205 M1725.26 12.096 L1742.07 12.096 Q1759.65 12.096 1767.87 19.4281 Q1776.1 26.7198 1776.1 42.2752 Q1776.1 57.9117 1767.83 65.2439 Q1759.57 72.576 1742.07 72.576 L1725.26 72.576 L1725.26 12.096 Z" fill="#000000" fill-rule="nonzero" fill-opacity="1" /><path clip-path="url(#clip570)" d="M1827.63 48.0275 L1827.63 51.6733 L1793.35 51.6733 Q1793.84 59.3701 1797.97 63.421 Q1802.15 67.4314 1809.56 67.4314 Q1813.85 67.4314 1817.86 66.3781 Q1821.91 65.3249 1825.88 63.2184 L1825.88 70.267 Q1821.87 71.9684 1817.66 72.8596 Q1813.45 73.7508 1809.11 73.7508 Q1798.26 73.7508 1791.9 67.4314 Q1785.58 61.1119 1785.58 50.3365 Q1785.58 39.1965 1791.57 32.6746 Q1797.61 26.1121 1807.82 26.1121 Q1816.97 26.1121 1822.28 32.0264 Q1827.63 37.9003 1827.63 48.0275 M1820.17 45.84 Q1820.09 39.7232 1816.73 36.0774 Q1813.41 32.4315 1807.9 32.4315 Q1801.66 32.4315 1797.89 35.9558 Q1794.16 39.4801 1793.6 45.8805 L1820.17 45.84 Z" fill="#000000" fill-rule="nonzero" fill-opacity="1" /><path clip-path="url(#clip570)" d="M1877.57 45.1919 L1877.57 72.576 L1870.12 72.576 L1870.12 45.4349 Q1870.12 38.994 1867.61 35.7938 Q1865.1 32.5936 1860.07 32.5936 Q1854.04 32.5936 1850.55 36.4419 Q1847.07 40.2903 1847.07 46.9338 L1847.07 72.576 L1839.58 72.576 L1839.58 27.2059 L1847.07 27.2059 L1847.07 34.2544 Q1849.74 30.163 1853.35 28.1376 Q1856.99 26.1121 1861.73 26.1121 Q1869.55 26.1121 1873.56 30.9732 Q1877.57 35.7938 1877.57 45.1919 Z" fill="#000000" fill-rule="nonzero" fill-opacity="1" /><path clip-path="url(#clip570)" d="M1921.36 28.5427 L1921.36 35.5912 Q1918.2 33.9709 1914.8 33.1607 Q1911.4 32.3505 1907.75 32.3505 Q1902.2 32.3505 1899.41 34.0519 Q1896.65 35.7533 1896.65 39.156 Q1896.65 41.7486 1898.64 43.2475 Q1900.62 44.7058 1906.62 46.0426 L1909.17 46.6097 Q1917.11 48.3111 1920.43 51.4303 Q1923.79 54.509 1923.79 60.0587 Q1923.79 66.3781 1918.77 70.0644 Q1913.79 73.7508 1905.04 73.7508 Q1901.39 73.7508 1897.42 73.0216 Q1893.49 72.3329 1889.12 70.9151 L1889.12 63.2184 Q1893.25 65.3654 1897.26 66.4591 Q1901.27 67.5124 1905.2 67.5124 Q1910.47 67.5124 1913.3 65.73 Q1916.14 63.9071 1916.14 60.6258 Q1916.14 57.5877 1914.07 55.9673 Q1912.05 54.3469 1905.12 52.8481 L1902.53 52.2405 Q1895.6 50.7821 1892.52 47.7845 Q1889.44 44.7463 1889.44 39.4801 Q1889.44 33.0797 1893.98 29.5959 Q1898.52 26.1121 1906.86 26.1121 Q1910.99 26.1121 1914.64 26.7198 Q1918.28 27.3274 1921.36 28.5427 Z" fill="#000000" fill-rule="nonzero" fill-opacity="1" /><path clip-path="url(#clip570)" d="M1935.66 27.2059 L1943.12 27.2059 L1943.12 72.576 L1935.66 72.576 L1935.66 27.2059 M1935.66 9.54393 L1943.12 9.54393 L1943.12 18.9825 L1935.66 18.9825 L1935.66 9.54393 Z" fill="#000000" fill-rule="nonzero" fill-opacity="1" /><path clip-path="url(#clip570)" d="M1966.09 14.324 L1966.09 27.2059 L1981.44 27.2059 L1981.44 32.9987 L1966.09 32.9987 L1966.09 57.6282 Q1966.09 63.1779 1967.58 64.7578 Q1969.12 66.3376 1973.78 66.3376 L1981.44 66.3376 L1981.44 72.576 L1973.78 72.576 Q1965.15 72.576 1961.87 69.3758 Q1958.59 66.1351 1958.59 57.6282 L1958.59 32.9987 L1953.12 32.9987 L1953.12 27.2059 L1958.59 27.2059 L1958.59 14.324 L1966.09 14.324 Z" fill="#000000" fill-rule="nonzero" fill-opacity="1" /><path clip-path="url(#clip570)" d="M2010.12 76.7889 Q2006.96 84.8907 2003.96 87.3618 Q2000.96 89.8329 1995.94 89.8329 L1989.99 89.8329 L1989.99 83.5945 L1994.36 83.5945 Q1997.44 83.5945 1999.14 82.1361 Q2000.84 80.6778 2002.91 75.2496 L2004.24 71.8468 L1985.89 27.2059 L1993.79 27.2059 L2007.97 62.6918 L2022.15 27.2059 L2030.05 27.2059 L2010.12 76.7889 Z" fill="#000000" fill-rule="nonzero" fill-opacity="1" /><path clip-path="url(#clip570)" d="M2039.16 9.62495 L2045.65 9.62495 Q2051.72 19.1851 2054.72 28.3401 Q2057.76 37.4952 2057.76 46.5287 Q2057.76 55.6027 2054.72 64.7983 Q2051.72 73.9938 2045.65 83.5134 L2039.16 83.5134 Q2044.55 74.2369 2047.18 65.0818 Q2049.86 55.8863 2049.86 46.5287 Q2049.86 37.1711 2047.18 28.0566 Q2044.55 18.942 2039.16 9.62495 Z" fill="#000000" fill-rule="nonzero" fill-opacity="1" /><path clip-path="url(#clip572)" d="M235.413 1476.35 L235.413 1486.45 L326.054 1486.45 L326.054 1476.35 L235.413 1476.35 L235.413 1476.35  Z" fill="#009af9" fill-rule="evenodd" fill-opacity="0.6"/>
<polyline clip-path="url(#clip572)" style="stroke:#000000; stroke-linecap:round; stroke-linejoin:round; stroke-width:4; stroke-opacity:0.6; fill:none" points="235.413,1476.35 235.413,1486.45 326.054,1486.45 326.054,1476.35 235.413,1476.35 "/>
<path clip-path="url(#clip572)" d="M326.054 1466.26 L326.054 1486.45 L416.695 1486.45 L416.695 1466.26 L326.054 1466.26 L326.054 1466.26  Z" fill="#009af9" fill-rule="evenodd" fill-opacity="0.6"/>
<polyline clip-path="url(#clip572)" style="stroke:#000000; stroke-linecap:round; stroke-linejoin:round; stroke-width:4; stroke-opacity:0.6; fill:none" points="326.054,1466.26 326.054,1486.45 416.695,1486.45 416.695,1466.26 326.054,1466.26 "/>
<path clip-path="url(#clip572)" d="M416.695 1476.35 L416.695 1486.45 L507.337 1486.45 L507.337 1476.35 L416.695 1476.35 L416.695 1476.35  Z" fill="#009af9" fill-rule="evenodd" fill-opacity="0.6"/>
<polyline clip-path="url(#clip572)" style="stroke:#000000; stroke-linecap:round; stroke-linejoin:round; stroke-width:4; stroke-opacity:0.6; fill:none" points="416.695,1476.35 416.695,1486.45 507.337,1486.45 507.337,1476.35 416.695,1476.35 "/>
<path clip-path="url(#clip572)" d="M507.337 1405.68 L507.337 1486.45 L597.978 1486.45 L597.978 1405.68 L507.337 1405.68 L507.337 1405.68  Z" fill="#009af9" fill-rule="evenodd" fill-opacity="0.6"/>
<polyline clip-path="url(#clip572)" style="stroke:#000000; stroke-linecap:round; stroke-linejoin:round; stroke-width:4; stroke-opacity:0.6; fill:none" points="507.337,1405.68 507.337,1486.45 597.978,1486.45 597.978,1405.68 507.337,1405.68 "/>
<path clip-path="url(#clip572)" d="M597.978 1415.78 L597.978 1486.45 L688.619 1486.45 L688.619 1415.78 L597.978 1415.78 L597.978 1415.78  Z" fill="#009af9" fill-rule="evenodd" fill-opacity="0.6"/>
<polyline clip-path="url(#clip572)" style="stroke:#000000; stroke-linecap:round; stroke-linejoin:round; stroke-width:4; stroke-opacity:0.6; fill:none" points="597.978,1415.78 597.978,1486.45 688.619,1486.45 688.619,1415.78 597.978,1415.78 "/>
<path clip-path="url(#clip572)" d="M688.619 1335.01 L688.619 1486.45 L779.26 1486.45 L779.26 1335.01 L688.619 1335.01 L688.619 1335.01  Z" fill="#009af9" fill-rule="evenodd" fill-opacity="0.6"/>
<polyline clip-path="url(#clip572)" style="stroke:#000000; stroke-linecap:round; stroke-linejoin:round; stroke-width:4; stroke-opacity:0.6; fill:none" points="688.619,1335.01 688.619,1486.45 779.26,1486.45 779.26,1335.01 688.619,1335.01 "/>
<path clip-path="url(#clip572)" d="M779.26 1082.6 L779.26 1486.45 L869.902 1486.45 L869.902 1082.6 L779.26 1082.6 L779.26 1082.6  Z" fill="#009af9" fill-rule="evenodd" fill-opacity="0.6"/>
<polyline clip-path="url(#clip572)" style="stroke:#000000; stroke-linecap:round; stroke-linejoin:round; stroke-width:4; stroke-opacity:0.6; fill:none" points="779.26,1082.6 779.26,1486.45 869.902,1486.45 869.902,1082.6 779.26,1082.6 "/>
<path clip-path="url(#clip572)" d="M869.902 789.816 L869.902 1486.45 L960.543 1486.45 L960.543 789.816 L869.902 789.816 L869.902 789.816  Z" fill="#009af9" fill-rule="evenodd" fill-opacity="0.6"/>
<polyline clip-path="url(#clip572)" style="stroke:#000000; stroke-linecap:round; stroke-linejoin:round; stroke-width:4; stroke-opacity:0.6; fill:none" points="869.902,789.816 869.902,1486.45 960.543,1486.45 960.543,789.816 869.902,789.816 "/>
<path clip-path="url(#clip572)" d="M960.543 557.605 L960.543 1486.45 L1051.18 1486.45 L1051.18 557.605 L960.543 557.605 L960.543 557.605  Z" fill="#009af9" fill-rule="evenodd" fill-opacity="0.6"/>
<polyline clip-path="url(#clip572)" style="stroke:#000000; stroke-linecap:round; stroke-linejoin:round; stroke-width:4; stroke-opacity:0.6; fill:none" points="960.543,557.605 960.543,1486.45 1051.18,1486.45 1051.18,557.605 960.543,557.605 "/>
<path clip-path="url(#clip572)" d="M1051.18 406.163 L1051.18 1486.45 L1141.83 1486.45 L1141.83 406.163 L1051.18 406.163 L1051.18 406.163  Z" fill="#009af9" fill-rule="evenodd" fill-opacity="0.6"/>
<polyline clip-path="url(#clip572)" style="stroke:#000000; stroke-linecap:round; stroke-linejoin:round; stroke-width:4; stroke-opacity:0.6; fill:none" points="1051.18,406.163 1051.18,1486.45 1141.83,1486.45 1141.83,406.163 1051.18,406.163 "/>
<path clip-path="url(#clip572)" d="M1141.83 123.472 L1141.83 1486.45 L1232.47 1486.45 L1232.47 123.472 L1141.83 123.472 L1141.83 123.472  Z" fill="#009af9" fill-rule="evenodd" fill-opacity="0.6"/>
<polyline clip-path="url(#clip572)" style="stroke:#000000; stroke-linecap:round; stroke-linejoin:round; stroke-width:4; stroke-opacity:0.6; fill:none" points="1141.83,123.472 1141.83,1486.45 1232.47,1486.45 1232.47,123.472 1141.83,123.472 "/>
<path clip-path="url(#clip572)" d="M1232.47 234.529 L1232.47 1486.45 L1323.11 1486.45 L1323.11 234.529 L1232.47 234.529 L1232.47 234.529  Z" fill="#009af9" fill-rule="evenodd" fill-opacity="0.6"/>
<polyline clip-path="url(#clip572)" style="stroke:#000000; stroke-linecap:round; stroke-linejoin:round; stroke-width:4; stroke-opacity:0.6; fill:none" points="1232.47,234.529 1232.47,1486.45 1323.11,1486.45 1323.11,234.529 1232.47,234.529 "/>
<path clip-path="url(#clip572)" d="M1323.11 234.529 L1323.11 1486.45 L1413.75 1486.45 L1413.75 234.529 L1323.11 234.529 L1323.11 234.529  Z" fill="#009af9" fill-rule="evenodd" fill-opacity="0.6"/>
<polyline clip-path="url(#clip572)" style="stroke:#000000; stroke-linecap:round; stroke-linejoin:round; stroke-width:4; stroke-opacity:0.6; fill:none" points="1323.11,234.529 1323.11,1486.45 1413.75,1486.45 1413.75,234.529 1323.11,234.529 "/>
<path clip-path="url(#clip572)" d="M1413.75 547.509 L1413.75 1486.45 L1504.39 1486.45 L1504.39 547.509 L1413.75 547.509 L1413.75 547.509  Z" fill="#009af9" fill-rule="evenodd" fill-opacity="0.6"/>
<polyline clip-path="url(#clip572)" style="stroke:#000000; stroke-linecap:round; stroke-linejoin:round; stroke-width:4; stroke-opacity:0.6; fill:none" points="1413.75,547.509 1413.75,1486.45 1504.39,1486.45 1504.39,547.509 1413.75,547.509 "/>
<path clip-path="url(#clip572)" d="M1504.39 890.777 L1504.39 1486.45 L1595.03 1486.45 L1595.03 890.777 L1504.39 890.777 L1504.39 890.777  Z" fill="#009af9" fill-rule="evenodd" fill-opacity="0.6"/>
<polyline clip-path="url(#clip572)" style="stroke:#000000; stroke-linecap:round; stroke-linejoin:round; stroke-width:4; stroke-opacity:0.6; fill:none" points="1504.39,890.777 1504.39,1486.45 1595.03,1486.45 1595.03,890.777 1504.39,890.777 "/>
<path clip-path="url(#clip572)" d="M1595.03 991.738 L1595.03 1486.45 L1685.67 1486.45 L1685.67 991.738 L1595.03 991.738 L1595.03 991.738  Z" fill="#009af9" fill-rule="evenodd" fill-opacity="0.6"/>
<polyline clip-path="url(#clip572)" style="stroke:#000000; stroke-linecap:round; stroke-linejoin:round; stroke-width:4; stroke-opacity:0.6; fill:none" points="1595.03,991.738 1595.03,1486.45 1685.67,1486.45 1685.67,991.738 1595.03,991.738 "/>
<path clip-path="url(#clip572)" d="M1685.67 1133.08 L1685.67 1486.45 L1776.31 1486.45 L1776.31 1133.08 L1685.67 1133.08 L1685.67 1133.08  Z" fill="#009af9" fill-rule="evenodd" fill-opacity="0.6"/>
<polyline clip-path="url(#clip572)" style="stroke:#000000; stroke-linecap:round; stroke-linejoin:round; stroke-width:4; stroke-opacity:0.6; fill:none" points="1685.67,1133.08 1685.67,1486.45 1776.31,1486.45 1776.31,1133.08 1685.67,1133.08 "/>
<path clip-path="url(#clip572)" d="M1776.31 1244.14 L1776.31 1486.45 L1866.96 1486.45 L1866.96 1244.14 L1776.31 1244.14 L1776.31 1244.14  Z" fill="#009af9" fill-rule="evenodd" fill-opacity="0.6"/>
<polyline clip-path="url(#clip572)" style="stroke:#000000; stroke-linecap:round; stroke-linejoin:round; stroke-width:4; stroke-opacity:0.6; fill:none" points="1776.31,1244.14 1776.31,1486.45 1866.96,1486.45 1866.96,1244.14 1776.31,1244.14 "/>
<path clip-path="url(#clip572)" d="M1866.96 1415.78 L1866.96 1486.45 L1957.6 1486.45 L1957.6 1415.78 L1866.96 1415.78 L1866.96 1415.78  Z" fill="#009af9" fill-rule="evenodd" fill-opacity="0.6"/>
<polyline clip-path="url(#clip572)" style="stroke:#000000; stroke-linecap:round; stroke-linejoin:round; stroke-width:4; stroke-opacity:0.6; fill:none" points="1866.96,1415.78 1866.96,1486.45 1957.6,1486.45 1957.6,1415.78 1866.96,1415.78 "/>
<path clip-path="url(#clip572)" d="M1957.6 1446.06 L1957.6 1486.45 L2048.24 1486.45 L2048.24 1446.06 L1957.6 1446.06 L1957.6 1446.06  Z" fill="#009af9" fill-rule="evenodd" fill-opacity="0.6"/>
<polyline clip-path="url(#clip572)" style="stroke:#000000; stroke-linecap:round; stroke-linejoin:round; stroke-width:4; stroke-opacity:0.6; fill:none" points="1957.6,1446.06 1957.6,1486.45 2048.24,1486.45 2048.24,1446.06 1957.6,1446.06 "/>
<path clip-path="url(#clip572)" d="M2048.24 1456.16 L2048.24 1486.45 L2138.88 1486.45 L2138.88 1456.16 L2048.24 1456.16 L2048.24 1456.16  Z" fill="#009af9" fill-rule="evenodd" fill-opacity="0.6"/>
<polyline clip-path="url(#clip572)" style="stroke:#000000; stroke-linecap:round; stroke-linejoin:round; stroke-width:4; stroke-opacity:0.6; fill:none" points="2048.24,1456.16 2048.24,1486.45 2138.88,1486.45 2138.88,1456.16 2048.24,1456.16 "/>
<path clip-path="url(#clip572)" d="M2138.88 1476.35 L2138.88 1486.45 L2229.52 1486.45 L2229.52 1476.35 L2138.88 1476.35 L2138.88 1476.35  Z" fill="#009af9" fill-rule="evenodd" fill-opacity="0.6"/>
<polyline clip-path="url(#clip572)" style="stroke:#000000; stroke-linecap:round; stroke-linejoin:round; stroke-width:4; stroke-opacity:0.6; fill:none" points="2138.88,1476.35 2138.88,1486.45 2229.52,1486.45 2229.52,1476.35 2138.88,1476.35 "/>
<circle clip-path="url(#clip572)" style="fill:#009af9; stroke:none; fill-opacity:0" cx="280.734" cy="1476.35" r="2"/>
<circle clip-path="url(#clip572)" style="fill:#009af9; stroke:none; fill-opacity:0" cx="371.375" cy="1466.26" r="2"/>
<circle clip-path="url(#clip572)" style="fill:#009af9; stroke:none; fill-opacity:0" cx="462.016" cy="1476.35" r="2"/>
<circle clip-path="url(#clip572)" style="fill:#009af9; stroke:none; fill-opacity:0" cx="552.657" cy="1405.68" r="2"/>
<circle clip-path="url(#clip572)" style="fill:#009af9; stroke:none; fill-opacity:0" cx="643.299" cy="1415.78" r="2"/>
<circle clip-path="url(#clip572)" style="fill:#009af9; stroke:none; fill-opacity:0" cx="733.94" cy="1335.01" r="2"/>
<circle clip-path="url(#clip572)" style="fill:#009af9; stroke:none; fill-opacity:0" cx="824.581" cy="1082.6" r="2"/>
<circle clip-path="url(#clip572)" style="fill:#009af9; stroke:none; fill-opacity:0" cx="915.222" cy="789.816" r="2"/>
<circle clip-path="url(#clip572)" style="fill:#009af9; stroke:none; fill-opacity:0" cx="1005.86" cy="557.605" r="2"/>
<circle clip-path="url(#clip572)" style="fill:#009af9; stroke:none; fill-opacity:0" cx="1096.5" cy="406.163" r="2"/>
<circle clip-path="url(#clip572)" style="fill:#009af9; stroke:none; fill-opacity:0" cx="1187.15" cy="123.472" r="2"/>
<circle clip-path="url(#clip572)" style="fill:#009af9; stroke:none; fill-opacity:0" cx="1277.79" cy="234.529" r="2"/>
<circle clip-path="url(#clip572)" style="fill:#009af9; stroke:none; fill-opacity:0" cx="1368.43" cy="234.529" r="2"/>
<circle clip-path="url(#clip572)" style="fill:#009af9; stroke:none; fill-opacity:0" cx="1459.07" cy="547.509" r="2"/>
<circle clip-path="url(#clip572)" style="fill:#009af9; stroke:none; fill-opacity:0" cx="1549.71" cy="890.777" r="2"/>
<circle clip-path="url(#clip572)" style="fill:#009af9; stroke:none; fill-opacity:0" cx="1640.35" cy="991.738" r="2"/>
<circle clip-path="url(#clip572)" style="fill:#009af9; stroke:none; fill-opacity:0" cx="1730.99" cy="1133.08" r="2"/>
<circle clip-path="url(#clip572)" style="fill:#009af9; stroke:none; fill-opacity:0" cx="1821.63" cy="1244.14" r="2"/>
<circle clip-path="url(#clip572)" style="fill:#009af9; stroke:none; fill-opacity:0" cx="1912.28" cy="1415.78" r="2"/>
<circle clip-path="url(#clip572)" style="fill:#009af9; stroke:none; fill-opacity:0" cx="2002.92" cy="1446.06" r="2"/>
<circle clip-path="url(#clip572)" style="fill:#009af9; stroke:none; fill-opacity:0" cx="2093.56" cy="1456.16" r="2"/>
<circle clip-path="url(#clip572)" style="fill:#009af9; stroke:none; fill-opacity:0" cx="2184.2" cy="1476.35" r="2"/>
<path clip-path="url(#clip570)" d="M1932.62 272.585 L2278.07 272.585 L2278.07 168.905 L1932.62 168.905  Z" fill="#ffffff" fill-rule="evenodd" fill-opacity="1"/>
<polyline clip-path="url(#clip570)" style="stroke:#000000; stroke-linecap:round; stroke-linejoin:round; stroke-width:4; stroke-opacity:1; fill:none" points="1932.62,272.585 2278.07,272.585 2278.07,168.905 1932.62,168.905 1932.62,272.585 "/>
<path clip-path="url(#clip570)" d="M1957.52 241.481 L2106.89 241.481 L2106.89 200.009 L1957.52 200.009 L1957.52 241.481  Z" fill="#009af9" fill-rule="evenodd" fill-opacity="0.6"/>
<polyline clip-path="url(#clip570)" style="stroke:#000000; stroke-linecap:round; stroke-linejoin:round; stroke-width:4; stroke-opacity:1; fill:none" points="1957.52,241.481 2106.89,241.481 2106.89,200.009 1957.52,200.009 1957.52,241.481 "/>
<path clip-path="url(#clip570)" d="M2150.56 225.085 Q2150.56 220.386 2148.62 217.724 Q2146.69 215.039 2143.31 215.039 Q2139.93 215.039 2137.99 217.724 Q2136.07 220.386 2136.07 225.085 Q2136.07 229.784 2137.99 232.469 Q2139.93 235.131 2143.31 235.131 Q2146.69 235.131 2148.62 232.469 Q2150.56 229.784 2150.56 225.085 M2136.07 216.034 Q2137.41 213.719 2139.45 212.608 Q2141.51 211.474 2144.36 211.474 Q2149.08 211.474 2152.02 215.224 Q2154.98 218.974 2154.98 225.085 Q2154.98 231.196 2152.02 234.946 Q2149.08 238.696 2144.36 238.696 Q2141.51 238.696 2139.45 237.585 Q2137.41 236.451 2136.07 234.136 L2136.07 238.025 L2131.79 238.025 L2131.79 202.006 L2136.07 202.006 L2136.07 216.034 Z" fill="#000000" fill-rule="nonzero" fill-opacity="1" /><path clip-path="url(#clip570)" d="M2162.04 202.006 L2166.3 202.006 L2166.3 238.025 L2162.04 238.025 L2162.04 202.006 Z" fill="#000000" fill-rule="nonzero" fill-opacity="1" /><path clip-path="url(#clip570)" d="M2186.99 224.992 Q2181.83 224.992 2179.84 226.173 Q2177.85 227.353 2177.85 230.201 Q2177.85 232.469 2179.33 233.812 Q2180.84 235.131 2183.41 235.131 Q2186.95 235.131 2189.08 232.631 Q2191.23 230.108 2191.23 225.941 L2191.23 224.992 L2186.99 224.992 M2195.49 223.233 L2195.49 238.025 L2191.23 238.025 L2191.23 234.089 Q2189.77 236.451 2187.6 237.585 Q2185.42 238.696 2182.27 238.696 Q2178.29 238.696 2175.93 236.474 Q2173.59 234.228 2173.59 230.478 Q2173.59 226.103 2176.51 223.881 Q2179.45 221.659 2185.26 221.659 L2191.23 221.659 L2191.23 221.242 Q2191.23 218.303 2189.29 216.705 Q2187.36 215.085 2183.87 215.085 Q2181.65 215.085 2179.54 215.617 Q2177.43 216.15 2175.49 217.215 L2175.49 213.279 Q2177.83 212.377 2180.03 211.937 Q2182.23 211.474 2184.31 211.474 Q2189.93 211.474 2192.71 214.391 Q2195.49 217.307 2195.49 223.233 Z" fill="#000000" fill-rule="nonzero" fill-opacity="1" /><path clip-path="url(#clip570)" d="M2222.92 213.094 L2222.92 217.076 Q2221.11 216.08 2219.29 215.594 Q2217.48 215.085 2215.63 215.085 Q2211.49 215.085 2209.19 217.724 Q2206.9 220.34 2206.9 225.085 Q2206.9 229.83 2209.19 232.469 Q2211.49 235.085 2215.63 235.085 Q2217.48 235.085 2219.29 234.599 Q2221.11 234.089 2222.92 233.094 L2222.92 237.029 Q2221.14 237.863 2219.22 238.279 Q2217.32 238.696 2215.17 238.696 Q2209.31 238.696 2205.86 235.015 Q2202.41 231.335 2202.41 225.085 Q2202.41 218.742 2205.88 215.108 Q2209.38 211.474 2215.44 211.474 Q2217.41 211.474 2219.29 211.891 Q2221.16 212.284 2222.92 213.094 Z" fill="#000000" fill-rule="nonzero" fill-opacity="1" /><path clip-path="url(#clip570)" d="M2230.17 202.006 L2234.45 202.006 L2234.45 223.279 L2247.16 212.099 L2252.6 212.099 L2238.85 224.228 L2253.17 238.025 L2247.62 238.025 L2234.45 225.363 L2234.45 238.025 L2230.17 238.025 L2230.17 202.006 Z" fill="#000000" fill-rule="nonzero" fill-opacity="1" /></svg>